G04 #@! TF.GenerationSoftware,KiCad,Pcbnew,(5.1.5)-3*
G04 #@! TF.CreationDate,2021-09-09T23:23:36-04:00*
G04 #@! TF.ProjectId,numpad_pcb,6e756d70-6164-45f7-9063-622e6b696361,rev?*
G04 #@! TF.SameCoordinates,Original*
G04 #@! TF.FileFunction,Soldermask,Bot*
G04 #@! TF.FilePolarity,Negative*
%FSLAX46Y46*%
G04 Gerber Fmt 4.6, Leading zero omitted, Abs format (unit mm)*
G04 Created by KiCad (PCBNEW (5.1.5)-3) date 2021-09-09 23:23:36*
%MOMM*%
%LPD*%
G04 APERTURE LIST*
%ADD10C,0.100000*%
G04 APERTURE END LIST*
D10*
G36*
X99645267Y-182190263D02*
G01*
X99797411Y-182220526D01*
X99916137Y-182269704D01*
X100084041Y-182339252D01*
X100084042Y-182339253D01*
X100342004Y-182511617D01*
X100561383Y-182730996D01*
X100676553Y-182903361D01*
X100733748Y-182988959D01*
X100852474Y-183275590D01*
X100913000Y-183579875D01*
X100913000Y-183890125D01*
X100852474Y-184194410D01*
X100733748Y-184481041D01*
X100733747Y-184481042D01*
X100561383Y-184739004D01*
X100342004Y-184958383D01*
X100169639Y-185073553D01*
X100084041Y-185130748D01*
X99916137Y-185200296D01*
X99797411Y-185249474D01*
X99645267Y-185279737D01*
X99493125Y-185310000D01*
X99182875Y-185310000D01*
X99030733Y-185279737D01*
X98878589Y-185249474D01*
X98759863Y-185200296D01*
X98591959Y-185130748D01*
X98506361Y-185073553D01*
X98333996Y-184958383D01*
X98114617Y-184739004D01*
X97942253Y-184481042D01*
X97942252Y-184481041D01*
X97823526Y-184194410D01*
X97763000Y-183890125D01*
X97763000Y-183579875D01*
X97823526Y-183275590D01*
X97942252Y-182988959D01*
X97999447Y-182903361D01*
X98114617Y-182730996D01*
X98333996Y-182511617D01*
X98591958Y-182339253D01*
X98591959Y-182339252D01*
X98759863Y-182269704D01*
X98878589Y-182220526D01*
X99030733Y-182190263D01*
X99182875Y-182160000D01*
X99493125Y-182160000D01*
X99645267Y-182190263D01*
G37*
G36*
X75769267Y-182190263D02*
G01*
X75921411Y-182220526D01*
X76040137Y-182269704D01*
X76208041Y-182339252D01*
X76208042Y-182339253D01*
X76466004Y-182511617D01*
X76685383Y-182730996D01*
X76800553Y-182903361D01*
X76857748Y-182988959D01*
X76976474Y-183275590D01*
X77037000Y-183579875D01*
X77037000Y-183890125D01*
X76976474Y-184194410D01*
X76857748Y-184481041D01*
X76857747Y-184481042D01*
X76685383Y-184739004D01*
X76466004Y-184958383D01*
X76293639Y-185073553D01*
X76208041Y-185130748D01*
X76040137Y-185200296D01*
X75921411Y-185249474D01*
X75769267Y-185279737D01*
X75617125Y-185310000D01*
X75306875Y-185310000D01*
X75154733Y-185279737D01*
X75002589Y-185249474D01*
X74883863Y-185200296D01*
X74715959Y-185130748D01*
X74630361Y-185073553D01*
X74457996Y-184958383D01*
X74238617Y-184739004D01*
X74066253Y-184481042D01*
X74066252Y-184481041D01*
X73947526Y-184194410D01*
X73887000Y-183890125D01*
X73887000Y-183579875D01*
X73947526Y-183275590D01*
X74066252Y-182988959D01*
X74123447Y-182903361D01*
X74238617Y-182730996D01*
X74457996Y-182511617D01*
X74715958Y-182339253D01*
X74715959Y-182339252D01*
X74883863Y-182269704D01*
X75002589Y-182220526D01*
X75154733Y-182190263D01*
X75306875Y-182160000D01*
X75617125Y-182160000D01*
X75769267Y-182190263D01*
G37*
G36*
X114806425Y-180831988D02*
G01*
X114972710Y-180865063D01*
X115155336Y-180940709D01*
X115319694Y-181050530D01*
X115459470Y-181190306D01*
X115569291Y-181354664D01*
X115644937Y-181537290D01*
X115683500Y-181731164D01*
X115683500Y-181928836D01*
X115644937Y-182122710D01*
X115569291Y-182305336D01*
X115459470Y-182469694D01*
X115319694Y-182609470D01*
X115155336Y-182719291D01*
X114972710Y-182794937D01*
X114806425Y-182828012D01*
X114778837Y-182833500D01*
X114581163Y-182833500D01*
X114553575Y-182828012D01*
X114387290Y-182794937D01*
X114204664Y-182719291D01*
X114040306Y-182609470D01*
X113900530Y-182469694D01*
X113790709Y-182305336D01*
X113715063Y-182122710D01*
X113676500Y-181928836D01*
X113676500Y-181731164D01*
X113715063Y-181537290D01*
X113790709Y-181354664D01*
X113900530Y-181190306D01*
X114040306Y-181050530D01*
X114204664Y-180940709D01*
X114387290Y-180865063D01*
X114553575Y-180831988D01*
X114581163Y-180826500D01*
X114778837Y-180826500D01*
X114806425Y-180831988D01*
G37*
G36*
X118223500Y-182833500D02*
G01*
X116216500Y-182833500D01*
X116216500Y-180826500D01*
X118223500Y-180826500D01*
X118223500Y-182833500D01*
G37*
G36*
X87133500Y-182833500D02*
G01*
X85126500Y-182833500D01*
X85126500Y-180826500D01*
X87133500Y-180826500D01*
X87133500Y-182833500D01*
G37*
G36*
X88796425Y-180831988D02*
G01*
X88962710Y-180865063D01*
X89145336Y-180940709D01*
X89309694Y-181050530D01*
X89449470Y-181190306D01*
X89559291Y-181354664D01*
X89634937Y-181537290D01*
X89673500Y-181731164D01*
X89673500Y-181928836D01*
X89634937Y-182122710D01*
X89559291Y-182305336D01*
X89449470Y-182469694D01*
X89309694Y-182609470D01*
X89145336Y-182719291D01*
X88962710Y-182794937D01*
X88796425Y-182828012D01*
X88768837Y-182833500D01*
X88571163Y-182833500D01*
X88543575Y-182828012D01*
X88377290Y-182794937D01*
X88194664Y-182719291D01*
X88030306Y-182609470D01*
X87890530Y-182469694D01*
X87780709Y-182305336D01*
X87705063Y-182122710D01*
X87666500Y-181928836D01*
X87666500Y-181731164D01*
X87705063Y-181537290D01*
X87780709Y-181354664D01*
X87890530Y-181190306D01*
X88030306Y-181050530D01*
X88194664Y-180940709D01*
X88377290Y-180865063D01*
X88543575Y-180831988D01*
X88571163Y-180826500D01*
X88768837Y-180826500D01*
X88796425Y-180831988D01*
G37*
G36*
X127391474Y-177171684D02*
G01*
X127609474Y-177261983D01*
X127763623Y-177325833D01*
X128098548Y-177549623D01*
X128383377Y-177834452D01*
X128607167Y-178169377D01*
X128607167Y-178169378D01*
X128761316Y-178541526D01*
X128839900Y-178936594D01*
X128839900Y-179339406D01*
X128761316Y-179734474D01*
X128699363Y-179884041D01*
X128607167Y-180106623D01*
X128383377Y-180441548D01*
X128098548Y-180726377D01*
X127763623Y-180950167D01*
X127609474Y-181014017D01*
X127391474Y-181104316D01*
X126996406Y-181182900D01*
X126593594Y-181182900D01*
X126198526Y-181104316D01*
X125980526Y-181014017D01*
X125826377Y-180950167D01*
X125491452Y-180726377D01*
X125206623Y-180441548D01*
X124982833Y-180106623D01*
X124890637Y-179884041D01*
X124828684Y-179734474D01*
X124750100Y-179339406D01*
X124750100Y-178936594D01*
X124828684Y-178541526D01*
X124982833Y-178169378D01*
X124982833Y-178169377D01*
X125206623Y-177834452D01*
X125491452Y-177549623D01*
X125826377Y-177325833D01*
X125980526Y-177261983D01*
X126198526Y-177171684D01*
X126593594Y-177093100D01*
X126996406Y-177093100D01*
X127391474Y-177171684D01*
G37*
G36*
X142494411Y-177623526D02*
G01*
X142535184Y-177640415D01*
X142781041Y-177742252D01*
X142781042Y-177742253D01*
X143039004Y-177914617D01*
X143258383Y-178133996D01*
X143282024Y-178169378D01*
X143430748Y-178391959D01*
X143492700Y-178541525D01*
X143549474Y-178678589D01*
X143610000Y-178982875D01*
X143610000Y-179293125D01*
X143549474Y-179597410D01*
X143430748Y-179884041D01*
X143430747Y-179884042D01*
X143258383Y-180142004D01*
X143039004Y-180361383D01*
X142919028Y-180441548D01*
X142781041Y-180533748D01*
X142613137Y-180603296D01*
X142494411Y-180652474D01*
X142342267Y-180682737D01*
X142190125Y-180713000D01*
X141879875Y-180713000D01*
X141727733Y-180682737D01*
X141575589Y-180652474D01*
X141456863Y-180603296D01*
X141288959Y-180533748D01*
X141150972Y-180441548D01*
X141030996Y-180361383D01*
X140811617Y-180142004D01*
X140639253Y-179884042D01*
X140639252Y-179884041D01*
X140520526Y-179597410D01*
X140460000Y-179293125D01*
X140460000Y-178982875D01*
X140520526Y-178678589D01*
X140577300Y-178541525D01*
X140639252Y-178391959D01*
X140787976Y-178169378D01*
X140811617Y-178133996D01*
X141030996Y-177914617D01*
X141288958Y-177742253D01*
X141288959Y-177742252D01*
X141534816Y-177640415D01*
X141575589Y-177623526D01*
X141879875Y-177563000D01*
X142190125Y-177563000D01*
X142494411Y-177623526D01*
G37*
G36*
X116546474Y-174783684D02*
G01*
X116764474Y-174873983D01*
X116918623Y-174937833D01*
X117253548Y-175161623D01*
X117538377Y-175446452D01*
X117762167Y-175781377D01*
X117794562Y-175859586D01*
X117916316Y-176153526D01*
X117994900Y-176548594D01*
X117994900Y-176951406D01*
X117916316Y-177346474D01*
X117865451Y-177469272D01*
X117762167Y-177718623D01*
X117538377Y-178053548D01*
X117253548Y-178338377D01*
X116918623Y-178562167D01*
X116764474Y-178626017D01*
X116546474Y-178716316D01*
X116151406Y-178794900D01*
X115748594Y-178794900D01*
X115353526Y-178716316D01*
X115135526Y-178626017D01*
X114981377Y-178562167D01*
X114646452Y-178338377D01*
X114361623Y-178053548D01*
X114137833Y-177718623D01*
X114034549Y-177469272D01*
X113983684Y-177346474D01*
X113905100Y-176951406D01*
X113905100Y-176548594D01*
X113983684Y-176153526D01*
X114105438Y-175859586D01*
X114137833Y-175781377D01*
X114361623Y-175446452D01*
X114646452Y-175161623D01*
X114981377Y-174937833D01*
X115135526Y-174873983D01*
X115353526Y-174783684D01*
X115748594Y-174705100D01*
X116151406Y-174705100D01*
X116546474Y-174783684D01*
G37*
G36*
X87996474Y-174783684D02*
G01*
X88214474Y-174873983D01*
X88368623Y-174937833D01*
X88703548Y-175161623D01*
X88988377Y-175446452D01*
X89212167Y-175781377D01*
X89244562Y-175859586D01*
X89366316Y-176153526D01*
X89444900Y-176548594D01*
X89444900Y-176951406D01*
X89366316Y-177346474D01*
X89315451Y-177469272D01*
X89212167Y-177718623D01*
X88988377Y-178053548D01*
X88703548Y-178338377D01*
X88368623Y-178562167D01*
X88214474Y-178626017D01*
X87996474Y-178716316D01*
X87601406Y-178794900D01*
X87198594Y-178794900D01*
X86803526Y-178716316D01*
X86585526Y-178626017D01*
X86431377Y-178562167D01*
X86096452Y-178338377D01*
X85811623Y-178053548D01*
X85587833Y-177718623D01*
X85484549Y-177469272D01*
X85433684Y-177346474D01*
X85355100Y-176951406D01*
X85355100Y-176548594D01*
X85433684Y-176153526D01*
X85555438Y-175859586D01*
X85587833Y-175781377D01*
X85811623Y-175446452D01*
X86096452Y-175161623D01*
X86431377Y-174937833D01*
X86585526Y-174873983D01*
X86803526Y-174783684D01*
X87198594Y-174705100D01*
X87601406Y-174705100D01*
X87996474Y-174783684D01*
G37*
G36*
X92750104Y-175859585D02*
G01*
X92918626Y-175929389D01*
X93070291Y-176030728D01*
X93199272Y-176159709D01*
X93300611Y-176311374D01*
X93370415Y-176479896D01*
X93406000Y-176658797D01*
X93406000Y-176841203D01*
X93370415Y-177020104D01*
X93300611Y-177188626D01*
X93199272Y-177340291D01*
X93070291Y-177469272D01*
X92918626Y-177570611D01*
X92750104Y-177640415D01*
X92571203Y-177676000D01*
X92388797Y-177676000D01*
X92209896Y-177640415D01*
X92041374Y-177570611D01*
X91889709Y-177469272D01*
X91760728Y-177340291D01*
X91659389Y-177188626D01*
X91589585Y-177020104D01*
X91554000Y-176841203D01*
X91554000Y-176658797D01*
X91589585Y-176479896D01*
X91659389Y-176311374D01*
X91760728Y-176159709D01*
X91889709Y-176030728D01*
X92041374Y-175929389D01*
X92209896Y-175859585D01*
X92388797Y-175824000D01*
X92571203Y-175824000D01*
X92750104Y-175859585D01*
G37*
G36*
X121300104Y-175859585D02*
G01*
X121468626Y-175929389D01*
X121620291Y-176030728D01*
X121749272Y-176159709D01*
X121850611Y-176311374D01*
X121920415Y-176479896D01*
X121956000Y-176658797D01*
X121956000Y-176841203D01*
X121920415Y-177020104D01*
X121850611Y-177188626D01*
X121749272Y-177340291D01*
X121620291Y-177469272D01*
X121468626Y-177570611D01*
X121300104Y-177640415D01*
X121121203Y-177676000D01*
X120938797Y-177676000D01*
X120759896Y-177640415D01*
X120591374Y-177570611D01*
X120439709Y-177469272D01*
X120310728Y-177340291D01*
X120209389Y-177188626D01*
X120139585Y-177020104D01*
X120104000Y-176841203D01*
X120104000Y-176658797D01*
X120139585Y-176479896D01*
X120209389Y-176311374D01*
X120310728Y-176159709D01*
X120439709Y-176030728D01*
X120591374Y-175929389D01*
X120759896Y-175859585D01*
X120938797Y-175824000D01*
X121121203Y-175824000D01*
X121300104Y-175859585D01*
G37*
G36*
X111140104Y-175859585D02*
G01*
X111308626Y-175929389D01*
X111460291Y-176030728D01*
X111589272Y-176159709D01*
X111690611Y-176311374D01*
X111760415Y-176479896D01*
X111796000Y-176658797D01*
X111796000Y-176841203D01*
X111760415Y-177020104D01*
X111690611Y-177188626D01*
X111589272Y-177340291D01*
X111460291Y-177469272D01*
X111308626Y-177570611D01*
X111140104Y-177640415D01*
X110961203Y-177676000D01*
X110778797Y-177676000D01*
X110599896Y-177640415D01*
X110431374Y-177570611D01*
X110279709Y-177469272D01*
X110150728Y-177340291D01*
X110049389Y-177188626D01*
X109979585Y-177020104D01*
X109944000Y-176841203D01*
X109944000Y-176658797D01*
X109979585Y-176479896D01*
X110049389Y-176311374D01*
X110150728Y-176159709D01*
X110279709Y-176030728D01*
X110431374Y-175929389D01*
X110599896Y-175859585D01*
X110778797Y-175824000D01*
X110961203Y-175824000D01*
X111140104Y-175859585D01*
G37*
G36*
X82590104Y-175859585D02*
G01*
X82758626Y-175929389D01*
X82910291Y-176030728D01*
X83039272Y-176159709D01*
X83140611Y-176311374D01*
X83210415Y-176479896D01*
X83246000Y-176658797D01*
X83246000Y-176841203D01*
X83210415Y-177020104D01*
X83140611Y-177188626D01*
X83039272Y-177340291D01*
X82910291Y-177469272D01*
X82758626Y-177570611D01*
X82590104Y-177640415D01*
X82411203Y-177676000D01*
X82228797Y-177676000D01*
X82049896Y-177640415D01*
X81881374Y-177570611D01*
X81729709Y-177469272D01*
X81600728Y-177340291D01*
X81499389Y-177188626D01*
X81429585Y-177020104D01*
X81394000Y-176841203D01*
X81394000Y-176658797D01*
X81429585Y-176479896D01*
X81499389Y-176311374D01*
X81600728Y-176159709D01*
X81729709Y-176030728D01*
X81881374Y-175929389D01*
X82049896Y-175859585D01*
X82228797Y-175824000D01*
X82411203Y-175824000D01*
X82590104Y-175859585D01*
G37*
G36*
X83781560Y-173049064D02*
G01*
X83933027Y-173079193D01*
X84147045Y-173167842D01*
X84211249Y-173210742D01*
X84339654Y-173296539D01*
X84503461Y-173460346D01*
X84589258Y-173588751D01*
X84632158Y-173652955D01*
X84720807Y-173866973D01*
X84766000Y-174094174D01*
X84766000Y-174325826D01*
X84720807Y-174553027D01*
X84632158Y-174767045D01*
X84632157Y-174767046D01*
X84503461Y-174959654D01*
X84339654Y-175123461D01*
X84282540Y-175161623D01*
X84147045Y-175252158D01*
X83933027Y-175340807D01*
X83781560Y-175370936D01*
X83705827Y-175386000D01*
X83474173Y-175386000D01*
X83398440Y-175370936D01*
X83246973Y-175340807D01*
X83032955Y-175252158D01*
X82897460Y-175161623D01*
X82840346Y-175123461D01*
X82676539Y-174959654D01*
X82547843Y-174767046D01*
X82547842Y-174767045D01*
X82459193Y-174553027D01*
X82414000Y-174325826D01*
X82414000Y-174094174D01*
X82459193Y-173866973D01*
X82547842Y-173652955D01*
X82590742Y-173588751D01*
X82676539Y-173460346D01*
X82840346Y-173296539D01*
X82968751Y-173210742D01*
X83032955Y-173167842D01*
X83246973Y-173079193D01*
X83398440Y-173049064D01*
X83474173Y-173034000D01*
X83705827Y-173034000D01*
X83781560Y-173049064D01*
G37*
G36*
X112331560Y-173049064D02*
G01*
X112483027Y-173079193D01*
X112697045Y-173167842D01*
X112761249Y-173210742D01*
X112889654Y-173296539D01*
X113053461Y-173460346D01*
X113139258Y-173588751D01*
X113182158Y-173652955D01*
X113270807Y-173866973D01*
X113316000Y-174094174D01*
X113316000Y-174325826D01*
X113270807Y-174553027D01*
X113182158Y-174767045D01*
X113182157Y-174767046D01*
X113053461Y-174959654D01*
X112889654Y-175123461D01*
X112832540Y-175161623D01*
X112697045Y-175252158D01*
X112483027Y-175340807D01*
X112331560Y-175370936D01*
X112255827Y-175386000D01*
X112024173Y-175386000D01*
X111948440Y-175370936D01*
X111796973Y-175340807D01*
X111582955Y-175252158D01*
X111447460Y-175161623D01*
X111390346Y-175123461D01*
X111226539Y-174959654D01*
X111097843Y-174767046D01*
X111097842Y-174767045D01*
X111009193Y-174553027D01*
X110964000Y-174325826D01*
X110964000Y-174094174D01*
X111009193Y-173866973D01*
X111097842Y-173652955D01*
X111140742Y-173588751D01*
X111226539Y-173460346D01*
X111390346Y-173296539D01*
X111518751Y-173210742D01*
X111582955Y-173167842D01*
X111796973Y-173079193D01*
X111948440Y-173049064D01*
X112024173Y-173034000D01*
X112255827Y-173034000D01*
X112331560Y-173049064D01*
G37*
G36*
X137323500Y-173283500D02*
G01*
X135316500Y-173283500D01*
X135316500Y-171276500D01*
X137323500Y-171276500D01*
X137323500Y-173283500D01*
G37*
G36*
X133906425Y-171281988D02*
G01*
X134072710Y-171315063D01*
X134255336Y-171390709D01*
X134419694Y-171500530D01*
X134559470Y-171640306D01*
X134669291Y-171804664D01*
X134744937Y-171987290D01*
X134783500Y-172181164D01*
X134783500Y-172378836D01*
X134744937Y-172572710D01*
X134669291Y-172755336D01*
X134559470Y-172919694D01*
X134419694Y-173059470D01*
X134255336Y-173169291D01*
X134072710Y-173244937D01*
X133906425Y-173278012D01*
X133878837Y-173283500D01*
X133681163Y-173283500D01*
X133653575Y-173278012D01*
X133487290Y-173244937D01*
X133304664Y-173169291D01*
X133140306Y-173059470D01*
X133000530Y-172919694D01*
X132890709Y-172755336D01*
X132815063Y-172572710D01*
X132776500Y-172378836D01*
X132776500Y-172181164D01*
X132815063Y-171987290D01*
X132890709Y-171804664D01*
X133000530Y-171640306D01*
X133140306Y-171500530D01*
X133304664Y-171390709D01*
X133487290Y-171315063D01*
X133653575Y-171281988D01*
X133681163Y-171276500D01*
X133878837Y-171276500D01*
X133906425Y-171281988D01*
G37*
G36*
X118681560Y-170509064D02*
G01*
X118833027Y-170539193D01*
X119047045Y-170627842D01*
X119047046Y-170627843D01*
X119239654Y-170756539D01*
X119403461Y-170920346D01*
X119489258Y-171048751D01*
X119532158Y-171112955D01*
X119620807Y-171326973D01*
X119620807Y-171326975D01*
X119666000Y-171554173D01*
X119666000Y-171785827D01*
X119650936Y-171861560D01*
X119620807Y-172013027D01*
X119532158Y-172227045D01*
X119532157Y-172227046D01*
X119403461Y-172419654D01*
X119239654Y-172583461D01*
X119111249Y-172669258D01*
X119047045Y-172712158D01*
X118833027Y-172800807D01*
X118681560Y-172830936D01*
X118605827Y-172846000D01*
X118374173Y-172846000D01*
X118298440Y-172830936D01*
X118146973Y-172800807D01*
X117932955Y-172712158D01*
X117868751Y-172669258D01*
X117740346Y-172583461D01*
X117576539Y-172419654D01*
X117447843Y-172227046D01*
X117447842Y-172227045D01*
X117359193Y-172013027D01*
X117329064Y-171861560D01*
X117314000Y-171785827D01*
X117314000Y-171554173D01*
X117359193Y-171326975D01*
X117359193Y-171326973D01*
X117447842Y-171112955D01*
X117490742Y-171048751D01*
X117576539Y-170920346D01*
X117740346Y-170756539D01*
X117932954Y-170627843D01*
X117932955Y-170627842D01*
X118146973Y-170539193D01*
X118298440Y-170509064D01*
X118374173Y-170494000D01*
X118605827Y-170494000D01*
X118681560Y-170509064D01*
G37*
G36*
X90131560Y-170509064D02*
G01*
X90283027Y-170539193D01*
X90497045Y-170627842D01*
X90497046Y-170627843D01*
X90689654Y-170756539D01*
X90853461Y-170920346D01*
X90939258Y-171048751D01*
X90982158Y-171112955D01*
X91070807Y-171326973D01*
X91070807Y-171326975D01*
X91116000Y-171554173D01*
X91116000Y-171785827D01*
X91100936Y-171861560D01*
X91070807Y-172013027D01*
X90982158Y-172227045D01*
X90982157Y-172227046D01*
X90853461Y-172419654D01*
X90689654Y-172583461D01*
X90561249Y-172669258D01*
X90497045Y-172712158D01*
X90283027Y-172800807D01*
X90131560Y-172830936D01*
X90055827Y-172846000D01*
X89824173Y-172846000D01*
X89748440Y-172830936D01*
X89596973Y-172800807D01*
X89382955Y-172712158D01*
X89318751Y-172669258D01*
X89190346Y-172583461D01*
X89026539Y-172419654D01*
X88897843Y-172227046D01*
X88897842Y-172227045D01*
X88809193Y-172013027D01*
X88779064Y-171861560D01*
X88764000Y-171785827D01*
X88764000Y-171554173D01*
X88809193Y-171326975D01*
X88809193Y-171326973D01*
X88897842Y-171112955D01*
X88940742Y-171048751D01*
X89026539Y-170920346D01*
X89190346Y-170756539D01*
X89382954Y-170627843D01*
X89382955Y-170627842D01*
X89596973Y-170539193D01*
X89748440Y-170509064D01*
X89824173Y-170494000D01*
X90055827Y-170494000D01*
X90131560Y-170509064D01*
G37*
G36*
X76058474Y-166528684D02*
G01*
X76239156Y-166603525D01*
X76430623Y-166682833D01*
X76765548Y-166906623D01*
X77050377Y-167191452D01*
X77274167Y-167526377D01*
X77274167Y-167526378D01*
X77428316Y-167898526D01*
X77506900Y-168293594D01*
X77506900Y-168696406D01*
X77428316Y-169091474D01*
X77397315Y-169166316D01*
X77274167Y-169463623D01*
X77050377Y-169798548D01*
X76765548Y-170083377D01*
X76430623Y-170307167D01*
X76276474Y-170371017D01*
X76058474Y-170461316D01*
X75663406Y-170539900D01*
X75260594Y-170539900D01*
X74865526Y-170461316D01*
X74647526Y-170371017D01*
X74493377Y-170307167D01*
X74158452Y-170083377D01*
X73873623Y-169798548D01*
X73649833Y-169463623D01*
X73526685Y-169166316D01*
X73495684Y-169091474D01*
X73417100Y-168696406D01*
X73417100Y-168293594D01*
X73495684Y-167898526D01*
X73649833Y-167526378D01*
X73649833Y-167526377D01*
X73873623Y-167191452D01*
X74158452Y-166906623D01*
X74493377Y-166682833D01*
X74684844Y-166603525D01*
X74865526Y-166528684D01*
X75260594Y-166450100D01*
X75663406Y-166450100D01*
X76058474Y-166528684D01*
G37*
G36*
X99934474Y-166528684D02*
G01*
X100115156Y-166603525D01*
X100306623Y-166682833D01*
X100641548Y-166906623D01*
X100926377Y-167191452D01*
X101150167Y-167526377D01*
X101150167Y-167526378D01*
X101304316Y-167898526D01*
X101382900Y-168293594D01*
X101382900Y-168696406D01*
X101304316Y-169091474D01*
X101273315Y-169166316D01*
X101150167Y-169463623D01*
X100926377Y-169798548D01*
X100641548Y-170083377D01*
X100306623Y-170307167D01*
X100152474Y-170371017D01*
X99934474Y-170461316D01*
X99539406Y-170539900D01*
X99136594Y-170539900D01*
X98741526Y-170461316D01*
X98523526Y-170371017D01*
X98369377Y-170307167D01*
X98034452Y-170083377D01*
X97749623Y-169798548D01*
X97525833Y-169463623D01*
X97402685Y-169166316D01*
X97371684Y-169091474D01*
X97293100Y-168696406D01*
X97293100Y-168293594D01*
X97371684Y-167898526D01*
X97525833Y-167526378D01*
X97525833Y-167526377D01*
X97749623Y-167191452D01*
X98034452Y-166906623D01*
X98369377Y-166682833D01*
X98560844Y-166603525D01*
X98741526Y-166528684D01*
X99136594Y-166450100D01*
X99539406Y-166450100D01*
X99934474Y-166528684D01*
G37*
G36*
X87775880Y-164859776D02*
G01*
X88156593Y-164935504D01*
X88566249Y-165105189D01*
X88934929Y-165351534D01*
X89248466Y-165665071D01*
X89494811Y-166033751D01*
X89664496Y-166443407D01*
X89751000Y-166878296D01*
X89751000Y-167321704D01*
X89664496Y-167756593D01*
X89494811Y-168166249D01*
X89248466Y-168534929D01*
X88934929Y-168848466D01*
X88566249Y-169094811D01*
X88156593Y-169264496D01*
X87775880Y-169340224D01*
X87721705Y-169351000D01*
X87278295Y-169351000D01*
X87224120Y-169340224D01*
X86843407Y-169264496D01*
X86433751Y-169094811D01*
X86065071Y-168848466D01*
X85751534Y-168534929D01*
X85505189Y-168166249D01*
X85335504Y-167756593D01*
X85249000Y-167321704D01*
X85249000Y-166878296D01*
X85335504Y-166443407D01*
X85505189Y-166033751D01*
X85751534Y-165665071D01*
X86065071Y-165351534D01*
X86433751Y-165105189D01*
X86843407Y-164935504D01*
X87224120Y-164859776D01*
X87278295Y-164849000D01*
X87721705Y-164849000D01*
X87775880Y-164859776D01*
G37*
G36*
X135646474Y-165233684D02*
G01*
X135864474Y-165323983D01*
X136018623Y-165387833D01*
X136353548Y-165611623D01*
X136638377Y-165896452D01*
X136862167Y-166231377D01*
X136894562Y-166309586D01*
X137016316Y-166603526D01*
X137094900Y-166998594D01*
X137094900Y-167401406D01*
X137016316Y-167796474D01*
X136965451Y-167919272D01*
X136862167Y-168168623D01*
X136638377Y-168503548D01*
X136353548Y-168788377D01*
X136018623Y-169012167D01*
X135864474Y-169076017D01*
X135646474Y-169166316D01*
X135251406Y-169244900D01*
X134848594Y-169244900D01*
X134453526Y-169166316D01*
X134235526Y-169076017D01*
X134081377Y-169012167D01*
X133746452Y-168788377D01*
X133461623Y-168503548D01*
X133237833Y-168168623D01*
X133134549Y-167919272D01*
X133083684Y-167796474D01*
X133005100Y-167401406D01*
X133005100Y-166998594D01*
X133083684Y-166603526D01*
X133205438Y-166309586D01*
X133237833Y-166231377D01*
X133461623Y-165896452D01*
X133746452Y-165611623D01*
X134081377Y-165387833D01*
X134235526Y-165323983D01*
X134453526Y-165233684D01*
X134848594Y-165155100D01*
X135251406Y-165155100D01*
X135646474Y-165233684D01*
G37*
G36*
X140400104Y-166309585D02*
G01*
X140568626Y-166379389D01*
X140720291Y-166480728D01*
X140849272Y-166609709D01*
X140950611Y-166761374D01*
X141020415Y-166929896D01*
X141056000Y-167108797D01*
X141056000Y-167291203D01*
X141020415Y-167470104D01*
X140950611Y-167638626D01*
X140849272Y-167790291D01*
X140720291Y-167919272D01*
X140568626Y-168020611D01*
X140400104Y-168090415D01*
X140221203Y-168126000D01*
X140038797Y-168126000D01*
X139859896Y-168090415D01*
X139691374Y-168020611D01*
X139539709Y-167919272D01*
X139410728Y-167790291D01*
X139309389Y-167638626D01*
X139239585Y-167470104D01*
X139204000Y-167291203D01*
X139204000Y-167108797D01*
X139239585Y-166929896D01*
X139309389Y-166761374D01*
X139410728Y-166609709D01*
X139539709Y-166480728D01*
X139691374Y-166379389D01*
X139859896Y-166309585D01*
X140038797Y-166274000D01*
X140221203Y-166274000D01*
X140400104Y-166309585D01*
G37*
G36*
X130240104Y-166309585D02*
G01*
X130408626Y-166379389D01*
X130560291Y-166480728D01*
X130689272Y-166609709D01*
X130790611Y-166761374D01*
X130860415Y-166929896D01*
X130896000Y-167108797D01*
X130896000Y-167291203D01*
X130860415Y-167470104D01*
X130790611Y-167638626D01*
X130689272Y-167790291D01*
X130560291Y-167919272D01*
X130408626Y-168020611D01*
X130240104Y-168090415D01*
X130061203Y-168126000D01*
X129878797Y-168126000D01*
X129699896Y-168090415D01*
X129531374Y-168020611D01*
X129379709Y-167919272D01*
X129250728Y-167790291D01*
X129149389Y-167638626D01*
X129079585Y-167470104D01*
X129044000Y-167291203D01*
X129044000Y-167108797D01*
X129079585Y-166929896D01*
X129149389Y-166761374D01*
X129250728Y-166609709D01*
X129379709Y-166480728D01*
X129531374Y-166379389D01*
X129699896Y-166309585D01*
X129878797Y-166274000D01*
X130061203Y-166274000D01*
X130240104Y-166309585D01*
G37*
G36*
X131431560Y-163499064D02*
G01*
X131583027Y-163529193D01*
X131797045Y-163617842D01*
X131797046Y-163617843D01*
X131989654Y-163746539D01*
X132153461Y-163910346D01*
X132239258Y-164038751D01*
X132282158Y-164102955D01*
X132370807Y-164316973D01*
X132416000Y-164544174D01*
X132416000Y-164775826D01*
X132370807Y-165003027D01*
X132282158Y-165217045D01*
X132282157Y-165217046D01*
X132153461Y-165409654D01*
X131989654Y-165573461D01*
X131932540Y-165611623D01*
X131797045Y-165702158D01*
X131583027Y-165790807D01*
X131431560Y-165820936D01*
X131355827Y-165836000D01*
X131124173Y-165836000D01*
X131048440Y-165820936D01*
X130896973Y-165790807D01*
X130682955Y-165702158D01*
X130547460Y-165611623D01*
X130490346Y-165573461D01*
X130326539Y-165409654D01*
X130197843Y-165217046D01*
X130197842Y-165217045D01*
X130109193Y-165003027D01*
X130064000Y-164775826D01*
X130064000Y-164544174D01*
X130109193Y-164316973D01*
X130197842Y-164102955D01*
X130240742Y-164038751D01*
X130326539Y-163910346D01*
X130490346Y-163746539D01*
X130682954Y-163617843D01*
X130682955Y-163617842D01*
X130896973Y-163529193D01*
X131048440Y-163499064D01*
X131124173Y-163484000D01*
X131355827Y-163484000D01*
X131431560Y-163499064D01*
G37*
G36*
X80173500Y-163783500D02*
G01*
X78166500Y-163783500D01*
X78166500Y-161776500D01*
X80173500Y-161776500D01*
X80173500Y-163783500D01*
G37*
G36*
X76756425Y-161781988D02*
G01*
X76922710Y-161815063D01*
X77105336Y-161890709D01*
X77269694Y-162000530D01*
X77409470Y-162140306D01*
X77519291Y-162304664D01*
X77594937Y-162487290D01*
X77633500Y-162681164D01*
X77633500Y-162878836D01*
X77594937Y-163072710D01*
X77519291Y-163255336D01*
X77409470Y-163419694D01*
X77269694Y-163559470D01*
X77105336Y-163669291D01*
X76922710Y-163744937D01*
X76756425Y-163778012D01*
X76728837Y-163783500D01*
X76531163Y-163783500D01*
X76503575Y-163778012D01*
X76337290Y-163744937D01*
X76154664Y-163669291D01*
X75990306Y-163559470D01*
X75850530Y-163419694D01*
X75740709Y-163255336D01*
X75665063Y-163072710D01*
X75626500Y-162878836D01*
X75626500Y-162681164D01*
X75665063Y-162487290D01*
X75740709Y-162304664D01*
X75850530Y-162140306D01*
X75990306Y-162000530D01*
X76154664Y-161890709D01*
X76337290Y-161815063D01*
X76503575Y-161781988D01*
X76531163Y-161776500D01*
X76728837Y-161776500D01*
X76756425Y-161781988D01*
G37*
G36*
X95806425Y-161781988D02*
G01*
X95972710Y-161815063D01*
X96155336Y-161890709D01*
X96319694Y-162000530D01*
X96459470Y-162140306D01*
X96569291Y-162304664D01*
X96644937Y-162487290D01*
X96683500Y-162681164D01*
X96683500Y-162878836D01*
X96644937Y-163072710D01*
X96569291Y-163255336D01*
X96459470Y-163419694D01*
X96319694Y-163559470D01*
X96155336Y-163669291D01*
X95972710Y-163744937D01*
X95806425Y-163778012D01*
X95778837Y-163783500D01*
X95581163Y-163783500D01*
X95553575Y-163778012D01*
X95387290Y-163744937D01*
X95204664Y-163669291D01*
X95040306Y-163559470D01*
X94900530Y-163419694D01*
X94790709Y-163255336D01*
X94715063Y-163072710D01*
X94676500Y-162878836D01*
X94676500Y-162681164D01*
X94715063Y-162487290D01*
X94790709Y-162304664D01*
X94900530Y-162140306D01*
X95040306Y-162000530D01*
X95204664Y-161890709D01*
X95387290Y-161815063D01*
X95553575Y-161781988D01*
X95581163Y-161776500D01*
X95778837Y-161776500D01*
X95806425Y-161781988D01*
G37*
G36*
X114856425Y-161781988D02*
G01*
X115022710Y-161815063D01*
X115205336Y-161890709D01*
X115369694Y-162000530D01*
X115509470Y-162140306D01*
X115619291Y-162304664D01*
X115694937Y-162487290D01*
X115733500Y-162681164D01*
X115733500Y-162878836D01*
X115694937Y-163072710D01*
X115619291Y-163255336D01*
X115509470Y-163419694D01*
X115369694Y-163559470D01*
X115205336Y-163669291D01*
X115022710Y-163744937D01*
X114856425Y-163778012D01*
X114828837Y-163783500D01*
X114631163Y-163783500D01*
X114603575Y-163778012D01*
X114437290Y-163744937D01*
X114254664Y-163669291D01*
X114090306Y-163559470D01*
X113950530Y-163419694D01*
X113840709Y-163255336D01*
X113765063Y-163072710D01*
X113726500Y-162878836D01*
X113726500Y-162681164D01*
X113765063Y-162487290D01*
X113840709Y-162304664D01*
X113950530Y-162140306D01*
X114090306Y-162000530D01*
X114254664Y-161890709D01*
X114437290Y-161815063D01*
X114603575Y-161781988D01*
X114631163Y-161776500D01*
X114828837Y-161776500D01*
X114856425Y-161781988D01*
G37*
G36*
X118273500Y-163783500D02*
G01*
X116266500Y-163783500D01*
X116266500Y-161776500D01*
X118273500Y-161776500D01*
X118273500Y-163783500D01*
G37*
G36*
X99223500Y-163783500D02*
G01*
X97216500Y-163783500D01*
X97216500Y-161776500D01*
X99223500Y-161776500D01*
X99223500Y-163783500D01*
G37*
G36*
X137781560Y-160959064D02*
G01*
X137933027Y-160989193D01*
X138147045Y-161077842D01*
X138147046Y-161077843D01*
X138339654Y-161206539D01*
X138503461Y-161370346D01*
X138589258Y-161498751D01*
X138632158Y-161562955D01*
X138720807Y-161776973D01*
X138766000Y-162004174D01*
X138766000Y-162235826D01*
X138720807Y-162463027D01*
X138632158Y-162677045D01*
X138589258Y-162741249D01*
X138503461Y-162869654D01*
X138339654Y-163033461D01*
X138280913Y-163072710D01*
X138147045Y-163162158D01*
X137933027Y-163250807D01*
X137781560Y-163280936D01*
X137705827Y-163296000D01*
X137474173Y-163296000D01*
X137398440Y-163280936D01*
X137246973Y-163250807D01*
X137032955Y-163162158D01*
X136899087Y-163072710D01*
X136840346Y-163033461D01*
X136676539Y-162869654D01*
X136590742Y-162741249D01*
X136547842Y-162677045D01*
X136459193Y-162463027D01*
X136414000Y-162235826D01*
X136414000Y-162004174D01*
X136459193Y-161776973D01*
X136547842Y-161562955D01*
X136590742Y-161498751D01*
X136676539Y-161370346D01*
X136840346Y-161206539D01*
X137032954Y-161077843D01*
X137032955Y-161077842D01*
X137246973Y-160989193D01*
X137398440Y-160959064D01*
X137474173Y-160944000D01*
X137705827Y-160944000D01*
X137781560Y-160959064D01*
G37*
G36*
X78496474Y-155733684D02*
G01*
X78714474Y-155823983D01*
X78868623Y-155887833D01*
X79203548Y-156111623D01*
X79488377Y-156396452D01*
X79712167Y-156731377D01*
X79744562Y-156809586D01*
X79866316Y-157103526D01*
X79944900Y-157498594D01*
X79944900Y-157901406D01*
X79866316Y-158296474D01*
X79815451Y-158419272D01*
X79712167Y-158668623D01*
X79488377Y-159003548D01*
X79203548Y-159288377D01*
X78868623Y-159512167D01*
X78714474Y-159576017D01*
X78496474Y-159666316D01*
X78101406Y-159744900D01*
X77698594Y-159744900D01*
X77303526Y-159666316D01*
X77085526Y-159576017D01*
X76931377Y-159512167D01*
X76596452Y-159288377D01*
X76311623Y-159003548D01*
X76087833Y-158668623D01*
X75984549Y-158419272D01*
X75933684Y-158296474D01*
X75855100Y-157901406D01*
X75855100Y-157498594D01*
X75933684Y-157103526D01*
X76055438Y-156809586D01*
X76087833Y-156731377D01*
X76311623Y-156396452D01*
X76596452Y-156111623D01*
X76931377Y-155887833D01*
X77085526Y-155823983D01*
X77303526Y-155733684D01*
X77698594Y-155655100D01*
X78101406Y-155655100D01*
X78496474Y-155733684D01*
G37*
G36*
X116596474Y-155733684D02*
G01*
X116814474Y-155823983D01*
X116968623Y-155887833D01*
X117303548Y-156111623D01*
X117588377Y-156396452D01*
X117812167Y-156731377D01*
X117844562Y-156809586D01*
X117966316Y-157103526D01*
X118044900Y-157498594D01*
X118044900Y-157901406D01*
X117966316Y-158296474D01*
X117915451Y-158419272D01*
X117812167Y-158668623D01*
X117588377Y-159003548D01*
X117303548Y-159288377D01*
X116968623Y-159512167D01*
X116814474Y-159576017D01*
X116596474Y-159666316D01*
X116201406Y-159744900D01*
X115798594Y-159744900D01*
X115403526Y-159666316D01*
X115185526Y-159576017D01*
X115031377Y-159512167D01*
X114696452Y-159288377D01*
X114411623Y-159003548D01*
X114187833Y-158668623D01*
X114084549Y-158419272D01*
X114033684Y-158296474D01*
X113955100Y-157901406D01*
X113955100Y-157498594D01*
X114033684Y-157103526D01*
X114155438Y-156809586D01*
X114187833Y-156731377D01*
X114411623Y-156396452D01*
X114696452Y-156111623D01*
X115031377Y-155887833D01*
X115185526Y-155823983D01*
X115403526Y-155733684D01*
X115798594Y-155655100D01*
X116201406Y-155655100D01*
X116596474Y-155733684D01*
G37*
G36*
X97546474Y-155733684D02*
G01*
X97764474Y-155823983D01*
X97918623Y-155887833D01*
X98253548Y-156111623D01*
X98538377Y-156396452D01*
X98762167Y-156731377D01*
X98794562Y-156809586D01*
X98916316Y-157103526D01*
X98994900Y-157498594D01*
X98994900Y-157901406D01*
X98916316Y-158296474D01*
X98865451Y-158419272D01*
X98762167Y-158668623D01*
X98538377Y-159003548D01*
X98253548Y-159288377D01*
X97918623Y-159512167D01*
X97764474Y-159576017D01*
X97546474Y-159666316D01*
X97151406Y-159744900D01*
X96748594Y-159744900D01*
X96353526Y-159666316D01*
X96135526Y-159576017D01*
X95981377Y-159512167D01*
X95646452Y-159288377D01*
X95361623Y-159003548D01*
X95137833Y-158668623D01*
X95034549Y-158419272D01*
X94983684Y-158296474D01*
X94905100Y-157901406D01*
X94905100Y-157498594D01*
X94983684Y-157103526D01*
X95105438Y-156809586D01*
X95137833Y-156731377D01*
X95361623Y-156396452D01*
X95646452Y-156111623D01*
X95981377Y-155887833D01*
X96135526Y-155823983D01*
X96353526Y-155733684D01*
X96748594Y-155655100D01*
X97151406Y-155655100D01*
X97546474Y-155733684D01*
G37*
G36*
X83250104Y-156809585D02*
G01*
X83418626Y-156879389D01*
X83570291Y-156980728D01*
X83699272Y-157109709D01*
X83800611Y-157261374D01*
X83870415Y-157429896D01*
X83906000Y-157608797D01*
X83906000Y-157791203D01*
X83870415Y-157970104D01*
X83800611Y-158138626D01*
X83699272Y-158290291D01*
X83570291Y-158419272D01*
X83418626Y-158520611D01*
X83250104Y-158590415D01*
X83071203Y-158626000D01*
X82888797Y-158626000D01*
X82709896Y-158590415D01*
X82541374Y-158520611D01*
X82389709Y-158419272D01*
X82260728Y-158290291D01*
X82159389Y-158138626D01*
X82089585Y-157970104D01*
X82054000Y-157791203D01*
X82054000Y-157608797D01*
X82089585Y-157429896D01*
X82159389Y-157261374D01*
X82260728Y-157109709D01*
X82389709Y-156980728D01*
X82541374Y-156879389D01*
X82709896Y-156809585D01*
X82888797Y-156774000D01*
X83071203Y-156774000D01*
X83250104Y-156809585D01*
G37*
G36*
X92140104Y-156809585D02*
G01*
X92308626Y-156879389D01*
X92460291Y-156980728D01*
X92589272Y-157109709D01*
X92690611Y-157261374D01*
X92760415Y-157429896D01*
X92796000Y-157608797D01*
X92796000Y-157791203D01*
X92760415Y-157970104D01*
X92690611Y-158138626D01*
X92589272Y-158290291D01*
X92460291Y-158419272D01*
X92308626Y-158520611D01*
X92140104Y-158590415D01*
X91961203Y-158626000D01*
X91778797Y-158626000D01*
X91599896Y-158590415D01*
X91431374Y-158520611D01*
X91279709Y-158419272D01*
X91150728Y-158290291D01*
X91049389Y-158138626D01*
X90979585Y-157970104D01*
X90944000Y-157791203D01*
X90944000Y-157608797D01*
X90979585Y-157429896D01*
X91049389Y-157261374D01*
X91150728Y-157109709D01*
X91279709Y-156980728D01*
X91431374Y-156879389D01*
X91599896Y-156809585D01*
X91778797Y-156774000D01*
X91961203Y-156774000D01*
X92140104Y-156809585D01*
G37*
G36*
X102300104Y-156809585D02*
G01*
X102468626Y-156879389D01*
X102620291Y-156980728D01*
X102749272Y-157109709D01*
X102850611Y-157261374D01*
X102920415Y-157429896D01*
X102956000Y-157608797D01*
X102956000Y-157791203D01*
X102920415Y-157970104D01*
X102850611Y-158138626D01*
X102749272Y-158290291D01*
X102620291Y-158419272D01*
X102468626Y-158520611D01*
X102300104Y-158590415D01*
X102121203Y-158626000D01*
X101938797Y-158626000D01*
X101759896Y-158590415D01*
X101591374Y-158520611D01*
X101439709Y-158419272D01*
X101310728Y-158290291D01*
X101209389Y-158138626D01*
X101139585Y-157970104D01*
X101104000Y-157791203D01*
X101104000Y-157608797D01*
X101139585Y-157429896D01*
X101209389Y-157261374D01*
X101310728Y-157109709D01*
X101439709Y-156980728D01*
X101591374Y-156879389D01*
X101759896Y-156809585D01*
X101938797Y-156774000D01*
X102121203Y-156774000D01*
X102300104Y-156809585D01*
G37*
G36*
X111190104Y-156809585D02*
G01*
X111358626Y-156879389D01*
X111510291Y-156980728D01*
X111639272Y-157109709D01*
X111740611Y-157261374D01*
X111810415Y-157429896D01*
X111846000Y-157608797D01*
X111846000Y-157791203D01*
X111810415Y-157970104D01*
X111740611Y-158138626D01*
X111639272Y-158290291D01*
X111510291Y-158419272D01*
X111358626Y-158520611D01*
X111190104Y-158590415D01*
X111011203Y-158626000D01*
X110828797Y-158626000D01*
X110649896Y-158590415D01*
X110481374Y-158520611D01*
X110329709Y-158419272D01*
X110200728Y-158290291D01*
X110099389Y-158138626D01*
X110029585Y-157970104D01*
X109994000Y-157791203D01*
X109994000Y-157608797D01*
X110029585Y-157429896D01*
X110099389Y-157261374D01*
X110200728Y-157109709D01*
X110329709Y-156980728D01*
X110481374Y-156879389D01*
X110649896Y-156809585D01*
X110828797Y-156774000D01*
X111011203Y-156774000D01*
X111190104Y-156809585D01*
G37*
G36*
X121350104Y-156809585D02*
G01*
X121518626Y-156879389D01*
X121670291Y-156980728D01*
X121799272Y-157109709D01*
X121900611Y-157261374D01*
X121970415Y-157429896D01*
X122006000Y-157608797D01*
X122006000Y-157791203D01*
X121970415Y-157970104D01*
X121900611Y-158138626D01*
X121799272Y-158290291D01*
X121670291Y-158419272D01*
X121518626Y-158520611D01*
X121350104Y-158590415D01*
X121171203Y-158626000D01*
X120988797Y-158626000D01*
X120809896Y-158590415D01*
X120641374Y-158520611D01*
X120489709Y-158419272D01*
X120360728Y-158290291D01*
X120259389Y-158138626D01*
X120189585Y-157970104D01*
X120154000Y-157791203D01*
X120154000Y-157608797D01*
X120189585Y-157429896D01*
X120259389Y-157261374D01*
X120360728Y-157109709D01*
X120489709Y-156980728D01*
X120641374Y-156879389D01*
X120809896Y-156809585D01*
X120988797Y-156774000D01*
X121171203Y-156774000D01*
X121350104Y-156809585D01*
G37*
G36*
X73090104Y-156809585D02*
G01*
X73258626Y-156879389D01*
X73410291Y-156980728D01*
X73539272Y-157109709D01*
X73640611Y-157261374D01*
X73710415Y-157429896D01*
X73746000Y-157608797D01*
X73746000Y-157791203D01*
X73710415Y-157970104D01*
X73640611Y-158138626D01*
X73539272Y-158290291D01*
X73410291Y-158419272D01*
X73258626Y-158520611D01*
X73090104Y-158590415D01*
X72911203Y-158626000D01*
X72728797Y-158626000D01*
X72549896Y-158590415D01*
X72381374Y-158520611D01*
X72229709Y-158419272D01*
X72100728Y-158290291D01*
X71999389Y-158138626D01*
X71929585Y-157970104D01*
X71894000Y-157791203D01*
X71894000Y-157608797D01*
X71929585Y-157429896D01*
X71999389Y-157261374D01*
X72100728Y-157109709D01*
X72229709Y-156980728D01*
X72381374Y-156879389D01*
X72549896Y-156809585D01*
X72728797Y-156774000D01*
X72911203Y-156774000D01*
X73090104Y-156809585D01*
G37*
G36*
X127391474Y-153295684D02*
G01*
X127570053Y-153369654D01*
X127763623Y-153449833D01*
X128098548Y-153673623D01*
X128383377Y-153958452D01*
X128607167Y-154293377D01*
X128607167Y-154293378D01*
X128761316Y-154665526D01*
X128839900Y-155060594D01*
X128839900Y-155463406D01*
X128761316Y-155858474D01*
X128699363Y-156008041D01*
X128607167Y-156230623D01*
X128383377Y-156565548D01*
X128098548Y-156850377D01*
X127763623Y-157074167D01*
X127677814Y-157109710D01*
X127391474Y-157228316D01*
X126996406Y-157306900D01*
X126593594Y-157306900D01*
X126198526Y-157228316D01*
X125912186Y-157109710D01*
X125826377Y-157074167D01*
X125491452Y-156850377D01*
X125206623Y-156565548D01*
X124982833Y-156230623D01*
X124890637Y-156008041D01*
X124828684Y-155858474D01*
X124750100Y-155463406D01*
X124750100Y-155060594D01*
X124828684Y-154665526D01*
X124982833Y-154293378D01*
X124982833Y-154293377D01*
X125206623Y-153958452D01*
X125491452Y-153673623D01*
X125826377Y-153449833D01*
X126019947Y-153369654D01*
X126198526Y-153295684D01*
X126593594Y-153217100D01*
X126996406Y-153217100D01*
X127391474Y-153295684D01*
G37*
G36*
X142342267Y-153717263D02*
G01*
X142494411Y-153747526D01*
X142611437Y-153796000D01*
X142781041Y-153866252D01*
X142781042Y-153866253D01*
X143039004Y-154038617D01*
X143258383Y-154257996D01*
X143282024Y-154293378D01*
X143430748Y-154515959D01*
X143466782Y-154602954D01*
X143549474Y-154802589D01*
X143579737Y-154954733D01*
X143610000Y-155106875D01*
X143610000Y-155417125D01*
X143549474Y-155721410D01*
X143430748Y-156008041D01*
X143430747Y-156008042D01*
X143258383Y-156266004D01*
X143039004Y-156485383D01*
X142919028Y-156565548D01*
X142781041Y-156657748D01*
X142613137Y-156727296D01*
X142494411Y-156776474D01*
X142342267Y-156806737D01*
X142190125Y-156837000D01*
X141879875Y-156837000D01*
X141727733Y-156806737D01*
X141575589Y-156776474D01*
X141456863Y-156727296D01*
X141288959Y-156657748D01*
X141150972Y-156565548D01*
X141030996Y-156485383D01*
X140811617Y-156266004D01*
X140639253Y-156008042D01*
X140639252Y-156008041D01*
X140520526Y-155721410D01*
X140460000Y-155417125D01*
X140460000Y-155106875D01*
X140490263Y-154954733D01*
X140520526Y-154802589D01*
X140603218Y-154602954D01*
X140639252Y-154515959D01*
X140787976Y-154293378D01*
X140811617Y-154257996D01*
X141030996Y-154038617D01*
X141288958Y-153866253D01*
X141288959Y-153866252D01*
X141458563Y-153796000D01*
X141575589Y-153747526D01*
X141727733Y-153717263D01*
X141879875Y-153687000D01*
X142190125Y-153687000D01*
X142342267Y-153717263D01*
G37*
G36*
X93331560Y-153999064D02*
G01*
X93483027Y-154029193D01*
X93697045Y-154117842D01*
X93697046Y-154117843D01*
X93889654Y-154246539D01*
X94053461Y-154410346D01*
X94124028Y-154515958D01*
X94182158Y-154602955D01*
X94270807Y-154816973D01*
X94316000Y-155044174D01*
X94316000Y-155275826D01*
X94270807Y-155503027D01*
X94182158Y-155717045D01*
X94171040Y-155733684D01*
X94053461Y-155909654D01*
X93889654Y-156073461D01*
X93832540Y-156111623D01*
X93697045Y-156202158D01*
X93483027Y-156290807D01*
X93331560Y-156320936D01*
X93255827Y-156336000D01*
X93024173Y-156336000D01*
X92948440Y-156320936D01*
X92796973Y-156290807D01*
X92582955Y-156202158D01*
X92447460Y-156111623D01*
X92390346Y-156073461D01*
X92226539Y-155909654D01*
X92108960Y-155733684D01*
X92097842Y-155717045D01*
X92009193Y-155503027D01*
X91964000Y-155275826D01*
X91964000Y-155044174D01*
X92009193Y-154816973D01*
X92097842Y-154602955D01*
X92155972Y-154515958D01*
X92226539Y-154410346D01*
X92390346Y-154246539D01*
X92582954Y-154117843D01*
X92582955Y-154117842D01*
X92796973Y-154029193D01*
X92948440Y-153999064D01*
X93024173Y-153984000D01*
X93255827Y-153984000D01*
X93331560Y-153999064D01*
G37*
G36*
X74281560Y-153999064D02*
G01*
X74433027Y-154029193D01*
X74647045Y-154117842D01*
X74647046Y-154117843D01*
X74839654Y-154246539D01*
X75003461Y-154410346D01*
X75074028Y-154515958D01*
X75132158Y-154602955D01*
X75220807Y-154816973D01*
X75266000Y-155044174D01*
X75266000Y-155275826D01*
X75220807Y-155503027D01*
X75132158Y-155717045D01*
X75121040Y-155733684D01*
X75003461Y-155909654D01*
X74839654Y-156073461D01*
X74782540Y-156111623D01*
X74647045Y-156202158D01*
X74433027Y-156290807D01*
X74281560Y-156320936D01*
X74205827Y-156336000D01*
X73974173Y-156336000D01*
X73898440Y-156320936D01*
X73746973Y-156290807D01*
X73532955Y-156202158D01*
X73397460Y-156111623D01*
X73340346Y-156073461D01*
X73176539Y-155909654D01*
X73058960Y-155733684D01*
X73047842Y-155717045D01*
X72959193Y-155503027D01*
X72914000Y-155275826D01*
X72914000Y-155044174D01*
X72959193Y-154816973D01*
X73047842Y-154602955D01*
X73105972Y-154515958D01*
X73176539Y-154410346D01*
X73340346Y-154246539D01*
X73532954Y-154117843D01*
X73532955Y-154117842D01*
X73746973Y-154029193D01*
X73898440Y-153999064D01*
X73974173Y-153984000D01*
X74205827Y-153984000D01*
X74281560Y-153999064D01*
G37*
G36*
X112381560Y-153999064D02*
G01*
X112533027Y-154029193D01*
X112747045Y-154117842D01*
X112747046Y-154117843D01*
X112939654Y-154246539D01*
X113103461Y-154410346D01*
X113174028Y-154515958D01*
X113232158Y-154602955D01*
X113320807Y-154816973D01*
X113366000Y-155044174D01*
X113366000Y-155275826D01*
X113320807Y-155503027D01*
X113232158Y-155717045D01*
X113221040Y-155733684D01*
X113103461Y-155909654D01*
X112939654Y-156073461D01*
X112882540Y-156111623D01*
X112747045Y-156202158D01*
X112533027Y-156290807D01*
X112381560Y-156320936D01*
X112305827Y-156336000D01*
X112074173Y-156336000D01*
X111998440Y-156320936D01*
X111846973Y-156290807D01*
X111632955Y-156202158D01*
X111497460Y-156111623D01*
X111440346Y-156073461D01*
X111276539Y-155909654D01*
X111158960Y-155733684D01*
X111147842Y-155717045D01*
X111059193Y-155503027D01*
X111014000Y-155275826D01*
X111014000Y-155044174D01*
X111059193Y-154816973D01*
X111147842Y-154602955D01*
X111205972Y-154515958D01*
X111276539Y-154410346D01*
X111440346Y-154246539D01*
X111632954Y-154117843D01*
X111632955Y-154117842D01*
X111846973Y-154029193D01*
X111998440Y-153999064D01*
X112074173Y-153984000D01*
X112305827Y-153984000D01*
X112381560Y-153999064D01*
G37*
G36*
X118731560Y-151459064D02*
G01*
X118883027Y-151489193D01*
X119097045Y-151577842D01*
X119097046Y-151577843D01*
X119289654Y-151706539D01*
X119453461Y-151870346D01*
X119539258Y-151998751D01*
X119582158Y-152062955D01*
X119670807Y-152276973D01*
X119716000Y-152504174D01*
X119716000Y-152735826D01*
X119670807Y-152963027D01*
X119582158Y-153177045D01*
X119582157Y-153177046D01*
X119453461Y-153369654D01*
X119289654Y-153533461D01*
X119161249Y-153619258D01*
X119097045Y-153662158D01*
X118883027Y-153750807D01*
X118731560Y-153780936D01*
X118655827Y-153796000D01*
X118424173Y-153796000D01*
X118348440Y-153780936D01*
X118196973Y-153750807D01*
X117982955Y-153662158D01*
X117918751Y-153619258D01*
X117790346Y-153533461D01*
X117626539Y-153369654D01*
X117497843Y-153177046D01*
X117497842Y-153177045D01*
X117409193Y-152963027D01*
X117364000Y-152735826D01*
X117364000Y-152504174D01*
X117409193Y-152276973D01*
X117497842Y-152062955D01*
X117540742Y-151998751D01*
X117626539Y-151870346D01*
X117790346Y-151706539D01*
X117982954Y-151577843D01*
X117982955Y-151577842D01*
X118196973Y-151489193D01*
X118348440Y-151459064D01*
X118424173Y-151444000D01*
X118655827Y-151444000D01*
X118731560Y-151459064D01*
G37*
G36*
X99681560Y-151459064D02*
G01*
X99833027Y-151489193D01*
X100047045Y-151577842D01*
X100047046Y-151577843D01*
X100239654Y-151706539D01*
X100403461Y-151870346D01*
X100489258Y-151998751D01*
X100532158Y-152062955D01*
X100620807Y-152276973D01*
X100666000Y-152504174D01*
X100666000Y-152735826D01*
X100620807Y-152963027D01*
X100532158Y-153177045D01*
X100532157Y-153177046D01*
X100403461Y-153369654D01*
X100239654Y-153533461D01*
X100111249Y-153619258D01*
X100047045Y-153662158D01*
X99833027Y-153750807D01*
X99681560Y-153780936D01*
X99605827Y-153796000D01*
X99374173Y-153796000D01*
X99298440Y-153780936D01*
X99146973Y-153750807D01*
X98932955Y-153662158D01*
X98868751Y-153619258D01*
X98740346Y-153533461D01*
X98576539Y-153369654D01*
X98447843Y-153177046D01*
X98447842Y-153177045D01*
X98359193Y-152963027D01*
X98314000Y-152735826D01*
X98314000Y-152504174D01*
X98359193Y-152276973D01*
X98447842Y-152062955D01*
X98490742Y-151998751D01*
X98576539Y-151870346D01*
X98740346Y-151706539D01*
X98932954Y-151577843D01*
X98932955Y-151577842D01*
X99146973Y-151489193D01*
X99298440Y-151459064D01*
X99374173Y-151444000D01*
X99605827Y-151444000D01*
X99681560Y-151459064D01*
G37*
G36*
X80631560Y-151459064D02*
G01*
X80783027Y-151489193D01*
X80997045Y-151577842D01*
X80997046Y-151577843D01*
X81189654Y-151706539D01*
X81353461Y-151870346D01*
X81439258Y-151998751D01*
X81482158Y-152062955D01*
X81570807Y-152276973D01*
X81616000Y-152504174D01*
X81616000Y-152735826D01*
X81570807Y-152963027D01*
X81482158Y-153177045D01*
X81482157Y-153177046D01*
X81353461Y-153369654D01*
X81189654Y-153533461D01*
X81061249Y-153619258D01*
X80997045Y-153662158D01*
X80783027Y-153750807D01*
X80631560Y-153780936D01*
X80555827Y-153796000D01*
X80324173Y-153796000D01*
X80248440Y-153780936D01*
X80096973Y-153750807D01*
X79882955Y-153662158D01*
X79818751Y-153619258D01*
X79690346Y-153533461D01*
X79526539Y-153369654D01*
X79397843Y-153177046D01*
X79397842Y-153177045D01*
X79309193Y-152963027D01*
X79264000Y-152735826D01*
X79264000Y-152504174D01*
X79309193Y-152276973D01*
X79397842Y-152062955D01*
X79440742Y-151998751D01*
X79526539Y-151870346D01*
X79690346Y-151706539D01*
X79882954Y-151577843D01*
X79882955Y-151577842D01*
X80096973Y-151489193D01*
X80248440Y-151459064D01*
X80324173Y-151444000D01*
X80555827Y-151444000D01*
X80631560Y-151459064D01*
G37*
G36*
X135275880Y-145859776D02*
G01*
X135656593Y-145935504D01*
X136066249Y-146105189D01*
X136434929Y-146351534D01*
X136748466Y-146665071D01*
X136994811Y-147033751D01*
X137164496Y-147443407D01*
X137251000Y-147878296D01*
X137251000Y-148321704D01*
X137164496Y-148756593D01*
X136994811Y-149166249D01*
X136748466Y-149534929D01*
X136434929Y-149848466D01*
X136066249Y-150094811D01*
X135656593Y-150264496D01*
X135275880Y-150340224D01*
X135221705Y-150351000D01*
X134778295Y-150351000D01*
X134724120Y-150340224D01*
X134343407Y-150264496D01*
X133933751Y-150094811D01*
X133565071Y-149848466D01*
X133251534Y-149534929D01*
X133005189Y-149166249D01*
X132835504Y-148756593D01*
X132749000Y-148321704D01*
X132749000Y-147878296D01*
X132835504Y-147443407D01*
X133005189Y-147033751D01*
X133251534Y-146665071D01*
X133565071Y-146351534D01*
X133933751Y-146105189D01*
X134343407Y-145935504D01*
X134724120Y-145859776D01*
X134778295Y-145849000D01*
X135221705Y-145849000D01*
X135275880Y-145859776D01*
G37*
G36*
X118273500Y-144683500D02*
G01*
X116266500Y-144683500D01*
X116266500Y-142676500D01*
X118273500Y-142676500D01*
X118273500Y-144683500D01*
G37*
G36*
X114856425Y-142681988D02*
G01*
X115022710Y-142715063D01*
X115205336Y-142790709D01*
X115369694Y-142900530D01*
X115509470Y-143040306D01*
X115619291Y-143204664D01*
X115694937Y-143387290D01*
X115733500Y-143581164D01*
X115733500Y-143778836D01*
X115694937Y-143972710D01*
X115619291Y-144155336D01*
X115509470Y-144319694D01*
X115369694Y-144459470D01*
X115205336Y-144569291D01*
X115022710Y-144644937D01*
X114856425Y-144678012D01*
X114828837Y-144683500D01*
X114631163Y-144683500D01*
X114603575Y-144678012D01*
X114437290Y-144644937D01*
X114254664Y-144569291D01*
X114090306Y-144459470D01*
X113950530Y-144319694D01*
X113840709Y-144155336D01*
X113765063Y-143972710D01*
X113726500Y-143778836D01*
X113726500Y-143581164D01*
X113765063Y-143387290D01*
X113840709Y-143204664D01*
X113950530Y-143040306D01*
X114090306Y-142900530D01*
X114254664Y-142790709D01*
X114437290Y-142715063D01*
X114603575Y-142681988D01*
X114631163Y-142676500D01*
X114828837Y-142676500D01*
X114856425Y-142681988D01*
G37*
G36*
X99223500Y-144683500D02*
G01*
X97216500Y-144683500D01*
X97216500Y-142676500D01*
X99223500Y-142676500D01*
X99223500Y-144683500D01*
G37*
G36*
X95806425Y-142681988D02*
G01*
X95972710Y-142715063D01*
X96155336Y-142790709D01*
X96319694Y-142900530D01*
X96459470Y-143040306D01*
X96569291Y-143204664D01*
X96644937Y-143387290D01*
X96683500Y-143581164D01*
X96683500Y-143778836D01*
X96644937Y-143972710D01*
X96569291Y-144155336D01*
X96459470Y-144319694D01*
X96319694Y-144459470D01*
X96155336Y-144569291D01*
X95972710Y-144644937D01*
X95806425Y-144678012D01*
X95778837Y-144683500D01*
X95581163Y-144683500D01*
X95553575Y-144678012D01*
X95387290Y-144644937D01*
X95204664Y-144569291D01*
X95040306Y-144459470D01*
X94900530Y-144319694D01*
X94790709Y-144155336D01*
X94715063Y-143972710D01*
X94676500Y-143778836D01*
X94676500Y-143581164D01*
X94715063Y-143387290D01*
X94790709Y-143204664D01*
X94900530Y-143040306D01*
X95040306Y-142900530D01*
X95204664Y-142790709D01*
X95387290Y-142715063D01*
X95553575Y-142681988D01*
X95581163Y-142676500D01*
X95778837Y-142676500D01*
X95806425Y-142681988D01*
G37*
G36*
X80173500Y-144683500D02*
G01*
X78166500Y-144683500D01*
X78166500Y-142676500D01*
X80173500Y-142676500D01*
X80173500Y-144683500D01*
G37*
G36*
X76756425Y-142681988D02*
G01*
X76922710Y-142715063D01*
X77105336Y-142790709D01*
X77269694Y-142900530D01*
X77409470Y-143040306D01*
X77519291Y-143204664D01*
X77594937Y-143387290D01*
X77633500Y-143581164D01*
X77633500Y-143778836D01*
X77594937Y-143972710D01*
X77519291Y-144155336D01*
X77409470Y-144319694D01*
X77269694Y-144459470D01*
X77105336Y-144569291D01*
X76922710Y-144644937D01*
X76756425Y-144678012D01*
X76728837Y-144683500D01*
X76531163Y-144683500D01*
X76503575Y-144678012D01*
X76337290Y-144644937D01*
X76154664Y-144569291D01*
X75990306Y-144459470D01*
X75850530Y-144319694D01*
X75740709Y-144155336D01*
X75665063Y-143972710D01*
X75626500Y-143778836D01*
X75626500Y-143581164D01*
X75665063Y-143387290D01*
X75740709Y-143204664D01*
X75850530Y-143040306D01*
X75990306Y-142900530D01*
X76154664Y-142790709D01*
X76337290Y-142715063D01*
X76503575Y-142681988D01*
X76531163Y-142676500D01*
X76728837Y-142676500D01*
X76756425Y-142681988D01*
G37*
G36*
X127391474Y-139071684D02*
G01*
X127609474Y-139161983D01*
X127763623Y-139225833D01*
X128098548Y-139449623D01*
X128383377Y-139734452D01*
X128607167Y-140069377D01*
X128607167Y-140069378D01*
X128761316Y-140441526D01*
X128839900Y-140836594D01*
X128839900Y-141239406D01*
X128761316Y-141634474D01*
X128699363Y-141784041D01*
X128607167Y-142006623D01*
X128383377Y-142341548D01*
X128098548Y-142626377D01*
X127763623Y-142850167D01*
X127642035Y-142900530D01*
X127391474Y-143004316D01*
X126996406Y-143082900D01*
X126593594Y-143082900D01*
X126198526Y-143004316D01*
X125947965Y-142900530D01*
X125826377Y-142850167D01*
X125491452Y-142626377D01*
X125206623Y-142341548D01*
X124982833Y-142006623D01*
X124890637Y-141784041D01*
X124828684Y-141634474D01*
X124750100Y-141239406D01*
X124750100Y-140836594D01*
X124828684Y-140441526D01*
X124982833Y-140069378D01*
X124982833Y-140069377D01*
X125206623Y-139734452D01*
X125491452Y-139449623D01*
X125826377Y-139225833D01*
X125980526Y-139161983D01*
X126198526Y-139071684D01*
X126593594Y-138993100D01*
X126996406Y-138993100D01*
X127391474Y-139071684D01*
G37*
G36*
X142327945Y-139490414D02*
G01*
X142494411Y-139523526D01*
X142603282Y-139568622D01*
X142781041Y-139642252D01*
X142781042Y-139642253D01*
X143039004Y-139814617D01*
X143258383Y-140033996D01*
X143282024Y-140069378D01*
X143430748Y-140291959D01*
X143549474Y-140578590D01*
X143610000Y-140882875D01*
X143610000Y-141193125D01*
X143549474Y-141497410D01*
X143430748Y-141784041D01*
X143430747Y-141784042D01*
X143258383Y-142042004D01*
X143039004Y-142261383D01*
X142919028Y-142341548D01*
X142781041Y-142433748D01*
X142613137Y-142503296D01*
X142494411Y-142552474D01*
X142342267Y-142582737D01*
X142190125Y-142613000D01*
X141879875Y-142613000D01*
X141727733Y-142582737D01*
X141575589Y-142552474D01*
X141456863Y-142503296D01*
X141288959Y-142433748D01*
X141150972Y-142341548D01*
X141030996Y-142261383D01*
X140811617Y-142042004D01*
X140639253Y-141784042D01*
X140639252Y-141784041D01*
X140520526Y-141497410D01*
X140460000Y-141193125D01*
X140460000Y-140882875D01*
X140520526Y-140578590D01*
X140639252Y-140291959D01*
X140787976Y-140069378D01*
X140811617Y-140033996D01*
X141030996Y-139814617D01*
X141288958Y-139642253D01*
X141288959Y-139642252D01*
X141466718Y-139568622D01*
X141575589Y-139523526D01*
X141742055Y-139490414D01*
X141879875Y-139463000D01*
X142190125Y-139463000D01*
X142327945Y-139490414D01*
G37*
G36*
X97546474Y-136633684D02*
G01*
X97764474Y-136723983D01*
X97918623Y-136787833D01*
X98253548Y-137011623D01*
X98538377Y-137296452D01*
X98762167Y-137631377D01*
X98794562Y-137709586D01*
X98916316Y-138003526D01*
X98994900Y-138398594D01*
X98994900Y-138801406D01*
X98916316Y-139196474D01*
X98865451Y-139319272D01*
X98762167Y-139568623D01*
X98538377Y-139903548D01*
X98253548Y-140188377D01*
X97918623Y-140412167D01*
X97764474Y-140476017D01*
X97546474Y-140566316D01*
X97151406Y-140644900D01*
X96748594Y-140644900D01*
X96353526Y-140566316D01*
X96135526Y-140476017D01*
X95981377Y-140412167D01*
X95646452Y-140188377D01*
X95361623Y-139903548D01*
X95137833Y-139568623D01*
X95034549Y-139319272D01*
X94983684Y-139196474D01*
X94905100Y-138801406D01*
X94905100Y-138398594D01*
X94983684Y-138003526D01*
X95105438Y-137709586D01*
X95137833Y-137631377D01*
X95361623Y-137296452D01*
X95646452Y-137011623D01*
X95981377Y-136787833D01*
X96135526Y-136723983D01*
X96353526Y-136633684D01*
X96748594Y-136555100D01*
X97151406Y-136555100D01*
X97546474Y-136633684D01*
G37*
G36*
X116596474Y-136633684D02*
G01*
X116814474Y-136723983D01*
X116968623Y-136787833D01*
X117303548Y-137011623D01*
X117588377Y-137296452D01*
X117812167Y-137631377D01*
X117844562Y-137709586D01*
X117966316Y-138003526D01*
X118044900Y-138398594D01*
X118044900Y-138801406D01*
X117966316Y-139196474D01*
X117915451Y-139319272D01*
X117812167Y-139568623D01*
X117588377Y-139903548D01*
X117303548Y-140188377D01*
X116968623Y-140412167D01*
X116814474Y-140476017D01*
X116596474Y-140566316D01*
X116201406Y-140644900D01*
X115798594Y-140644900D01*
X115403526Y-140566316D01*
X115185526Y-140476017D01*
X115031377Y-140412167D01*
X114696452Y-140188377D01*
X114411623Y-139903548D01*
X114187833Y-139568623D01*
X114084549Y-139319272D01*
X114033684Y-139196474D01*
X113955100Y-138801406D01*
X113955100Y-138398594D01*
X114033684Y-138003526D01*
X114155438Y-137709586D01*
X114187833Y-137631377D01*
X114411623Y-137296452D01*
X114696452Y-137011623D01*
X115031377Y-136787833D01*
X115185526Y-136723983D01*
X115403526Y-136633684D01*
X115798594Y-136555100D01*
X116201406Y-136555100D01*
X116596474Y-136633684D01*
G37*
G36*
X78496474Y-136633684D02*
G01*
X78714474Y-136723983D01*
X78868623Y-136787833D01*
X79203548Y-137011623D01*
X79488377Y-137296452D01*
X79712167Y-137631377D01*
X79744562Y-137709586D01*
X79866316Y-138003526D01*
X79944900Y-138398594D01*
X79944900Y-138801406D01*
X79866316Y-139196474D01*
X79815451Y-139319272D01*
X79712167Y-139568623D01*
X79488377Y-139903548D01*
X79203548Y-140188377D01*
X78868623Y-140412167D01*
X78714474Y-140476017D01*
X78496474Y-140566316D01*
X78101406Y-140644900D01*
X77698594Y-140644900D01*
X77303526Y-140566316D01*
X77085526Y-140476017D01*
X76931377Y-140412167D01*
X76596452Y-140188377D01*
X76311623Y-139903548D01*
X76087833Y-139568623D01*
X75984549Y-139319272D01*
X75933684Y-139196474D01*
X75855100Y-138801406D01*
X75855100Y-138398594D01*
X75933684Y-138003526D01*
X76055438Y-137709586D01*
X76087833Y-137631377D01*
X76311623Y-137296452D01*
X76596452Y-137011623D01*
X76931377Y-136787833D01*
X77085526Y-136723983D01*
X77303526Y-136633684D01*
X77698594Y-136555100D01*
X78101406Y-136555100D01*
X78496474Y-136633684D01*
G37*
G36*
X102300104Y-137709585D02*
G01*
X102468626Y-137779389D01*
X102620291Y-137880728D01*
X102749272Y-138009709D01*
X102850611Y-138161374D01*
X102920415Y-138329896D01*
X102956000Y-138508797D01*
X102956000Y-138691203D01*
X102920415Y-138870104D01*
X102850611Y-139038626D01*
X102749272Y-139190291D01*
X102620291Y-139319272D01*
X102468626Y-139420611D01*
X102300104Y-139490415D01*
X102121203Y-139526000D01*
X101938797Y-139526000D01*
X101759896Y-139490415D01*
X101591374Y-139420611D01*
X101439709Y-139319272D01*
X101310728Y-139190291D01*
X101209389Y-139038626D01*
X101139585Y-138870104D01*
X101104000Y-138691203D01*
X101104000Y-138508797D01*
X101139585Y-138329896D01*
X101209389Y-138161374D01*
X101310728Y-138009709D01*
X101439709Y-137880728D01*
X101591374Y-137779389D01*
X101759896Y-137709585D01*
X101938797Y-137674000D01*
X102121203Y-137674000D01*
X102300104Y-137709585D01*
G37*
G36*
X73090104Y-137709585D02*
G01*
X73258626Y-137779389D01*
X73410291Y-137880728D01*
X73539272Y-138009709D01*
X73640611Y-138161374D01*
X73710415Y-138329896D01*
X73746000Y-138508797D01*
X73746000Y-138691203D01*
X73710415Y-138870104D01*
X73640611Y-139038626D01*
X73539272Y-139190291D01*
X73410291Y-139319272D01*
X73258626Y-139420611D01*
X73090104Y-139490415D01*
X72911203Y-139526000D01*
X72728797Y-139526000D01*
X72549896Y-139490415D01*
X72381374Y-139420611D01*
X72229709Y-139319272D01*
X72100728Y-139190291D01*
X71999389Y-139038626D01*
X71929585Y-138870104D01*
X71894000Y-138691203D01*
X71894000Y-138508797D01*
X71929585Y-138329896D01*
X71999389Y-138161374D01*
X72100728Y-138009709D01*
X72229709Y-137880728D01*
X72381374Y-137779389D01*
X72549896Y-137709585D01*
X72728797Y-137674000D01*
X72911203Y-137674000D01*
X73090104Y-137709585D01*
G37*
G36*
X83250104Y-137709585D02*
G01*
X83418626Y-137779389D01*
X83570291Y-137880728D01*
X83699272Y-138009709D01*
X83800611Y-138161374D01*
X83870415Y-138329896D01*
X83906000Y-138508797D01*
X83906000Y-138691203D01*
X83870415Y-138870104D01*
X83800611Y-139038626D01*
X83699272Y-139190291D01*
X83570291Y-139319272D01*
X83418626Y-139420611D01*
X83250104Y-139490415D01*
X83071203Y-139526000D01*
X82888797Y-139526000D01*
X82709896Y-139490415D01*
X82541374Y-139420611D01*
X82389709Y-139319272D01*
X82260728Y-139190291D01*
X82159389Y-139038626D01*
X82089585Y-138870104D01*
X82054000Y-138691203D01*
X82054000Y-138508797D01*
X82089585Y-138329896D01*
X82159389Y-138161374D01*
X82260728Y-138009709D01*
X82389709Y-137880728D01*
X82541374Y-137779389D01*
X82709896Y-137709585D01*
X82888797Y-137674000D01*
X83071203Y-137674000D01*
X83250104Y-137709585D01*
G37*
G36*
X92140104Y-137709585D02*
G01*
X92308626Y-137779389D01*
X92460291Y-137880728D01*
X92589272Y-138009709D01*
X92690611Y-138161374D01*
X92760415Y-138329896D01*
X92796000Y-138508797D01*
X92796000Y-138691203D01*
X92760415Y-138870104D01*
X92690611Y-139038626D01*
X92589272Y-139190291D01*
X92460291Y-139319272D01*
X92308626Y-139420611D01*
X92140104Y-139490415D01*
X91961203Y-139526000D01*
X91778797Y-139526000D01*
X91599896Y-139490415D01*
X91431374Y-139420611D01*
X91279709Y-139319272D01*
X91150728Y-139190291D01*
X91049389Y-139038626D01*
X90979585Y-138870104D01*
X90944000Y-138691203D01*
X90944000Y-138508797D01*
X90979585Y-138329896D01*
X91049389Y-138161374D01*
X91150728Y-138009709D01*
X91279709Y-137880728D01*
X91431374Y-137779389D01*
X91599896Y-137709585D01*
X91778797Y-137674000D01*
X91961203Y-137674000D01*
X92140104Y-137709585D01*
G37*
G36*
X111190104Y-137709585D02*
G01*
X111358626Y-137779389D01*
X111510291Y-137880728D01*
X111639272Y-138009709D01*
X111740611Y-138161374D01*
X111810415Y-138329896D01*
X111846000Y-138508797D01*
X111846000Y-138691203D01*
X111810415Y-138870104D01*
X111740611Y-139038626D01*
X111639272Y-139190291D01*
X111510291Y-139319272D01*
X111358626Y-139420611D01*
X111190104Y-139490415D01*
X111011203Y-139526000D01*
X110828797Y-139526000D01*
X110649896Y-139490415D01*
X110481374Y-139420611D01*
X110329709Y-139319272D01*
X110200728Y-139190291D01*
X110099389Y-139038626D01*
X110029585Y-138870104D01*
X109994000Y-138691203D01*
X109994000Y-138508797D01*
X110029585Y-138329896D01*
X110099389Y-138161374D01*
X110200728Y-138009709D01*
X110329709Y-137880728D01*
X110481374Y-137779389D01*
X110649896Y-137709585D01*
X110828797Y-137674000D01*
X111011203Y-137674000D01*
X111190104Y-137709585D01*
G37*
G36*
X121350104Y-137709585D02*
G01*
X121518626Y-137779389D01*
X121670291Y-137880728D01*
X121799272Y-138009709D01*
X121900611Y-138161374D01*
X121970415Y-138329896D01*
X122006000Y-138508797D01*
X122006000Y-138691203D01*
X121970415Y-138870104D01*
X121900611Y-139038626D01*
X121799272Y-139190291D01*
X121670291Y-139319272D01*
X121518626Y-139420611D01*
X121350104Y-139490415D01*
X121171203Y-139526000D01*
X120988797Y-139526000D01*
X120809896Y-139490415D01*
X120641374Y-139420611D01*
X120489709Y-139319272D01*
X120360728Y-139190291D01*
X120259389Y-139038626D01*
X120189585Y-138870104D01*
X120154000Y-138691203D01*
X120154000Y-138508797D01*
X120189585Y-138329896D01*
X120259389Y-138161374D01*
X120360728Y-138009709D01*
X120489709Y-137880728D01*
X120641374Y-137779389D01*
X120809896Y-137709585D01*
X120988797Y-137674000D01*
X121171203Y-137674000D01*
X121350104Y-137709585D01*
G37*
G36*
X93331560Y-134899064D02*
G01*
X93483027Y-134929193D01*
X93697045Y-135017842D01*
X93697046Y-135017843D01*
X93889654Y-135146539D01*
X94053461Y-135310346D01*
X94139258Y-135438751D01*
X94182158Y-135502955D01*
X94270807Y-135716973D01*
X94316000Y-135944174D01*
X94316000Y-136175826D01*
X94270807Y-136403027D01*
X94182158Y-136617045D01*
X94182157Y-136617046D01*
X94053461Y-136809654D01*
X93889654Y-136973461D01*
X93832540Y-137011623D01*
X93697045Y-137102158D01*
X93483027Y-137190807D01*
X93331560Y-137220936D01*
X93255827Y-137236000D01*
X93024173Y-137236000D01*
X92948440Y-137220936D01*
X92796973Y-137190807D01*
X92582955Y-137102158D01*
X92447460Y-137011623D01*
X92390346Y-136973461D01*
X92226539Y-136809654D01*
X92097843Y-136617046D01*
X92097842Y-136617045D01*
X92009193Y-136403027D01*
X91964000Y-136175826D01*
X91964000Y-135944174D01*
X92009193Y-135716973D01*
X92097842Y-135502955D01*
X92140742Y-135438751D01*
X92226539Y-135310346D01*
X92390346Y-135146539D01*
X92582954Y-135017843D01*
X92582955Y-135017842D01*
X92796973Y-134929193D01*
X92948440Y-134899064D01*
X93024173Y-134884000D01*
X93255827Y-134884000D01*
X93331560Y-134899064D01*
G37*
G36*
X74281560Y-134899064D02*
G01*
X74433027Y-134929193D01*
X74647045Y-135017842D01*
X74647046Y-135017843D01*
X74839654Y-135146539D01*
X75003461Y-135310346D01*
X75089258Y-135438751D01*
X75132158Y-135502955D01*
X75220807Y-135716973D01*
X75266000Y-135944174D01*
X75266000Y-136175826D01*
X75220807Y-136403027D01*
X75132158Y-136617045D01*
X75132157Y-136617046D01*
X75003461Y-136809654D01*
X74839654Y-136973461D01*
X74782540Y-137011623D01*
X74647045Y-137102158D01*
X74433027Y-137190807D01*
X74281560Y-137220936D01*
X74205827Y-137236000D01*
X73974173Y-137236000D01*
X73898440Y-137220936D01*
X73746973Y-137190807D01*
X73532955Y-137102158D01*
X73397460Y-137011623D01*
X73340346Y-136973461D01*
X73176539Y-136809654D01*
X73047843Y-136617046D01*
X73047842Y-136617045D01*
X72959193Y-136403027D01*
X72914000Y-136175826D01*
X72914000Y-135944174D01*
X72959193Y-135716973D01*
X73047842Y-135502955D01*
X73090742Y-135438751D01*
X73176539Y-135310346D01*
X73340346Y-135146539D01*
X73532954Y-135017843D01*
X73532955Y-135017842D01*
X73746973Y-134929193D01*
X73898440Y-134899064D01*
X73974173Y-134884000D01*
X74205827Y-134884000D01*
X74281560Y-134899064D01*
G37*
G36*
X112381560Y-134899064D02*
G01*
X112533027Y-134929193D01*
X112747045Y-135017842D01*
X112747046Y-135017843D01*
X112939654Y-135146539D01*
X113103461Y-135310346D01*
X113189258Y-135438751D01*
X113232158Y-135502955D01*
X113320807Y-135716973D01*
X113366000Y-135944174D01*
X113366000Y-136175826D01*
X113320807Y-136403027D01*
X113232158Y-136617045D01*
X113232157Y-136617046D01*
X113103461Y-136809654D01*
X112939654Y-136973461D01*
X112882540Y-137011623D01*
X112747045Y-137102158D01*
X112533027Y-137190807D01*
X112381560Y-137220936D01*
X112305827Y-137236000D01*
X112074173Y-137236000D01*
X111998440Y-137220936D01*
X111846973Y-137190807D01*
X111632955Y-137102158D01*
X111497460Y-137011623D01*
X111440346Y-136973461D01*
X111276539Y-136809654D01*
X111147843Y-136617046D01*
X111147842Y-136617045D01*
X111059193Y-136403027D01*
X111014000Y-136175826D01*
X111014000Y-135944174D01*
X111059193Y-135716973D01*
X111147842Y-135502955D01*
X111190742Y-135438751D01*
X111276539Y-135310346D01*
X111440346Y-135146539D01*
X111632954Y-135017843D01*
X111632955Y-135017842D01*
X111846973Y-134929193D01*
X111998440Y-134899064D01*
X112074173Y-134884000D01*
X112305827Y-134884000D01*
X112381560Y-134899064D01*
G37*
G36*
X133906425Y-133181988D02*
G01*
X134072710Y-133215063D01*
X134255336Y-133290709D01*
X134419694Y-133400530D01*
X134559470Y-133540306D01*
X134669291Y-133704664D01*
X134744937Y-133887290D01*
X134783500Y-134081164D01*
X134783500Y-134278836D01*
X134744937Y-134472710D01*
X134669291Y-134655336D01*
X134559470Y-134819694D01*
X134419694Y-134959470D01*
X134255336Y-135069291D01*
X134072710Y-135144937D01*
X133906425Y-135178012D01*
X133878837Y-135183500D01*
X133681163Y-135183500D01*
X133653575Y-135178012D01*
X133487290Y-135144937D01*
X133304664Y-135069291D01*
X133140306Y-134959470D01*
X133000530Y-134819694D01*
X132890709Y-134655336D01*
X132815063Y-134472710D01*
X132776500Y-134278836D01*
X132776500Y-134081164D01*
X132815063Y-133887290D01*
X132890709Y-133704664D01*
X133000530Y-133540306D01*
X133140306Y-133400530D01*
X133304664Y-133290709D01*
X133487290Y-133215063D01*
X133653575Y-133181988D01*
X133681163Y-133176500D01*
X133878837Y-133176500D01*
X133906425Y-133181988D01*
G37*
G36*
X137323500Y-135183500D02*
G01*
X135316500Y-135183500D01*
X135316500Y-133176500D01*
X137323500Y-133176500D01*
X137323500Y-135183500D01*
G37*
G36*
X99681560Y-132359064D02*
G01*
X99833027Y-132389193D01*
X100047045Y-132477842D01*
X100047046Y-132477843D01*
X100239654Y-132606539D01*
X100403461Y-132770346D01*
X100489258Y-132898751D01*
X100532158Y-132962955D01*
X100620807Y-133176973D01*
X100666000Y-133404174D01*
X100666000Y-133635826D01*
X100620807Y-133863027D01*
X100532158Y-134077045D01*
X100489258Y-134141249D01*
X100403461Y-134269654D01*
X100239654Y-134433461D01*
X100180913Y-134472710D01*
X100047045Y-134562158D01*
X99833027Y-134650807D01*
X99681560Y-134680936D01*
X99605827Y-134696000D01*
X99374173Y-134696000D01*
X99298440Y-134680936D01*
X99146973Y-134650807D01*
X98932955Y-134562158D01*
X98799087Y-134472710D01*
X98740346Y-134433461D01*
X98576539Y-134269654D01*
X98490742Y-134141249D01*
X98447842Y-134077045D01*
X98359193Y-133863027D01*
X98314000Y-133635826D01*
X98314000Y-133404174D01*
X98359193Y-133176973D01*
X98447842Y-132962955D01*
X98490742Y-132898751D01*
X98576539Y-132770346D01*
X98740346Y-132606539D01*
X98932954Y-132477843D01*
X98932955Y-132477842D01*
X99146973Y-132389193D01*
X99298440Y-132359064D01*
X99374173Y-132344000D01*
X99605827Y-132344000D01*
X99681560Y-132359064D01*
G37*
G36*
X118731560Y-132359064D02*
G01*
X118883027Y-132389193D01*
X119097045Y-132477842D01*
X119097046Y-132477843D01*
X119289654Y-132606539D01*
X119453461Y-132770346D01*
X119539258Y-132898751D01*
X119582158Y-132962955D01*
X119670807Y-133176973D01*
X119716000Y-133404174D01*
X119716000Y-133635826D01*
X119670807Y-133863027D01*
X119582158Y-134077045D01*
X119539258Y-134141249D01*
X119453461Y-134269654D01*
X119289654Y-134433461D01*
X119230913Y-134472710D01*
X119097045Y-134562158D01*
X118883027Y-134650807D01*
X118731560Y-134680936D01*
X118655827Y-134696000D01*
X118424173Y-134696000D01*
X118348440Y-134680936D01*
X118196973Y-134650807D01*
X117982955Y-134562158D01*
X117849087Y-134472710D01*
X117790346Y-134433461D01*
X117626539Y-134269654D01*
X117540742Y-134141249D01*
X117497842Y-134077045D01*
X117409193Y-133863027D01*
X117364000Y-133635826D01*
X117364000Y-133404174D01*
X117409193Y-133176973D01*
X117497842Y-132962955D01*
X117540742Y-132898751D01*
X117626539Y-132770346D01*
X117790346Y-132606539D01*
X117982954Y-132477843D01*
X117982955Y-132477842D01*
X118196973Y-132389193D01*
X118348440Y-132359064D01*
X118424173Y-132344000D01*
X118655827Y-132344000D01*
X118731560Y-132359064D01*
G37*
G36*
X80631560Y-132359064D02*
G01*
X80783027Y-132389193D01*
X80997045Y-132477842D01*
X80997046Y-132477843D01*
X81189654Y-132606539D01*
X81353461Y-132770346D01*
X81439258Y-132898751D01*
X81482158Y-132962955D01*
X81570807Y-133176973D01*
X81616000Y-133404174D01*
X81616000Y-133635826D01*
X81570807Y-133863027D01*
X81482158Y-134077045D01*
X81439258Y-134141249D01*
X81353461Y-134269654D01*
X81189654Y-134433461D01*
X81130913Y-134472710D01*
X80997045Y-134562158D01*
X80783027Y-134650807D01*
X80631560Y-134680936D01*
X80555827Y-134696000D01*
X80324173Y-134696000D01*
X80248440Y-134680936D01*
X80096973Y-134650807D01*
X79882955Y-134562158D01*
X79749087Y-134472710D01*
X79690346Y-134433461D01*
X79526539Y-134269654D01*
X79440742Y-134141249D01*
X79397842Y-134077045D01*
X79309193Y-133863027D01*
X79264000Y-133635826D01*
X79264000Y-133404174D01*
X79309193Y-133176973D01*
X79397842Y-132962955D01*
X79440742Y-132898751D01*
X79526539Y-132770346D01*
X79690346Y-132606539D01*
X79882954Y-132477843D01*
X79882955Y-132477842D01*
X80096973Y-132389193D01*
X80248440Y-132359064D01*
X80324173Y-132344000D01*
X80555827Y-132344000D01*
X80631560Y-132359064D01*
G37*
G36*
X68675880Y-126859776D02*
G01*
X69056593Y-126935504D01*
X69466249Y-127105189D01*
X69834929Y-127351534D01*
X70148466Y-127665071D01*
X70394811Y-128033751D01*
X70564496Y-128443407D01*
X70651000Y-128878296D01*
X70651000Y-129321704D01*
X70564496Y-129756593D01*
X70394811Y-130166249D01*
X70148466Y-130534929D01*
X69834929Y-130848466D01*
X69466249Y-131094811D01*
X69056593Y-131264496D01*
X68675880Y-131340224D01*
X68621705Y-131351000D01*
X68178295Y-131351000D01*
X68124120Y-131340224D01*
X67743407Y-131264496D01*
X67333751Y-131094811D01*
X66965071Y-130848466D01*
X66651534Y-130534929D01*
X66405189Y-130166249D01*
X66235504Y-129756593D01*
X66149000Y-129321704D01*
X66149000Y-128878296D01*
X66235504Y-128443407D01*
X66405189Y-128033751D01*
X66651534Y-127665071D01*
X66965071Y-127351534D01*
X67333751Y-127105189D01*
X67743407Y-126935504D01*
X68124120Y-126859776D01*
X68178295Y-126849000D01*
X68621705Y-126849000D01*
X68675880Y-126859776D01*
G37*
G36*
X135646474Y-127133684D02*
G01*
X135864474Y-127223983D01*
X136018623Y-127287833D01*
X136353548Y-127511623D01*
X136638377Y-127796452D01*
X136862167Y-128131377D01*
X136894562Y-128209586D01*
X137016316Y-128503526D01*
X137094900Y-128898594D01*
X137094900Y-129301406D01*
X137016316Y-129696474D01*
X136965451Y-129819272D01*
X136862167Y-130068623D01*
X136638377Y-130403548D01*
X136353548Y-130688377D01*
X136018623Y-130912167D01*
X135864474Y-130976017D01*
X135646474Y-131066316D01*
X135251406Y-131144900D01*
X134848594Y-131144900D01*
X134453526Y-131066316D01*
X134235526Y-130976017D01*
X134081377Y-130912167D01*
X133746452Y-130688377D01*
X133461623Y-130403548D01*
X133237833Y-130068623D01*
X133134549Y-129819272D01*
X133083684Y-129696474D01*
X133005100Y-129301406D01*
X133005100Y-128898594D01*
X133083684Y-128503526D01*
X133205438Y-128209586D01*
X133237833Y-128131377D01*
X133461623Y-127796452D01*
X133746452Y-127511623D01*
X134081377Y-127287833D01*
X134235526Y-127223983D01*
X134453526Y-127133684D01*
X134848594Y-127055100D01*
X135251406Y-127055100D01*
X135646474Y-127133684D01*
G37*
G36*
X140400104Y-128209585D02*
G01*
X140568626Y-128279389D01*
X140720291Y-128380728D01*
X140849272Y-128509709D01*
X140950611Y-128661374D01*
X141020415Y-128829896D01*
X141056000Y-129008797D01*
X141056000Y-129191203D01*
X141020415Y-129370104D01*
X140950611Y-129538626D01*
X140849272Y-129690291D01*
X140720291Y-129819272D01*
X140568626Y-129920611D01*
X140400104Y-129990415D01*
X140221203Y-130026000D01*
X140038797Y-130026000D01*
X139859896Y-129990415D01*
X139691374Y-129920611D01*
X139539709Y-129819272D01*
X139410728Y-129690291D01*
X139309389Y-129538626D01*
X139239585Y-129370104D01*
X139204000Y-129191203D01*
X139204000Y-129008797D01*
X139239585Y-128829896D01*
X139309389Y-128661374D01*
X139410728Y-128509709D01*
X139539709Y-128380728D01*
X139691374Y-128279389D01*
X139859896Y-128209585D01*
X140038797Y-128174000D01*
X140221203Y-128174000D01*
X140400104Y-128209585D01*
G37*
G36*
X130240104Y-128209585D02*
G01*
X130408626Y-128279389D01*
X130560291Y-128380728D01*
X130689272Y-128509709D01*
X130790611Y-128661374D01*
X130860415Y-128829896D01*
X130896000Y-129008797D01*
X130896000Y-129191203D01*
X130860415Y-129370104D01*
X130790611Y-129538626D01*
X130689272Y-129690291D01*
X130560291Y-129819272D01*
X130408626Y-129920611D01*
X130240104Y-129990415D01*
X130061203Y-130026000D01*
X129878797Y-130026000D01*
X129699896Y-129990415D01*
X129531374Y-129920611D01*
X129379709Y-129819272D01*
X129250728Y-129690291D01*
X129149389Y-129538626D01*
X129079585Y-129370104D01*
X129044000Y-129191203D01*
X129044000Y-129008797D01*
X129079585Y-128829896D01*
X129149389Y-128661374D01*
X129250728Y-128509709D01*
X129379709Y-128380728D01*
X129531374Y-128279389D01*
X129699896Y-128209585D01*
X129878797Y-128174000D01*
X130061203Y-128174000D01*
X130240104Y-128209585D01*
G37*
G36*
X131431560Y-125399064D02*
G01*
X131583027Y-125429193D01*
X131797045Y-125517842D01*
X131861249Y-125560742D01*
X131989654Y-125646539D01*
X132153461Y-125810346D01*
X132239258Y-125938751D01*
X132282158Y-126002955D01*
X132370807Y-126216973D01*
X132416000Y-126444174D01*
X132416000Y-126675826D01*
X132370807Y-126903027D01*
X132282158Y-127117045D01*
X132282157Y-127117046D01*
X132153461Y-127309654D01*
X131989654Y-127473461D01*
X131932540Y-127511623D01*
X131797045Y-127602158D01*
X131583027Y-127690807D01*
X131431560Y-127720936D01*
X131355827Y-127736000D01*
X131124173Y-127736000D01*
X131048440Y-127720936D01*
X130896973Y-127690807D01*
X130682955Y-127602158D01*
X130547460Y-127511623D01*
X130490346Y-127473461D01*
X130326539Y-127309654D01*
X130197843Y-127117046D01*
X130197842Y-127117045D01*
X130109193Y-126903027D01*
X130064000Y-126675826D01*
X130064000Y-126444174D01*
X130109193Y-126216973D01*
X130197842Y-126002955D01*
X130240742Y-125938751D01*
X130326539Y-125810346D01*
X130490346Y-125646539D01*
X130618751Y-125560742D01*
X130682955Y-125517842D01*
X130896973Y-125429193D01*
X131048440Y-125399064D01*
X131124173Y-125384000D01*
X131355827Y-125384000D01*
X131431560Y-125399064D01*
G37*
G36*
X114856425Y-123631988D02*
G01*
X115022710Y-123665063D01*
X115205336Y-123740709D01*
X115369694Y-123850530D01*
X115509470Y-123990306D01*
X115619291Y-124154664D01*
X115694937Y-124337290D01*
X115733500Y-124531164D01*
X115733500Y-124728836D01*
X115694937Y-124922710D01*
X115619291Y-125105336D01*
X115509470Y-125269694D01*
X115369694Y-125409470D01*
X115205336Y-125519291D01*
X115022710Y-125594937D01*
X114856425Y-125628012D01*
X114828837Y-125633500D01*
X114631163Y-125633500D01*
X114603575Y-125628012D01*
X114437290Y-125594937D01*
X114254664Y-125519291D01*
X114090306Y-125409470D01*
X113950530Y-125269694D01*
X113840709Y-125105336D01*
X113765063Y-124922710D01*
X113726500Y-124728836D01*
X113726500Y-124531164D01*
X113765063Y-124337290D01*
X113840709Y-124154664D01*
X113950530Y-123990306D01*
X114090306Y-123850530D01*
X114254664Y-123740709D01*
X114437290Y-123665063D01*
X114603575Y-123631988D01*
X114631163Y-123626500D01*
X114828837Y-123626500D01*
X114856425Y-123631988D01*
G37*
G36*
X118273500Y-125633500D02*
G01*
X116266500Y-125633500D01*
X116266500Y-123626500D01*
X118273500Y-123626500D01*
X118273500Y-125633500D01*
G37*
G36*
X99223500Y-125633500D02*
G01*
X97216500Y-125633500D01*
X97216500Y-123626500D01*
X99223500Y-123626500D01*
X99223500Y-125633500D01*
G37*
G36*
X95806425Y-123631988D02*
G01*
X95972710Y-123665063D01*
X96155336Y-123740709D01*
X96319694Y-123850530D01*
X96459470Y-123990306D01*
X96569291Y-124154664D01*
X96644937Y-124337290D01*
X96683500Y-124531164D01*
X96683500Y-124728836D01*
X96644937Y-124922710D01*
X96569291Y-125105336D01*
X96459470Y-125269694D01*
X96319694Y-125409470D01*
X96155336Y-125519291D01*
X95972710Y-125594937D01*
X95806425Y-125628012D01*
X95778837Y-125633500D01*
X95581163Y-125633500D01*
X95553575Y-125628012D01*
X95387290Y-125594937D01*
X95204664Y-125519291D01*
X95040306Y-125409470D01*
X94900530Y-125269694D01*
X94790709Y-125105336D01*
X94715063Y-124922710D01*
X94676500Y-124728836D01*
X94676500Y-124531164D01*
X94715063Y-124337290D01*
X94790709Y-124154664D01*
X94900530Y-123990306D01*
X95040306Y-123850530D01*
X95204664Y-123740709D01*
X95387290Y-123665063D01*
X95553575Y-123631988D01*
X95581163Y-123626500D01*
X95778837Y-123626500D01*
X95806425Y-123631988D01*
G37*
G36*
X80173500Y-125633500D02*
G01*
X78166500Y-125633500D01*
X78166500Y-123626500D01*
X80173500Y-123626500D01*
X80173500Y-125633500D01*
G37*
G36*
X76756425Y-123631988D02*
G01*
X76922710Y-123665063D01*
X77105336Y-123740709D01*
X77269694Y-123850530D01*
X77409470Y-123990306D01*
X77519291Y-124154664D01*
X77594937Y-124337290D01*
X77633500Y-124531164D01*
X77633500Y-124728836D01*
X77594937Y-124922710D01*
X77519291Y-125105336D01*
X77409470Y-125269694D01*
X77269694Y-125409470D01*
X77105336Y-125519291D01*
X76922710Y-125594937D01*
X76756425Y-125628012D01*
X76728837Y-125633500D01*
X76531163Y-125633500D01*
X76503575Y-125628012D01*
X76337290Y-125594937D01*
X76154664Y-125519291D01*
X75990306Y-125409470D01*
X75850530Y-125269694D01*
X75740709Y-125105336D01*
X75665063Y-124922710D01*
X75626500Y-124728836D01*
X75626500Y-124531164D01*
X75665063Y-124337290D01*
X75740709Y-124154664D01*
X75850530Y-123990306D01*
X75990306Y-123850530D01*
X76154664Y-123740709D01*
X76337290Y-123665063D01*
X76503575Y-123631988D01*
X76531163Y-123626500D01*
X76728837Y-123626500D01*
X76756425Y-123631988D01*
G37*
G36*
X137781560Y-122859064D02*
G01*
X137933027Y-122889193D01*
X138147045Y-122977842D01*
X138147046Y-122977843D01*
X138339654Y-123106539D01*
X138503461Y-123270346D01*
X138589258Y-123398751D01*
X138632158Y-123462955D01*
X138720807Y-123676973D01*
X138720807Y-123676975D01*
X138766000Y-123904173D01*
X138766000Y-124135827D01*
X138750936Y-124211560D01*
X138720807Y-124363027D01*
X138632158Y-124577045D01*
X138632157Y-124577046D01*
X138503461Y-124769654D01*
X138339654Y-124933461D01*
X138211249Y-125019258D01*
X138147045Y-125062158D01*
X137933027Y-125150807D01*
X137781560Y-125180936D01*
X137705827Y-125196000D01*
X137474173Y-125196000D01*
X137398440Y-125180936D01*
X137246973Y-125150807D01*
X137032955Y-125062158D01*
X136968751Y-125019258D01*
X136840346Y-124933461D01*
X136676539Y-124769654D01*
X136547843Y-124577046D01*
X136547842Y-124577045D01*
X136459193Y-124363027D01*
X136429064Y-124211560D01*
X136414000Y-124135827D01*
X136414000Y-123904173D01*
X136459193Y-123676975D01*
X136459193Y-123676973D01*
X136547842Y-123462955D01*
X136590742Y-123398751D01*
X136676539Y-123270346D01*
X136840346Y-123106539D01*
X137032954Y-122977843D01*
X137032955Y-122977842D01*
X137246973Y-122889193D01*
X137398440Y-122859064D01*
X137474173Y-122844000D01*
X137705827Y-122844000D01*
X137781560Y-122859064D01*
G37*
G36*
X116596474Y-117583684D02*
G01*
X116814474Y-117673983D01*
X116968623Y-117737833D01*
X117303548Y-117961623D01*
X117588377Y-118246452D01*
X117812167Y-118581377D01*
X117844562Y-118659586D01*
X117966316Y-118953526D01*
X118044900Y-119348594D01*
X118044900Y-119751406D01*
X117966316Y-120146474D01*
X117915451Y-120269272D01*
X117812167Y-120518623D01*
X117588377Y-120853548D01*
X117303548Y-121138377D01*
X116968623Y-121362167D01*
X116814474Y-121426017D01*
X116596474Y-121516316D01*
X116201406Y-121594900D01*
X115798594Y-121594900D01*
X115403526Y-121516316D01*
X115185526Y-121426017D01*
X115031377Y-121362167D01*
X114696452Y-121138377D01*
X114411623Y-120853548D01*
X114187833Y-120518623D01*
X114084549Y-120269272D01*
X114033684Y-120146474D01*
X113955100Y-119751406D01*
X113955100Y-119348594D01*
X114033684Y-118953526D01*
X114155438Y-118659586D01*
X114187833Y-118581377D01*
X114411623Y-118246452D01*
X114696452Y-117961623D01*
X115031377Y-117737833D01*
X115185526Y-117673983D01*
X115403526Y-117583684D01*
X115798594Y-117505100D01*
X116201406Y-117505100D01*
X116596474Y-117583684D01*
G37*
G36*
X97546474Y-117583684D02*
G01*
X97764474Y-117673983D01*
X97918623Y-117737833D01*
X98253548Y-117961623D01*
X98538377Y-118246452D01*
X98762167Y-118581377D01*
X98794562Y-118659586D01*
X98916316Y-118953526D01*
X98994900Y-119348594D01*
X98994900Y-119751406D01*
X98916316Y-120146474D01*
X98865451Y-120269272D01*
X98762167Y-120518623D01*
X98538377Y-120853548D01*
X98253548Y-121138377D01*
X97918623Y-121362167D01*
X97764474Y-121426017D01*
X97546474Y-121516316D01*
X97151406Y-121594900D01*
X96748594Y-121594900D01*
X96353526Y-121516316D01*
X96135526Y-121426017D01*
X95981377Y-121362167D01*
X95646452Y-121138377D01*
X95361623Y-120853548D01*
X95137833Y-120518623D01*
X95034549Y-120269272D01*
X94983684Y-120146474D01*
X94905100Y-119751406D01*
X94905100Y-119348594D01*
X94983684Y-118953526D01*
X95105438Y-118659586D01*
X95137833Y-118581377D01*
X95361623Y-118246452D01*
X95646452Y-117961623D01*
X95981377Y-117737833D01*
X96135526Y-117673983D01*
X96353526Y-117583684D01*
X96748594Y-117505100D01*
X97151406Y-117505100D01*
X97546474Y-117583684D01*
G37*
G36*
X78496474Y-117583684D02*
G01*
X78714474Y-117673983D01*
X78868623Y-117737833D01*
X79203548Y-117961623D01*
X79488377Y-118246452D01*
X79712167Y-118581377D01*
X79744562Y-118659586D01*
X79866316Y-118953526D01*
X79944900Y-119348594D01*
X79944900Y-119751406D01*
X79866316Y-120146474D01*
X79815451Y-120269272D01*
X79712167Y-120518623D01*
X79488377Y-120853548D01*
X79203548Y-121138377D01*
X78868623Y-121362167D01*
X78714474Y-121426017D01*
X78496474Y-121516316D01*
X78101406Y-121594900D01*
X77698594Y-121594900D01*
X77303526Y-121516316D01*
X77085526Y-121426017D01*
X76931377Y-121362167D01*
X76596452Y-121138377D01*
X76311623Y-120853548D01*
X76087833Y-120518623D01*
X75984549Y-120269272D01*
X75933684Y-120146474D01*
X75855100Y-119751406D01*
X75855100Y-119348594D01*
X75933684Y-118953526D01*
X76055438Y-118659586D01*
X76087833Y-118581377D01*
X76311623Y-118246452D01*
X76596452Y-117961623D01*
X76931377Y-117737833D01*
X77085526Y-117673983D01*
X77303526Y-117583684D01*
X77698594Y-117505100D01*
X78101406Y-117505100D01*
X78496474Y-117583684D01*
G37*
G36*
X92140104Y-118659585D02*
G01*
X92308626Y-118729389D01*
X92460291Y-118830728D01*
X92589272Y-118959709D01*
X92690611Y-119111374D01*
X92760415Y-119279896D01*
X92796000Y-119458797D01*
X92796000Y-119641203D01*
X92760415Y-119820104D01*
X92690611Y-119988626D01*
X92589272Y-120140291D01*
X92460291Y-120269272D01*
X92308626Y-120370611D01*
X92140104Y-120440415D01*
X91961203Y-120476000D01*
X91778797Y-120476000D01*
X91599896Y-120440415D01*
X91431374Y-120370611D01*
X91279709Y-120269272D01*
X91150728Y-120140291D01*
X91049389Y-119988626D01*
X90979585Y-119820104D01*
X90944000Y-119641203D01*
X90944000Y-119458797D01*
X90979585Y-119279896D01*
X91049389Y-119111374D01*
X91150728Y-118959709D01*
X91279709Y-118830728D01*
X91431374Y-118729389D01*
X91599896Y-118659585D01*
X91778797Y-118624000D01*
X91961203Y-118624000D01*
X92140104Y-118659585D01*
G37*
G36*
X83250104Y-118659585D02*
G01*
X83418626Y-118729389D01*
X83570291Y-118830728D01*
X83699272Y-118959709D01*
X83800611Y-119111374D01*
X83870415Y-119279896D01*
X83906000Y-119458797D01*
X83906000Y-119641203D01*
X83870415Y-119820104D01*
X83800611Y-119988626D01*
X83699272Y-120140291D01*
X83570291Y-120269272D01*
X83418626Y-120370611D01*
X83250104Y-120440415D01*
X83071203Y-120476000D01*
X82888797Y-120476000D01*
X82709896Y-120440415D01*
X82541374Y-120370611D01*
X82389709Y-120269272D01*
X82260728Y-120140291D01*
X82159389Y-119988626D01*
X82089585Y-119820104D01*
X82054000Y-119641203D01*
X82054000Y-119458797D01*
X82089585Y-119279896D01*
X82159389Y-119111374D01*
X82260728Y-118959709D01*
X82389709Y-118830728D01*
X82541374Y-118729389D01*
X82709896Y-118659585D01*
X82888797Y-118624000D01*
X83071203Y-118624000D01*
X83250104Y-118659585D01*
G37*
G36*
X73090104Y-118659585D02*
G01*
X73258626Y-118729389D01*
X73410291Y-118830728D01*
X73539272Y-118959709D01*
X73640611Y-119111374D01*
X73710415Y-119279896D01*
X73746000Y-119458797D01*
X73746000Y-119641203D01*
X73710415Y-119820104D01*
X73640611Y-119988626D01*
X73539272Y-120140291D01*
X73410291Y-120269272D01*
X73258626Y-120370611D01*
X73090104Y-120440415D01*
X72911203Y-120476000D01*
X72728797Y-120476000D01*
X72549896Y-120440415D01*
X72381374Y-120370611D01*
X72229709Y-120269272D01*
X72100728Y-120140291D01*
X71999389Y-119988626D01*
X71929585Y-119820104D01*
X71894000Y-119641203D01*
X71894000Y-119458797D01*
X71929585Y-119279896D01*
X71999389Y-119111374D01*
X72100728Y-118959709D01*
X72229709Y-118830728D01*
X72381374Y-118729389D01*
X72549896Y-118659585D01*
X72728797Y-118624000D01*
X72911203Y-118624000D01*
X73090104Y-118659585D01*
G37*
G36*
X121350104Y-118659585D02*
G01*
X121518626Y-118729389D01*
X121670291Y-118830728D01*
X121799272Y-118959709D01*
X121900611Y-119111374D01*
X121970415Y-119279896D01*
X122006000Y-119458797D01*
X122006000Y-119641203D01*
X121970415Y-119820104D01*
X121900611Y-119988626D01*
X121799272Y-120140291D01*
X121670291Y-120269272D01*
X121518626Y-120370611D01*
X121350104Y-120440415D01*
X121171203Y-120476000D01*
X120988797Y-120476000D01*
X120809896Y-120440415D01*
X120641374Y-120370611D01*
X120489709Y-120269272D01*
X120360728Y-120140291D01*
X120259389Y-119988626D01*
X120189585Y-119820104D01*
X120154000Y-119641203D01*
X120154000Y-119458797D01*
X120189585Y-119279896D01*
X120259389Y-119111374D01*
X120360728Y-118959709D01*
X120489709Y-118830728D01*
X120641374Y-118729389D01*
X120809896Y-118659585D01*
X120988797Y-118624000D01*
X121171203Y-118624000D01*
X121350104Y-118659585D01*
G37*
G36*
X102300104Y-118659585D02*
G01*
X102468626Y-118729389D01*
X102620291Y-118830728D01*
X102749272Y-118959709D01*
X102850611Y-119111374D01*
X102920415Y-119279896D01*
X102956000Y-119458797D01*
X102956000Y-119641203D01*
X102920415Y-119820104D01*
X102850611Y-119988626D01*
X102749272Y-120140291D01*
X102620291Y-120269272D01*
X102468626Y-120370611D01*
X102300104Y-120440415D01*
X102121203Y-120476000D01*
X101938797Y-120476000D01*
X101759896Y-120440415D01*
X101591374Y-120370611D01*
X101439709Y-120269272D01*
X101310728Y-120140291D01*
X101209389Y-119988626D01*
X101139585Y-119820104D01*
X101104000Y-119641203D01*
X101104000Y-119458797D01*
X101139585Y-119279896D01*
X101209389Y-119111374D01*
X101310728Y-118959709D01*
X101439709Y-118830728D01*
X101591374Y-118729389D01*
X101759896Y-118659585D01*
X101938797Y-118624000D01*
X102121203Y-118624000D01*
X102300104Y-118659585D01*
G37*
G36*
X111190104Y-118659585D02*
G01*
X111358626Y-118729389D01*
X111510291Y-118830728D01*
X111639272Y-118959709D01*
X111740611Y-119111374D01*
X111810415Y-119279896D01*
X111846000Y-119458797D01*
X111846000Y-119641203D01*
X111810415Y-119820104D01*
X111740611Y-119988626D01*
X111639272Y-120140291D01*
X111510291Y-120269272D01*
X111358626Y-120370611D01*
X111190104Y-120440415D01*
X111011203Y-120476000D01*
X110828797Y-120476000D01*
X110649896Y-120440415D01*
X110481374Y-120370611D01*
X110329709Y-120269272D01*
X110200728Y-120140291D01*
X110099389Y-119988626D01*
X110029585Y-119820104D01*
X109994000Y-119641203D01*
X109994000Y-119458797D01*
X110029585Y-119279896D01*
X110099389Y-119111374D01*
X110200728Y-118959709D01*
X110329709Y-118830728D01*
X110481374Y-118729389D01*
X110649896Y-118659585D01*
X110828797Y-118624000D01*
X111011203Y-118624000D01*
X111190104Y-118659585D01*
G37*
G36*
X127391474Y-115195684D02*
G01*
X127609474Y-115285983D01*
X127763623Y-115349833D01*
X128098548Y-115573623D01*
X128383377Y-115858452D01*
X128607167Y-116193377D01*
X128634906Y-116260346D01*
X128761316Y-116565526D01*
X128839900Y-116960594D01*
X128839900Y-117363406D01*
X128761316Y-117758474D01*
X128760827Y-117759654D01*
X128607167Y-118130623D01*
X128383377Y-118465548D01*
X128098548Y-118750377D01*
X127763623Y-118974167D01*
X127609474Y-119038017D01*
X127391474Y-119128316D01*
X126996406Y-119206900D01*
X126593594Y-119206900D01*
X126198526Y-119128316D01*
X125980526Y-119038017D01*
X125826377Y-118974167D01*
X125491452Y-118750377D01*
X125206623Y-118465548D01*
X124982833Y-118130623D01*
X124829173Y-117759654D01*
X124828684Y-117758474D01*
X124750100Y-117363406D01*
X124750100Y-116960594D01*
X124828684Y-116565526D01*
X124955094Y-116260346D01*
X124982833Y-116193377D01*
X125206623Y-115858452D01*
X125491452Y-115573623D01*
X125826377Y-115349833D01*
X125980526Y-115285983D01*
X126198526Y-115195684D01*
X126593594Y-115117100D01*
X126996406Y-115117100D01*
X127391474Y-115195684D01*
G37*
G36*
X142494411Y-115647526D02*
G01*
X142613137Y-115696704D01*
X142781041Y-115766252D01*
X142781042Y-115766253D01*
X143039004Y-115938617D01*
X143258383Y-116157996D01*
X143282024Y-116193378D01*
X143430748Y-116415959D01*
X143446072Y-116452955D01*
X143549474Y-116702589D01*
X143610000Y-117006876D01*
X143610000Y-117317124D01*
X143572610Y-117505100D01*
X143549474Y-117621410D01*
X143430748Y-117908041D01*
X143373553Y-117993639D01*
X143258383Y-118166004D01*
X143039004Y-118385383D01*
X142919028Y-118465548D01*
X142781041Y-118557748D01*
X142621094Y-118624000D01*
X142494411Y-118676474D01*
X142342267Y-118706737D01*
X142190125Y-118737000D01*
X141879875Y-118737000D01*
X141727733Y-118706737D01*
X141575589Y-118676474D01*
X141448906Y-118624000D01*
X141288959Y-118557748D01*
X141150972Y-118465548D01*
X141030996Y-118385383D01*
X140811617Y-118166004D01*
X140696447Y-117993639D01*
X140639252Y-117908041D01*
X140520526Y-117621410D01*
X140497391Y-117505100D01*
X140460000Y-117317124D01*
X140460000Y-117006876D01*
X140520526Y-116702589D01*
X140623928Y-116452955D01*
X140639252Y-116415959D01*
X140787976Y-116193378D01*
X140811617Y-116157996D01*
X141030996Y-115938617D01*
X141288958Y-115766253D01*
X141288959Y-115766252D01*
X141456863Y-115696704D01*
X141575589Y-115647526D01*
X141879875Y-115587000D01*
X142190125Y-115587000D01*
X142494411Y-115647526D01*
G37*
G36*
X112381560Y-115849064D02*
G01*
X112533027Y-115879193D01*
X112747045Y-115967842D01*
X112747046Y-115967843D01*
X112939654Y-116096539D01*
X113103461Y-116260346D01*
X113189258Y-116388751D01*
X113232158Y-116452955D01*
X113320807Y-116666973D01*
X113366000Y-116894174D01*
X113366000Y-117125826D01*
X113320807Y-117353027D01*
X113232158Y-117567045D01*
X113232157Y-117567046D01*
X113103461Y-117759654D01*
X112939654Y-117923461D01*
X112882540Y-117961623D01*
X112747045Y-118052158D01*
X112533027Y-118140807D01*
X112406358Y-118166003D01*
X112305827Y-118186000D01*
X112074173Y-118186000D01*
X111973642Y-118166003D01*
X111846973Y-118140807D01*
X111632955Y-118052158D01*
X111497460Y-117961623D01*
X111440346Y-117923461D01*
X111276539Y-117759654D01*
X111147843Y-117567046D01*
X111147842Y-117567045D01*
X111059193Y-117353027D01*
X111014000Y-117125826D01*
X111014000Y-116894174D01*
X111059193Y-116666973D01*
X111147842Y-116452955D01*
X111190742Y-116388751D01*
X111276539Y-116260346D01*
X111440346Y-116096539D01*
X111632954Y-115967843D01*
X111632955Y-115967842D01*
X111846973Y-115879193D01*
X111998440Y-115849064D01*
X112074173Y-115834000D01*
X112305827Y-115834000D01*
X112381560Y-115849064D01*
G37*
G36*
X74281560Y-115849064D02*
G01*
X74433027Y-115879193D01*
X74647045Y-115967842D01*
X74647046Y-115967843D01*
X74839654Y-116096539D01*
X75003461Y-116260346D01*
X75089258Y-116388751D01*
X75132158Y-116452955D01*
X75220807Y-116666973D01*
X75266000Y-116894174D01*
X75266000Y-117125826D01*
X75220807Y-117353027D01*
X75132158Y-117567045D01*
X75132157Y-117567046D01*
X75003461Y-117759654D01*
X74839654Y-117923461D01*
X74782540Y-117961623D01*
X74647045Y-118052158D01*
X74433027Y-118140807D01*
X74306358Y-118166003D01*
X74205827Y-118186000D01*
X73974173Y-118186000D01*
X73873642Y-118166003D01*
X73746973Y-118140807D01*
X73532955Y-118052158D01*
X73397460Y-117961623D01*
X73340346Y-117923461D01*
X73176539Y-117759654D01*
X73047843Y-117567046D01*
X73047842Y-117567045D01*
X72959193Y-117353027D01*
X72914000Y-117125826D01*
X72914000Y-116894174D01*
X72959193Y-116666973D01*
X73047842Y-116452955D01*
X73090742Y-116388751D01*
X73176539Y-116260346D01*
X73340346Y-116096539D01*
X73532954Y-115967843D01*
X73532955Y-115967842D01*
X73746973Y-115879193D01*
X73898440Y-115849064D01*
X73974173Y-115834000D01*
X74205827Y-115834000D01*
X74281560Y-115849064D01*
G37*
G36*
X93331560Y-115849064D02*
G01*
X93483027Y-115879193D01*
X93697045Y-115967842D01*
X93697046Y-115967843D01*
X93889654Y-116096539D01*
X94053461Y-116260346D01*
X94139258Y-116388751D01*
X94182158Y-116452955D01*
X94270807Y-116666973D01*
X94316000Y-116894174D01*
X94316000Y-117125826D01*
X94270807Y-117353027D01*
X94182158Y-117567045D01*
X94182157Y-117567046D01*
X94053461Y-117759654D01*
X93889654Y-117923461D01*
X93832540Y-117961623D01*
X93697045Y-118052158D01*
X93483027Y-118140807D01*
X93356358Y-118166003D01*
X93255827Y-118186000D01*
X93024173Y-118186000D01*
X92923642Y-118166003D01*
X92796973Y-118140807D01*
X92582955Y-118052158D01*
X92447460Y-117961623D01*
X92390346Y-117923461D01*
X92226539Y-117759654D01*
X92097843Y-117567046D01*
X92097842Y-117567045D01*
X92009193Y-117353027D01*
X91964000Y-117125826D01*
X91964000Y-116894174D01*
X92009193Y-116666973D01*
X92097842Y-116452955D01*
X92140742Y-116388751D01*
X92226539Y-116260346D01*
X92390346Y-116096539D01*
X92582954Y-115967843D01*
X92582955Y-115967842D01*
X92796973Y-115879193D01*
X92948440Y-115849064D01*
X93024173Y-115834000D01*
X93255827Y-115834000D01*
X93331560Y-115849064D01*
G37*
G36*
X99681560Y-113309064D02*
G01*
X99833027Y-113339193D01*
X100047045Y-113427842D01*
X100047046Y-113427843D01*
X100239654Y-113556539D01*
X100403461Y-113720346D01*
X100489258Y-113848751D01*
X100532158Y-113912955D01*
X100620807Y-114126973D01*
X100666000Y-114354174D01*
X100666000Y-114585826D01*
X100620807Y-114813027D01*
X100532158Y-115027045D01*
X100532157Y-115027046D01*
X100403461Y-115219654D01*
X100239654Y-115383461D01*
X100111249Y-115469258D01*
X100047045Y-115512158D01*
X99833027Y-115600807D01*
X99681560Y-115630936D01*
X99605827Y-115646000D01*
X99374173Y-115646000D01*
X99298440Y-115630936D01*
X99146973Y-115600807D01*
X98932955Y-115512158D01*
X98868751Y-115469258D01*
X98740346Y-115383461D01*
X98576539Y-115219654D01*
X98447843Y-115027046D01*
X98447842Y-115027045D01*
X98359193Y-114813027D01*
X98314000Y-114585826D01*
X98314000Y-114354174D01*
X98359193Y-114126973D01*
X98447842Y-113912955D01*
X98490742Y-113848751D01*
X98576539Y-113720346D01*
X98740346Y-113556539D01*
X98932954Y-113427843D01*
X98932955Y-113427842D01*
X99146973Y-113339193D01*
X99298440Y-113309064D01*
X99374173Y-113294000D01*
X99605827Y-113294000D01*
X99681560Y-113309064D01*
G37*
G36*
X80631560Y-113309064D02*
G01*
X80783027Y-113339193D01*
X80997045Y-113427842D01*
X80997046Y-113427843D01*
X81189654Y-113556539D01*
X81353461Y-113720346D01*
X81439258Y-113848751D01*
X81482158Y-113912955D01*
X81570807Y-114126973D01*
X81616000Y-114354174D01*
X81616000Y-114585826D01*
X81570807Y-114813027D01*
X81482158Y-115027045D01*
X81482157Y-115027046D01*
X81353461Y-115219654D01*
X81189654Y-115383461D01*
X81061249Y-115469258D01*
X80997045Y-115512158D01*
X80783027Y-115600807D01*
X80631560Y-115630936D01*
X80555827Y-115646000D01*
X80324173Y-115646000D01*
X80248440Y-115630936D01*
X80096973Y-115600807D01*
X79882955Y-115512158D01*
X79818751Y-115469258D01*
X79690346Y-115383461D01*
X79526539Y-115219654D01*
X79397843Y-115027046D01*
X79397842Y-115027045D01*
X79309193Y-114813027D01*
X79264000Y-114585826D01*
X79264000Y-114354174D01*
X79309193Y-114126973D01*
X79397842Y-113912955D01*
X79440742Y-113848751D01*
X79526539Y-113720346D01*
X79690346Y-113556539D01*
X79882954Y-113427843D01*
X79882955Y-113427842D01*
X80096973Y-113339193D01*
X80248440Y-113309064D01*
X80324173Y-113294000D01*
X80555827Y-113294000D01*
X80631560Y-113309064D01*
G37*
G36*
X118731560Y-113309064D02*
G01*
X118883027Y-113339193D01*
X119097045Y-113427842D01*
X119097046Y-113427843D01*
X119289654Y-113556539D01*
X119453461Y-113720346D01*
X119539258Y-113848751D01*
X119582158Y-113912955D01*
X119670807Y-114126973D01*
X119716000Y-114354174D01*
X119716000Y-114585826D01*
X119670807Y-114813027D01*
X119582158Y-115027045D01*
X119582157Y-115027046D01*
X119453461Y-115219654D01*
X119289654Y-115383461D01*
X119161249Y-115469258D01*
X119097045Y-115512158D01*
X118883027Y-115600807D01*
X118731560Y-115630936D01*
X118655827Y-115646000D01*
X118424173Y-115646000D01*
X118348440Y-115630936D01*
X118196973Y-115600807D01*
X117982955Y-115512158D01*
X117918751Y-115469258D01*
X117790346Y-115383461D01*
X117626539Y-115219654D01*
X117497843Y-115027046D01*
X117497842Y-115027045D01*
X117409193Y-114813027D01*
X117364000Y-114585826D01*
X117364000Y-114354174D01*
X117409193Y-114126973D01*
X117497842Y-113912955D01*
X117540742Y-113848751D01*
X117626539Y-113720346D01*
X117790346Y-113556539D01*
X117982954Y-113427843D01*
X117982955Y-113427842D01*
X118196973Y-113339193D01*
X118348440Y-113309064D01*
X118424173Y-113294000D01*
X118655827Y-113294000D01*
X118731560Y-113309064D01*
G37*
G36*
X118273500Y-106583500D02*
G01*
X116266500Y-106583500D01*
X116266500Y-104576500D01*
X118273500Y-104576500D01*
X118273500Y-106583500D01*
G37*
G36*
X137323500Y-106583500D02*
G01*
X135316500Y-106583500D01*
X135316500Y-104576500D01*
X137323500Y-104576500D01*
X137323500Y-106583500D01*
G37*
G36*
X95806425Y-104581988D02*
G01*
X95972710Y-104615063D01*
X96155336Y-104690709D01*
X96319694Y-104800530D01*
X96459470Y-104940306D01*
X96569291Y-105104664D01*
X96644937Y-105287290D01*
X96683500Y-105481164D01*
X96683500Y-105678836D01*
X96644937Y-105872710D01*
X96569291Y-106055336D01*
X96459470Y-106219694D01*
X96319694Y-106359470D01*
X96155336Y-106469291D01*
X95972710Y-106544937D01*
X95806425Y-106578012D01*
X95778837Y-106583500D01*
X95581163Y-106583500D01*
X95553575Y-106578012D01*
X95387290Y-106544937D01*
X95204664Y-106469291D01*
X95040306Y-106359470D01*
X94900530Y-106219694D01*
X94790709Y-106055336D01*
X94715063Y-105872710D01*
X94676500Y-105678836D01*
X94676500Y-105481164D01*
X94715063Y-105287290D01*
X94790709Y-105104664D01*
X94900530Y-104940306D01*
X95040306Y-104800530D01*
X95204664Y-104690709D01*
X95387290Y-104615063D01*
X95553575Y-104581988D01*
X95581163Y-104576500D01*
X95778837Y-104576500D01*
X95806425Y-104581988D01*
G37*
G36*
X99223500Y-106583500D02*
G01*
X97216500Y-106583500D01*
X97216500Y-104576500D01*
X99223500Y-104576500D01*
X99223500Y-106583500D01*
G37*
G36*
X76736425Y-104581988D02*
G01*
X76902710Y-104615063D01*
X77085336Y-104690709D01*
X77249694Y-104800530D01*
X77389470Y-104940306D01*
X77499291Y-105104664D01*
X77574937Y-105287290D01*
X77613500Y-105481164D01*
X77613500Y-105678836D01*
X77574937Y-105872710D01*
X77499291Y-106055336D01*
X77389470Y-106219694D01*
X77249694Y-106359470D01*
X77085336Y-106469291D01*
X76902710Y-106544937D01*
X76736425Y-106578012D01*
X76708837Y-106583500D01*
X76511163Y-106583500D01*
X76483575Y-106578012D01*
X76317290Y-106544937D01*
X76134664Y-106469291D01*
X75970306Y-106359470D01*
X75830530Y-106219694D01*
X75720709Y-106055336D01*
X75645063Y-105872710D01*
X75606500Y-105678836D01*
X75606500Y-105481164D01*
X75645063Y-105287290D01*
X75720709Y-105104664D01*
X75830530Y-104940306D01*
X75970306Y-104800530D01*
X76134664Y-104690709D01*
X76317290Y-104615063D01*
X76483575Y-104581988D01*
X76511163Y-104576500D01*
X76708837Y-104576500D01*
X76736425Y-104581988D01*
G37*
G36*
X133906425Y-104581988D02*
G01*
X134072710Y-104615063D01*
X134255336Y-104690709D01*
X134419694Y-104800530D01*
X134559470Y-104940306D01*
X134669291Y-105104664D01*
X134744937Y-105287290D01*
X134783500Y-105481164D01*
X134783500Y-105678836D01*
X134744937Y-105872710D01*
X134669291Y-106055336D01*
X134559470Y-106219694D01*
X134419694Y-106359470D01*
X134255336Y-106469291D01*
X134072710Y-106544937D01*
X133906425Y-106578012D01*
X133878837Y-106583500D01*
X133681163Y-106583500D01*
X133653575Y-106578012D01*
X133487290Y-106544937D01*
X133304664Y-106469291D01*
X133140306Y-106359470D01*
X133000530Y-106219694D01*
X132890709Y-106055336D01*
X132815063Y-105872710D01*
X132776500Y-105678836D01*
X132776500Y-105481164D01*
X132815063Y-105287290D01*
X132890709Y-105104664D01*
X133000530Y-104940306D01*
X133140306Y-104800530D01*
X133304664Y-104690709D01*
X133487290Y-104615063D01*
X133653575Y-104581988D01*
X133681163Y-104576500D01*
X133878837Y-104576500D01*
X133906425Y-104581988D01*
G37*
G36*
X114856425Y-104581988D02*
G01*
X115022710Y-104615063D01*
X115205336Y-104690709D01*
X115369694Y-104800530D01*
X115509470Y-104940306D01*
X115619291Y-105104664D01*
X115694937Y-105287290D01*
X115733500Y-105481164D01*
X115733500Y-105678836D01*
X115694937Y-105872710D01*
X115619291Y-106055336D01*
X115509470Y-106219694D01*
X115369694Y-106359470D01*
X115205336Y-106469291D01*
X115022710Y-106544937D01*
X114856425Y-106578012D01*
X114828837Y-106583500D01*
X114631163Y-106583500D01*
X114603575Y-106578012D01*
X114437290Y-106544937D01*
X114254664Y-106469291D01*
X114090306Y-106359470D01*
X113950530Y-106219694D01*
X113840709Y-106055336D01*
X113765063Y-105872710D01*
X113726500Y-105678836D01*
X113726500Y-105481164D01*
X113765063Y-105287290D01*
X113840709Y-105104664D01*
X113950530Y-104940306D01*
X114090306Y-104800530D01*
X114254664Y-104690709D01*
X114437290Y-104615063D01*
X114603575Y-104581988D01*
X114631163Y-104576500D01*
X114828837Y-104576500D01*
X114856425Y-104581988D01*
G37*
G36*
X80153500Y-106583500D02*
G01*
X78146500Y-106583500D01*
X78146500Y-104576500D01*
X80153500Y-104576500D01*
X80153500Y-106583500D01*
G37*
G36*
X78476474Y-98533684D02*
G01*
X78694474Y-98623983D01*
X78848623Y-98687833D01*
X79183548Y-98911623D01*
X79468377Y-99196452D01*
X79692167Y-99531377D01*
X79724562Y-99609586D01*
X79846316Y-99903526D01*
X79924900Y-100298594D01*
X79924900Y-100701406D01*
X79846316Y-101096474D01*
X79795451Y-101219272D01*
X79692167Y-101468623D01*
X79468377Y-101803548D01*
X79183548Y-102088377D01*
X78848623Y-102312167D01*
X78694474Y-102376017D01*
X78476474Y-102466316D01*
X78081406Y-102544900D01*
X77678594Y-102544900D01*
X77283526Y-102466316D01*
X77065526Y-102376017D01*
X76911377Y-102312167D01*
X76576452Y-102088377D01*
X76291623Y-101803548D01*
X76067833Y-101468623D01*
X75964549Y-101219272D01*
X75913684Y-101096474D01*
X75835100Y-100701406D01*
X75835100Y-100298594D01*
X75913684Y-99903526D01*
X76035438Y-99609586D01*
X76067833Y-99531377D01*
X76291623Y-99196452D01*
X76576452Y-98911623D01*
X76911377Y-98687833D01*
X77065526Y-98623983D01*
X77283526Y-98533684D01*
X77678594Y-98455100D01*
X78081406Y-98455100D01*
X78476474Y-98533684D01*
G37*
G36*
X116596474Y-98533684D02*
G01*
X116814474Y-98623983D01*
X116968623Y-98687833D01*
X117303548Y-98911623D01*
X117588377Y-99196452D01*
X117812167Y-99531377D01*
X117844562Y-99609586D01*
X117966316Y-99903526D01*
X118044900Y-100298594D01*
X118044900Y-100701406D01*
X117966316Y-101096474D01*
X117915451Y-101219272D01*
X117812167Y-101468623D01*
X117588377Y-101803548D01*
X117303548Y-102088377D01*
X116968623Y-102312167D01*
X116814474Y-102376017D01*
X116596474Y-102466316D01*
X116201406Y-102544900D01*
X115798594Y-102544900D01*
X115403526Y-102466316D01*
X115185526Y-102376017D01*
X115031377Y-102312167D01*
X114696452Y-102088377D01*
X114411623Y-101803548D01*
X114187833Y-101468623D01*
X114084549Y-101219272D01*
X114033684Y-101096474D01*
X113955100Y-100701406D01*
X113955100Y-100298594D01*
X114033684Y-99903526D01*
X114155438Y-99609586D01*
X114187833Y-99531377D01*
X114411623Y-99196452D01*
X114696452Y-98911623D01*
X115031377Y-98687833D01*
X115185526Y-98623983D01*
X115403526Y-98533684D01*
X115798594Y-98455100D01*
X116201406Y-98455100D01*
X116596474Y-98533684D01*
G37*
G36*
X135646474Y-98533684D02*
G01*
X135864474Y-98623983D01*
X136018623Y-98687833D01*
X136353548Y-98911623D01*
X136638377Y-99196452D01*
X136862167Y-99531377D01*
X136894562Y-99609586D01*
X137016316Y-99903526D01*
X137094900Y-100298594D01*
X137094900Y-100701406D01*
X137016316Y-101096474D01*
X136965451Y-101219272D01*
X136862167Y-101468623D01*
X136638377Y-101803548D01*
X136353548Y-102088377D01*
X136018623Y-102312167D01*
X135864474Y-102376017D01*
X135646474Y-102466316D01*
X135251406Y-102544900D01*
X134848594Y-102544900D01*
X134453526Y-102466316D01*
X134235526Y-102376017D01*
X134081377Y-102312167D01*
X133746452Y-102088377D01*
X133461623Y-101803548D01*
X133237833Y-101468623D01*
X133134549Y-101219272D01*
X133083684Y-101096474D01*
X133005100Y-100701406D01*
X133005100Y-100298594D01*
X133083684Y-99903526D01*
X133205438Y-99609586D01*
X133237833Y-99531377D01*
X133461623Y-99196452D01*
X133746452Y-98911623D01*
X134081377Y-98687833D01*
X134235526Y-98623983D01*
X134453526Y-98533684D01*
X134848594Y-98455100D01*
X135251406Y-98455100D01*
X135646474Y-98533684D01*
G37*
G36*
X97546474Y-98533684D02*
G01*
X97764474Y-98623983D01*
X97918623Y-98687833D01*
X98253548Y-98911623D01*
X98538377Y-99196452D01*
X98762167Y-99531377D01*
X98794562Y-99609586D01*
X98916316Y-99903526D01*
X98994900Y-100298594D01*
X98994900Y-100701406D01*
X98916316Y-101096474D01*
X98865451Y-101219272D01*
X98762167Y-101468623D01*
X98538377Y-101803548D01*
X98253548Y-102088377D01*
X97918623Y-102312167D01*
X97764474Y-102376017D01*
X97546474Y-102466316D01*
X97151406Y-102544900D01*
X96748594Y-102544900D01*
X96353526Y-102466316D01*
X96135526Y-102376017D01*
X95981377Y-102312167D01*
X95646452Y-102088377D01*
X95361623Y-101803548D01*
X95137833Y-101468623D01*
X95034549Y-101219272D01*
X94983684Y-101096474D01*
X94905100Y-100701406D01*
X94905100Y-100298594D01*
X94983684Y-99903526D01*
X95105438Y-99609586D01*
X95137833Y-99531377D01*
X95361623Y-99196452D01*
X95646452Y-98911623D01*
X95981377Y-98687833D01*
X96135526Y-98623983D01*
X96353526Y-98533684D01*
X96748594Y-98455100D01*
X97151406Y-98455100D01*
X97546474Y-98533684D01*
G37*
G36*
X92140104Y-99609585D02*
G01*
X92308626Y-99679389D01*
X92460291Y-99780728D01*
X92589272Y-99909709D01*
X92690611Y-100061374D01*
X92760415Y-100229896D01*
X92796000Y-100408797D01*
X92796000Y-100591203D01*
X92760415Y-100770104D01*
X92690611Y-100938626D01*
X92589272Y-101090291D01*
X92460291Y-101219272D01*
X92308626Y-101320611D01*
X92140104Y-101390415D01*
X91961203Y-101426000D01*
X91778797Y-101426000D01*
X91599896Y-101390415D01*
X91431374Y-101320611D01*
X91279709Y-101219272D01*
X91150728Y-101090291D01*
X91049389Y-100938626D01*
X90979585Y-100770104D01*
X90944000Y-100591203D01*
X90944000Y-100408797D01*
X90979585Y-100229896D01*
X91049389Y-100061374D01*
X91150728Y-99909709D01*
X91279709Y-99780728D01*
X91431374Y-99679389D01*
X91599896Y-99609585D01*
X91778797Y-99574000D01*
X91961203Y-99574000D01*
X92140104Y-99609585D01*
G37*
G36*
X121350104Y-99609585D02*
G01*
X121518626Y-99679389D01*
X121670291Y-99780728D01*
X121799272Y-99909709D01*
X121900611Y-100061374D01*
X121970415Y-100229896D01*
X122006000Y-100408797D01*
X122006000Y-100591203D01*
X121970415Y-100770104D01*
X121900611Y-100938626D01*
X121799272Y-101090291D01*
X121670291Y-101219272D01*
X121518626Y-101320611D01*
X121350104Y-101390415D01*
X121171203Y-101426000D01*
X120988797Y-101426000D01*
X120809896Y-101390415D01*
X120641374Y-101320611D01*
X120489709Y-101219272D01*
X120360728Y-101090291D01*
X120259389Y-100938626D01*
X120189585Y-100770104D01*
X120154000Y-100591203D01*
X120154000Y-100408797D01*
X120189585Y-100229896D01*
X120259389Y-100061374D01*
X120360728Y-99909709D01*
X120489709Y-99780728D01*
X120641374Y-99679389D01*
X120809896Y-99609585D01*
X120988797Y-99574000D01*
X121171203Y-99574000D01*
X121350104Y-99609585D01*
G37*
G36*
X130240104Y-99609585D02*
G01*
X130408626Y-99679389D01*
X130560291Y-99780728D01*
X130689272Y-99909709D01*
X130790611Y-100061374D01*
X130860415Y-100229896D01*
X130896000Y-100408797D01*
X130896000Y-100591203D01*
X130860415Y-100770104D01*
X130790611Y-100938626D01*
X130689272Y-101090291D01*
X130560291Y-101219272D01*
X130408626Y-101320611D01*
X130240104Y-101390415D01*
X130061203Y-101426000D01*
X129878797Y-101426000D01*
X129699896Y-101390415D01*
X129531374Y-101320611D01*
X129379709Y-101219272D01*
X129250728Y-101090291D01*
X129149389Y-100938626D01*
X129079585Y-100770104D01*
X129044000Y-100591203D01*
X129044000Y-100408797D01*
X129079585Y-100229896D01*
X129149389Y-100061374D01*
X129250728Y-99909709D01*
X129379709Y-99780728D01*
X129531374Y-99679389D01*
X129699896Y-99609585D01*
X129878797Y-99574000D01*
X130061203Y-99574000D01*
X130240104Y-99609585D01*
G37*
G36*
X140400104Y-99609585D02*
G01*
X140568626Y-99679389D01*
X140720291Y-99780728D01*
X140849272Y-99909709D01*
X140950611Y-100061374D01*
X141020415Y-100229896D01*
X141056000Y-100408797D01*
X141056000Y-100591203D01*
X141020415Y-100770104D01*
X140950611Y-100938626D01*
X140849272Y-101090291D01*
X140720291Y-101219272D01*
X140568626Y-101320611D01*
X140400104Y-101390415D01*
X140221203Y-101426000D01*
X140038797Y-101426000D01*
X139859896Y-101390415D01*
X139691374Y-101320611D01*
X139539709Y-101219272D01*
X139410728Y-101090291D01*
X139309389Y-100938626D01*
X139239585Y-100770104D01*
X139204000Y-100591203D01*
X139204000Y-100408797D01*
X139239585Y-100229896D01*
X139309389Y-100061374D01*
X139410728Y-99909709D01*
X139539709Y-99780728D01*
X139691374Y-99679389D01*
X139859896Y-99609585D01*
X140038797Y-99574000D01*
X140221203Y-99574000D01*
X140400104Y-99609585D01*
G37*
G36*
X83230104Y-99609585D02*
G01*
X83398626Y-99679389D01*
X83550291Y-99780728D01*
X83679272Y-99909709D01*
X83780611Y-100061374D01*
X83850415Y-100229896D01*
X83886000Y-100408797D01*
X83886000Y-100591203D01*
X83850415Y-100770104D01*
X83780611Y-100938626D01*
X83679272Y-101090291D01*
X83550291Y-101219272D01*
X83398626Y-101320611D01*
X83230104Y-101390415D01*
X83051203Y-101426000D01*
X82868797Y-101426000D01*
X82689896Y-101390415D01*
X82521374Y-101320611D01*
X82369709Y-101219272D01*
X82240728Y-101090291D01*
X82139389Y-100938626D01*
X82069585Y-100770104D01*
X82034000Y-100591203D01*
X82034000Y-100408797D01*
X82069585Y-100229896D01*
X82139389Y-100061374D01*
X82240728Y-99909709D01*
X82369709Y-99780728D01*
X82521374Y-99679389D01*
X82689896Y-99609585D01*
X82868797Y-99574000D01*
X83051203Y-99574000D01*
X83230104Y-99609585D01*
G37*
G36*
X111190104Y-99609585D02*
G01*
X111358626Y-99679389D01*
X111510291Y-99780728D01*
X111639272Y-99909709D01*
X111740611Y-100061374D01*
X111810415Y-100229896D01*
X111846000Y-100408797D01*
X111846000Y-100591203D01*
X111810415Y-100770104D01*
X111740611Y-100938626D01*
X111639272Y-101090291D01*
X111510291Y-101219272D01*
X111358626Y-101320611D01*
X111190104Y-101390415D01*
X111011203Y-101426000D01*
X110828797Y-101426000D01*
X110649896Y-101390415D01*
X110481374Y-101320611D01*
X110329709Y-101219272D01*
X110200728Y-101090291D01*
X110099389Y-100938626D01*
X110029585Y-100770104D01*
X109994000Y-100591203D01*
X109994000Y-100408797D01*
X110029585Y-100229896D01*
X110099389Y-100061374D01*
X110200728Y-99909709D01*
X110329709Y-99780728D01*
X110481374Y-99679389D01*
X110649896Y-99609585D01*
X110828797Y-99574000D01*
X111011203Y-99574000D01*
X111190104Y-99609585D01*
G37*
G36*
X102300104Y-99609585D02*
G01*
X102468626Y-99679389D01*
X102620291Y-99780728D01*
X102749272Y-99909709D01*
X102850611Y-100061374D01*
X102920415Y-100229896D01*
X102956000Y-100408797D01*
X102956000Y-100591203D01*
X102920415Y-100770104D01*
X102850611Y-100938626D01*
X102749272Y-101090291D01*
X102620291Y-101219272D01*
X102468626Y-101320611D01*
X102300104Y-101390415D01*
X102121203Y-101426000D01*
X101938797Y-101426000D01*
X101759896Y-101390415D01*
X101591374Y-101320611D01*
X101439709Y-101219272D01*
X101310728Y-101090291D01*
X101209389Y-100938626D01*
X101139585Y-100770104D01*
X101104000Y-100591203D01*
X101104000Y-100408797D01*
X101139585Y-100229896D01*
X101209389Y-100061374D01*
X101310728Y-99909709D01*
X101439709Y-99780728D01*
X101591374Y-99679389D01*
X101759896Y-99609585D01*
X101938797Y-99574000D01*
X102121203Y-99574000D01*
X102300104Y-99609585D01*
G37*
G36*
X73070104Y-99609585D02*
G01*
X73238626Y-99679389D01*
X73390291Y-99780728D01*
X73519272Y-99909709D01*
X73620611Y-100061374D01*
X73690415Y-100229896D01*
X73726000Y-100408797D01*
X73726000Y-100591203D01*
X73690415Y-100770104D01*
X73620611Y-100938626D01*
X73519272Y-101090291D01*
X73390291Y-101219272D01*
X73238626Y-101320611D01*
X73070104Y-101390415D01*
X72891203Y-101426000D01*
X72708797Y-101426000D01*
X72529896Y-101390415D01*
X72361374Y-101320611D01*
X72209709Y-101219272D01*
X72080728Y-101090291D01*
X71979389Y-100938626D01*
X71909585Y-100770104D01*
X71874000Y-100591203D01*
X71874000Y-100408797D01*
X71909585Y-100229896D01*
X71979389Y-100061374D01*
X72080728Y-99909709D01*
X72209709Y-99780728D01*
X72361374Y-99679389D01*
X72529896Y-99609585D01*
X72708797Y-99574000D01*
X72891203Y-99574000D01*
X73070104Y-99609585D01*
G37*
G36*
X112381560Y-96799064D02*
G01*
X112533027Y-96829193D01*
X112747045Y-96917842D01*
X112747046Y-96917843D01*
X112939654Y-97046539D01*
X113103461Y-97210346D01*
X113189258Y-97338751D01*
X113232158Y-97402955D01*
X113320807Y-97616973D01*
X113366000Y-97844174D01*
X113366000Y-98075826D01*
X113320807Y-98303027D01*
X113232158Y-98517045D01*
X113232157Y-98517046D01*
X113103461Y-98709654D01*
X112939654Y-98873461D01*
X112882540Y-98911623D01*
X112747045Y-99002158D01*
X112533027Y-99090807D01*
X112381560Y-99120936D01*
X112305827Y-99136000D01*
X112074173Y-99136000D01*
X111998440Y-99120936D01*
X111846973Y-99090807D01*
X111632955Y-99002158D01*
X111497460Y-98911623D01*
X111440346Y-98873461D01*
X111276539Y-98709654D01*
X111147843Y-98517046D01*
X111147842Y-98517045D01*
X111059193Y-98303027D01*
X111014000Y-98075826D01*
X111014000Y-97844174D01*
X111059193Y-97616973D01*
X111147842Y-97402955D01*
X111190742Y-97338751D01*
X111276539Y-97210346D01*
X111440346Y-97046539D01*
X111632954Y-96917843D01*
X111632955Y-96917842D01*
X111846973Y-96829193D01*
X111998440Y-96799064D01*
X112074173Y-96784000D01*
X112305827Y-96784000D01*
X112381560Y-96799064D01*
G37*
G36*
X74261560Y-96799064D02*
G01*
X74413027Y-96829193D01*
X74627045Y-96917842D01*
X74627046Y-96917843D01*
X74819654Y-97046539D01*
X74983461Y-97210346D01*
X75069258Y-97338751D01*
X75112158Y-97402955D01*
X75200807Y-97616973D01*
X75246000Y-97844174D01*
X75246000Y-98075826D01*
X75200807Y-98303027D01*
X75112158Y-98517045D01*
X75112157Y-98517046D01*
X74983461Y-98709654D01*
X74819654Y-98873461D01*
X74762540Y-98911623D01*
X74627045Y-99002158D01*
X74413027Y-99090807D01*
X74261560Y-99120936D01*
X74185827Y-99136000D01*
X73954173Y-99136000D01*
X73878440Y-99120936D01*
X73726973Y-99090807D01*
X73512955Y-99002158D01*
X73377460Y-98911623D01*
X73320346Y-98873461D01*
X73156539Y-98709654D01*
X73027843Y-98517046D01*
X73027842Y-98517045D01*
X72939193Y-98303027D01*
X72894000Y-98075826D01*
X72894000Y-97844174D01*
X72939193Y-97616973D01*
X73027842Y-97402955D01*
X73070742Y-97338751D01*
X73156539Y-97210346D01*
X73320346Y-97046539D01*
X73512954Y-96917843D01*
X73512955Y-96917842D01*
X73726973Y-96829193D01*
X73878440Y-96799064D01*
X73954173Y-96784000D01*
X74185827Y-96784000D01*
X74261560Y-96799064D01*
G37*
G36*
X131431560Y-96799064D02*
G01*
X131583027Y-96829193D01*
X131797045Y-96917842D01*
X131797046Y-96917843D01*
X131989654Y-97046539D01*
X132153461Y-97210346D01*
X132239258Y-97338751D01*
X132282158Y-97402955D01*
X132370807Y-97616973D01*
X132416000Y-97844174D01*
X132416000Y-98075826D01*
X132370807Y-98303027D01*
X132282158Y-98517045D01*
X132282157Y-98517046D01*
X132153461Y-98709654D01*
X131989654Y-98873461D01*
X131932540Y-98911623D01*
X131797045Y-99002158D01*
X131583027Y-99090807D01*
X131431560Y-99120936D01*
X131355827Y-99136000D01*
X131124173Y-99136000D01*
X131048440Y-99120936D01*
X130896973Y-99090807D01*
X130682955Y-99002158D01*
X130547460Y-98911623D01*
X130490346Y-98873461D01*
X130326539Y-98709654D01*
X130197843Y-98517046D01*
X130197842Y-98517045D01*
X130109193Y-98303027D01*
X130064000Y-98075826D01*
X130064000Y-97844174D01*
X130109193Y-97616973D01*
X130197842Y-97402955D01*
X130240742Y-97338751D01*
X130326539Y-97210346D01*
X130490346Y-97046539D01*
X130682954Y-96917843D01*
X130682955Y-96917842D01*
X130896973Y-96829193D01*
X131048440Y-96799064D01*
X131124173Y-96784000D01*
X131355827Y-96784000D01*
X131431560Y-96799064D01*
G37*
G36*
X93331560Y-96799064D02*
G01*
X93483027Y-96829193D01*
X93697045Y-96917842D01*
X93697046Y-96917843D01*
X93889654Y-97046539D01*
X94053461Y-97210346D01*
X94139258Y-97338751D01*
X94182158Y-97402955D01*
X94270807Y-97616973D01*
X94316000Y-97844174D01*
X94316000Y-98075826D01*
X94270807Y-98303027D01*
X94182158Y-98517045D01*
X94182157Y-98517046D01*
X94053461Y-98709654D01*
X93889654Y-98873461D01*
X93832540Y-98911623D01*
X93697045Y-99002158D01*
X93483027Y-99090807D01*
X93331560Y-99120936D01*
X93255827Y-99136000D01*
X93024173Y-99136000D01*
X92948440Y-99120936D01*
X92796973Y-99090807D01*
X92582955Y-99002158D01*
X92447460Y-98911623D01*
X92390346Y-98873461D01*
X92226539Y-98709654D01*
X92097843Y-98517046D01*
X92097842Y-98517045D01*
X92009193Y-98303027D01*
X91964000Y-98075826D01*
X91964000Y-97844174D01*
X92009193Y-97616973D01*
X92097842Y-97402955D01*
X92140742Y-97338751D01*
X92226539Y-97210346D01*
X92390346Y-97046539D01*
X92582954Y-96917843D01*
X92582955Y-96917842D01*
X92796973Y-96829193D01*
X92948440Y-96799064D01*
X93024173Y-96784000D01*
X93255827Y-96784000D01*
X93331560Y-96799064D01*
G37*
G36*
X80611560Y-94259064D02*
G01*
X80763027Y-94289193D01*
X80977045Y-94377842D01*
X80977046Y-94377843D01*
X81169654Y-94506539D01*
X81333461Y-94670346D01*
X81419258Y-94798751D01*
X81462158Y-94862955D01*
X81550807Y-95076973D01*
X81596000Y-95304174D01*
X81596000Y-95535826D01*
X81550807Y-95763027D01*
X81462158Y-95977045D01*
X81462157Y-95977046D01*
X81333461Y-96169654D01*
X81169654Y-96333461D01*
X81041249Y-96419258D01*
X80977045Y-96462158D01*
X80763027Y-96550807D01*
X80611560Y-96580936D01*
X80535827Y-96596000D01*
X80304173Y-96596000D01*
X80228440Y-96580936D01*
X80076973Y-96550807D01*
X79862955Y-96462158D01*
X79798751Y-96419258D01*
X79670346Y-96333461D01*
X79506539Y-96169654D01*
X79377843Y-95977046D01*
X79377842Y-95977045D01*
X79289193Y-95763027D01*
X79244000Y-95535826D01*
X79244000Y-95304174D01*
X79289193Y-95076973D01*
X79377842Y-94862955D01*
X79420742Y-94798751D01*
X79506539Y-94670346D01*
X79670346Y-94506539D01*
X79862954Y-94377843D01*
X79862955Y-94377842D01*
X80076973Y-94289193D01*
X80228440Y-94259064D01*
X80304173Y-94244000D01*
X80535827Y-94244000D01*
X80611560Y-94259064D01*
G37*
G36*
X99681560Y-94259064D02*
G01*
X99833027Y-94289193D01*
X100047045Y-94377842D01*
X100047046Y-94377843D01*
X100239654Y-94506539D01*
X100403461Y-94670346D01*
X100489258Y-94798751D01*
X100532158Y-94862955D01*
X100620807Y-95076973D01*
X100666000Y-95304174D01*
X100666000Y-95535826D01*
X100620807Y-95763027D01*
X100532158Y-95977045D01*
X100532157Y-95977046D01*
X100403461Y-96169654D01*
X100239654Y-96333461D01*
X100111249Y-96419258D01*
X100047045Y-96462158D01*
X99833027Y-96550807D01*
X99681560Y-96580936D01*
X99605827Y-96596000D01*
X99374173Y-96596000D01*
X99298440Y-96580936D01*
X99146973Y-96550807D01*
X98932955Y-96462158D01*
X98868751Y-96419258D01*
X98740346Y-96333461D01*
X98576539Y-96169654D01*
X98447843Y-95977046D01*
X98447842Y-95977045D01*
X98359193Y-95763027D01*
X98314000Y-95535826D01*
X98314000Y-95304174D01*
X98359193Y-95076973D01*
X98447842Y-94862955D01*
X98490742Y-94798751D01*
X98576539Y-94670346D01*
X98740346Y-94506539D01*
X98932954Y-94377843D01*
X98932955Y-94377842D01*
X99146973Y-94289193D01*
X99298440Y-94259064D01*
X99374173Y-94244000D01*
X99605827Y-94244000D01*
X99681560Y-94259064D01*
G37*
G36*
X118731560Y-94259064D02*
G01*
X118883027Y-94289193D01*
X119097045Y-94377842D01*
X119097046Y-94377843D01*
X119289654Y-94506539D01*
X119453461Y-94670346D01*
X119539258Y-94798751D01*
X119582158Y-94862955D01*
X119670807Y-95076973D01*
X119716000Y-95304174D01*
X119716000Y-95535826D01*
X119670807Y-95763027D01*
X119582158Y-95977045D01*
X119582157Y-95977046D01*
X119453461Y-96169654D01*
X119289654Y-96333461D01*
X119161249Y-96419258D01*
X119097045Y-96462158D01*
X118883027Y-96550807D01*
X118731560Y-96580936D01*
X118655827Y-96596000D01*
X118424173Y-96596000D01*
X118348440Y-96580936D01*
X118196973Y-96550807D01*
X117982955Y-96462158D01*
X117918751Y-96419258D01*
X117790346Y-96333461D01*
X117626539Y-96169654D01*
X117497843Y-95977046D01*
X117497842Y-95977045D01*
X117409193Y-95763027D01*
X117364000Y-95535826D01*
X117364000Y-95304174D01*
X117409193Y-95076973D01*
X117497842Y-94862955D01*
X117540742Y-94798751D01*
X117626539Y-94670346D01*
X117790346Y-94506539D01*
X117982954Y-94377843D01*
X117982955Y-94377842D01*
X118196973Y-94289193D01*
X118348440Y-94259064D01*
X118424173Y-94244000D01*
X118655827Y-94244000D01*
X118731560Y-94259064D01*
G37*
G36*
X137781560Y-94259064D02*
G01*
X137933027Y-94289193D01*
X138147045Y-94377842D01*
X138147046Y-94377843D01*
X138339654Y-94506539D01*
X138503461Y-94670346D01*
X138589258Y-94798751D01*
X138632158Y-94862955D01*
X138720807Y-95076973D01*
X138766000Y-95304174D01*
X138766000Y-95535826D01*
X138720807Y-95763027D01*
X138632158Y-95977045D01*
X138632157Y-95977046D01*
X138503461Y-96169654D01*
X138339654Y-96333461D01*
X138211249Y-96419258D01*
X138147045Y-96462158D01*
X137933027Y-96550807D01*
X137781560Y-96580936D01*
X137705827Y-96596000D01*
X137474173Y-96596000D01*
X137398440Y-96580936D01*
X137246973Y-96550807D01*
X137032955Y-96462158D01*
X136968751Y-96419258D01*
X136840346Y-96333461D01*
X136676539Y-96169654D01*
X136547843Y-95977046D01*
X136547842Y-95977045D01*
X136459193Y-95763027D01*
X136414000Y-95535826D01*
X136414000Y-95304174D01*
X136459193Y-95076973D01*
X136547842Y-94862955D01*
X136590742Y-94798751D01*
X136676539Y-94670346D01*
X136840346Y-94506539D01*
X137032954Y-94377843D01*
X137032955Y-94377842D01*
X137246973Y-94289193D01*
X137398440Y-94259064D01*
X137474173Y-94244000D01*
X137705827Y-94244000D01*
X137781560Y-94259064D01*
G37*
G36*
X67800880Y-84734776D02*
G01*
X68181593Y-84810504D01*
X68591249Y-84980189D01*
X68959929Y-85226534D01*
X69273466Y-85540071D01*
X69519811Y-85908751D01*
X69689496Y-86318407D01*
X69776000Y-86753296D01*
X69776000Y-87196704D01*
X69689496Y-87631593D01*
X69519811Y-88041249D01*
X69273466Y-88409929D01*
X68959929Y-88723466D01*
X68591249Y-88969811D01*
X68181593Y-89139496D01*
X67800880Y-89215224D01*
X67746705Y-89226000D01*
X67303295Y-89226000D01*
X67249120Y-89215224D01*
X66868407Y-89139496D01*
X66458751Y-88969811D01*
X66090071Y-88723466D01*
X65776534Y-88409929D01*
X65530189Y-88041249D01*
X65360504Y-87631593D01*
X65274000Y-87196704D01*
X65274000Y-86753296D01*
X65360504Y-86318407D01*
X65530189Y-85908751D01*
X65776534Y-85540071D01*
X66090071Y-85226534D01*
X66458751Y-84980189D01*
X66868407Y-84810504D01*
X67249120Y-84734776D01*
X67303295Y-84724000D01*
X67746705Y-84724000D01*
X67800880Y-84734776D01*
G37*
G36*
X140825880Y-84734776D02*
G01*
X141206593Y-84810504D01*
X141616249Y-84980189D01*
X141984929Y-85226534D01*
X142298466Y-85540071D01*
X142544811Y-85908751D01*
X142714496Y-86318407D01*
X142801000Y-86753296D01*
X142801000Y-87196704D01*
X142714496Y-87631593D01*
X142544811Y-88041249D01*
X142298466Y-88409929D01*
X141984929Y-88723466D01*
X141616249Y-88969811D01*
X141206593Y-89139496D01*
X140825880Y-89215224D01*
X140771705Y-89226000D01*
X140328295Y-89226000D01*
X140274120Y-89215224D01*
X139893407Y-89139496D01*
X139483751Y-88969811D01*
X139115071Y-88723466D01*
X138801534Y-88409929D01*
X138555189Y-88041249D01*
X138385504Y-87631593D01*
X138299000Y-87196704D01*
X138299000Y-86753296D01*
X138385504Y-86318407D01*
X138555189Y-85908751D01*
X138801534Y-85540071D01*
X139115071Y-85226534D01*
X139483751Y-84980189D01*
X139893407Y-84810504D01*
X140274120Y-84734776D01*
X140328295Y-84724000D01*
X140771705Y-84724000D01*
X140825880Y-84734776D01*
G37*
G36*
X131948228Y-69601703D02*
G01*
X132103100Y-69665853D01*
X132242481Y-69758985D01*
X132361015Y-69877519D01*
X132454147Y-70016900D01*
X132518297Y-70171772D01*
X132551000Y-70336184D01*
X132551000Y-70503816D01*
X132518297Y-70668228D01*
X132454147Y-70823100D01*
X132361015Y-70962481D01*
X132242481Y-71081015D01*
X132103100Y-71174147D01*
X131948228Y-71238297D01*
X131783816Y-71271000D01*
X131616184Y-71271000D01*
X131451772Y-71238297D01*
X131296900Y-71174147D01*
X131157519Y-71081015D01*
X131038985Y-70962481D01*
X130945853Y-70823100D01*
X130881703Y-70668228D01*
X130849000Y-70503816D01*
X130849000Y-70336184D01*
X130881703Y-70171772D01*
X130945853Y-70016900D01*
X131038985Y-69877519D01*
X131157519Y-69758985D01*
X131296900Y-69665853D01*
X131451772Y-69601703D01*
X131616184Y-69569000D01*
X131783816Y-69569000D01*
X131948228Y-69601703D01*
G37*
G36*
X109448228Y-69601703D02*
G01*
X109603100Y-69665853D01*
X109742481Y-69758985D01*
X109861015Y-69877519D01*
X109954147Y-70016900D01*
X110018297Y-70171772D01*
X110051000Y-70336184D01*
X110051000Y-70503816D01*
X110018297Y-70668228D01*
X109954147Y-70823100D01*
X109861015Y-70962481D01*
X109742481Y-71081015D01*
X109603100Y-71174147D01*
X109448228Y-71238297D01*
X109283816Y-71271000D01*
X109116184Y-71271000D01*
X108951772Y-71238297D01*
X108796900Y-71174147D01*
X108657519Y-71081015D01*
X108538985Y-70962481D01*
X108445853Y-70823100D01*
X108381703Y-70668228D01*
X108349000Y-70503816D01*
X108349000Y-70336184D01*
X108381703Y-70171772D01*
X108445853Y-70016900D01*
X108538985Y-69877519D01*
X108657519Y-69758985D01*
X108796900Y-69665853D01*
X108951772Y-69601703D01*
X109116184Y-69569000D01*
X109283816Y-69569000D01*
X109448228Y-69601703D01*
G37*
G36*
X119448228Y-67601703D02*
G01*
X119603100Y-67665853D01*
X119742481Y-67758985D01*
X119861015Y-67877519D01*
X119954147Y-68016900D01*
X120018297Y-68171772D01*
X120051000Y-68336184D01*
X120051000Y-68503816D01*
X120018297Y-68668228D01*
X119954147Y-68823100D01*
X119861015Y-68962481D01*
X119742481Y-69081015D01*
X119603100Y-69174147D01*
X119448228Y-69238297D01*
X119283816Y-69271000D01*
X119116184Y-69271000D01*
X118951772Y-69238297D01*
X118796900Y-69174147D01*
X118657519Y-69081015D01*
X118538985Y-68962481D01*
X118445853Y-68823100D01*
X118381703Y-68668228D01*
X118349000Y-68503816D01*
X118349000Y-68336184D01*
X118381703Y-68171772D01*
X118445853Y-68016900D01*
X118538985Y-67877519D01*
X118657519Y-67758985D01*
X118796900Y-67665853D01*
X118951772Y-67601703D01*
X119116184Y-67569000D01*
X119283816Y-67569000D01*
X119448228Y-67601703D01*
G37*
G36*
X106948228Y-67601703D02*
G01*
X107103100Y-67665853D01*
X107242481Y-67758985D01*
X107361015Y-67877519D01*
X107454147Y-68016900D01*
X107518297Y-68171772D01*
X107551000Y-68336184D01*
X107551000Y-68503816D01*
X107518297Y-68668228D01*
X107454147Y-68823100D01*
X107361015Y-68962481D01*
X107242481Y-69081015D01*
X107103100Y-69174147D01*
X106948228Y-69238297D01*
X106783816Y-69271000D01*
X106616184Y-69271000D01*
X106451772Y-69238297D01*
X106296900Y-69174147D01*
X106157519Y-69081015D01*
X106038985Y-68962481D01*
X105945853Y-68823100D01*
X105881703Y-68668228D01*
X105849000Y-68503816D01*
X105849000Y-68336184D01*
X105881703Y-68171772D01*
X105945853Y-68016900D01*
X106038985Y-67877519D01*
X106157519Y-67758985D01*
X106296900Y-67665853D01*
X106451772Y-67601703D01*
X106616184Y-67569000D01*
X106783816Y-67569000D01*
X106948228Y-67601703D01*
G37*
G36*
X129448228Y-67601703D02*
G01*
X129603100Y-67665853D01*
X129742481Y-67758985D01*
X129861015Y-67877519D01*
X129954147Y-68016900D01*
X130018297Y-68171772D01*
X130051000Y-68336184D01*
X130051000Y-68503816D01*
X130018297Y-68668228D01*
X129954147Y-68823100D01*
X129861015Y-68962481D01*
X129742481Y-69081015D01*
X129603100Y-69174147D01*
X129448228Y-69238297D01*
X129283816Y-69271000D01*
X129116184Y-69271000D01*
X128951772Y-69238297D01*
X128796900Y-69174147D01*
X128657519Y-69081015D01*
X128538985Y-68962481D01*
X128445853Y-68823100D01*
X128381703Y-68668228D01*
X128349000Y-68503816D01*
X128349000Y-68336184D01*
X128381703Y-68171772D01*
X128445853Y-68016900D01*
X128538985Y-67877519D01*
X128657519Y-67758985D01*
X128796900Y-67665853D01*
X128951772Y-67601703D01*
X129116184Y-67569000D01*
X129283816Y-67569000D01*
X129448228Y-67601703D01*
G37*
G36*
X139448228Y-65601703D02*
G01*
X139603100Y-65665853D01*
X139742481Y-65758985D01*
X139861015Y-65877519D01*
X139954147Y-66016900D01*
X140018297Y-66171772D01*
X140051000Y-66336184D01*
X140051000Y-66503816D01*
X140018297Y-66668228D01*
X139954147Y-66823100D01*
X139861015Y-66962481D01*
X139742481Y-67081015D01*
X139603100Y-67174147D01*
X139448228Y-67238297D01*
X139283816Y-67271000D01*
X139116184Y-67271000D01*
X138951772Y-67238297D01*
X138796900Y-67174147D01*
X138657519Y-67081015D01*
X138538985Y-66962481D01*
X138445853Y-66823100D01*
X138381703Y-66668228D01*
X138349000Y-66503816D01*
X138349000Y-66336184D01*
X138381703Y-66171772D01*
X138445853Y-66016900D01*
X138538985Y-65877519D01*
X138657519Y-65758985D01*
X138796900Y-65665853D01*
X138951772Y-65601703D01*
X139116184Y-65569000D01*
X139283816Y-65569000D01*
X139448228Y-65601703D01*
G37*
G36*
X126948228Y-65601703D02*
G01*
X127103100Y-65665853D01*
X127242481Y-65758985D01*
X127361015Y-65877519D01*
X127454147Y-66016900D01*
X127518297Y-66171772D01*
X127551000Y-66336184D01*
X127551000Y-66503816D01*
X127518297Y-66668228D01*
X127454147Y-66823100D01*
X127361015Y-66962481D01*
X127242481Y-67081015D01*
X127103100Y-67174147D01*
X126948228Y-67238297D01*
X126783816Y-67271000D01*
X126616184Y-67271000D01*
X126451772Y-67238297D01*
X126296900Y-67174147D01*
X126157519Y-67081015D01*
X126038985Y-66962481D01*
X125945853Y-66823100D01*
X125881703Y-66668228D01*
X125849000Y-66503816D01*
X125849000Y-66336184D01*
X125881703Y-66171772D01*
X125945853Y-66016900D01*
X126038985Y-65877519D01*
X126157519Y-65758985D01*
X126296900Y-65665853D01*
X126451772Y-65601703D01*
X126616184Y-65569000D01*
X126783816Y-65569000D01*
X126948228Y-65601703D01*
G37*
G36*
X116948228Y-65601703D02*
G01*
X117103100Y-65665853D01*
X117242481Y-65758985D01*
X117361015Y-65877519D01*
X117454147Y-66016900D01*
X117518297Y-66171772D01*
X117551000Y-66336184D01*
X117551000Y-66503816D01*
X117518297Y-66668228D01*
X117454147Y-66823100D01*
X117361015Y-66962481D01*
X117242481Y-67081015D01*
X117103100Y-67174147D01*
X116948228Y-67238297D01*
X116783816Y-67271000D01*
X116616184Y-67271000D01*
X116451772Y-67238297D01*
X116296900Y-67174147D01*
X116157519Y-67081015D01*
X116038985Y-66962481D01*
X115945853Y-66823100D01*
X115881703Y-66668228D01*
X115849000Y-66503816D01*
X115849000Y-66336184D01*
X115881703Y-66171772D01*
X115945853Y-66016900D01*
X116038985Y-65877519D01*
X116157519Y-65758985D01*
X116296900Y-65665853D01*
X116451772Y-65601703D01*
X116616184Y-65569000D01*
X116783816Y-65569000D01*
X116948228Y-65601703D01*
G37*
G36*
X104448228Y-65601703D02*
G01*
X104603100Y-65665853D01*
X104742481Y-65758985D01*
X104861015Y-65877519D01*
X104954147Y-66016900D01*
X105018297Y-66171772D01*
X105051000Y-66336184D01*
X105051000Y-66503816D01*
X105018297Y-66668228D01*
X104954147Y-66823100D01*
X104861015Y-66962481D01*
X104742481Y-67081015D01*
X104603100Y-67174147D01*
X104448228Y-67238297D01*
X104283816Y-67271000D01*
X104116184Y-67271000D01*
X103951772Y-67238297D01*
X103796900Y-67174147D01*
X103657519Y-67081015D01*
X103538985Y-66962481D01*
X103445853Y-66823100D01*
X103381703Y-66668228D01*
X103349000Y-66503816D01*
X103349000Y-66336184D01*
X103381703Y-66171772D01*
X103445853Y-66016900D01*
X103538985Y-65877519D01*
X103657519Y-65758985D01*
X103796900Y-65665853D01*
X103951772Y-65601703D01*
X104116184Y-65569000D01*
X104283816Y-65569000D01*
X104448228Y-65601703D01*
G37*
G36*
X68277395Y-64285546D02*
G01*
X68450466Y-64357234D01*
X68450467Y-64357235D01*
X68606227Y-64461310D01*
X68738690Y-64593773D01*
X68738691Y-64593775D01*
X68842766Y-64749534D01*
X68914454Y-64922605D01*
X68951000Y-65106333D01*
X68951000Y-65293667D01*
X68914454Y-65477395D01*
X68842766Y-65650466D01*
X68791081Y-65727818D01*
X68738690Y-65806227D01*
X68606227Y-65938690D01*
X68527818Y-65991081D01*
X68450466Y-66042766D01*
X68277395Y-66114454D01*
X68093667Y-66151000D01*
X67906333Y-66151000D01*
X67722605Y-66114454D01*
X67549534Y-66042766D01*
X67472182Y-65991081D01*
X67393773Y-65938690D01*
X67261310Y-65806227D01*
X67208919Y-65727818D01*
X67157234Y-65650466D01*
X67085546Y-65477395D01*
X67049000Y-65293667D01*
X67049000Y-65106333D01*
X67085546Y-64922605D01*
X67157234Y-64749534D01*
X67261309Y-64593775D01*
X67261310Y-64593773D01*
X67393773Y-64461310D01*
X67549533Y-64357235D01*
X67549534Y-64357234D01*
X67722605Y-64285546D01*
X67906333Y-64249000D01*
X68093667Y-64249000D01*
X68277395Y-64285546D01*
G37*
G36*
X71491000Y-66151000D02*
G01*
X69589000Y-66151000D01*
X69589000Y-64249000D01*
X71491000Y-64249000D01*
X71491000Y-66151000D01*
G37*
G36*
X124448228Y-63601703D02*
G01*
X124603100Y-63665853D01*
X124742481Y-63758985D01*
X124861015Y-63877519D01*
X124954147Y-64016900D01*
X125018297Y-64171772D01*
X125051000Y-64336184D01*
X125051000Y-64503816D01*
X125018297Y-64668228D01*
X124954147Y-64823100D01*
X124861015Y-64962481D01*
X124742481Y-65081015D01*
X124603100Y-65174147D01*
X124448228Y-65238297D01*
X124283816Y-65271000D01*
X124116184Y-65271000D01*
X123951772Y-65238297D01*
X123796900Y-65174147D01*
X123657519Y-65081015D01*
X123538985Y-64962481D01*
X123445853Y-64823100D01*
X123381703Y-64668228D01*
X123349000Y-64503816D01*
X123349000Y-64336184D01*
X123381703Y-64171772D01*
X123445853Y-64016900D01*
X123538985Y-63877519D01*
X123657519Y-63758985D01*
X123796900Y-63665853D01*
X123951772Y-63601703D01*
X124116184Y-63569000D01*
X124283816Y-63569000D01*
X124448228Y-63601703D01*
G37*
G36*
X114448228Y-63601703D02*
G01*
X114603100Y-63665853D01*
X114742481Y-63758985D01*
X114861015Y-63877519D01*
X114954147Y-64016900D01*
X115018297Y-64171772D01*
X115051000Y-64336184D01*
X115051000Y-64503816D01*
X115018297Y-64668228D01*
X114954147Y-64823100D01*
X114861015Y-64962481D01*
X114742481Y-65081015D01*
X114603100Y-65174147D01*
X114448228Y-65238297D01*
X114283816Y-65271000D01*
X114116184Y-65271000D01*
X113951772Y-65238297D01*
X113796900Y-65174147D01*
X113657519Y-65081015D01*
X113538985Y-64962481D01*
X113445853Y-64823100D01*
X113381703Y-64668228D01*
X113349000Y-64503816D01*
X113349000Y-64336184D01*
X113381703Y-64171772D01*
X113445853Y-64016900D01*
X113538985Y-63877519D01*
X113657519Y-63758985D01*
X113796900Y-63665853D01*
X113951772Y-63601703D01*
X114116184Y-63569000D01*
X114283816Y-63569000D01*
X114448228Y-63601703D01*
G37*
G36*
X101948228Y-63601703D02*
G01*
X102103100Y-63665853D01*
X102242481Y-63758985D01*
X102361015Y-63877519D01*
X102454147Y-64016900D01*
X102518297Y-64171772D01*
X102551000Y-64336184D01*
X102551000Y-64503816D01*
X102518297Y-64668228D01*
X102454147Y-64823100D01*
X102361015Y-64962481D01*
X102242481Y-65081015D01*
X102103100Y-65174147D01*
X101948228Y-65238297D01*
X101783816Y-65271000D01*
X101616184Y-65271000D01*
X101451772Y-65238297D01*
X101296900Y-65174147D01*
X101157519Y-65081015D01*
X101038985Y-64962481D01*
X100945853Y-64823100D01*
X100881703Y-64668228D01*
X100849000Y-64503816D01*
X100849000Y-64336184D01*
X100881703Y-64171772D01*
X100945853Y-64016900D01*
X101038985Y-63877519D01*
X101157519Y-63758985D01*
X101296900Y-63665853D01*
X101451772Y-63601703D01*
X101616184Y-63569000D01*
X101783816Y-63569000D01*
X101948228Y-63601703D01*
G37*
G36*
X136948228Y-63601703D02*
G01*
X137103100Y-63665853D01*
X137242481Y-63758985D01*
X137361015Y-63877519D01*
X137454147Y-64016900D01*
X137518297Y-64171772D01*
X137551000Y-64336184D01*
X137551000Y-64503816D01*
X137518297Y-64668228D01*
X137454147Y-64823100D01*
X137361015Y-64962481D01*
X137242481Y-65081015D01*
X137103100Y-65174147D01*
X136948228Y-65238297D01*
X136783816Y-65271000D01*
X136616184Y-65271000D01*
X136451772Y-65238297D01*
X136296900Y-65174147D01*
X136157519Y-65081015D01*
X136038985Y-64962481D01*
X135945853Y-64823100D01*
X135881703Y-64668228D01*
X135849000Y-64503816D01*
X135849000Y-64336184D01*
X135881703Y-64171772D01*
X135945853Y-64016900D01*
X136038985Y-63877519D01*
X136157519Y-63758985D01*
X136296900Y-63665853D01*
X136451772Y-63601703D01*
X136616184Y-63569000D01*
X136783816Y-63569000D01*
X136948228Y-63601703D01*
G37*
G36*
X132551000Y-63651000D02*
G01*
X130849000Y-63651000D01*
X130849000Y-61949000D01*
X132551000Y-61949000D01*
X132551000Y-63651000D01*
G37*
G36*
X110051000Y-63651000D02*
G01*
X108349000Y-63651000D01*
X108349000Y-61949000D01*
X110051000Y-61949000D01*
X110051000Y-63651000D01*
G37*
G36*
X121948228Y-61601703D02*
G01*
X122103100Y-61665853D01*
X122242481Y-61758985D01*
X122361015Y-61877519D01*
X122454147Y-62016900D01*
X122518297Y-62171772D01*
X122551000Y-62336184D01*
X122551000Y-62503816D01*
X122518297Y-62668228D01*
X122454147Y-62823100D01*
X122361015Y-62962481D01*
X122242481Y-63081015D01*
X122103100Y-63174147D01*
X121948228Y-63238297D01*
X121783816Y-63271000D01*
X121616184Y-63271000D01*
X121451772Y-63238297D01*
X121296900Y-63174147D01*
X121157519Y-63081015D01*
X121038985Y-62962481D01*
X120945853Y-62823100D01*
X120881703Y-62668228D01*
X120849000Y-62503816D01*
X120849000Y-62336184D01*
X120881703Y-62171772D01*
X120945853Y-62016900D01*
X121038985Y-61877519D01*
X121157519Y-61758985D01*
X121296900Y-61665853D01*
X121451772Y-61601703D01*
X121616184Y-61569000D01*
X121783816Y-61569000D01*
X121948228Y-61601703D01*
G37*
G36*
X111948228Y-61601703D02*
G01*
X112103100Y-61665853D01*
X112242481Y-61758985D01*
X112361015Y-61877519D01*
X112454147Y-62016900D01*
X112518297Y-62171772D01*
X112551000Y-62336184D01*
X112551000Y-62503816D01*
X112518297Y-62668228D01*
X112454147Y-62823100D01*
X112361015Y-62962481D01*
X112242481Y-63081015D01*
X112103100Y-63174147D01*
X111948228Y-63238297D01*
X111783816Y-63271000D01*
X111616184Y-63271000D01*
X111451772Y-63238297D01*
X111296900Y-63174147D01*
X111157519Y-63081015D01*
X111038985Y-62962481D01*
X110945853Y-62823100D01*
X110881703Y-62668228D01*
X110849000Y-62503816D01*
X110849000Y-62336184D01*
X110881703Y-62171772D01*
X110945853Y-62016900D01*
X111038985Y-61877519D01*
X111157519Y-61758985D01*
X111296900Y-61665853D01*
X111451772Y-61601703D01*
X111616184Y-61569000D01*
X111783816Y-61569000D01*
X111948228Y-61601703D01*
G37*
G36*
X99448228Y-61601703D02*
G01*
X99603100Y-61665853D01*
X99742481Y-61758985D01*
X99861015Y-61877519D01*
X99954147Y-62016900D01*
X100018297Y-62171772D01*
X100051000Y-62336184D01*
X100051000Y-62503816D01*
X100018297Y-62668228D01*
X99954147Y-62823100D01*
X99861015Y-62962481D01*
X99742481Y-63081015D01*
X99603100Y-63174147D01*
X99448228Y-63238297D01*
X99283816Y-63271000D01*
X99116184Y-63271000D01*
X98951772Y-63238297D01*
X98796900Y-63174147D01*
X98657519Y-63081015D01*
X98538985Y-62962481D01*
X98445853Y-62823100D01*
X98381703Y-62668228D01*
X98349000Y-62503816D01*
X98349000Y-62336184D01*
X98381703Y-62171772D01*
X98445853Y-62016900D01*
X98538985Y-61877519D01*
X98657519Y-61758985D01*
X98796900Y-61665853D01*
X98951772Y-61601703D01*
X99116184Y-61569000D01*
X99283816Y-61569000D01*
X99448228Y-61601703D01*
G37*
G36*
X134448228Y-61601703D02*
G01*
X134603100Y-61665853D01*
X134742481Y-61758985D01*
X134861015Y-61877519D01*
X134954147Y-62016900D01*
X135018297Y-62171772D01*
X135051000Y-62336184D01*
X135051000Y-62503816D01*
X135018297Y-62668228D01*
X134954147Y-62823100D01*
X134861015Y-62962481D01*
X134742481Y-63081015D01*
X134603100Y-63174147D01*
X134448228Y-63238297D01*
X134283816Y-63271000D01*
X134116184Y-63271000D01*
X133951772Y-63238297D01*
X133796900Y-63174147D01*
X133657519Y-63081015D01*
X133538985Y-62962481D01*
X133445853Y-62823100D01*
X133381703Y-62668228D01*
X133349000Y-62503816D01*
X133349000Y-62336184D01*
X133381703Y-62171772D01*
X133445853Y-62016900D01*
X133538985Y-61877519D01*
X133657519Y-61758985D01*
X133796900Y-61665853D01*
X133951772Y-61601703D01*
X134116184Y-61569000D01*
X134283816Y-61569000D01*
X134448228Y-61601703D01*
G37*
G36*
X130051000Y-61651000D02*
G01*
X128349000Y-61651000D01*
X128349000Y-59949000D01*
X130051000Y-59949000D01*
X130051000Y-61651000D01*
G37*
G36*
X107551000Y-61651000D02*
G01*
X105849000Y-61651000D01*
X105849000Y-59949000D01*
X107551000Y-59949000D01*
X107551000Y-61651000D01*
G37*
G36*
X120051000Y-61651000D02*
G01*
X118349000Y-61651000D01*
X118349000Y-59949000D01*
X120051000Y-59949000D01*
X120051000Y-61651000D01*
G37*
G36*
X78419059Y-59847860D02*
G01*
X78555732Y-59904472D01*
X78678735Y-59986660D01*
X78783340Y-60091265D01*
X78865528Y-60214268D01*
X78922140Y-60350941D01*
X78951000Y-60496033D01*
X78951000Y-60643967D01*
X78922140Y-60789059D01*
X78865528Y-60925732D01*
X78783340Y-61048735D01*
X78678735Y-61153340D01*
X78555732Y-61235528D01*
X78555731Y-61235529D01*
X78555730Y-61235529D01*
X78419059Y-61292140D01*
X78273968Y-61321000D01*
X78126032Y-61321000D01*
X77980941Y-61292140D01*
X77844270Y-61235529D01*
X77844269Y-61235529D01*
X77844268Y-61235528D01*
X77721265Y-61153340D01*
X77616660Y-61048735D01*
X77534472Y-60925732D01*
X77477860Y-60789059D01*
X77449000Y-60643967D01*
X77449000Y-60496033D01*
X77477860Y-60350941D01*
X77534472Y-60214268D01*
X77616660Y-60091265D01*
X77721265Y-59986660D01*
X77844268Y-59904472D01*
X77980941Y-59847860D01*
X78126032Y-59819000D01*
X78273968Y-59819000D01*
X78419059Y-59847860D01*
G37*
G36*
X127551000Y-59651000D02*
G01*
X125849000Y-59651000D01*
X125849000Y-57949000D01*
X127551000Y-57949000D01*
X127551000Y-59651000D01*
G37*
G36*
X140051000Y-59651000D02*
G01*
X138349000Y-59651000D01*
X138349000Y-57949000D01*
X140051000Y-57949000D01*
X140051000Y-59651000D01*
G37*
G36*
X117551000Y-59651000D02*
G01*
X115849000Y-59651000D01*
X115849000Y-57949000D01*
X117551000Y-57949000D01*
X117551000Y-59651000D01*
G37*
G36*
X105051000Y-59651000D02*
G01*
X103349000Y-59651000D01*
X103349000Y-57949000D01*
X105051000Y-57949000D01*
X105051000Y-59651000D01*
G37*
G36*
X70013512Y-56983927D02*
G01*
X70162812Y-57013624D01*
X70326784Y-57081544D01*
X70474354Y-57180147D01*
X70599853Y-57305646D01*
X70698456Y-57453216D01*
X70766376Y-57617188D01*
X70801000Y-57791259D01*
X70801000Y-57968741D01*
X70766376Y-58142812D01*
X70698456Y-58306784D01*
X70599853Y-58454354D01*
X70474354Y-58579853D01*
X70326784Y-58678456D01*
X70162812Y-58746376D01*
X70013512Y-58776073D01*
X69988742Y-58781000D01*
X69811258Y-58781000D01*
X69786488Y-58776073D01*
X69637188Y-58746376D01*
X69473216Y-58678456D01*
X69325646Y-58579853D01*
X69200147Y-58454354D01*
X69101544Y-58306784D01*
X69033624Y-58142812D01*
X68999000Y-57968741D01*
X68999000Y-57791259D01*
X69033624Y-57617188D01*
X69101544Y-57453216D01*
X69200147Y-57305646D01*
X69325646Y-57180147D01*
X69473216Y-57081544D01*
X69637188Y-57013624D01*
X69786488Y-56983927D01*
X69811258Y-56979000D01*
X69988742Y-56979000D01*
X70013512Y-56983927D01*
G37*
G36*
X67473512Y-56983927D02*
G01*
X67622812Y-57013624D01*
X67786784Y-57081544D01*
X67934354Y-57180147D01*
X68059853Y-57305646D01*
X68158456Y-57453216D01*
X68226376Y-57617188D01*
X68261000Y-57791259D01*
X68261000Y-57968741D01*
X68226376Y-58142812D01*
X68158456Y-58306784D01*
X68059853Y-58454354D01*
X67934354Y-58579853D01*
X67786784Y-58678456D01*
X67622812Y-58746376D01*
X67473512Y-58776073D01*
X67448742Y-58781000D01*
X67271258Y-58781000D01*
X67246488Y-58776073D01*
X67097188Y-58746376D01*
X66933216Y-58678456D01*
X66785646Y-58579853D01*
X66660147Y-58454354D01*
X66561544Y-58306784D01*
X66493624Y-58142812D01*
X66459000Y-57968741D01*
X66459000Y-57791259D01*
X66493624Y-57617188D01*
X66561544Y-57453216D01*
X66660147Y-57305646D01*
X66785646Y-57180147D01*
X66933216Y-57081544D01*
X67097188Y-57013624D01*
X67246488Y-56983927D01*
X67271258Y-56979000D01*
X67448742Y-56979000D01*
X67473512Y-56983927D01*
G37*
G36*
X102551000Y-57651000D02*
G01*
X100849000Y-57651000D01*
X100849000Y-55949000D01*
X102551000Y-55949000D01*
X102551000Y-57651000D01*
G37*
G36*
X115051000Y-57651000D02*
G01*
X113349000Y-57651000D01*
X113349000Y-55949000D01*
X115051000Y-55949000D01*
X115051000Y-57651000D01*
G37*
G36*
X125051000Y-57651000D02*
G01*
X123349000Y-57651000D01*
X123349000Y-55949000D01*
X125051000Y-55949000D01*
X125051000Y-57651000D01*
G37*
G36*
X137551000Y-57651000D02*
G01*
X135849000Y-57651000D01*
X135849000Y-55949000D01*
X137551000Y-55949000D01*
X137551000Y-57651000D01*
G37*
G36*
X70013512Y-54443927D02*
G01*
X70162812Y-54473624D01*
X70326784Y-54541544D01*
X70474354Y-54640147D01*
X70599853Y-54765646D01*
X70698456Y-54913216D01*
X70766376Y-55077188D01*
X70801000Y-55251259D01*
X70801000Y-55428741D01*
X70766376Y-55602812D01*
X70698456Y-55766784D01*
X70599853Y-55914354D01*
X70474354Y-56039853D01*
X70326784Y-56138456D01*
X70162812Y-56206376D01*
X70013512Y-56236073D01*
X69988742Y-56241000D01*
X69811258Y-56241000D01*
X69786488Y-56236073D01*
X69637188Y-56206376D01*
X69473216Y-56138456D01*
X69325646Y-56039853D01*
X69200147Y-55914354D01*
X69101544Y-55766784D01*
X69033624Y-55602812D01*
X68999000Y-55428741D01*
X68999000Y-55251259D01*
X69033624Y-55077188D01*
X69101544Y-54913216D01*
X69200147Y-54765646D01*
X69325646Y-54640147D01*
X69473216Y-54541544D01*
X69637188Y-54473624D01*
X69786488Y-54443927D01*
X69811258Y-54439000D01*
X69988742Y-54439000D01*
X70013512Y-54443927D01*
G37*
G36*
X67473512Y-54443927D02*
G01*
X67622812Y-54473624D01*
X67786784Y-54541544D01*
X67934354Y-54640147D01*
X68059853Y-54765646D01*
X68158456Y-54913216D01*
X68226376Y-55077188D01*
X68261000Y-55251259D01*
X68261000Y-55428741D01*
X68226376Y-55602812D01*
X68158456Y-55766784D01*
X68059853Y-55914354D01*
X67934354Y-56039853D01*
X67786784Y-56138456D01*
X67622812Y-56206376D01*
X67473512Y-56236073D01*
X67448742Y-56241000D01*
X67271258Y-56241000D01*
X67246488Y-56236073D01*
X67097188Y-56206376D01*
X66933216Y-56138456D01*
X66785646Y-56039853D01*
X66660147Y-55914354D01*
X66561544Y-55766784D01*
X66493624Y-55602812D01*
X66459000Y-55428741D01*
X66459000Y-55251259D01*
X66493624Y-55077188D01*
X66561544Y-54913216D01*
X66660147Y-54765646D01*
X66785646Y-54640147D01*
X66933216Y-54541544D01*
X67097188Y-54473624D01*
X67246488Y-54443927D01*
X67271258Y-54439000D01*
X67448742Y-54439000D01*
X67473512Y-54443927D01*
G37*
G36*
X100051000Y-55651000D02*
G01*
X98349000Y-55651000D01*
X98349000Y-53949000D01*
X100051000Y-53949000D01*
X100051000Y-55651000D01*
G37*
G36*
X135051000Y-55651000D02*
G01*
X133349000Y-55651000D01*
X133349000Y-53949000D01*
X135051000Y-53949000D01*
X135051000Y-55651000D01*
G37*
G36*
X112551000Y-55651000D02*
G01*
X110849000Y-55651000D01*
X110849000Y-53949000D01*
X112551000Y-53949000D01*
X112551000Y-55651000D01*
G37*
G36*
X122551000Y-55651000D02*
G01*
X120849000Y-55651000D01*
X120849000Y-53949000D01*
X122551000Y-53949000D01*
X122551000Y-55651000D01*
G37*
G36*
X67473512Y-51903927D02*
G01*
X67622812Y-51933624D01*
X67786784Y-52001544D01*
X67934354Y-52100147D01*
X68059853Y-52225646D01*
X68158456Y-52373216D01*
X68226376Y-52537188D01*
X68261000Y-52711259D01*
X68261000Y-52888741D01*
X68226376Y-53062812D01*
X68158456Y-53226784D01*
X68059853Y-53374354D01*
X67934354Y-53499853D01*
X67786784Y-53598456D01*
X67622812Y-53666376D01*
X67473512Y-53696073D01*
X67448742Y-53701000D01*
X67271258Y-53701000D01*
X67246488Y-53696073D01*
X67097188Y-53666376D01*
X66933216Y-53598456D01*
X66785646Y-53499853D01*
X66660147Y-53374354D01*
X66561544Y-53226784D01*
X66493624Y-53062812D01*
X66459000Y-52888741D01*
X66459000Y-52711259D01*
X66493624Y-52537188D01*
X66561544Y-52373216D01*
X66660147Y-52225646D01*
X66785646Y-52100147D01*
X66933216Y-52001544D01*
X67097188Y-51933624D01*
X67246488Y-51903927D01*
X67271258Y-51899000D01*
X67448742Y-51899000D01*
X67473512Y-51903927D01*
G37*
G36*
X78407928Y-52225646D02*
G01*
X78419059Y-52227860D01*
X78555732Y-52284472D01*
X78678735Y-52366660D01*
X78783340Y-52471265D01*
X78783341Y-52471267D01*
X78865529Y-52594270D01*
X78922140Y-52730941D01*
X78951000Y-52876032D01*
X78951000Y-53023968D01*
X78922140Y-53169059D01*
X78898230Y-53226784D01*
X78865528Y-53305732D01*
X78783340Y-53428735D01*
X78678735Y-53533340D01*
X78555732Y-53615528D01*
X78555731Y-53615529D01*
X78555730Y-53615529D01*
X78419059Y-53672140D01*
X78273968Y-53701000D01*
X78126032Y-53701000D01*
X77980941Y-53672140D01*
X77844270Y-53615529D01*
X77844269Y-53615529D01*
X77844268Y-53615528D01*
X77721265Y-53533340D01*
X77616660Y-53428735D01*
X77534472Y-53305732D01*
X77501771Y-53226784D01*
X77477860Y-53169059D01*
X77449000Y-53023968D01*
X77449000Y-52876032D01*
X77477860Y-52730941D01*
X77534471Y-52594270D01*
X77616659Y-52471267D01*
X77616660Y-52471265D01*
X77721265Y-52366660D01*
X77844268Y-52284472D01*
X77980941Y-52227860D01*
X77992072Y-52225646D01*
X78126032Y-52199000D01*
X78273968Y-52199000D01*
X78407928Y-52225646D01*
G37*
G36*
X70013512Y-51903927D02*
G01*
X70162812Y-51933624D01*
X70326784Y-52001544D01*
X70474354Y-52100147D01*
X70599853Y-52225646D01*
X70698456Y-52373216D01*
X70766376Y-52537188D01*
X70801000Y-52711259D01*
X70801000Y-52888741D01*
X70766376Y-53062812D01*
X70698456Y-53226784D01*
X70599853Y-53374354D01*
X70474354Y-53499853D01*
X70326784Y-53598456D01*
X70162812Y-53666376D01*
X70013512Y-53696073D01*
X69988742Y-53701000D01*
X69811258Y-53701000D01*
X69786488Y-53696073D01*
X69637188Y-53666376D01*
X69473216Y-53598456D01*
X69325646Y-53499853D01*
X69200147Y-53374354D01*
X69101544Y-53226784D01*
X69033624Y-53062812D01*
X68999000Y-52888741D01*
X68999000Y-52711259D01*
X69033624Y-52537188D01*
X69101544Y-52373216D01*
X69200147Y-52225646D01*
X69325646Y-52100147D01*
X69473216Y-52001544D01*
X69637188Y-51933624D01*
X69786488Y-51903927D01*
X69811258Y-51899000D01*
X69988742Y-51899000D01*
X70013512Y-51903927D01*
G37*
G36*
X70013512Y-49363927D02*
G01*
X70162812Y-49393624D01*
X70326784Y-49461544D01*
X70474354Y-49560147D01*
X70599853Y-49685646D01*
X70698456Y-49833216D01*
X70766376Y-49997188D01*
X70801000Y-50171259D01*
X70801000Y-50348741D01*
X70766376Y-50522812D01*
X70698456Y-50686784D01*
X70599853Y-50834354D01*
X70474354Y-50959853D01*
X70326784Y-51058456D01*
X70162812Y-51126376D01*
X70013512Y-51156073D01*
X69988742Y-51161000D01*
X69811258Y-51161000D01*
X69786488Y-51156073D01*
X69637188Y-51126376D01*
X69473216Y-51058456D01*
X69325646Y-50959853D01*
X69200147Y-50834354D01*
X69101544Y-50686784D01*
X69033624Y-50522812D01*
X68999000Y-50348741D01*
X68999000Y-50171259D01*
X69033624Y-49997188D01*
X69101544Y-49833216D01*
X69200147Y-49685646D01*
X69325646Y-49560147D01*
X69473216Y-49461544D01*
X69637188Y-49393624D01*
X69786488Y-49363927D01*
X69811258Y-49359000D01*
X69988742Y-49359000D01*
X70013512Y-49363927D01*
G37*
G36*
X67473512Y-49363927D02*
G01*
X67622812Y-49393624D01*
X67786784Y-49461544D01*
X67934354Y-49560147D01*
X68059853Y-49685646D01*
X68158456Y-49833216D01*
X68226376Y-49997188D01*
X68261000Y-50171259D01*
X68261000Y-50348741D01*
X68226376Y-50522812D01*
X68158456Y-50686784D01*
X68059853Y-50834354D01*
X67934354Y-50959853D01*
X67786784Y-51058456D01*
X67622812Y-51126376D01*
X67473512Y-51156073D01*
X67448742Y-51161000D01*
X67271258Y-51161000D01*
X67246488Y-51156073D01*
X67097188Y-51126376D01*
X66933216Y-51058456D01*
X66785646Y-50959853D01*
X66660147Y-50834354D01*
X66561544Y-50686784D01*
X66493624Y-50522812D01*
X66459000Y-50348741D01*
X66459000Y-50171259D01*
X66493624Y-49997188D01*
X66561544Y-49833216D01*
X66660147Y-49685646D01*
X66785646Y-49560147D01*
X66933216Y-49461544D01*
X67097188Y-49393624D01*
X67246488Y-49363927D01*
X67271258Y-49359000D01*
X67448742Y-49359000D01*
X67473512Y-49363927D01*
G37*
G36*
X67473512Y-46823927D02*
G01*
X67622812Y-46853624D01*
X67786784Y-46921544D01*
X67934354Y-47020147D01*
X68059853Y-47145646D01*
X68158456Y-47293216D01*
X68226376Y-47457188D01*
X68261000Y-47631259D01*
X68261000Y-47808741D01*
X68226376Y-47982812D01*
X68158456Y-48146784D01*
X68059853Y-48294354D01*
X67934354Y-48419853D01*
X67786784Y-48518456D01*
X67622812Y-48586376D01*
X67473512Y-48616073D01*
X67448742Y-48621000D01*
X67271258Y-48621000D01*
X67246488Y-48616073D01*
X67097188Y-48586376D01*
X66933216Y-48518456D01*
X66785646Y-48419853D01*
X66660147Y-48294354D01*
X66561544Y-48146784D01*
X66493624Y-47982812D01*
X66459000Y-47808741D01*
X66459000Y-47631259D01*
X66493624Y-47457188D01*
X66561544Y-47293216D01*
X66660147Y-47145646D01*
X66785646Y-47020147D01*
X66933216Y-46921544D01*
X67097188Y-46853624D01*
X67246488Y-46823927D01*
X67271258Y-46819000D01*
X67448742Y-46819000D01*
X67473512Y-46823927D01*
G37*
G36*
X70013512Y-46823927D02*
G01*
X70162812Y-46853624D01*
X70326784Y-46921544D01*
X70474354Y-47020147D01*
X70599853Y-47145646D01*
X70698456Y-47293216D01*
X70766376Y-47457188D01*
X70801000Y-47631259D01*
X70801000Y-47808741D01*
X70766376Y-47982812D01*
X70698456Y-48146784D01*
X70599853Y-48294354D01*
X70474354Y-48419853D01*
X70326784Y-48518456D01*
X70162812Y-48586376D01*
X70013512Y-48616073D01*
X69988742Y-48621000D01*
X69811258Y-48621000D01*
X69786488Y-48616073D01*
X69637188Y-48586376D01*
X69473216Y-48518456D01*
X69325646Y-48419853D01*
X69200147Y-48294354D01*
X69101544Y-48146784D01*
X69033624Y-47982812D01*
X68999000Y-47808741D01*
X68999000Y-47631259D01*
X69033624Y-47457188D01*
X69101544Y-47293216D01*
X69200147Y-47145646D01*
X69325646Y-47020147D01*
X69473216Y-46921544D01*
X69637188Y-46853624D01*
X69786488Y-46823927D01*
X69811258Y-46819000D01*
X69988742Y-46819000D01*
X70013512Y-46823927D01*
G37*
G36*
X134419059Y-46697860D02*
G01*
X134555732Y-46754472D01*
X134678735Y-46836660D01*
X134783340Y-46941265D01*
X134865528Y-47064268D01*
X134922140Y-47200941D01*
X134951000Y-47346033D01*
X134951000Y-47493967D01*
X134922140Y-47639059D01*
X134865528Y-47775732D01*
X134783340Y-47898735D01*
X134678735Y-48003340D01*
X134555732Y-48085528D01*
X134555731Y-48085529D01*
X134555730Y-48085529D01*
X134419059Y-48142140D01*
X134273968Y-48171000D01*
X134126032Y-48171000D01*
X133980941Y-48142140D01*
X133844270Y-48085529D01*
X133844269Y-48085529D01*
X133844268Y-48085528D01*
X133721265Y-48003340D01*
X133616660Y-47898735D01*
X133534472Y-47775732D01*
X133477860Y-47639059D01*
X133449000Y-47493967D01*
X133449000Y-47346033D01*
X133477860Y-47200941D01*
X133534472Y-47064268D01*
X133616660Y-46941265D01*
X133721265Y-46836660D01*
X133844268Y-46754472D01*
X133980941Y-46697860D01*
X134126032Y-46669000D01*
X134273968Y-46669000D01*
X134419059Y-46697860D01*
G37*
G36*
X104419059Y-46697860D02*
G01*
X104555732Y-46754472D01*
X104678735Y-46836660D01*
X104783340Y-46941265D01*
X104865528Y-47064268D01*
X104922140Y-47200941D01*
X104951000Y-47346033D01*
X104951000Y-47493967D01*
X104922140Y-47639059D01*
X104865528Y-47775732D01*
X104783340Y-47898735D01*
X104678735Y-48003340D01*
X104555732Y-48085528D01*
X104555731Y-48085529D01*
X104555730Y-48085529D01*
X104419059Y-48142140D01*
X104273968Y-48171000D01*
X104126032Y-48171000D01*
X103980941Y-48142140D01*
X103844270Y-48085529D01*
X103844269Y-48085529D01*
X103844268Y-48085528D01*
X103721265Y-48003340D01*
X103616660Y-47898735D01*
X103534472Y-47775732D01*
X103477860Y-47639059D01*
X103449000Y-47493967D01*
X103449000Y-47346033D01*
X103477860Y-47200941D01*
X103534472Y-47064268D01*
X103616660Y-46941265D01*
X103721265Y-46836660D01*
X103844268Y-46754472D01*
X103980941Y-46697860D01*
X104126032Y-46669000D01*
X104273968Y-46669000D01*
X104419059Y-46697860D01*
G37*
G36*
X111919059Y-46697860D02*
G01*
X112055732Y-46754472D01*
X112178735Y-46836660D01*
X112283340Y-46941265D01*
X112365528Y-47064268D01*
X112422140Y-47200941D01*
X112451000Y-47346033D01*
X112451000Y-47493967D01*
X112422140Y-47639059D01*
X112365528Y-47775732D01*
X112283340Y-47898735D01*
X112178735Y-48003340D01*
X112055732Y-48085528D01*
X112055731Y-48085529D01*
X112055730Y-48085529D01*
X111919059Y-48142140D01*
X111773968Y-48171000D01*
X111626032Y-48171000D01*
X111480941Y-48142140D01*
X111344270Y-48085529D01*
X111344269Y-48085529D01*
X111344268Y-48085528D01*
X111221265Y-48003340D01*
X111116660Y-47898735D01*
X111034472Y-47775732D01*
X110977860Y-47639059D01*
X110949000Y-47493967D01*
X110949000Y-47346033D01*
X110977860Y-47200941D01*
X111034472Y-47064268D01*
X111116660Y-46941265D01*
X111221265Y-46836660D01*
X111344268Y-46754472D01*
X111480941Y-46697860D01*
X111626032Y-46669000D01*
X111773968Y-46669000D01*
X111919059Y-46697860D01*
G37*
G36*
X119419059Y-46697860D02*
G01*
X119555732Y-46754472D01*
X119678735Y-46836660D01*
X119783340Y-46941265D01*
X119865528Y-47064268D01*
X119922140Y-47200941D01*
X119951000Y-47346033D01*
X119951000Y-47493967D01*
X119922140Y-47639059D01*
X119865528Y-47775732D01*
X119783340Y-47898735D01*
X119678735Y-48003340D01*
X119555732Y-48085528D01*
X119555731Y-48085529D01*
X119555730Y-48085529D01*
X119419059Y-48142140D01*
X119273968Y-48171000D01*
X119126032Y-48171000D01*
X118980941Y-48142140D01*
X118844270Y-48085529D01*
X118844269Y-48085529D01*
X118844268Y-48085528D01*
X118721265Y-48003340D01*
X118616660Y-47898735D01*
X118534472Y-47775732D01*
X118477860Y-47639059D01*
X118449000Y-47493967D01*
X118449000Y-47346033D01*
X118477860Y-47200941D01*
X118534472Y-47064268D01*
X118616660Y-46941265D01*
X118721265Y-46836660D01*
X118844268Y-46754472D01*
X118980941Y-46697860D01*
X119126032Y-46669000D01*
X119273968Y-46669000D01*
X119419059Y-46697860D01*
G37*
G36*
X126919059Y-46697860D02*
G01*
X127055732Y-46754472D01*
X127178735Y-46836660D01*
X127283340Y-46941265D01*
X127365528Y-47064268D01*
X127422140Y-47200941D01*
X127451000Y-47346033D01*
X127451000Y-47493967D01*
X127422140Y-47639059D01*
X127365528Y-47775732D01*
X127283340Y-47898735D01*
X127178735Y-48003340D01*
X127055732Y-48085528D01*
X127055731Y-48085529D01*
X127055730Y-48085529D01*
X126919059Y-48142140D01*
X126773968Y-48171000D01*
X126626032Y-48171000D01*
X126480941Y-48142140D01*
X126344270Y-48085529D01*
X126344269Y-48085529D01*
X126344268Y-48085528D01*
X126221265Y-48003340D01*
X126116660Y-47898735D01*
X126034472Y-47775732D01*
X125977860Y-47639059D01*
X125949000Y-47493967D01*
X125949000Y-47346033D01*
X125977860Y-47200941D01*
X126034472Y-47064268D01*
X126116660Y-46941265D01*
X126221265Y-46836660D01*
X126344268Y-46754472D01*
X126480941Y-46697860D01*
X126626032Y-46669000D01*
X126773968Y-46669000D01*
X126919059Y-46697860D01*
G37*
G36*
X116919059Y-44697860D02*
G01*
X116975564Y-44721265D01*
X117055732Y-44754472D01*
X117178735Y-44836660D01*
X117283340Y-44941265D01*
X117365528Y-45064268D01*
X117365529Y-45064270D01*
X117422140Y-45200941D01*
X117451000Y-45346032D01*
X117451000Y-45493968D01*
X117428560Y-45606782D01*
X117422140Y-45639059D01*
X117365528Y-45775732D01*
X117283340Y-45898735D01*
X117178735Y-46003340D01*
X117055732Y-46085528D01*
X117055731Y-46085529D01*
X117055730Y-46085529D01*
X116919059Y-46142140D01*
X116773968Y-46171000D01*
X116626032Y-46171000D01*
X116480941Y-46142140D01*
X116344270Y-46085529D01*
X116344269Y-46085529D01*
X116344268Y-46085528D01*
X116221265Y-46003340D01*
X116116660Y-45898735D01*
X116034472Y-45775732D01*
X115977860Y-45639059D01*
X115971440Y-45606782D01*
X115949000Y-45493968D01*
X115949000Y-45346032D01*
X115977860Y-45200941D01*
X116034471Y-45064270D01*
X116034472Y-45064268D01*
X116116660Y-44941265D01*
X116221265Y-44836660D01*
X116344268Y-44754472D01*
X116424437Y-44721265D01*
X116480941Y-44697860D01*
X116626032Y-44669000D01*
X116773968Y-44669000D01*
X116919059Y-44697860D01*
G37*
G36*
X139419059Y-44697860D02*
G01*
X139475564Y-44721265D01*
X139555732Y-44754472D01*
X139678735Y-44836660D01*
X139783340Y-44941265D01*
X139865528Y-45064268D01*
X139865529Y-45064270D01*
X139922140Y-45200941D01*
X139951000Y-45346032D01*
X139951000Y-45493968D01*
X139928560Y-45606782D01*
X139922140Y-45639059D01*
X139865528Y-45775732D01*
X139783340Y-45898735D01*
X139678735Y-46003340D01*
X139555732Y-46085528D01*
X139555731Y-46085529D01*
X139555730Y-46085529D01*
X139419059Y-46142140D01*
X139273968Y-46171000D01*
X139126032Y-46171000D01*
X138980941Y-46142140D01*
X138844270Y-46085529D01*
X138844269Y-46085529D01*
X138844268Y-46085528D01*
X138721265Y-46003340D01*
X138616660Y-45898735D01*
X138534472Y-45775732D01*
X138477860Y-45639059D01*
X138471440Y-45606782D01*
X138449000Y-45493968D01*
X138449000Y-45346032D01*
X138477860Y-45200941D01*
X138534471Y-45064270D01*
X138534472Y-45064268D01*
X138616660Y-44941265D01*
X138721265Y-44836660D01*
X138844268Y-44754472D01*
X138924437Y-44721265D01*
X138980941Y-44697860D01*
X139126032Y-44669000D01*
X139273968Y-44669000D01*
X139419059Y-44697860D01*
G37*
G36*
X109419059Y-44697860D02*
G01*
X109475564Y-44721265D01*
X109555732Y-44754472D01*
X109678735Y-44836660D01*
X109783340Y-44941265D01*
X109865528Y-45064268D01*
X109865529Y-45064270D01*
X109922140Y-45200941D01*
X109951000Y-45346032D01*
X109951000Y-45493968D01*
X109928560Y-45606782D01*
X109922140Y-45639059D01*
X109865528Y-45775732D01*
X109783340Y-45898735D01*
X109678735Y-46003340D01*
X109555732Y-46085528D01*
X109555731Y-46085529D01*
X109555730Y-46085529D01*
X109419059Y-46142140D01*
X109273968Y-46171000D01*
X109126032Y-46171000D01*
X108980941Y-46142140D01*
X108844270Y-46085529D01*
X108844269Y-46085529D01*
X108844268Y-46085528D01*
X108721265Y-46003340D01*
X108616660Y-45898735D01*
X108534472Y-45775732D01*
X108477860Y-45639059D01*
X108471440Y-45606782D01*
X108449000Y-45493968D01*
X108449000Y-45346032D01*
X108477860Y-45200941D01*
X108534471Y-45064270D01*
X108534472Y-45064268D01*
X108616660Y-44941265D01*
X108721265Y-44836660D01*
X108844268Y-44754472D01*
X108924437Y-44721265D01*
X108980941Y-44697860D01*
X109126032Y-44669000D01*
X109273968Y-44669000D01*
X109419059Y-44697860D01*
G37*
G36*
X131919059Y-44697860D02*
G01*
X131975564Y-44721265D01*
X132055732Y-44754472D01*
X132178735Y-44836660D01*
X132283340Y-44941265D01*
X132365528Y-45064268D01*
X132365529Y-45064270D01*
X132422140Y-45200941D01*
X132451000Y-45346032D01*
X132451000Y-45493968D01*
X132428560Y-45606782D01*
X132422140Y-45639059D01*
X132365528Y-45775732D01*
X132283340Y-45898735D01*
X132178735Y-46003340D01*
X132055732Y-46085528D01*
X132055731Y-46085529D01*
X132055730Y-46085529D01*
X131919059Y-46142140D01*
X131773968Y-46171000D01*
X131626032Y-46171000D01*
X131480941Y-46142140D01*
X131344270Y-46085529D01*
X131344269Y-46085529D01*
X131344268Y-46085528D01*
X131221265Y-46003340D01*
X131116660Y-45898735D01*
X131034472Y-45775732D01*
X130977860Y-45639059D01*
X130971440Y-45606782D01*
X130949000Y-45493968D01*
X130949000Y-45346032D01*
X130977860Y-45200941D01*
X131034471Y-45064270D01*
X131034472Y-45064268D01*
X131116660Y-44941265D01*
X131221265Y-44836660D01*
X131344268Y-44754472D01*
X131424437Y-44721265D01*
X131480941Y-44697860D01*
X131626032Y-44669000D01*
X131773968Y-44669000D01*
X131919059Y-44697860D01*
G37*
G36*
X124419059Y-44697860D02*
G01*
X124475564Y-44721265D01*
X124555732Y-44754472D01*
X124678735Y-44836660D01*
X124783340Y-44941265D01*
X124865528Y-45064268D01*
X124865529Y-45064270D01*
X124922140Y-45200941D01*
X124951000Y-45346032D01*
X124951000Y-45493968D01*
X124928560Y-45606782D01*
X124922140Y-45639059D01*
X124865528Y-45775732D01*
X124783340Y-45898735D01*
X124678735Y-46003340D01*
X124555732Y-46085528D01*
X124555731Y-46085529D01*
X124555730Y-46085529D01*
X124419059Y-46142140D01*
X124273968Y-46171000D01*
X124126032Y-46171000D01*
X123980941Y-46142140D01*
X123844270Y-46085529D01*
X123844269Y-46085529D01*
X123844268Y-46085528D01*
X123721265Y-46003340D01*
X123616660Y-45898735D01*
X123534472Y-45775732D01*
X123477860Y-45639059D01*
X123471440Y-45606782D01*
X123449000Y-45493968D01*
X123449000Y-45346032D01*
X123477860Y-45200941D01*
X123534471Y-45064270D01*
X123534472Y-45064268D01*
X123616660Y-44941265D01*
X123721265Y-44836660D01*
X123844268Y-44754472D01*
X123924437Y-44721265D01*
X123980941Y-44697860D01*
X124126032Y-44669000D01*
X124273968Y-44669000D01*
X124419059Y-44697860D01*
G37*
G36*
X101919059Y-44697860D02*
G01*
X101975564Y-44721265D01*
X102055732Y-44754472D01*
X102178735Y-44836660D01*
X102283340Y-44941265D01*
X102365528Y-45064268D01*
X102365529Y-45064270D01*
X102422140Y-45200941D01*
X102451000Y-45346032D01*
X102451000Y-45493968D01*
X102428560Y-45606782D01*
X102422140Y-45639059D01*
X102365528Y-45775732D01*
X102283340Y-45898735D01*
X102178735Y-46003340D01*
X102055732Y-46085528D01*
X102055731Y-46085529D01*
X102055730Y-46085529D01*
X101919059Y-46142140D01*
X101773968Y-46171000D01*
X101626032Y-46171000D01*
X101480941Y-46142140D01*
X101344270Y-46085529D01*
X101344269Y-46085529D01*
X101344268Y-46085528D01*
X101221265Y-46003340D01*
X101116660Y-45898735D01*
X101034472Y-45775732D01*
X100977860Y-45639059D01*
X100971440Y-45606782D01*
X100949000Y-45493968D01*
X100949000Y-45346032D01*
X100977860Y-45200941D01*
X101034471Y-45064270D01*
X101034472Y-45064268D01*
X101116660Y-44941265D01*
X101221265Y-44836660D01*
X101344268Y-44754472D01*
X101424437Y-44721265D01*
X101480941Y-44697860D01*
X101626032Y-44669000D01*
X101773968Y-44669000D01*
X101919059Y-44697860D01*
G37*
G36*
X70013512Y-44283927D02*
G01*
X70162812Y-44313624D01*
X70326784Y-44381544D01*
X70474354Y-44480147D01*
X70599853Y-44605646D01*
X70698456Y-44753216D01*
X70766376Y-44917188D01*
X70801000Y-45091259D01*
X70801000Y-45268741D01*
X70766376Y-45442812D01*
X70698456Y-45606784D01*
X70599853Y-45754354D01*
X70474354Y-45879853D01*
X70326784Y-45978456D01*
X70162812Y-46046376D01*
X70013512Y-46076073D01*
X69988742Y-46081000D01*
X69811258Y-46081000D01*
X69786488Y-46076073D01*
X69637188Y-46046376D01*
X69473216Y-45978456D01*
X69325646Y-45879853D01*
X69200147Y-45754354D01*
X69101544Y-45606784D01*
X69033624Y-45442812D01*
X68999000Y-45268741D01*
X68999000Y-45091259D01*
X69033624Y-44917188D01*
X69101544Y-44753216D01*
X69200147Y-44605646D01*
X69325646Y-44480147D01*
X69473216Y-44381544D01*
X69637188Y-44313624D01*
X69786488Y-44283927D01*
X69811258Y-44279000D01*
X69988742Y-44279000D01*
X70013512Y-44283927D01*
G37*
G36*
X67473512Y-44283927D02*
G01*
X67622812Y-44313624D01*
X67786784Y-44381544D01*
X67934354Y-44480147D01*
X68059853Y-44605646D01*
X68158456Y-44753216D01*
X68226376Y-44917188D01*
X68261000Y-45091259D01*
X68261000Y-45268741D01*
X68226376Y-45442812D01*
X68158456Y-45606784D01*
X68059853Y-45754354D01*
X67934354Y-45879853D01*
X67786784Y-45978456D01*
X67622812Y-46046376D01*
X67473512Y-46076073D01*
X67448742Y-46081000D01*
X67271258Y-46081000D01*
X67246488Y-46076073D01*
X67097188Y-46046376D01*
X66933216Y-45978456D01*
X66785646Y-45879853D01*
X66660147Y-45754354D01*
X66561544Y-45606784D01*
X66493624Y-45442812D01*
X66459000Y-45268741D01*
X66459000Y-45091259D01*
X66493624Y-44917188D01*
X66561544Y-44753216D01*
X66660147Y-44605646D01*
X66785646Y-44480147D01*
X66933216Y-44381544D01*
X67097188Y-44313624D01*
X67246488Y-44283927D01*
X67271258Y-44279000D01*
X67448742Y-44279000D01*
X67473512Y-44283927D01*
G37*
G36*
X78419059Y-44477860D02*
G01*
X78555732Y-44534472D01*
X78678735Y-44616660D01*
X78783340Y-44721265D01*
X78860444Y-44836660D01*
X78865529Y-44844270D01*
X78922140Y-44980941D01*
X78951000Y-45126032D01*
X78951000Y-45273968D01*
X78922140Y-45419059D01*
X78865528Y-45555732D01*
X78783340Y-45678735D01*
X78678735Y-45783340D01*
X78555732Y-45865528D01*
X78555731Y-45865529D01*
X78555730Y-45865529D01*
X78419059Y-45922140D01*
X78273968Y-45951000D01*
X78126032Y-45951000D01*
X77980941Y-45922140D01*
X77844270Y-45865529D01*
X77844269Y-45865529D01*
X77844268Y-45865528D01*
X77721265Y-45783340D01*
X77616660Y-45678735D01*
X77534472Y-45555732D01*
X77477860Y-45419059D01*
X77449000Y-45273968D01*
X77449000Y-45126032D01*
X77477860Y-44980941D01*
X77534471Y-44844270D01*
X77539556Y-44836660D01*
X77616660Y-44721265D01*
X77721265Y-44616660D01*
X77844268Y-44534472D01*
X77980941Y-44477860D01*
X78126032Y-44449000D01*
X78273968Y-44449000D01*
X78419059Y-44477860D01*
G37*
G36*
X106919059Y-42697860D02*
G01*
X106993615Y-42728742D01*
X107055732Y-42754472D01*
X107178735Y-42836660D01*
X107283340Y-42941265D01*
X107283341Y-42941267D01*
X107365529Y-43064270D01*
X107366570Y-43066784D01*
X107422140Y-43200941D01*
X107451000Y-43346033D01*
X107451000Y-43493967D01*
X107422140Y-43639059D01*
X107365528Y-43775732D01*
X107283340Y-43898735D01*
X107178735Y-44003340D01*
X107055732Y-44085528D01*
X107055731Y-44085529D01*
X107055730Y-44085529D01*
X106919059Y-44142140D01*
X106773968Y-44171000D01*
X106626032Y-44171000D01*
X106480941Y-44142140D01*
X106344270Y-44085529D01*
X106344269Y-44085529D01*
X106344268Y-44085528D01*
X106221265Y-44003340D01*
X106116660Y-43898735D01*
X106034472Y-43775732D01*
X105977860Y-43639059D01*
X105949000Y-43493967D01*
X105949000Y-43346033D01*
X105977860Y-43200941D01*
X106033430Y-43066784D01*
X106034471Y-43064270D01*
X106116659Y-42941267D01*
X106116660Y-42941265D01*
X106221265Y-42836660D01*
X106344268Y-42754472D01*
X106406386Y-42728742D01*
X106480941Y-42697860D01*
X106626032Y-42669000D01*
X106773968Y-42669000D01*
X106919059Y-42697860D01*
G37*
G36*
X99419059Y-42697860D02*
G01*
X99493615Y-42728742D01*
X99555732Y-42754472D01*
X99678735Y-42836660D01*
X99783340Y-42941265D01*
X99783341Y-42941267D01*
X99865529Y-43064270D01*
X99866570Y-43066784D01*
X99922140Y-43200941D01*
X99951000Y-43346033D01*
X99951000Y-43493967D01*
X99922140Y-43639059D01*
X99865528Y-43775732D01*
X99783340Y-43898735D01*
X99678735Y-44003340D01*
X99555732Y-44085528D01*
X99555731Y-44085529D01*
X99555730Y-44085529D01*
X99419059Y-44142140D01*
X99273968Y-44171000D01*
X99126032Y-44171000D01*
X98980941Y-44142140D01*
X98844270Y-44085529D01*
X98844269Y-44085529D01*
X98844268Y-44085528D01*
X98721265Y-44003340D01*
X98616660Y-43898735D01*
X98534472Y-43775732D01*
X98477860Y-43639059D01*
X98449000Y-43493967D01*
X98449000Y-43346033D01*
X98477860Y-43200941D01*
X98533430Y-43066784D01*
X98534471Y-43064270D01*
X98616659Y-42941267D01*
X98616660Y-42941265D01*
X98721265Y-42836660D01*
X98844268Y-42754472D01*
X98906386Y-42728742D01*
X98980941Y-42697860D01*
X99126032Y-42669000D01*
X99273968Y-42669000D01*
X99419059Y-42697860D01*
G37*
G36*
X114419059Y-42697860D02*
G01*
X114493615Y-42728742D01*
X114555732Y-42754472D01*
X114678735Y-42836660D01*
X114783340Y-42941265D01*
X114783341Y-42941267D01*
X114865529Y-43064270D01*
X114866570Y-43066784D01*
X114922140Y-43200941D01*
X114951000Y-43346033D01*
X114951000Y-43493967D01*
X114922140Y-43639059D01*
X114865528Y-43775732D01*
X114783340Y-43898735D01*
X114678735Y-44003340D01*
X114555732Y-44085528D01*
X114555731Y-44085529D01*
X114555730Y-44085529D01*
X114419059Y-44142140D01*
X114273968Y-44171000D01*
X114126032Y-44171000D01*
X113980941Y-44142140D01*
X113844270Y-44085529D01*
X113844269Y-44085529D01*
X113844268Y-44085528D01*
X113721265Y-44003340D01*
X113616660Y-43898735D01*
X113534472Y-43775732D01*
X113477860Y-43639059D01*
X113449000Y-43493967D01*
X113449000Y-43346033D01*
X113477860Y-43200941D01*
X113533430Y-43066784D01*
X113534471Y-43064270D01*
X113616659Y-42941267D01*
X113616660Y-42941265D01*
X113721265Y-42836660D01*
X113844268Y-42754472D01*
X113906386Y-42728742D01*
X113980941Y-42697860D01*
X114126032Y-42669000D01*
X114273968Y-42669000D01*
X114419059Y-42697860D01*
G37*
G36*
X129419059Y-42697860D02*
G01*
X129493615Y-42728742D01*
X129555732Y-42754472D01*
X129678735Y-42836660D01*
X129783340Y-42941265D01*
X129783341Y-42941267D01*
X129865529Y-43064270D01*
X129866570Y-43066784D01*
X129922140Y-43200941D01*
X129951000Y-43346033D01*
X129951000Y-43493967D01*
X129922140Y-43639059D01*
X129865528Y-43775732D01*
X129783340Y-43898735D01*
X129678735Y-44003340D01*
X129555732Y-44085528D01*
X129555731Y-44085529D01*
X129555730Y-44085529D01*
X129419059Y-44142140D01*
X129273968Y-44171000D01*
X129126032Y-44171000D01*
X128980941Y-44142140D01*
X128844270Y-44085529D01*
X128844269Y-44085529D01*
X128844268Y-44085528D01*
X128721265Y-44003340D01*
X128616660Y-43898735D01*
X128534472Y-43775732D01*
X128477860Y-43639059D01*
X128449000Y-43493967D01*
X128449000Y-43346033D01*
X128477860Y-43200941D01*
X128533430Y-43066784D01*
X128534471Y-43064270D01*
X128616659Y-42941267D01*
X128616660Y-42941265D01*
X128721265Y-42836660D01*
X128844268Y-42754472D01*
X128906386Y-42728742D01*
X128980941Y-42697860D01*
X129126032Y-42669000D01*
X129273968Y-42669000D01*
X129419059Y-42697860D01*
G37*
G36*
X121919059Y-42697860D02*
G01*
X121993615Y-42728742D01*
X122055732Y-42754472D01*
X122178735Y-42836660D01*
X122283340Y-42941265D01*
X122283341Y-42941267D01*
X122365529Y-43064270D01*
X122366570Y-43066784D01*
X122422140Y-43200941D01*
X122451000Y-43346033D01*
X122451000Y-43493967D01*
X122422140Y-43639059D01*
X122365528Y-43775732D01*
X122283340Y-43898735D01*
X122178735Y-44003340D01*
X122055732Y-44085528D01*
X122055731Y-44085529D01*
X122055730Y-44085529D01*
X121919059Y-44142140D01*
X121773968Y-44171000D01*
X121626032Y-44171000D01*
X121480941Y-44142140D01*
X121344270Y-44085529D01*
X121344269Y-44085529D01*
X121344268Y-44085528D01*
X121221265Y-44003340D01*
X121116660Y-43898735D01*
X121034472Y-43775732D01*
X120977860Y-43639059D01*
X120949000Y-43493967D01*
X120949000Y-43346033D01*
X120977860Y-43200941D01*
X121033430Y-43066784D01*
X121034471Y-43064270D01*
X121116659Y-42941267D01*
X121116660Y-42941265D01*
X121221265Y-42836660D01*
X121344268Y-42754472D01*
X121406386Y-42728742D01*
X121480941Y-42697860D01*
X121626032Y-42669000D01*
X121773968Y-42669000D01*
X121919059Y-42697860D01*
G37*
G36*
X136919059Y-42697860D02*
G01*
X136993615Y-42728742D01*
X137055732Y-42754472D01*
X137178735Y-42836660D01*
X137283340Y-42941265D01*
X137283341Y-42941267D01*
X137365529Y-43064270D01*
X137366570Y-43066784D01*
X137422140Y-43200941D01*
X137451000Y-43346033D01*
X137451000Y-43493967D01*
X137422140Y-43639059D01*
X137365528Y-43775732D01*
X137283340Y-43898735D01*
X137178735Y-44003340D01*
X137055732Y-44085528D01*
X137055731Y-44085529D01*
X137055730Y-44085529D01*
X136919059Y-44142140D01*
X136773968Y-44171000D01*
X136626032Y-44171000D01*
X136480941Y-44142140D01*
X136344270Y-44085529D01*
X136344269Y-44085529D01*
X136344268Y-44085528D01*
X136221265Y-44003340D01*
X136116660Y-43898735D01*
X136034472Y-43775732D01*
X135977860Y-43639059D01*
X135949000Y-43493967D01*
X135949000Y-43346033D01*
X135977860Y-43200941D01*
X136033430Y-43066784D01*
X136034471Y-43064270D01*
X136116659Y-42941267D01*
X136116660Y-42941265D01*
X136221265Y-42836660D01*
X136344268Y-42754472D01*
X136406386Y-42728742D01*
X136480941Y-42697860D01*
X136626032Y-42669000D01*
X136773968Y-42669000D01*
X136919059Y-42697860D01*
G37*
G36*
X67473512Y-41743927D02*
G01*
X67622812Y-41773624D01*
X67786784Y-41841544D01*
X67934354Y-41940147D01*
X68059853Y-42065646D01*
X68158456Y-42213216D01*
X68226376Y-42377188D01*
X68261000Y-42551259D01*
X68261000Y-42728741D01*
X68226376Y-42902812D01*
X68158456Y-43066784D01*
X68059853Y-43214354D01*
X67934354Y-43339853D01*
X67786784Y-43438456D01*
X67622812Y-43506376D01*
X67473512Y-43536073D01*
X67448742Y-43541000D01*
X67271258Y-43541000D01*
X67246488Y-43536073D01*
X67097188Y-43506376D01*
X66933216Y-43438456D01*
X66785646Y-43339853D01*
X66660147Y-43214354D01*
X66561544Y-43066784D01*
X66493624Y-42902812D01*
X66459000Y-42728741D01*
X66459000Y-42551259D01*
X66493624Y-42377188D01*
X66561544Y-42213216D01*
X66660147Y-42065646D01*
X66785646Y-41940147D01*
X66933216Y-41841544D01*
X67097188Y-41773624D01*
X67246488Y-41743927D01*
X67271258Y-41739000D01*
X67448742Y-41739000D01*
X67473512Y-41743927D01*
G37*
G36*
X70013512Y-41743927D02*
G01*
X70162812Y-41773624D01*
X70326784Y-41841544D01*
X70474354Y-41940147D01*
X70599853Y-42065646D01*
X70698456Y-42213216D01*
X70766376Y-42377188D01*
X70801000Y-42551259D01*
X70801000Y-42728741D01*
X70766376Y-42902812D01*
X70698456Y-43066784D01*
X70599853Y-43214354D01*
X70474354Y-43339853D01*
X70326784Y-43438456D01*
X70162812Y-43506376D01*
X70013512Y-43536073D01*
X69988742Y-43541000D01*
X69811258Y-43541000D01*
X69786488Y-43536073D01*
X69637188Y-43506376D01*
X69473216Y-43438456D01*
X69325646Y-43339853D01*
X69200147Y-43214354D01*
X69101544Y-43066784D01*
X69033624Y-42902812D01*
X68999000Y-42728741D01*
X68999000Y-42551259D01*
X69033624Y-42377188D01*
X69101544Y-42213216D01*
X69200147Y-42065646D01*
X69325646Y-41940147D01*
X69473216Y-41841544D01*
X69637188Y-41773624D01*
X69786488Y-41743927D01*
X69811258Y-41739000D01*
X69988742Y-41739000D01*
X70013512Y-41743927D01*
G37*
G36*
X70801000Y-41001000D02*
G01*
X68999000Y-41001000D01*
X68999000Y-39199000D01*
X70801000Y-39199000D01*
X70801000Y-41001000D01*
G37*
G36*
X67473512Y-39203927D02*
G01*
X67622812Y-39233624D01*
X67786784Y-39301544D01*
X67934354Y-39400147D01*
X68059853Y-39525646D01*
X68158456Y-39673216D01*
X68226376Y-39837188D01*
X68261000Y-40011259D01*
X68261000Y-40188741D01*
X68226376Y-40362812D01*
X68158456Y-40526784D01*
X68059853Y-40674354D01*
X67934354Y-40799853D01*
X67786784Y-40898456D01*
X67622812Y-40966376D01*
X67473512Y-40996073D01*
X67448742Y-41001000D01*
X67271258Y-41001000D01*
X67246488Y-40996073D01*
X67097188Y-40966376D01*
X66933216Y-40898456D01*
X66785646Y-40799853D01*
X66660147Y-40674354D01*
X66561544Y-40526784D01*
X66493624Y-40362812D01*
X66459000Y-40188741D01*
X66459000Y-40011259D01*
X66493624Y-39837188D01*
X66561544Y-39673216D01*
X66660147Y-39525646D01*
X66785646Y-39400147D01*
X66933216Y-39301544D01*
X67097188Y-39233624D01*
X67246488Y-39203927D01*
X67271258Y-39199000D01*
X67448742Y-39199000D01*
X67473512Y-39203927D01*
G37*
G36*
X134419059Y-39077860D02*
G01*
X134555732Y-39134472D01*
X134678735Y-39216660D01*
X134783340Y-39321265D01*
X134865528Y-39444268D01*
X134922140Y-39580941D01*
X134951000Y-39726033D01*
X134951000Y-39873967D01*
X134922140Y-40019059D01*
X134865528Y-40155732D01*
X134783340Y-40278735D01*
X134678735Y-40383340D01*
X134555732Y-40465528D01*
X134555731Y-40465529D01*
X134555730Y-40465529D01*
X134419059Y-40522140D01*
X134273968Y-40551000D01*
X134126032Y-40551000D01*
X133980941Y-40522140D01*
X133844270Y-40465529D01*
X133844269Y-40465529D01*
X133844268Y-40465528D01*
X133721265Y-40383340D01*
X133616660Y-40278735D01*
X133534472Y-40155732D01*
X133477860Y-40019059D01*
X133449000Y-39873967D01*
X133449000Y-39726033D01*
X133477860Y-39580941D01*
X133534472Y-39444268D01*
X133616660Y-39321265D01*
X133721265Y-39216660D01*
X133844268Y-39134472D01*
X133980941Y-39077860D01*
X134126032Y-39049000D01*
X134273968Y-39049000D01*
X134419059Y-39077860D01*
G37*
G36*
X119419059Y-39077860D02*
G01*
X119555732Y-39134472D01*
X119678735Y-39216660D01*
X119783340Y-39321265D01*
X119865528Y-39444268D01*
X119922140Y-39580941D01*
X119951000Y-39726033D01*
X119951000Y-39873967D01*
X119922140Y-40019059D01*
X119865528Y-40155732D01*
X119783340Y-40278735D01*
X119678735Y-40383340D01*
X119555732Y-40465528D01*
X119555731Y-40465529D01*
X119555730Y-40465529D01*
X119419059Y-40522140D01*
X119273968Y-40551000D01*
X119126032Y-40551000D01*
X118980941Y-40522140D01*
X118844270Y-40465529D01*
X118844269Y-40465529D01*
X118844268Y-40465528D01*
X118721265Y-40383340D01*
X118616660Y-40278735D01*
X118534472Y-40155732D01*
X118477860Y-40019059D01*
X118449000Y-39873967D01*
X118449000Y-39726033D01*
X118477860Y-39580941D01*
X118534472Y-39444268D01*
X118616660Y-39321265D01*
X118721265Y-39216660D01*
X118844268Y-39134472D01*
X118980941Y-39077860D01*
X119126032Y-39049000D01*
X119273968Y-39049000D01*
X119419059Y-39077860D01*
G37*
G36*
X126919059Y-39077860D02*
G01*
X127055732Y-39134472D01*
X127178735Y-39216660D01*
X127283340Y-39321265D01*
X127365528Y-39444268D01*
X127422140Y-39580941D01*
X127451000Y-39726033D01*
X127451000Y-39873967D01*
X127422140Y-40019059D01*
X127365528Y-40155732D01*
X127283340Y-40278735D01*
X127178735Y-40383340D01*
X127055732Y-40465528D01*
X127055731Y-40465529D01*
X127055730Y-40465529D01*
X126919059Y-40522140D01*
X126773968Y-40551000D01*
X126626032Y-40551000D01*
X126480941Y-40522140D01*
X126344270Y-40465529D01*
X126344269Y-40465529D01*
X126344268Y-40465528D01*
X126221265Y-40383340D01*
X126116660Y-40278735D01*
X126034472Y-40155732D01*
X125977860Y-40019059D01*
X125949000Y-39873967D01*
X125949000Y-39726033D01*
X125977860Y-39580941D01*
X126034472Y-39444268D01*
X126116660Y-39321265D01*
X126221265Y-39216660D01*
X126344268Y-39134472D01*
X126480941Y-39077860D01*
X126626032Y-39049000D01*
X126773968Y-39049000D01*
X126919059Y-39077860D01*
G37*
G36*
X104419059Y-39077860D02*
G01*
X104555732Y-39134472D01*
X104678735Y-39216660D01*
X104783340Y-39321265D01*
X104865528Y-39444268D01*
X104922140Y-39580941D01*
X104951000Y-39726033D01*
X104951000Y-39873967D01*
X104922140Y-40019059D01*
X104865528Y-40155732D01*
X104783340Y-40278735D01*
X104678735Y-40383340D01*
X104555732Y-40465528D01*
X104555731Y-40465529D01*
X104555730Y-40465529D01*
X104419059Y-40522140D01*
X104273968Y-40551000D01*
X104126032Y-40551000D01*
X103980941Y-40522140D01*
X103844270Y-40465529D01*
X103844269Y-40465529D01*
X103844268Y-40465528D01*
X103721265Y-40383340D01*
X103616660Y-40278735D01*
X103534472Y-40155732D01*
X103477860Y-40019059D01*
X103449000Y-39873967D01*
X103449000Y-39726033D01*
X103477860Y-39580941D01*
X103534472Y-39444268D01*
X103616660Y-39321265D01*
X103721265Y-39216660D01*
X103844268Y-39134472D01*
X103980941Y-39077860D01*
X104126032Y-39049000D01*
X104273968Y-39049000D01*
X104419059Y-39077860D01*
G37*
G36*
X111919059Y-39077860D02*
G01*
X112055732Y-39134472D01*
X112178735Y-39216660D01*
X112283340Y-39321265D01*
X112365528Y-39444268D01*
X112422140Y-39580941D01*
X112451000Y-39726033D01*
X112451000Y-39873967D01*
X112422140Y-40019059D01*
X112365528Y-40155732D01*
X112283340Y-40278735D01*
X112178735Y-40383340D01*
X112055732Y-40465528D01*
X112055731Y-40465529D01*
X112055730Y-40465529D01*
X111919059Y-40522140D01*
X111773968Y-40551000D01*
X111626032Y-40551000D01*
X111480941Y-40522140D01*
X111344270Y-40465529D01*
X111344269Y-40465529D01*
X111344268Y-40465528D01*
X111221265Y-40383340D01*
X111116660Y-40278735D01*
X111034472Y-40155732D01*
X110977860Y-40019059D01*
X110949000Y-39873967D01*
X110949000Y-39726033D01*
X110977860Y-39580941D01*
X111034472Y-39444268D01*
X111116660Y-39321265D01*
X111221265Y-39216660D01*
X111344268Y-39134472D01*
X111480941Y-39077860D01*
X111626032Y-39049000D01*
X111773968Y-39049000D01*
X111919059Y-39077860D01*
G37*
G36*
X109419059Y-37077860D02*
G01*
X109475564Y-37101265D01*
X109555732Y-37134472D01*
X109678735Y-37216660D01*
X109783340Y-37321265D01*
X109865528Y-37444268D01*
X109865529Y-37444270D01*
X109922140Y-37580941D01*
X109951000Y-37726032D01*
X109951000Y-37873968D01*
X109922140Y-38019059D01*
X109865528Y-38155732D01*
X109783340Y-38278735D01*
X109678735Y-38383340D01*
X109555732Y-38465528D01*
X109555731Y-38465529D01*
X109555730Y-38465529D01*
X109419059Y-38522140D01*
X109273968Y-38551000D01*
X109126032Y-38551000D01*
X108980941Y-38522140D01*
X108844270Y-38465529D01*
X108844269Y-38465529D01*
X108844268Y-38465528D01*
X108721265Y-38383340D01*
X108616660Y-38278735D01*
X108534472Y-38155732D01*
X108477860Y-38019059D01*
X108449000Y-37873968D01*
X108449000Y-37726032D01*
X108477860Y-37580941D01*
X108534471Y-37444270D01*
X108534472Y-37444268D01*
X108616660Y-37321265D01*
X108721265Y-37216660D01*
X108844268Y-37134472D01*
X108924437Y-37101265D01*
X108980941Y-37077860D01*
X109126032Y-37049000D01*
X109273968Y-37049000D01*
X109419059Y-37077860D01*
G37*
G36*
X101919059Y-37077860D02*
G01*
X101975564Y-37101265D01*
X102055732Y-37134472D01*
X102178735Y-37216660D01*
X102283340Y-37321265D01*
X102365528Y-37444268D01*
X102365529Y-37444270D01*
X102422140Y-37580941D01*
X102451000Y-37726032D01*
X102451000Y-37873968D01*
X102422140Y-38019059D01*
X102365528Y-38155732D01*
X102283340Y-38278735D01*
X102178735Y-38383340D01*
X102055732Y-38465528D01*
X102055731Y-38465529D01*
X102055730Y-38465529D01*
X101919059Y-38522140D01*
X101773968Y-38551000D01*
X101626032Y-38551000D01*
X101480941Y-38522140D01*
X101344270Y-38465529D01*
X101344269Y-38465529D01*
X101344268Y-38465528D01*
X101221265Y-38383340D01*
X101116660Y-38278735D01*
X101034472Y-38155732D01*
X100977860Y-38019059D01*
X100949000Y-37873968D01*
X100949000Y-37726032D01*
X100977860Y-37580941D01*
X101034471Y-37444270D01*
X101034472Y-37444268D01*
X101116660Y-37321265D01*
X101221265Y-37216660D01*
X101344268Y-37134472D01*
X101424437Y-37101265D01*
X101480941Y-37077860D01*
X101626032Y-37049000D01*
X101773968Y-37049000D01*
X101919059Y-37077860D01*
G37*
G36*
X124419059Y-37077860D02*
G01*
X124475564Y-37101265D01*
X124555732Y-37134472D01*
X124678735Y-37216660D01*
X124783340Y-37321265D01*
X124865528Y-37444268D01*
X124865529Y-37444270D01*
X124922140Y-37580941D01*
X124951000Y-37726032D01*
X124951000Y-37873968D01*
X124922140Y-38019059D01*
X124865528Y-38155732D01*
X124783340Y-38278735D01*
X124678735Y-38383340D01*
X124555732Y-38465528D01*
X124555731Y-38465529D01*
X124555730Y-38465529D01*
X124419059Y-38522140D01*
X124273968Y-38551000D01*
X124126032Y-38551000D01*
X123980941Y-38522140D01*
X123844270Y-38465529D01*
X123844269Y-38465529D01*
X123844268Y-38465528D01*
X123721265Y-38383340D01*
X123616660Y-38278735D01*
X123534472Y-38155732D01*
X123477860Y-38019059D01*
X123449000Y-37873968D01*
X123449000Y-37726032D01*
X123477860Y-37580941D01*
X123534471Y-37444270D01*
X123534472Y-37444268D01*
X123616660Y-37321265D01*
X123721265Y-37216660D01*
X123844268Y-37134472D01*
X123924437Y-37101265D01*
X123980941Y-37077860D01*
X124126032Y-37049000D01*
X124273968Y-37049000D01*
X124419059Y-37077860D01*
G37*
G36*
X139419059Y-37077860D02*
G01*
X139475564Y-37101265D01*
X139555732Y-37134472D01*
X139678735Y-37216660D01*
X139783340Y-37321265D01*
X139865528Y-37444268D01*
X139865529Y-37444270D01*
X139922140Y-37580941D01*
X139951000Y-37726032D01*
X139951000Y-37873968D01*
X139922140Y-38019059D01*
X139865528Y-38155732D01*
X139783340Y-38278735D01*
X139678735Y-38383340D01*
X139555732Y-38465528D01*
X139555731Y-38465529D01*
X139555730Y-38465529D01*
X139419059Y-38522140D01*
X139273968Y-38551000D01*
X139126032Y-38551000D01*
X138980941Y-38522140D01*
X138844270Y-38465529D01*
X138844269Y-38465529D01*
X138844268Y-38465528D01*
X138721265Y-38383340D01*
X138616660Y-38278735D01*
X138534472Y-38155732D01*
X138477860Y-38019059D01*
X138449000Y-37873968D01*
X138449000Y-37726032D01*
X138477860Y-37580941D01*
X138534471Y-37444270D01*
X138534472Y-37444268D01*
X138616660Y-37321265D01*
X138721265Y-37216660D01*
X138844268Y-37134472D01*
X138924437Y-37101265D01*
X138980941Y-37077860D01*
X139126032Y-37049000D01*
X139273968Y-37049000D01*
X139419059Y-37077860D01*
G37*
G36*
X131919059Y-37077860D02*
G01*
X131975564Y-37101265D01*
X132055732Y-37134472D01*
X132178735Y-37216660D01*
X132283340Y-37321265D01*
X132365528Y-37444268D01*
X132365529Y-37444270D01*
X132422140Y-37580941D01*
X132451000Y-37726032D01*
X132451000Y-37873968D01*
X132422140Y-38019059D01*
X132365528Y-38155732D01*
X132283340Y-38278735D01*
X132178735Y-38383340D01*
X132055732Y-38465528D01*
X132055731Y-38465529D01*
X132055730Y-38465529D01*
X131919059Y-38522140D01*
X131773968Y-38551000D01*
X131626032Y-38551000D01*
X131480941Y-38522140D01*
X131344270Y-38465529D01*
X131344269Y-38465529D01*
X131344268Y-38465528D01*
X131221265Y-38383340D01*
X131116660Y-38278735D01*
X131034472Y-38155732D01*
X130977860Y-38019059D01*
X130949000Y-37873968D01*
X130949000Y-37726032D01*
X130977860Y-37580941D01*
X131034471Y-37444270D01*
X131034472Y-37444268D01*
X131116660Y-37321265D01*
X131221265Y-37216660D01*
X131344268Y-37134472D01*
X131424437Y-37101265D01*
X131480941Y-37077860D01*
X131626032Y-37049000D01*
X131773968Y-37049000D01*
X131919059Y-37077860D01*
G37*
G36*
X116919059Y-37077860D02*
G01*
X116975564Y-37101265D01*
X117055732Y-37134472D01*
X117178735Y-37216660D01*
X117283340Y-37321265D01*
X117365528Y-37444268D01*
X117365529Y-37444270D01*
X117422140Y-37580941D01*
X117451000Y-37726032D01*
X117451000Y-37873968D01*
X117422140Y-38019059D01*
X117365528Y-38155732D01*
X117283340Y-38278735D01*
X117178735Y-38383340D01*
X117055732Y-38465528D01*
X117055731Y-38465529D01*
X117055730Y-38465529D01*
X116919059Y-38522140D01*
X116773968Y-38551000D01*
X116626032Y-38551000D01*
X116480941Y-38522140D01*
X116344270Y-38465529D01*
X116344269Y-38465529D01*
X116344268Y-38465528D01*
X116221265Y-38383340D01*
X116116660Y-38278735D01*
X116034472Y-38155732D01*
X115977860Y-38019059D01*
X115949000Y-37873968D01*
X115949000Y-37726032D01*
X115977860Y-37580941D01*
X116034471Y-37444270D01*
X116034472Y-37444268D01*
X116116660Y-37321265D01*
X116221265Y-37216660D01*
X116344268Y-37134472D01*
X116424437Y-37101265D01*
X116480941Y-37077860D01*
X116626032Y-37049000D01*
X116773968Y-37049000D01*
X116919059Y-37077860D01*
G37*
G36*
X78419059Y-36857860D02*
G01*
X78555732Y-36914472D01*
X78678735Y-36996660D01*
X78783340Y-37101265D01*
X78860444Y-37216660D01*
X78865529Y-37224270D01*
X78922140Y-37360941D01*
X78951000Y-37506032D01*
X78951000Y-37653968D01*
X78922140Y-37799059D01*
X78865528Y-37935732D01*
X78783340Y-38058735D01*
X78678735Y-38163340D01*
X78555732Y-38245528D01*
X78555731Y-38245529D01*
X78555730Y-38245529D01*
X78419059Y-38302140D01*
X78273968Y-38331000D01*
X78126032Y-38331000D01*
X77980941Y-38302140D01*
X77844270Y-38245529D01*
X77844269Y-38245529D01*
X77844268Y-38245528D01*
X77721265Y-38163340D01*
X77616660Y-38058735D01*
X77534472Y-37935732D01*
X77477860Y-37799059D01*
X77449000Y-37653968D01*
X77449000Y-37506032D01*
X77477860Y-37360941D01*
X77534471Y-37224270D01*
X77539556Y-37216660D01*
X77616660Y-37101265D01*
X77721265Y-36996660D01*
X77844268Y-36914472D01*
X77980941Y-36857860D01*
X78126032Y-36829000D01*
X78273968Y-36829000D01*
X78419059Y-36857860D01*
G37*
G36*
X121919059Y-35077860D02*
G01*
X122055732Y-35134472D01*
X122178735Y-35216660D01*
X122283340Y-35321265D01*
X122365528Y-35444268D01*
X122422140Y-35580941D01*
X122451000Y-35726033D01*
X122451000Y-35873967D01*
X122422140Y-36019059D01*
X122365528Y-36155732D01*
X122283340Y-36278735D01*
X122178735Y-36383340D01*
X122055732Y-36465528D01*
X122055731Y-36465529D01*
X122055730Y-36465529D01*
X121919059Y-36522140D01*
X121773968Y-36551000D01*
X121626032Y-36551000D01*
X121480941Y-36522140D01*
X121344270Y-36465529D01*
X121344269Y-36465529D01*
X121344268Y-36465528D01*
X121221265Y-36383340D01*
X121116660Y-36278735D01*
X121034472Y-36155732D01*
X120977860Y-36019059D01*
X120949000Y-35873967D01*
X120949000Y-35726033D01*
X120977860Y-35580941D01*
X121034472Y-35444268D01*
X121116660Y-35321265D01*
X121221265Y-35216660D01*
X121344268Y-35134472D01*
X121480941Y-35077860D01*
X121626032Y-35049000D01*
X121773968Y-35049000D01*
X121919059Y-35077860D01*
G37*
G36*
X129419059Y-35077860D02*
G01*
X129555732Y-35134472D01*
X129678735Y-35216660D01*
X129783340Y-35321265D01*
X129865528Y-35444268D01*
X129922140Y-35580941D01*
X129951000Y-35726033D01*
X129951000Y-35873967D01*
X129922140Y-36019059D01*
X129865528Y-36155732D01*
X129783340Y-36278735D01*
X129678735Y-36383340D01*
X129555732Y-36465528D01*
X129555731Y-36465529D01*
X129555730Y-36465529D01*
X129419059Y-36522140D01*
X129273968Y-36551000D01*
X129126032Y-36551000D01*
X128980941Y-36522140D01*
X128844270Y-36465529D01*
X128844269Y-36465529D01*
X128844268Y-36465528D01*
X128721265Y-36383340D01*
X128616660Y-36278735D01*
X128534472Y-36155732D01*
X128477860Y-36019059D01*
X128449000Y-35873967D01*
X128449000Y-35726033D01*
X128477860Y-35580941D01*
X128534472Y-35444268D01*
X128616660Y-35321265D01*
X128721265Y-35216660D01*
X128844268Y-35134472D01*
X128980941Y-35077860D01*
X129126032Y-35049000D01*
X129273968Y-35049000D01*
X129419059Y-35077860D01*
G37*
G36*
X106919059Y-35077860D02*
G01*
X107055732Y-35134472D01*
X107178735Y-35216660D01*
X107283340Y-35321265D01*
X107365528Y-35444268D01*
X107422140Y-35580941D01*
X107451000Y-35726033D01*
X107451000Y-35873967D01*
X107422140Y-36019059D01*
X107365528Y-36155732D01*
X107283340Y-36278735D01*
X107178735Y-36383340D01*
X107055732Y-36465528D01*
X107055731Y-36465529D01*
X107055730Y-36465529D01*
X106919059Y-36522140D01*
X106773968Y-36551000D01*
X106626032Y-36551000D01*
X106480941Y-36522140D01*
X106344270Y-36465529D01*
X106344269Y-36465529D01*
X106344268Y-36465528D01*
X106221265Y-36383340D01*
X106116660Y-36278735D01*
X106034472Y-36155732D01*
X105977860Y-36019059D01*
X105949000Y-35873967D01*
X105949000Y-35726033D01*
X105977860Y-35580941D01*
X106034472Y-35444268D01*
X106116660Y-35321265D01*
X106221265Y-35216660D01*
X106344268Y-35134472D01*
X106480941Y-35077860D01*
X106626032Y-35049000D01*
X106773968Y-35049000D01*
X106919059Y-35077860D01*
G37*
G36*
X136919059Y-35077860D02*
G01*
X137055732Y-35134472D01*
X137178735Y-35216660D01*
X137283340Y-35321265D01*
X137365528Y-35444268D01*
X137422140Y-35580941D01*
X137451000Y-35726033D01*
X137451000Y-35873967D01*
X137422140Y-36019059D01*
X137365528Y-36155732D01*
X137283340Y-36278735D01*
X137178735Y-36383340D01*
X137055732Y-36465528D01*
X137055731Y-36465529D01*
X137055730Y-36465529D01*
X136919059Y-36522140D01*
X136773968Y-36551000D01*
X136626032Y-36551000D01*
X136480941Y-36522140D01*
X136344270Y-36465529D01*
X136344269Y-36465529D01*
X136344268Y-36465528D01*
X136221265Y-36383340D01*
X136116660Y-36278735D01*
X136034472Y-36155732D01*
X135977860Y-36019059D01*
X135949000Y-35873967D01*
X135949000Y-35726033D01*
X135977860Y-35580941D01*
X136034472Y-35444268D01*
X136116660Y-35321265D01*
X136221265Y-35216660D01*
X136344268Y-35134472D01*
X136480941Y-35077860D01*
X136626032Y-35049000D01*
X136773968Y-35049000D01*
X136919059Y-35077860D01*
G37*
G36*
X99419059Y-35077860D02*
G01*
X99555732Y-35134472D01*
X99678735Y-35216660D01*
X99783340Y-35321265D01*
X99865528Y-35444268D01*
X99922140Y-35580941D01*
X99951000Y-35726033D01*
X99951000Y-35873967D01*
X99922140Y-36019059D01*
X99865528Y-36155732D01*
X99783340Y-36278735D01*
X99678735Y-36383340D01*
X99555732Y-36465528D01*
X99555731Y-36465529D01*
X99555730Y-36465529D01*
X99419059Y-36522140D01*
X99273968Y-36551000D01*
X99126032Y-36551000D01*
X98980941Y-36522140D01*
X98844270Y-36465529D01*
X98844269Y-36465529D01*
X98844268Y-36465528D01*
X98721265Y-36383340D01*
X98616660Y-36278735D01*
X98534472Y-36155732D01*
X98477860Y-36019059D01*
X98449000Y-35873967D01*
X98449000Y-35726033D01*
X98477860Y-35580941D01*
X98534472Y-35444268D01*
X98616660Y-35321265D01*
X98721265Y-35216660D01*
X98844268Y-35134472D01*
X98980941Y-35077860D01*
X99126032Y-35049000D01*
X99273968Y-35049000D01*
X99419059Y-35077860D01*
G37*
G36*
X114419059Y-35077860D02*
G01*
X114555732Y-35134472D01*
X114678735Y-35216660D01*
X114783340Y-35321265D01*
X114865528Y-35444268D01*
X114922140Y-35580941D01*
X114951000Y-35726033D01*
X114951000Y-35873967D01*
X114922140Y-36019059D01*
X114865528Y-36155732D01*
X114783340Y-36278735D01*
X114678735Y-36383340D01*
X114555732Y-36465528D01*
X114555731Y-36465529D01*
X114555730Y-36465529D01*
X114419059Y-36522140D01*
X114273968Y-36551000D01*
X114126032Y-36551000D01*
X113980941Y-36522140D01*
X113844270Y-36465529D01*
X113844269Y-36465529D01*
X113844268Y-36465528D01*
X113721265Y-36383340D01*
X113616660Y-36278735D01*
X113534472Y-36155732D01*
X113477860Y-36019059D01*
X113449000Y-35873967D01*
X113449000Y-35726033D01*
X113477860Y-35580941D01*
X113534472Y-35444268D01*
X113616660Y-35321265D01*
X113721265Y-35216660D01*
X113844268Y-35134472D01*
X113980941Y-35077860D01*
X114126032Y-35049000D01*
X114273968Y-35049000D01*
X114419059Y-35077860D01*
G37*
G36*
X80376000Y-34551000D02*
G01*
X78474000Y-34551000D01*
X78474000Y-32649000D01*
X80376000Y-32649000D01*
X80376000Y-34551000D01*
G37*
G36*
X77162395Y-32685546D02*
G01*
X77335466Y-32757234D01*
X77335467Y-32757235D01*
X77491227Y-32861310D01*
X77623690Y-32993773D01*
X77623691Y-32993775D01*
X77727766Y-33149534D01*
X77799454Y-33322605D01*
X77836000Y-33506333D01*
X77836000Y-33693667D01*
X77799454Y-33877395D01*
X77727766Y-34050466D01*
X77727765Y-34050467D01*
X77623690Y-34206227D01*
X77491227Y-34338690D01*
X77412818Y-34391081D01*
X77335466Y-34442766D01*
X77162395Y-34514454D01*
X76978667Y-34551000D01*
X76791333Y-34551000D01*
X76607605Y-34514454D01*
X76434534Y-34442766D01*
X76357182Y-34391081D01*
X76278773Y-34338690D01*
X76146310Y-34206227D01*
X76042235Y-34050467D01*
X76042234Y-34050466D01*
X75970546Y-33877395D01*
X75934000Y-33693667D01*
X75934000Y-33506333D01*
X75970546Y-33322605D01*
X76042234Y-33149534D01*
X76146309Y-32993775D01*
X76146310Y-32993773D01*
X76278773Y-32861310D01*
X76434533Y-32757235D01*
X76434534Y-32757234D01*
X76607605Y-32685546D01*
X76791333Y-32649000D01*
X76978667Y-32649000D01*
X77162395Y-32685546D01*
G37*
G36*
X140825880Y-27759776D02*
G01*
X141206593Y-27835504D01*
X141616249Y-28005189D01*
X141984929Y-28251534D01*
X142298466Y-28565071D01*
X142544811Y-28933751D01*
X142714496Y-29343407D01*
X142801000Y-29778296D01*
X142801000Y-30221704D01*
X142714496Y-30656593D01*
X142544811Y-31066249D01*
X142298466Y-31434929D01*
X141984929Y-31748466D01*
X141616249Y-31994811D01*
X141206593Y-32164496D01*
X140825880Y-32240224D01*
X140771705Y-32251000D01*
X140328295Y-32251000D01*
X140274120Y-32240224D01*
X139893407Y-32164496D01*
X139483751Y-31994811D01*
X139115071Y-31748466D01*
X138801534Y-31434929D01*
X138555189Y-31066249D01*
X138385504Y-30656593D01*
X138299000Y-30221704D01*
X138299000Y-29778296D01*
X138385504Y-29343407D01*
X138555189Y-28933751D01*
X138801534Y-28565071D01*
X139115071Y-28251534D01*
X139483751Y-28005189D01*
X139893407Y-27835504D01*
X140274120Y-27759776D01*
X140328295Y-27749000D01*
X140771705Y-27749000D01*
X140825880Y-27759776D01*
G37*
G36*
X67800880Y-27759776D02*
G01*
X68181593Y-27835504D01*
X68591249Y-28005189D01*
X68959929Y-28251534D01*
X69273466Y-28565071D01*
X69519811Y-28933751D01*
X69689496Y-29343407D01*
X69776000Y-29778296D01*
X69776000Y-30221704D01*
X69689496Y-30656593D01*
X69519811Y-31066249D01*
X69273466Y-31434929D01*
X68959929Y-31748466D01*
X68591249Y-31994811D01*
X68181593Y-32164496D01*
X67800880Y-32240224D01*
X67746705Y-32251000D01*
X67303295Y-32251000D01*
X67249120Y-32240224D01*
X66868407Y-32164496D01*
X66458751Y-31994811D01*
X66090071Y-31748466D01*
X65776534Y-31434929D01*
X65530189Y-31066249D01*
X65360504Y-30656593D01*
X65274000Y-30221704D01*
X65274000Y-29778296D01*
X65360504Y-29343407D01*
X65530189Y-28933751D01*
X65776534Y-28565071D01*
X66090071Y-28251534D01*
X66458751Y-28005189D01*
X66868407Y-27835504D01*
X67249120Y-27759776D01*
X67303295Y-27749000D01*
X67746705Y-27749000D01*
X67800880Y-27759776D01*
G37*
M02*
