G04 #@! TF.GenerationSoftware,KiCad,Pcbnew,(5.1.5)-3*
G04 #@! TF.CreationDate,2021-09-09T23:23:36-04:00*
G04 #@! TF.ProjectId,numpad_pcb,6e756d70-6164-45f7-9063-622e6b696361,rev?*
G04 #@! TF.SameCoordinates,Original*
G04 #@! TF.FileFunction,Copper,L1,Top*
G04 #@! TF.FilePolarity,Positive*
%FSLAX46Y46*%
G04 Gerber Fmt 4.6, Leading zero omitted, Abs format (unit mm)*
G04 Created by KiCad (PCBNEW (5.1.5)-3) date 2021-09-09 23:23:36*
%MOMM*%
%LPD*%
G04 APERTURE LIST*
%ADD10C,4.400000*%
%ADD11R,1.905000X1.905000*%
%ADD12C,1.905000*%
%ADD13C,2.250000*%
%ADD14O,1.600000X1.600000*%
%ADD15R,1.600000X1.600000*%
%ADD16O,1.400000X1.400000*%
%ADD17C,1.400000*%
%ADD18O,1.700000X1.700000*%
%ADD19R,1.700000X1.700000*%
%ADD20C,1.800000*%
%ADD21R,1.800000X1.800000*%
%ADD22C,0.800000*%
%ADD23C,0.250000*%
%ADD24C,0.500000*%
%ADD25C,0.254000*%
G04 APERTURE END LIST*
D10*
X140550000Y-86975000D03*
D11*
X98220000Y-105580000D03*
D12*
X95680000Y-105580000D03*
D13*
X93140000Y-97960000D03*
X99490000Y-95420000D03*
D14*
X131700000Y-70420000D03*
D15*
X131700000Y-62800000D03*
D14*
X126700000Y-66420000D03*
D15*
X126700000Y-58800000D03*
D14*
X124200000Y-64420000D03*
D15*
X124200000Y-56800000D03*
D14*
X134200000Y-62420000D03*
D15*
X134200000Y-54800000D03*
D14*
X109200000Y-70420000D03*
D15*
X109200000Y-62800000D03*
D14*
X129200000Y-68420000D03*
D15*
X129200000Y-60800000D03*
D14*
X104200000Y-66420000D03*
D15*
X104200000Y-58800000D03*
D14*
X114200000Y-64420000D03*
D15*
X114200000Y-56800000D03*
D14*
X99200000Y-62420000D03*
D15*
X99200000Y-54800000D03*
D14*
X106700000Y-68420000D03*
D15*
X106700000Y-60800000D03*
D14*
X139200000Y-66420000D03*
D15*
X139200000Y-58800000D03*
D14*
X121700000Y-62420000D03*
D15*
X121700000Y-54800000D03*
D14*
X101700000Y-64420000D03*
D15*
X101700000Y-56800000D03*
D14*
X111700000Y-62420000D03*
D15*
X111700000Y-54800000D03*
D14*
X136700000Y-64420000D03*
D15*
X136700000Y-56800000D03*
D14*
X116700000Y-66420000D03*
D15*
X116700000Y-58800000D03*
D14*
X119200000Y-68420000D03*
D15*
X119200000Y-60800000D03*
D16*
X78200000Y-37580000D03*
D17*
X78200000Y-45200000D03*
D10*
X67525000Y-30000000D03*
X68400000Y-129100000D03*
X87500000Y-167100000D03*
X135000000Y-148100000D03*
X67525000Y-86975000D03*
X140550000Y-30000000D03*
D16*
X131700000Y-37800000D03*
D17*
X131700000Y-45420000D03*
D16*
X109200000Y-37800000D03*
D17*
X109200000Y-45420000D03*
D16*
X139200000Y-37800000D03*
D17*
X139200000Y-45420000D03*
D16*
X129200000Y-35800000D03*
D17*
X129200000Y-43420000D03*
D16*
X119200000Y-39800000D03*
D17*
X119200000Y-47420000D03*
D16*
X106700000Y-35800000D03*
D17*
X106700000Y-43420000D03*
D16*
X126700000Y-39800000D03*
D17*
X126700000Y-47420000D03*
D16*
X116700000Y-37800000D03*
D17*
X116700000Y-45420000D03*
D16*
X99200000Y-35800000D03*
D17*
X99200000Y-43420000D03*
D16*
X104200000Y-39800000D03*
D17*
X104200000Y-47420000D03*
D16*
X136700000Y-35800000D03*
D17*
X136700000Y-43420000D03*
D16*
X124200000Y-37800000D03*
D17*
X124200000Y-45420000D03*
D16*
X114200000Y-35800000D03*
D17*
X114200000Y-43420000D03*
D16*
X101700000Y-37800000D03*
D17*
X101700000Y-45420000D03*
D16*
X134200000Y-39800000D03*
D17*
X134200000Y-47420000D03*
D16*
X121700000Y-35800000D03*
D17*
X121700000Y-43420000D03*
D16*
X111700000Y-39800000D03*
D17*
X111700000Y-47420000D03*
D16*
X78200000Y-60570000D03*
D17*
X78200000Y-52950000D03*
D11*
X117220000Y-181830000D03*
D12*
X114680000Y-181830000D03*
D13*
X112140000Y-174210000D03*
X118490000Y-171670000D03*
D11*
X86130000Y-181830000D03*
D12*
X88670000Y-181830000D03*
D13*
X83590000Y-174210000D03*
X89940000Y-171670000D03*
D12*
X133780000Y-172280000D03*
D11*
X136320000Y-172280000D03*
D13*
X131240000Y-164660000D03*
X137590000Y-162120000D03*
D11*
X117270000Y-162780000D03*
D12*
X114730000Y-162780000D03*
D13*
X112190000Y-155160000D03*
X118540000Y-152620000D03*
D11*
X98220000Y-162780000D03*
D12*
X95680000Y-162780000D03*
D13*
X93140000Y-155160000D03*
X99490000Y-152620000D03*
D11*
X79170000Y-162780000D03*
D12*
X76630000Y-162780000D03*
D13*
X74090000Y-155160000D03*
X80440000Y-152620000D03*
D11*
X117270000Y-143680000D03*
D12*
X114730000Y-143680000D03*
D13*
X112190000Y-136060000D03*
X118540000Y-133520000D03*
D11*
X98220000Y-143680000D03*
D12*
X95680000Y-143680000D03*
D13*
X93140000Y-136060000D03*
X99490000Y-133520000D03*
D11*
X79170000Y-143680000D03*
D12*
X76630000Y-143680000D03*
D13*
X74090000Y-136060000D03*
X80440000Y-133520000D03*
D12*
X133780000Y-134180000D03*
D11*
X136320000Y-134180000D03*
D13*
X131240000Y-126560000D03*
X137590000Y-124020000D03*
D11*
X117270000Y-124630000D03*
D12*
X114730000Y-124630000D03*
D13*
X112190000Y-117010000D03*
X118540000Y-114470000D03*
D11*
X98220000Y-124630000D03*
D12*
X95680000Y-124630000D03*
D13*
X93140000Y-117010000D03*
X99490000Y-114470000D03*
D11*
X79170000Y-124630000D03*
D12*
X76630000Y-124630000D03*
D13*
X74090000Y-117010000D03*
X80440000Y-114470000D03*
D11*
X136320000Y-105580000D03*
D12*
X133780000Y-105580000D03*
D13*
X131240000Y-97960000D03*
X137590000Y-95420000D03*
D11*
X117270000Y-105580000D03*
D12*
X114730000Y-105580000D03*
D13*
X112190000Y-97960000D03*
X118540000Y-95420000D03*
D11*
X79150000Y-105580000D03*
D12*
X76610000Y-105580000D03*
D13*
X74070000Y-97960000D03*
X80420000Y-95420000D03*
D18*
X67360000Y-57880000D03*
X69900000Y-57880000D03*
X67360000Y-55340000D03*
X69900000Y-55340000D03*
X67360000Y-52800000D03*
X69900000Y-52800000D03*
X67360000Y-50260000D03*
X69900000Y-50260000D03*
X67360000Y-47720000D03*
X69900000Y-47720000D03*
X67360000Y-45180000D03*
X69900000Y-45180000D03*
X67360000Y-42640000D03*
X69900000Y-42640000D03*
X67360000Y-40100000D03*
D19*
X69900000Y-40100000D03*
D20*
X68000000Y-65200000D03*
D21*
X70540000Y-65200000D03*
D20*
X76885000Y-33600000D03*
D21*
X79425000Y-33600000D03*
D22*
X71200000Y-56550000D03*
X70774990Y-69300000D03*
D23*
X79425000Y-34750000D02*
X79425000Y-33600000D01*
X79425000Y-35365051D02*
X79425000Y-34750000D01*
X78200000Y-36590051D02*
X79425000Y-35365051D01*
X78200000Y-37580000D02*
X78200000Y-36590051D01*
D24*
X67360000Y-64560000D02*
X68000000Y-65200000D01*
X67360000Y-57880000D02*
X67360000Y-64560000D01*
D23*
X73570000Y-65200000D02*
X70540000Y-65200000D01*
X78200000Y-60570000D02*
X73570000Y-65200000D01*
X111700000Y-83210000D02*
X99490000Y-95420000D01*
X111700000Y-62420000D02*
X111700000Y-83210000D01*
X111700000Y-54800000D02*
X121700000Y-54800000D01*
X121700000Y-54800000D02*
X134200000Y-54800000D01*
X70749999Y-46029999D02*
X69900000Y-45180000D01*
X71264999Y-46544999D02*
X70749999Y-46029999D01*
X99200000Y-53750000D02*
X91994999Y-46544999D01*
X91994999Y-46544999D02*
X71264999Y-46544999D01*
X99200000Y-54800000D02*
X99200000Y-53750000D01*
X121700000Y-92260000D02*
X118540000Y-95420000D01*
X121700000Y-62420000D02*
X121700000Y-92260000D01*
X134200000Y-92030000D02*
X137590000Y-95420000D01*
X134200000Y-62420000D02*
X134200000Y-92030000D01*
X98400001Y-63219999D02*
X98380001Y-63219999D01*
X99200000Y-62420000D02*
X98400001Y-63219999D01*
X98380001Y-63219999D02*
X80400000Y-81200000D01*
X80420000Y-81200000D02*
X80400000Y-81200000D01*
X80400000Y-81200000D02*
X80420000Y-95420000D01*
X101700000Y-64420000D02*
X85720000Y-80400000D01*
X85720000Y-109190000D02*
X80440000Y-114470000D01*
X85720000Y-80400000D02*
X85720000Y-109190000D01*
X114200000Y-56800000D02*
X124200000Y-56800000D01*
X124200000Y-56800000D02*
X136700000Y-56800000D01*
X68209999Y-43489999D02*
X67360000Y-42640000D01*
X68724999Y-45744001D02*
X68724999Y-44004999D01*
X69525997Y-46544999D02*
X68724999Y-45744001D01*
X70464001Y-46544999D02*
X69525997Y-46544999D01*
X70914011Y-46995009D02*
X70464001Y-46544999D01*
X68724999Y-44004999D02*
X68209999Y-43489999D01*
X83567002Y-56800000D02*
X73762011Y-46995009D01*
X73762011Y-46995009D02*
X70914011Y-46995009D01*
X101700000Y-56800000D02*
X83567002Y-56800000D01*
X114200000Y-64420000D02*
X114200000Y-86400000D01*
X114200000Y-86400000D02*
X105600000Y-95000000D01*
X105600000Y-108360000D02*
X99490000Y-114470000D01*
X105600000Y-95000000D02*
X105600000Y-108360000D01*
X124200000Y-108810000D02*
X118540000Y-114470000D01*
X124200000Y-64420000D02*
X124200000Y-108810000D01*
X137590000Y-118870478D02*
X137590000Y-122429010D01*
X137590000Y-122429010D02*
X137590000Y-124020000D01*
X141330001Y-115130477D02*
X137590000Y-118870478D01*
X141330001Y-97013999D02*
X141330001Y-115130477D01*
X136700000Y-92383998D02*
X141330001Y-97013999D01*
X136700000Y-64420000D02*
X136700000Y-92383998D01*
X104200000Y-66420000D02*
X88000000Y-82620000D01*
X88000000Y-125960000D02*
X80440000Y-133520000D01*
X88000000Y-82620000D02*
X88000000Y-125960000D01*
X70060000Y-42800000D02*
X69900000Y-42640000D01*
X116700000Y-58800000D02*
X126700000Y-58800000D01*
X89225002Y-42640000D02*
X100325001Y-53739999D01*
X100325001Y-53739999D02*
X100825001Y-53739999D01*
X104200000Y-57750000D02*
X104200000Y-58800000D01*
X69900000Y-42640000D02*
X89225002Y-42640000D01*
X100825001Y-53739999D02*
X104200000Y-57114998D01*
X104200000Y-57114998D02*
X104200000Y-57750000D01*
X116700000Y-66420000D02*
X116700000Y-86900000D01*
X100614999Y-132395001D02*
X99490000Y-133520000D01*
X106050010Y-126959990D02*
X100614999Y-132395001D01*
X106050010Y-97549990D02*
X106050010Y-126959990D01*
X116700000Y-86900000D02*
X106050010Y-97549990D01*
X126700000Y-66420000D02*
X126700000Y-111300000D01*
X119664999Y-132395001D02*
X118540000Y-133520000D01*
X119664999Y-118335001D02*
X119664999Y-132395001D01*
X126700000Y-111300000D02*
X119664999Y-118335001D01*
X81564999Y-151495001D02*
X80440000Y-152620000D01*
X106700000Y-68420000D02*
X90800000Y-84320000D01*
X90800000Y-84320000D02*
X90800000Y-88200000D01*
X88450010Y-90549990D02*
X88450010Y-144609990D01*
X88450010Y-144609990D02*
X81564999Y-151495001D01*
X90800000Y-88200000D02*
X88450010Y-90549990D01*
X119200000Y-60800000D02*
X129200000Y-60800000D01*
X139200000Y-59850000D02*
X139200000Y-58800000D01*
X138250000Y-60800000D02*
X139200000Y-59850000D01*
X129200000Y-60800000D02*
X138250000Y-60800000D01*
X68660000Y-41400000D02*
X67360000Y-40100000D01*
X90800000Y-41400000D02*
X68660000Y-41400000D01*
X106700000Y-60800000D02*
X106700000Y-57300000D01*
X106700000Y-57300000D02*
X90800000Y-41400000D01*
X119200000Y-68420000D02*
X119200000Y-85036410D01*
X100614999Y-151495001D02*
X99490000Y-152620000D01*
X106500020Y-145609980D02*
X100614999Y-151495001D01*
X106500020Y-97736390D02*
X106500020Y-145609980D01*
X119200000Y-85036410D02*
X106500020Y-97736390D01*
X122400000Y-148760000D02*
X118540000Y-152620000D01*
X129200000Y-89600000D02*
X127150010Y-91649990D01*
X122400000Y-116236410D02*
X122400000Y-148760000D01*
X129200000Y-68420000D02*
X129200000Y-89600000D01*
X127150010Y-91649990D02*
X127150009Y-111486401D01*
X127150009Y-111486401D02*
X122400000Y-116236410D01*
X143884001Y-71104001D02*
X139200000Y-66420000D01*
X137590000Y-162120000D02*
X141280000Y-162120000D01*
X143884001Y-159515999D02*
X143884001Y-71104001D01*
X141280000Y-162120000D02*
X143884001Y-159515999D01*
X109200000Y-71551370D02*
X90025001Y-90726369D01*
X109200000Y-70420000D02*
X109200000Y-71551370D01*
X90025001Y-169994009D02*
X90025001Y-90726369D01*
X89940000Y-170079010D02*
X90025001Y-169994009D01*
X89940000Y-171670000D02*
X89940000Y-170079010D01*
X69900000Y-40250000D02*
X69900000Y-40100000D01*
X70474991Y-40824991D02*
X69900000Y-40250000D01*
X120934992Y-61250010D02*
X119385002Y-62800000D01*
X124650010Y-61250010D02*
X120934992Y-61250010D01*
X131700000Y-62800000D02*
X126200000Y-62800000D01*
X126200000Y-62800000D02*
X124650010Y-61250010D01*
X109200000Y-61750000D02*
X109200000Y-62800000D01*
X119385002Y-62800000D02*
X116200000Y-62800000D01*
X69900000Y-40100000D02*
X91300000Y-40100000D01*
X109200000Y-61750000D02*
X110150000Y-60800000D01*
X110150000Y-60800000D02*
X114200000Y-60800000D01*
X114200000Y-60800000D02*
X116200000Y-62800000D01*
X109200000Y-62800000D02*
X108200000Y-61800000D01*
X108200000Y-57000000D02*
X107600000Y-56400000D01*
X108200000Y-61800000D02*
X108200000Y-57000000D01*
X91300000Y-40100000D02*
X107600000Y-56400000D01*
X131700000Y-70420000D02*
X131700000Y-87900019D01*
X127600019Y-111799981D02*
X122850010Y-116549990D01*
X131700000Y-87900019D02*
X127600019Y-92000000D01*
X127600019Y-92000000D02*
X127600019Y-111799981D01*
X122850010Y-167309990D02*
X118490000Y-171670000D01*
X122850010Y-116549990D02*
X122850010Y-167309990D01*
D24*
X67360000Y-50260000D02*
X66059999Y-51560001D01*
X84677500Y-181830000D02*
X86130000Y-181830000D01*
X82173750Y-179326250D02*
X84677500Y-181830000D01*
X79170000Y-123177500D02*
X79170000Y-124630000D01*
X80343901Y-122003599D02*
X79170000Y-123177500D01*
X80343901Y-118376927D02*
X80343901Y-122003599D01*
X78864999Y-116898025D02*
X80343901Y-118376927D01*
X78864999Y-107317501D02*
X78864999Y-116898025D01*
X79150000Y-107032500D02*
X78864999Y-107317501D01*
X79150000Y-105580000D02*
X79150000Y-107032500D01*
X80343901Y-141053599D02*
X79170000Y-142227500D01*
X79170000Y-142227500D02*
X79170000Y-143680000D01*
X78800000Y-135883026D02*
X80343901Y-137426927D01*
X78800000Y-126452500D02*
X78800000Y-135883026D01*
X80343901Y-137426927D02*
X80343901Y-141053599D01*
X79170000Y-126082500D02*
X78800000Y-126452500D01*
X79170000Y-124630000D02*
X79170000Y-126082500D01*
X80343901Y-156526927D02*
X80343901Y-160153599D01*
X78864999Y-155048025D02*
X80343901Y-156526927D01*
X78864999Y-145437501D02*
X78864999Y-155048025D01*
X79170000Y-161327500D02*
X79170000Y-162780000D01*
X79170000Y-145132500D02*
X78864999Y-145437501D01*
X80343901Y-160153599D02*
X79170000Y-161327500D01*
X79170000Y-143680000D02*
X79170000Y-145132500D01*
X98220000Y-145132500D02*
X98220000Y-143680000D01*
X97914999Y-145437501D02*
X98220000Y-145132500D01*
X97914999Y-153376001D02*
X97914999Y-145437501D01*
X99393901Y-154854903D02*
X97914999Y-153376001D01*
X99393901Y-158873073D02*
X99393901Y-154854903D01*
X98220000Y-160046974D02*
X99393901Y-158873073D01*
X98220000Y-162780000D02*
X98220000Y-160046974D01*
X98220000Y-126082500D02*
X98220000Y-124630000D01*
X97914999Y-126387501D02*
X98220000Y-126082500D01*
X99393901Y-135754903D02*
X97914999Y-134276001D01*
X99393901Y-141053599D02*
X99393901Y-135754903D01*
X98220000Y-142227500D02*
X99393901Y-141053599D01*
X97914999Y-134276001D02*
X97914999Y-126387501D01*
X98220000Y-143680000D02*
X98220000Y-142227500D01*
X98220000Y-107032500D02*
X98220000Y-105580000D01*
X97914999Y-107337501D02*
X98220000Y-107032500D01*
X97914999Y-115226001D02*
X97914999Y-107337501D01*
X99393901Y-116704903D02*
X97914999Y-115226001D01*
X99393901Y-120723073D02*
X99393901Y-116704903D01*
X98220000Y-121896974D02*
X99393901Y-120723073D01*
X98220000Y-124630000D02*
X98220000Y-121896974D01*
X117270000Y-123177500D02*
X117270000Y-124630000D01*
X118443901Y-122003599D02*
X117270000Y-123177500D01*
X116964999Y-116898025D02*
X118443901Y-118376927D01*
X116964999Y-113713999D02*
X116964999Y-116898025D01*
X118443901Y-118376927D02*
X118443901Y-122003599D01*
X117270000Y-113408998D02*
X116964999Y-113713999D01*
X117270000Y-105580000D02*
X117270000Y-113408998D01*
X117270000Y-142227500D02*
X117270000Y-143680000D01*
X118443901Y-141053599D02*
X117270000Y-142227500D01*
X118443901Y-137426927D02*
X118443901Y-141053599D01*
X116964999Y-135948025D02*
X118443901Y-137426927D01*
X116964999Y-132763999D02*
X116964999Y-135948025D01*
X117270000Y-132458998D02*
X116964999Y-132763999D01*
X117270000Y-124630000D02*
X117270000Y-132458998D01*
X117270000Y-161327500D02*
X117270000Y-162780000D01*
X118443901Y-160153599D02*
X117270000Y-161327500D01*
X118443901Y-154854903D02*
X118443901Y-160153599D01*
X116964999Y-153376001D02*
X118443901Y-154854903D01*
X116964999Y-151863999D02*
X116964999Y-153376001D01*
X117270000Y-151558998D02*
X116964999Y-151863999D01*
X117270000Y-143680000D02*
X117270000Y-151558998D01*
X116914999Y-164587501D02*
X116914999Y-174098025D01*
X117270000Y-164232500D02*
X116914999Y-164587501D01*
X116914999Y-174098025D02*
X118393901Y-175576927D01*
X117270000Y-162780000D02*
X117270000Y-164232500D01*
X136320000Y-173732500D02*
X136320000Y-172280000D01*
X128222500Y-181830000D02*
X136320000Y-173732500D01*
X117220000Y-181830000D02*
X128222500Y-181830000D01*
X136320000Y-135632500D02*
X136320000Y-134180000D01*
X132349999Y-139602501D02*
X136320000Y-135632500D01*
X132349999Y-159211001D02*
X132349999Y-139602501D01*
X137493901Y-164354903D02*
X132349999Y-159211001D01*
X137493901Y-169653599D02*
X137493901Y-164354903D01*
X136320000Y-170827500D02*
X137493901Y-169653599D01*
X136320000Y-172280000D02*
X136320000Y-170827500D01*
X93805001Y-177394999D02*
X92000000Y-179200000D01*
X93805001Y-168647499D02*
X93805001Y-177394999D01*
X98220000Y-164232500D02*
X93805001Y-168647499D01*
X98220000Y-162780000D02*
X98220000Y-164232500D01*
X118393901Y-177923073D02*
X118393901Y-175576927D01*
X82039991Y-179193901D02*
X91993901Y-179193901D01*
X81723045Y-178876955D02*
X82173750Y-179326250D01*
X91993901Y-179193901D02*
X92000000Y-179200000D01*
X81723045Y-178876955D02*
X82039991Y-179193901D01*
X118393901Y-177923073D02*
X117123073Y-179193901D01*
X113627499Y-180427499D02*
X112400000Y-179200000D01*
X117123073Y-179193901D02*
X112400000Y-179200000D01*
X115817499Y-180427499D02*
X113627499Y-180427499D01*
X117220000Y-181830000D02*
X115817499Y-180427499D01*
X112400000Y-179200000D02*
X91993901Y-179193901D01*
X136320000Y-107032500D02*
X136320000Y-105580000D01*
X136014999Y-107337501D02*
X136320000Y-107032500D01*
X136014999Y-126448025D02*
X136014999Y-107337501D01*
X137493901Y-127926927D02*
X136014999Y-126448025D01*
X137493901Y-131553599D02*
X137493901Y-127926927D01*
X136320000Y-132727500D02*
X137493901Y-131553599D01*
X136320000Y-134180000D02*
X136320000Y-132727500D01*
X70175001Y-69958013D02*
X66059999Y-65843011D01*
X70175001Y-87506003D02*
X70175001Y-69958013D01*
X80323901Y-101673073D02*
X80323901Y-97654903D01*
X80323901Y-97654903D02*
X70175001Y-87506003D01*
X79150000Y-102846974D02*
X80323901Y-101673073D01*
X66059999Y-65843011D02*
X66059999Y-51560001D01*
X79150000Y-105580000D02*
X79150000Y-102846974D01*
X79170000Y-176323910D02*
X81723045Y-178876955D01*
X79170000Y-162780000D02*
X79170000Y-176323910D01*
D23*
X74090000Y-97980000D02*
X74070000Y-97960000D01*
X69900000Y-50260000D02*
X69910000Y-50260000D01*
X112190000Y-174160000D02*
X112140000Y-174210000D01*
X71200000Y-49020000D02*
X69900000Y-47720000D01*
X71200000Y-56550000D02*
X71200000Y-49020000D01*
X69225001Y-64611999D02*
X69225001Y-67325001D01*
X67360000Y-45180000D02*
X68535001Y-46355001D01*
X68535001Y-63921999D02*
X69225001Y-64611999D01*
X68535001Y-46355001D02*
X68535001Y-63921999D01*
X69225001Y-67325001D02*
X69225001Y-67750011D01*
X69225001Y-67750011D02*
X70774990Y-69300000D01*
D25*
G36*
X77511585Y-51819385D02*
G01*
X77458336Y-52028731D01*
X78200000Y-52770395D01*
X78214143Y-52756253D01*
X78393748Y-52935858D01*
X78379605Y-52950000D01*
X79121269Y-53691664D01*
X79330615Y-53638415D01*
X83003203Y-57311003D01*
X83027001Y-57340001D01*
X83142726Y-57434974D01*
X83274755Y-57505546D01*
X83418016Y-57549003D01*
X83529669Y-57560000D01*
X83529678Y-57560000D01*
X83567001Y-57563676D01*
X83604324Y-57560000D01*
X100261928Y-57560000D01*
X100261928Y-57600000D01*
X100274188Y-57724482D01*
X100310498Y-57844180D01*
X100369463Y-57954494D01*
X100448815Y-58051185D01*
X100545506Y-58130537D01*
X100655820Y-58189502D01*
X100775518Y-58225812D01*
X100900000Y-58238072D01*
X102500000Y-58238072D01*
X102624482Y-58225812D01*
X102744180Y-58189502D01*
X102761928Y-58180015D01*
X102761928Y-59600000D01*
X102774188Y-59724482D01*
X102810498Y-59844180D01*
X102869463Y-59954494D01*
X102948815Y-60051185D01*
X103045506Y-60130537D01*
X103155820Y-60189502D01*
X103275518Y-60225812D01*
X103400000Y-60238072D01*
X105000000Y-60238072D01*
X105124482Y-60225812D01*
X105244180Y-60189502D01*
X105261928Y-60180015D01*
X105261928Y-61600000D01*
X105274188Y-61724482D01*
X105310498Y-61844180D01*
X105369463Y-61954494D01*
X105448815Y-62051185D01*
X105545506Y-62130537D01*
X105655820Y-62189502D01*
X105775518Y-62225812D01*
X105900000Y-62238072D01*
X107500000Y-62238072D01*
X107570639Y-62231115D01*
X107603383Y-62271014D01*
X107659999Y-62340001D01*
X107689002Y-62363804D01*
X107761928Y-62436729D01*
X107761928Y-63600000D01*
X107774188Y-63724482D01*
X107810498Y-63844180D01*
X107869463Y-63954494D01*
X107948815Y-64051185D01*
X108045506Y-64130537D01*
X108155820Y-64189502D01*
X108275518Y-64225812D01*
X108400000Y-64238072D01*
X110000000Y-64238072D01*
X110124482Y-64225812D01*
X110244180Y-64189502D01*
X110354494Y-64130537D01*
X110451185Y-64051185D01*
X110530537Y-63954494D01*
X110589502Y-63844180D01*
X110625812Y-63724482D01*
X110638072Y-63600000D01*
X110638072Y-63387468D01*
X110785241Y-63534637D01*
X110940000Y-63638043D01*
X110940001Y-82895197D01*
X100077046Y-93758152D01*
X100003373Y-93727636D01*
X99663345Y-93660000D01*
X99316655Y-93660000D01*
X98976627Y-93727636D01*
X98656327Y-93860308D01*
X98368065Y-94052919D01*
X98122919Y-94298065D01*
X97930308Y-94586327D01*
X97797636Y-94906627D01*
X97730000Y-95246655D01*
X97730000Y-95593345D01*
X97797636Y-95933373D01*
X97930308Y-96253673D01*
X98122919Y-96541935D01*
X98368065Y-96787081D01*
X98656327Y-96979692D01*
X98976627Y-97112364D01*
X99316655Y-97180000D01*
X99663345Y-97180000D01*
X100003373Y-97112364D01*
X100323673Y-96979692D01*
X100611935Y-96787081D01*
X100857081Y-96541935D01*
X101049692Y-96253673D01*
X101182364Y-95933373D01*
X101250000Y-95593345D01*
X101250000Y-95246655D01*
X101182364Y-94906627D01*
X101151848Y-94832954D01*
X112211003Y-83773799D01*
X112240001Y-83750001D01*
X112334974Y-83634276D01*
X112405546Y-83502247D01*
X112449003Y-83358986D01*
X112460000Y-83247333D01*
X112463677Y-83210000D01*
X112460000Y-83172667D01*
X112460000Y-63638043D01*
X112614759Y-63534637D01*
X112814637Y-63334759D01*
X112971680Y-63099727D01*
X113079853Y-62838574D01*
X113135000Y-62561335D01*
X113135000Y-62278665D01*
X113079853Y-62001426D01*
X112971680Y-61740273D01*
X112851226Y-61560000D01*
X113885199Y-61560000D01*
X115636201Y-63311003D01*
X115659999Y-63340001D01*
X115688997Y-63363799D01*
X115775723Y-63434974D01*
X115893117Y-63497723D01*
X115907753Y-63505546D01*
X116051014Y-63549003D01*
X116162667Y-63560000D01*
X116162676Y-63560000D01*
X116199999Y-63563676D01*
X116237322Y-63560000D01*
X119347680Y-63560000D01*
X119385002Y-63563676D01*
X119422324Y-63560000D01*
X119422335Y-63560000D01*
X119533988Y-63549003D01*
X119677249Y-63505546D01*
X119809278Y-63434974D01*
X119925003Y-63340001D01*
X119948806Y-63310997D01*
X120349753Y-62910050D01*
X120428320Y-63099727D01*
X120585363Y-63334759D01*
X120785241Y-63534637D01*
X120940000Y-63638043D01*
X120940001Y-91945197D01*
X119127046Y-93758152D01*
X119053373Y-93727636D01*
X118713345Y-93660000D01*
X118366655Y-93660000D01*
X118026627Y-93727636D01*
X117706327Y-93860308D01*
X117418065Y-94052919D01*
X117172919Y-94298065D01*
X116980308Y-94586327D01*
X116847636Y-94906627D01*
X116780000Y-95246655D01*
X116780000Y-95593345D01*
X116847636Y-95933373D01*
X116980308Y-96253673D01*
X117172919Y-96541935D01*
X117418065Y-96787081D01*
X117706327Y-96979692D01*
X118026627Y-97112364D01*
X118366655Y-97180000D01*
X118713345Y-97180000D01*
X119053373Y-97112364D01*
X119373673Y-96979692D01*
X119661935Y-96787081D01*
X119907081Y-96541935D01*
X120099692Y-96253673D01*
X120232364Y-95933373D01*
X120300000Y-95593345D01*
X120300000Y-95246655D01*
X120232364Y-94906627D01*
X120201848Y-94832954D01*
X122211003Y-92823799D01*
X122240001Y-92800001D01*
X122334974Y-92684276D01*
X122405546Y-92552247D01*
X122449003Y-92408986D01*
X122460000Y-92297333D01*
X122460000Y-92297323D01*
X122463676Y-92260000D01*
X122460000Y-92222677D01*
X122460000Y-63638043D01*
X122614759Y-63534637D01*
X122814637Y-63334759D01*
X122971680Y-63099727D01*
X123079853Y-62838574D01*
X123135000Y-62561335D01*
X123135000Y-62278665D01*
X123081560Y-62010010D01*
X124335209Y-62010010D01*
X125636201Y-63311003D01*
X125659999Y-63340001D01*
X125688997Y-63363799D01*
X125775723Y-63434974D01*
X125893117Y-63497723D01*
X125907753Y-63505546D01*
X126051014Y-63549003D01*
X126162667Y-63560000D01*
X126162677Y-63560000D01*
X126200000Y-63563676D01*
X126237323Y-63560000D01*
X130261928Y-63560000D01*
X130261928Y-63600000D01*
X130274188Y-63724482D01*
X130310498Y-63844180D01*
X130369463Y-63954494D01*
X130448815Y-64051185D01*
X130545506Y-64130537D01*
X130655820Y-64189502D01*
X130775518Y-64225812D01*
X130900000Y-64238072D01*
X132500000Y-64238072D01*
X132624482Y-64225812D01*
X132744180Y-64189502D01*
X132854494Y-64130537D01*
X132951185Y-64051185D01*
X133030537Y-63954494D01*
X133089502Y-63844180D01*
X133125812Y-63724482D01*
X133138072Y-63600000D01*
X133138072Y-63387468D01*
X133285241Y-63534637D01*
X133440000Y-63638043D01*
X133440001Y-91992667D01*
X133436324Y-92030000D01*
X133450998Y-92178985D01*
X133494454Y-92322246D01*
X133565026Y-92454276D01*
X133636201Y-92541002D01*
X133660000Y-92570001D01*
X133688998Y-92593799D01*
X135928152Y-94832954D01*
X135897636Y-94906627D01*
X135830000Y-95246655D01*
X135830000Y-95593345D01*
X135897636Y-95933373D01*
X136030308Y-96253673D01*
X136222919Y-96541935D01*
X136468065Y-96787081D01*
X136756327Y-96979692D01*
X137076627Y-97112364D01*
X137416655Y-97180000D01*
X137763345Y-97180000D01*
X138103373Y-97112364D01*
X138423673Y-96979692D01*
X138711935Y-96787081D01*
X138957081Y-96541935D01*
X139149692Y-96253673D01*
X139250793Y-96009593D01*
X140570001Y-97328801D01*
X140570001Y-99047940D01*
X140278722Y-98990000D01*
X139981278Y-98990000D01*
X139689549Y-99048029D01*
X139414747Y-99161856D01*
X139167431Y-99327107D01*
X138957107Y-99537431D01*
X138791856Y-99784747D01*
X138678029Y-100059549D01*
X138620000Y-100351278D01*
X138620000Y-100648722D01*
X138678029Y-100940451D01*
X138791856Y-101215253D01*
X138957107Y-101462569D01*
X139167431Y-101672893D01*
X139414747Y-101838144D01*
X139689549Y-101951971D01*
X139981278Y-102010000D01*
X140278722Y-102010000D01*
X140570001Y-101952060D01*
X140570002Y-114815674D01*
X137079003Y-118306674D01*
X137049999Y-118330477D01*
X137011731Y-118377107D01*
X136955026Y-118446202D01*
X136934830Y-118483986D01*
X136899999Y-118549150D01*
X136899999Y-107704079D01*
X136915045Y-107689033D01*
X136948817Y-107661317D01*
X137059411Y-107526559D01*
X137141589Y-107372813D01*
X137192195Y-107205990D01*
X137195683Y-107170572D01*
X137272500Y-107170572D01*
X137396982Y-107158312D01*
X137516680Y-107122002D01*
X137626994Y-107063037D01*
X137723685Y-106983685D01*
X137803037Y-106886994D01*
X137862002Y-106776680D01*
X137898312Y-106656982D01*
X137910572Y-106532500D01*
X137910572Y-104627500D01*
X137898312Y-104503018D01*
X137862002Y-104383320D01*
X137803037Y-104273006D01*
X137723685Y-104176315D01*
X137626994Y-104096963D01*
X137516680Y-104037998D01*
X137396982Y-104001688D01*
X137272500Y-103989428D01*
X135367500Y-103989428D01*
X135243018Y-104001688D01*
X135123320Y-104037998D01*
X135013006Y-104096963D01*
X134916315Y-104176315D01*
X134836963Y-104273006D01*
X134795549Y-104350485D01*
X134791972Y-104346908D01*
X134531963Y-104173176D01*
X134243057Y-104053507D01*
X133936355Y-103992500D01*
X133623645Y-103992500D01*
X133316943Y-104053507D01*
X133028037Y-104173176D01*
X132768028Y-104346908D01*
X132546908Y-104568028D01*
X132373176Y-104828037D01*
X132253507Y-105116943D01*
X132192500Y-105423645D01*
X132192500Y-105736355D01*
X132253507Y-106043057D01*
X132373176Y-106331963D01*
X132546908Y-106591972D01*
X132768028Y-106813092D01*
X133028037Y-106986824D01*
X133316943Y-107106493D01*
X133623645Y-107167500D01*
X133936355Y-107167500D01*
X134243057Y-107106493D01*
X134531963Y-106986824D01*
X134791972Y-106813092D01*
X134795549Y-106809515D01*
X134836963Y-106886994D01*
X134916315Y-106983685D01*
X135013006Y-107063037D01*
X135123320Y-107122002D01*
X135152832Y-107130954D01*
X135142804Y-107164011D01*
X135125718Y-107337501D01*
X135130000Y-107380980D01*
X135129999Y-126404556D01*
X135125718Y-126448025D01*
X135127991Y-126471100D01*
X134791076Y-126471100D01*
X134283178Y-126572127D01*
X133804749Y-126770299D01*
X133374174Y-127058000D01*
X133008000Y-127424174D01*
X132720299Y-127854749D01*
X132522127Y-128333178D01*
X132421100Y-128841076D01*
X132421100Y-129358924D01*
X132522127Y-129866822D01*
X132720299Y-130345251D01*
X133008000Y-130775826D01*
X133374174Y-131142000D01*
X133804749Y-131429701D01*
X134283178Y-131627873D01*
X134791076Y-131728900D01*
X135308924Y-131728900D01*
X135816822Y-131627873D01*
X136295251Y-131429701D01*
X136509129Y-131286792D01*
X135724951Y-132070971D01*
X135691184Y-132098683D01*
X135663471Y-132132451D01*
X135663468Y-132132454D01*
X135580590Y-132233441D01*
X135498412Y-132387187D01*
X135447805Y-132554010D01*
X135444317Y-132589428D01*
X135367500Y-132589428D01*
X135243018Y-132601688D01*
X135123320Y-132637998D01*
X135013006Y-132696963D01*
X134916315Y-132776315D01*
X134836963Y-132873006D01*
X134795549Y-132950485D01*
X134791972Y-132946908D01*
X134531963Y-132773176D01*
X134243057Y-132653507D01*
X133936355Y-132592500D01*
X133623645Y-132592500D01*
X133316943Y-132653507D01*
X133028037Y-132773176D01*
X132768028Y-132946908D01*
X132546908Y-133168028D01*
X132373176Y-133428037D01*
X132253507Y-133716943D01*
X132192500Y-134023645D01*
X132192500Y-134336355D01*
X132253507Y-134643057D01*
X132373176Y-134931963D01*
X132546908Y-135191972D01*
X132768028Y-135413092D01*
X133028037Y-135586824D01*
X133316943Y-135706493D01*
X133623645Y-135767500D01*
X133936355Y-135767500D01*
X134243057Y-135706493D01*
X134531963Y-135586824D01*
X134791972Y-135413092D01*
X134795549Y-135409515D01*
X134836963Y-135486994D01*
X134916315Y-135583685D01*
X135013006Y-135663037D01*
X135029218Y-135671703D01*
X131754950Y-138945971D01*
X131721183Y-138973684D01*
X131693470Y-139007452D01*
X131693467Y-139007455D01*
X131610589Y-139108442D01*
X131528411Y-139262188D01*
X131477804Y-139429011D01*
X131460718Y-139602501D01*
X131465000Y-139645980D01*
X131464999Y-159167532D01*
X131460718Y-159211001D01*
X131464999Y-159254470D01*
X131464999Y-159254477D01*
X131477804Y-159384490D01*
X131528410Y-159551313D01*
X131610588Y-159705059D01*
X131721182Y-159839818D01*
X131754955Y-159867535D01*
X136608902Y-164721483D01*
X136608902Y-165079874D01*
X136295251Y-164870299D01*
X135816822Y-164672127D01*
X135308924Y-164571100D01*
X134791076Y-164571100D01*
X134283178Y-164672127D01*
X133804749Y-164870299D01*
X133374174Y-165158000D01*
X133008000Y-165524174D01*
X132720299Y-165954749D01*
X132522127Y-166433178D01*
X132421100Y-166941076D01*
X132421100Y-167458924D01*
X132522127Y-167966822D01*
X132720299Y-168445251D01*
X133008000Y-168875826D01*
X133374174Y-169242000D01*
X133804749Y-169529701D01*
X134283178Y-169727873D01*
X134791076Y-169828900D01*
X135308924Y-169828900D01*
X135816822Y-169727873D01*
X136295251Y-169529701D01*
X136509129Y-169386792D01*
X135724951Y-170170971D01*
X135691184Y-170198683D01*
X135663471Y-170232451D01*
X135663468Y-170232454D01*
X135580590Y-170333441D01*
X135498412Y-170487187D01*
X135447805Y-170654010D01*
X135444317Y-170689428D01*
X135367500Y-170689428D01*
X135243018Y-170701688D01*
X135123320Y-170737998D01*
X135013006Y-170796963D01*
X134916315Y-170876315D01*
X134836963Y-170973006D01*
X134795549Y-171050485D01*
X134791972Y-171046908D01*
X134531963Y-170873176D01*
X134243057Y-170753507D01*
X133936355Y-170692500D01*
X133623645Y-170692500D01*
X133316943Y-170753507D01*
X133028037Y-170873176D01*
X132768028Y-171046908D01*
X132546908Y-171268028D01*
X132373176Y-171528037D01*
X132253507Y-171816943D01*
X132192500Y-172123645D01*
X132192500Y-172436355D01*
X132253507Y-172743057D01*
X132373176Y-173031963D01*
X132546908Y-173291972D01*
X132768028Y-173513092D01*
X133028037Y-173686824D01*
X133316943Y-173806493D01*
X133623645Y-173867500D01*
X133936355Y-173867500D01*
X134243057Y-173806493D01*
X134531963Y-173686824D01*
X134791972Y-173513092D01*
X134795549Y-173509515D01*
X134836963Y-173586994D01*
X134916315Y-173683685D01*
X135013006Y-173763037D01*
X135029218Y-173771703D01*
X129423900Y-179377022D01*
X129423900Y-178879076D01*
X129322873Y-178371178D01*
X129124701Y-177892749D01*
X128837000Y-177462174D01*
X128470826Y-177096000D01*
X128040251Y-176808299D01*
X127561822Y-176610127D01*
X127053924Y-176509100D01*
X126536076Y-176509100D01*
X126028178Y-176610127D01*
X125549749Y-176808299D01*
X125119174Y-177096000D01*
X124753000Y-177462174D01*
X124465299Y-177892749D01*
X124267127Y-178371178D01*
X124166100Y-178879076D01*
X124166100Y-179396924D01*
X124267127Y-179904822D01*
X124465299Y-180383251D01*
X124753000Y-180813826D01*
X124884174Y-180945000D01*
X118810572Y-180945000D01*
X118810572Y-180877500D01*
X118798312Y-180753018D01*
X118762002Y-180633320D01*
X118703037Y-180523006D01*
X118623685Y-180426315D01*
X118526994Y-180346963D01*
X118416680Y-180287998D01*
X118296982Y-180251688D01*
X118172500Y-180239428D01*
X116881006Y-180239428D01*
X116720999Y-180079421D01*
X117080173Y-180078957D01*
X117123073Y-180083182D01*
X117167113Y-180078845D01*
X117167692Y-180078844D01*
X117210621Y-180074560D01*
X117296563Y-180066096D01*
X117297116Y-180065928D01*
X117297689Y-180065871D01*
X117380407Y-180040661D01*
X117463386Y-180015489D01*
X117463895Y-180015217D01*
X117464446Y-180015049D01*
X117540811Y-179974105D01*
X117617132Y-179933311D01*
X117617577Y-179932946D01*
X117618086Y-179932673D01*
X117684859Y-179877729D01*
X117718119Y-179850433D01*
X117718527Y-179850025D01*
X117752701Y-179821905D01*
X117780007Y-179788545D01*
X118988951Y-178579602D01*
X119022718Y-178551890D01*
X119058539Y-178508243D01*
X119133311Y-178417133D01*
X119133312Y-178417132D01*
X119215490Y-178263386D01*
X119266096Y-178096563D01*
X119278901Y-177966550D01*
X119278901Y-177966540D01*
X119283182Y-177923074D01*
X119278901Y-177879608D01*
X119278901Y-176601278D01*
X119520000Y-176601278D01*
X119520000Y-176898722D01*
X119578029Y-177190451D01*
X119691856Y-177465253D01*
X119857107Y-177712569D01*
X120067431Y-177922893D01*
X120314747Y-178088144D01*
X120589549Y-178201971D01*
X120881278Y-178260000D01*
X121178722Y-178260000D01*
X121470451Y-178201971D01*
X121745253Y-178088144D01*
X121992569Y-177922893D01*
X122202893Y-177712569D01*
X122368144Y-177465253D01*
X122481971Y-177190451D01*
X122540000Y-176898722D01*
X122540000Y-176601278D01*
X122481971Y-176309549D01*
X122368144Y-176034747D01*
X122202893Y-175787431D01*
X121992569Y-175577107D01*
X121745253Y-175411856D01*
X121470451Y-175298029D01*
X121178722Y-175240000D01*
X120881278Y-175240000D01*
X120589549Y-175298029D01*
X120314747Y-175411856D01*
X120067431Y-175577107D01*
X119857107Y-175787431D01*
X119691856Y-176034747D01*
X119578029Y-176309549D01*
X119520000Y-176601278D01*
X119278901Y-176601278D01*
X119278901Y-175620392D01*
X119283182Y-175576926D01*
X119278901Y-175533460D01*
X119278901Y-175533450D01*
X119266096Y-175403437D01*
X119215490Y-175236614D01*
X119133312Y-175082868D01*
X119101145Y-175043673D01*
X119050433Y-174981880D01*
X119050431Y-174981878D01*
X119022718Y-174948110D01*
X118988950Y-174920397D01*
X117799999Y-173731447D01*
X117799999Y-173289203D01*
X117976627Y-173362364D01*
X118316655Y-173430000D01*
X118663345Y-173430000D01*
X119003373Y-173362364D01*
X119323673Y-173229692D01*
X119611935Y-173037081D01*
X119857081Y-172791935D01*
X120049692Y-172503673D01*
X120182364Y-172183373D01*
X120250000Y-171843345D01*
X120250000Y-171496655D01*
X120182364Y-171156627D01*
X120151848Y-171082954D01*
X123361013Y-167873789D01*
X123390011Y-167849991D01*
X123484984Y-167734266D01*
X123555556Y-167602237D01*
X123599013Y-167458976D01*
X123610010Y-167347323D01*
X123610010Y-167347314D01*
X123613686Y-167309991D01*
X123610010Y-167272668D01*
X123610010Y-167051278D01*
X128460000Y-167051278D01*
X128460000Y-167348722D01*
X128518029Y-167640451D01*
X128631856Y-167915253D01*
X128797107Y-168162569D01*
X129007431Y-168372893D01*
X129254747Y-168538144D01*
X129529549Y-168651971D01*
X129821278Y-168710000D01*
X130118722Y-168710000D01*
X130410451Y-168651971D01*
X130685253Y-168538144D01*
X130932569Y-168372893D01*
X131142893Y-168162569D01*
X131308144Y-167915253D01*
X131421971Y-167640451D01*
X131480000Y-167348722D01*
X131480000Y-167051278D01*
X131421971Y-166759549D01*
X131308144Y-166484747D01*
X131264882Y-166420000D01*
X131413345Y-166420000D01*
X131753373Y-166352364D01*
X132073673Y-166219692D01*
X132361935Y-166027081D01*
X132607081Y-165781935D01*
X132799692Y-165493673D01*
X132932364Y-165173373D01*
X133000000Y-164833345D01*
X133000000Y-164486655D01*
X132932364Y-164146627D01*
X132799692Y-163826327D01*
X132607081Y-163538065D01*
X132361935Y-163292919D01*
X132073673Y-163100308D01*
X131753373Y-162967636D01*
X131413345Y-162900000D01*
X131066655Y-162900000D01*
X130726627Y-162967636D01*
X130406327Y-163100308D01*
X130118065Y-163292919D01*
X129872919Y-163538065D01*
X129680308Y-163826327D01*
X129547636Y-164146627D01*
X129480000Y-164486655D01*
X129480000Y-164833345D01*
X129547636Y-165173373D01*
X129680308Y-165493673D01*
X129812638Y-165691719D01*
X129529549Y-165748029D01*
X129254747Y-165861856D01*
X129007431Y-166027107D01*
X128797107Y-166237431D01*
X128631856Y-166484747D01*
X128518029Y-166759549D01*
X128460000Y-167051278D01*
X123610010Y-167051278D01*
X123610010Y-155003076D01*
X124166100Y-155003076D01*
X124166100Y-155520924D01*
X124267127Y-156028822D01*
X124465299Y-156507251D01*
X124753000Y-156937826D01*
X125119174Y-157304000D01*
X125549749Y-157591701D01*
X126028178Y-157789873D01*
X126536076Y-157890900D01*
X127053924Y-157890900D01*
X127561822Y-157789873D01*
X128040251Y-157591701D01*
X128470826Y-157304000D01*
X128837000Y-156937826D01*
X129124701Y-156507251D01*
X129322873Y-156028822D01*
X129423900Y-155520924D01*
X129423900Y-155003076D01*
X129322873Y-154495178D01*
X129124701Y-154016749D01*
X128837000Y-153586174D01*
X128470826Y-153220000D01*
X128040251Y-152932299D01*
X127561822Y-152734127D01*
X127053924Y-152633100D01*
X126536076Y-152633100D01*
X126028178Y-152734127D01*
X125549749Y-152932299D01*
X125119174Y-153220000D01*
X124753000Y-153586174D01*
X124465299Y-154016749D01*
X124267127Y-154495178D01*
X124166100Y-155003076D01*
X123610010Y-155003076D01*
X123610010Y-140779076D01*
X124166100Y-140779076D01*
X124166100Y-141296924D01*
X124267127Y-141804822D01*
X124465299Y-142283251D01*
X124753000Y-142713826D01*
X125119174Y-143080000D01*
X125549749Y-143367701D01*
X126028178Y-143565873D01*
X126536076Y-143666900D01*
X127053924Y-143666900D01*
X127561822Y-143565873D01*
X128040251Y-143367701D01*
X128470826Y-143080000D01*
X128837000Y-142713826D01*
X129124701Y-142283251D01*
X129322873Y-141804822D01*
X129423900Y-141296924D01*
X129423900Y-140779076D01*
X129322873Y-140271178D01*
X129124701Y-139792749D01*
X128837000Y-139362174D01*
X128470826Y-138996000D01*
X128040251Y-138708299D01*
X127561822Y-138510127D01*
X127053924Y-138409100D01*
X126536076Y-138409100D01*
X126028178Y-138510127D01*
X125549749Y-138708299D01*
X125119174Y-138996000D01*
X124753000Y-139362174D01*
X124465299Y-139792749D01*
X124267127Y-140271178D01*
X124166100Y-140779076D01*
X123610010Y-140779076D01*
X123610010Y-128951278D01*
X128460000Y-128951278D01*
X128460000Y-129248722D01*
X128518029Y-129540451D01*
X128631856Y-129815253D01*
X128797107Y-130062569D01*
X129007431Y-130272893D01*
X129254747Y-130438144D01*
X129529549Y-130551971D01*
X129821278Y-130610000D01*
X130118722Y-130610000D01*
X130410451Y-130551971D01*
X130685253Y-130438144D01*
X130932569Y-130272893D01*
X131142893Y-130062569D01*
X131308144Y-129815253D01*
X131421971Y-129540451D01*
X131480000Y-129248722D01*
X131480000Y-128951278D01*
X131421971Y-128659549D01*
X131308144Y-128384747D01*
X131264882Y-128320000D01*
X131413345Y-128320000D01*
X131753373Y-128252364D01*
X132073673Y-128119692D01*
X132361935Y-127927081D01*
X132607081Y-127681935D01*
X132799692Y-127393673D01*
X132932364Y-127073373D01*
X133000000Y-126733345D01*
X133000000Y-126386655D01*
X132932364Y-126046627D01*
X132799692Y-125726327D01*
X132607081Y-125438065D01*
X132361935Y-125192919D01*
X132073673Y-125000308D01*
X131753373Y-124867636D01*
X131413345Y-124800000D01*
X131066655Y-124800000D01*
X130726627Y-124867636D01*
X130406327Y-125000308D01*
X130118065Y-125192919D01*
X129872919Y-125438065D01*
X129680308Y-125726327D01*
X129547636Y-126046627D01*
X129480000Y-126386655D01*
X129480000Y-126733345D01*
X129547636Y-127073373D01*
X129680308Y-127393673D01*
X129812638Y-127591719D01*
X129529549Y-127648029D01*
X129254747Y-127761856D01*
X129007431Y-127927107D01*
X128797107Y-128137431D01*
X128631856Y-128384747D01*
X128518029Y-128659549D01*
X128460000Y-128951278D01*
X123610010Y-128951278D01*
X123610010Y-116864791D01*
X124399712Y-116075089D01*
X124267127Y-116395178D01*
X124166100Y-116903076D01*
X124166100Y-117420924D01*
X124267127Y-117928822D01*
X124465299Y-118407251D01*
X124753000Y-118837826D01*
X125119174Y-119204000D01*
X125549749Y-119491701D01*
X126028178Y-119689873D01*
X126536076Y-119790900D01*
X127053924Y-119790900D01*
X127561822Y-119689873D01*
X128040251Y-119491701D01*
X128470826Y-119204000D01*
X128837000Y-118837826D01*
X129124701Y-118407251D01*
X129322873Y-117928822D01*
X129423900Y-117420924D01*
X129423900Y-116903076D01*
X129322873Y-116395178D01*
X129124701Y-115916749D01*
X128837000Y-115486174D01*
X128470826Y-115120000D01*
X128040251Y-114832299D01*
X127561822Y-114634127D01*
X127053924Y-114533100D01*
X126536076Y-114533100D01*
X126028178Y-114634127D01*
X125708089Y-114766712D01*
X128111022Y-112363780D01*
X128140020Y-112339982D01*
X128166351Y-112307898D01*
X128234993Y-112224258D01*
X128305565Y-112092228D01*
X128318677Y-112049003D01*
X128349022Y-111948967D01*
X128360019Y-111837314D01*
X128360019Y-111837305D01*
X128363695Y-111799982D01*
X128360019Y-111762659D01*
X128360019Y-100351278D01*
X128460000Y-100351278D01*
X128460000Y-100648722D01*
X128518029Y-100940451D01*
X128631856Y-101215253D01*
X128797107Y-101462569D01*
X129007431Y-101672893D01*
X129254747Y-101838144D01*
X129529549Y-101951971D01*
X129821278Y-102010000D01*
X130118722Y-102010000D01*
X130410451Y-101951971D01*
X130685253Y-101838144D01*
X130932569Y-101672893D01*
X131142893Y-101462569D01*
X131308144Y-101215253D01*
X131421971Y-100940451D01*
X131480000Y-100648722D01*
X131480000Y-100351278D01*
X131458080Y-100241076D01*
X132421100Y-100241076D01*
X132421100Y-100758924D01*
X132522127Y-101266822D01*
X132720299Y-101745251D01*
X133008000Y-102175826D01*
X133374174Y-102542000D01*
X133804749Y-102829701D01*
X134283178Y-103027873D01*
X134791076Y-103128900D01*
X135308924Y-103128900D01*
X135816822Y-103027873D01*
X136295251Y-102829701D01*
X136725826Y-102542000D01*
X137092000Y-102175826D01*
X137379701Y-101745251D01*
X137577873Y-101266822D01*
X137678900Y-100758924D01*
X137678900Y-100241076D01*
X137577873Y-99733178D01*
X137379701Y-99254749D01*
X137092000Y-98824174D01*
X136725826Y-98458000D01*
X136295251Y-98170299D01*
X135816822Y-97972127D01*
X135308924Y-97871100D01*
X134791076Y-97871100D01*
X134283178Y-97972127D01*
X133804749Y-98170299D01*
X133374174Y-98458000D01*
X133008000Y-98824174D01*
X132720299Y-99254749D01*
X132522127Y-99733178D01*
X132421100Y-100241076D01*
X131458080Y-100241076D01*
X131421971Y-100059549D01*
X131308144Y-99784747D01*
X131264882Y-99720000D01*
X131413345Y-99720000D01*
X131753373Y-99652364D01*
X132073673Y-99519692D01*
X132361935Y-99327081D01*
X132607081Y-99081935D01*
X132799692Y-98793673D01*
X132932364Y-98473373D01*
X133000000Y-98133345D01*
X133000000Y-97786655D01*
X132932364Y-97446627D01*
X132799692Y-97126327D01*
X132607081Y-96838065D01*
X132361935Y-96592919D01*
X132073673Y-96400308D01*
X131753373Y-96267636D01*
X131413345Y-96200000D01*
X131066655Y-96200000D01*
X130726627Y-96267636D01*
X130406327Y-96400308D01*
X130118065Y-96592919D01*
X129872919Y-96838065D01*
X129680308Y-97126327D01*
X129547636Y-97446627D01*
X129480000Y-97786655D01*
X129480000Y-98133345D01*
X129547636Y-98473373D01*
X129680308Y-98793673D01*
X129812638Y-98991719D01*
X129529549Y-99048029D01*
X129254747Y-99161856D01*
X129007431Y-99327107D01*
X128797107Y-99537431D01*
X128631856Y-99784747D01*
X128518029Y-100059549D01*
X128460000Y-100351278D01*
X128360019Y-100351278D01*
X128360019Y-92314801D01*
X132211003Y-88463818D01*
X132240001Y-88440020D01*
X132334974Y-88324295D01*
X132405546Y-88192266D01*
X132449003Y-88049005D01*
X132460000Y-87937352D01*
X132460000Y-87937344D01*
X132463676Y-87900019D01*
X132460000Y-87862694D01*
X132460000Y-71638043D01*
X132614759Y-71534637D01*
X132814637Y-71334759D01*
X132971680Y-71099727D01*
X133079853Y-70838574D01*
X133135000Y-70561335D01*
X133135000Y-70278665D01*
X133079853Y-70001426D01*
X132971680Y-69740273D01*
X132814637Y-69505241D01*
X132614759Y-69305363D01*
X132379727Y-69148320D01*
X132118574Y-69040147D01*
X131841335Y-68985000D01*
X131558665Y-68985000D01*
X131281426Y-69040147D01*
X131020273Y-69148320D01*
X130785241Y-69305363D01*
X130585363Y-69505241D01*
X130428320Y-69740273D01*
X130320147Y-70001426D01*
X130265000Y-70278665D01*
X130265000Y-70561335D01*
X130320147Y-70838574D01*
X130428320Y-71099727D01*
X130585363Y-71334759D01*
X130785241Y-71534637D01*
X130940000Y-71638043D01*
X130940001Y-87585216D01*
X129960000Y-88565217D01*
X129960000Y-69638043D01*
X130114759Y-69534637D01*
X130314637Y-69334759D01*
X130471680Y-69099727D01*
X130579853Y-68838574D01*
X130635000Y-68561335D01*
X130635000Y-68278665D01*
X130579853Y-68001426D01*
X130471680Y-67740273D01*
X130314637Y-67505241D01*
X130114759Y-67305363D01*
X129879727Y-67148320D01*
X129618574Y-67040147D01*
X129341335Y-66985000D01*
X129058665Y-66985000D01*
X128781426Y-67040147D01*
X128520273Y-67148320D01*
X128285241Y-67305363D01*
X128085363Y-67505241D01*
X127928320Y-67740273D01*
X127820147Y-68001426D01*
X127765000Y-68278665D01*
X127765000Y-68561335D01*
X127820147Y-68838574D01*
X127928320Y-69099727D01*
X128085363Y-69334759D01*
X128285241Y-69534637D01*
X128440000Y-69638043D01*
X128440001Y-89285197D01*
X127460000Y-90265199D01*
X127460000Y-67638043D01*
X127614759Y-67534637D01*
X127814637Y-67334759D01*
X127971680Y-67099727D01*
X128079853Y-66838574D01*
X128135000Y-66561335D01*
X128135000Y-66278665D01*
X128079853Y-66001426D01*
X127971680Y-65740273D01*
X127814637Y-65505241D01*
X127614759Y-65305363D01*
X127379727Y-65148320D01*
X127118574Y-65040147D01*
X126841335Y-64985000D01*
X126558665Y-64985000D01*
X126281426Y-65040147D01*
X126020273Y-65148320D01*
X125785241Y-65305363D01*
X125585363Y-65505241D01*
X125428320Y-65740273D01*
X125320147Y-66001426D01*
X125265000Y-66278665D01*
X125265000Y-66561335D01*
X125320147Y-66838574D01*
X125428320Y-67099727D01*
X125585363Y-67334759D01*
X125785241Y-67534637D01*
X125940000Y-67638043D01*
X125940001Y-110985197D01*
X119154002Y-117771197D01*
X119124998Y-117795000D01*
X119118099Y-117803406D01*
X119111200Y-117795000D01*
X119100433Y-117781880D01*
X119100431Y-117781878D01*
X119072718Y-117748110D01*
X119038951Y-117720398D01*
X117849999Y-116531447D01*
X117849999Y-116089203D01*
X118026627Y-116162364D01*
X118366655Y-116230000D01*
X118713345Y-116230000D01*
X119053373Y-116162364D01*
X119373673Y-116029692D01*
X119661935Y-115837081D01*
X119907081Y-115591935D01*
X120099692Y-115303673D01*
X120232364Y-114983373D01*
X120300000Y-114643345D01*
X120300000Y-114296655D01*
X120232364Y-113956627D01*
X120201848Y-113882954D01*
X124711003Y-109373799D01*
X124740001Y-109350001D01*
X124834974Y-109234276D01*
X124905546Y-109102247D01*
X124949003Y-108958986D01*
X124960000Y-108847333D01*
X124960000Y-108847325D01*
X124963676Y-108810000D01*
X124960000Y-108772675D01*
X124960000Y-65638043D01*
X125114759Y-65534637D01*
X125314637Y-65334759D01*
X125471680Y-65099727D01*
X125579853Y-64838574D01*
X125635000Y-64561335D01*
X125635000Y-64278665D01*
X125579853Y-64001426D01*
X125471680Y-63740273D01*
X125314637Y-63505241D01*
X125114759Y-63305363D01*
X124879727Y-63148320D01*
X124618574Y-63040147D01*
X124341335Y-62985000D01*
X124058665Y-62985000D01*
X123781426Y-63040147D01*
X123520273Y-63148320D01*
X123285241Y-63305363D01*
X123085363Y-63505241D01*
X122928320Y-63740273D01*
X122820147Y-64001426D01*
X122765000Y-64278665D01*
X122765000Y-64561335D01*
X122820147Y-64838574D01*
X122928320Y-65099727D01*
X123085363Y-65334759D01*
X123285241Y-65534637D01*
X123440000Y-65638043D01*
X123440001Y-108495197D01*
X119127046Y-112808152D01*
X119053373Y-112777636D01*
X118713345Y-112710000D01*
X118366655Y-112710000D01*
X118155000Y-112752101D01*
X118155000Y-107170572D01*
X118222500Y-107170572D01*
X118346982Y-107158312D01*
X118466680Y-107122002D01*
X118576994Y-107063037D01*
X118673685Y-106983685D01*
X118753037Y-106886994D01*
X118812002Y-106776680D01*
X118848312Y-106656982D01*
X118860572Y-106532500D01*
X118860572Y-104627500D01*
X118848312Y-104503018D01*
X118812002Y-104383320D01*
X118753037Y-104273006D01*
X118673685Y-104176315D01*
X118576994Y-104096963D01*
X118466680Y-104037998D01*
X118346982Y-104001688D01*
X118222500Y-103989428D01*
X116317500Y-103989428D01*
X116193018Y-104001688D01*
X116073320Y-104037998D01*
X115963006Y-104096963D01*
X115866315Y-104176315D01*
X115786963Y-104273006D01*
X115745549Y-104350485D01*
X115741972Y-104346908D01*
X115481963Y-104173176D01*
X115193057Y-104053507D01*
X114886355Y-103992500D01*
X114573645Y-103992500D01*
X114266943Y-104053507D01*
X113978037Y-104173176D01*
X113718028Y-104346908D01*
X113496908Y-104568028D01*
X113323176Y-104828037D01*
X113203507Y-105116943D01*
X113142500Y-105423645D01*
X113142500Y-105736355D01*
X113203507Y-106043057D01*
X113323176Y-106331963D01*
X113496908Y-106591972D01*
X113718028Y-106813092D01*
X113978037Y-106986824D01*
X114266943Y-107106493D01*
X114573645Y-107167500D01*
X114886355Y-107167500D01*
X115193057Y-107106493D01*
X115481963Y-106986824D01*
X115741972Y-106813092D01*
X115745549Y-106809515D01*
X115786963Y-106886994D01*
X115866315Y-106983685D01*
X115963006Y-107063037D01*
X116073320Y-107122002D01*
X116193018Y-107158312D01*
X116317500Y-107170572D01*
X116385000Y-107170572D01*
X116385001Y-113042419D01*
X116369955Y-113057465D01*
X116336182Y-113085182D01*
X116225588Y-113219941D01*
X116143410Y-113373687D01*
X116092804Y-113540510D01*
X116079999Y-113670523D01*
X116079999Y-113670530D01*
X116075718Y-113713999D01*
X116079999Y-113757468D01*
X116080000Y-116854546D01*
X116075718Y-116898025D01*
X116077991Y-116921100D01*
X115741076Y-116921100D01*
X115233178Y-117022127D01*
X114754749Y-117220299D01*
X114324174Y-117508000D01*
X113958000Y-117874174D01*
X113670299Y-118304749D01*
X113472127Y-118783178D01*
X113371100Y-119291076D01*
X113371100Y-119808924D01*
X113472127Y-120316822D01*
X113670299Y-120795251D01*
X113958000Y-121225826D01*
X114324174Y-121592000D01*
X114754749Y-121879701D01*
X115233178Y-122077873D01*
X115741076Y-122178900D01*
X116258924Y-122178900D01*
X116766822Y-122077873D01*
X117245251Y-121879701D01*
X117459129Y-121736792D01*
X116674956Y-122520966D01*
X116641183Y-122548683D01*
X116530589Y-122683442D01*
X116448411Y-122837188D01*
X116397805Y-123004011D01*
X116394317Y-123039428D01*
X116317500Y-123039428D01*
X116193018Y-123051688D01*
X116073320Y-123087998D01*
X115963006Y-123146963D01*
X115866315Y-123226315D01*
X115786963Y-123323006D01*
X115745549Y-123400485D01*
X115741972Y-123396908D01*
X115481963Y-123223176D01*
X115193057Y-123103507D01*
X114886355Y-123042500D01*
X114573645Y-123042500D01*
X114266943Y-123103507D01*
X113978037Y-123223176D01*
X113718028Y-123396908D01*
X113496908Y-123618028D01*
X113323176Y-123878037D01*
X113203507Y-124166943D01*
X113142500Y-124473645D01*
X113142500Y-124786355D01*
X113203507Y-125093057D01*
X113323176Y-125381963D01*
X113496908Y-125641972D01*
X113718028Y-125863092D01*
X113978037Y-126036824D01*
X114266943Y-126156493D01*
X114573645Y-126217500D01*
X114886355Y-126217500D01*
X115193057Y-126156493D01*
X115481963Y-126036824D01*
X115741972Y-125863092D01*
X115745549Y-125859515D01*
X115786963Y-125936994D01*
X115866315Y-126033685D01*
X115963006Y-126113037D01*
X116073320Y-126172002D01*
X116193018Y-126208312D01*
X116317500Y-126220572D01*
X116385000Y-126220572D01*
X116385001Y-132092419D01*
X116369955Y-132107465D01*
X116336182Y-132135182D01*
X116225588Y-132269941D01*
X116143410Y-132423687D01*
X116092804Y-132590510D01*
X116079999Y-132720523D01*
X116079999Y-132720530D01*
X116075718Y-132763999D01*
X116079999Y-132807468D01*
X116080000Y-135904546D01*
X116075718Y-135948025D01*
X116077991Y-135971100D01*
X115741076Y-135971100D01*
X115233178Y-136072127D01*
X114754749Y-136270299D01*
X114324174Y-136558000D01*
X113958000Y-136924174D01*
X113670299Y-137354749D01*
X113472127Y-137833178D01*
X113371100Y-138341076D01*
X113371100Y-138858924D01*
X113472127Y-139366822D01*
X113670299Y-139845251D01*
X113958000Y-140275826D01*
X114324174Y-140642000D01*
X114754749Y-140929701D01*
X115233178Y-141127873D01*
X115741076Y-141228900D01*
X116258924Y-141228900D01*
X116766822Y-141127873D01*
X117245251Y-140929701D01*
X117459129Y-140786792D01*
X116674956Y-141570966D01*
X116641183Y-141598683D01*
X116530589Y-141733442D01*
X116448411Y-141887188D01*
X116397805Y-142054011D01*
X116394317Y-142089428D01*
X116317500Y-142089428D01*
X116193018Y-142101688D01*
X116073320Y-142137998D01*
X115963006Y-142196963D01*
X115866315Y-142276315D01*
X115786963Y-142373006D01*
X115745549Y-142450485D01*
X115741972Y-142446908D01*
X115481963Y-142273176D01*
X115193057Y-142153507D01*
X114886355Y-142092500D01*
X114573645Y-142092500D01*
X114266943Y-142153507D01*
X113978037Y-142273176D01*
X113718028Y-142446908D01*
X113496908Y-142668028D01*
X113323176Y-142928037D01*
X113203507Y-143216943D01*
X113142500Y-143523645D01*
X113142500Y-143836355D01*
X113203507Y-144143057D01*
X113323176Y-144431963D01*
X113496908Y-144691972D01*
X113718028Y-144913092D01*
X113978037Y-145086824D01*
X114266943Y-145206493D01*
X114573645Y-145267500D01*
X114886355Y-145267500D01*
X115193057Y-145206493D01*
X115481963Y-145086824D01*
X115741972Y-144913092D01*
X115745549Y-144909515D01*
X115786963Y-144986994D01*
X115866315Y-145083685D01*
X115963006Y-145163037D01*
X116073320Y-145222002D01*
X116193018Y-145258312D01*
X116317500Y-145270572D01*
X116385000Y-145270572D01*
X116385001Y-151192419D01*
X116369955Y-151207465D01*
X116336182Y-151235182D01*
X116225588Y-151369941D01*
X116143410Y-151523687D01*
X116092804Y-151690510D01*
X116079999Y-151820523D01*
X116079999Y-151820530D01*
X116075718Y-151863999D01*
X116079999Y-151907469D01*
X116080000Y-153332522D01*
X116075718Y-153376001D01*
X116092804Y-153549491D01*
X116143411Y-153716314D01*
X116225589Y-153870060D01*
X116308467Y-153971047D01*
X116308470Y-153971050D01*
X116336183Y-154004818D01*
X116369950Y-154032530D01*
X117558901Y-155221482D01*
X117558901Y-155579873D01*
X117245251Y-155370299D01*
X116766822Y-155172127D01*
X116258924Y-155071100D01*
X115741076Y-155071100D01*
X115233178Y-155172127D01*
X114754749Y-155370299D01*
X114324174Y-155658000D01*
X113958000Y-156024174D01*
X113670299Y-156454749D01*
X113472127Y-156933178D01*
X113371100Y-157441076D01*
X113371100Y-157958924D01*
X113472127Y-158466822D01*
X113670299Y-158945251D01*
X113958000Y-159375826D01*
X114324174Y-159742000D01*
X114754749Y-160029701D01*
X115233178Y-160227873D01*
X115741076Y-160328900D01*
X116258924Y-160328900D01*
X116766822Y-160227873D01*
X117245251Y-160029701D01*
X117459129Y-159886792D01*
X116674956Y-160670966D01*
X116641183Y-160698683D01*
X116530589Y-160833442D01*
X116448411Y-160987188D01*
X116397805Y-161154011D01*
X116394317Y-161189428D01*
X116317500Y-161189428D01*
X116193018Y-161201688D01*
X116073320Y-161237998D01*
X115963006Y-161296963D01*
X115866315Y-161376315D01*
X115786963Y-161473006D01*
X115745549Y-161550485D01*
X115741972Y-161546908D01*
X115481963Y-161373176D01*
X115193057Y-161253507D01*
X114886355Y-161192500D01*
X114573645Y-161192500D01*
X114266943Y-161253507D01*
X113978037Y-161373176D01*
X113718028Y-161546908D01*
X113496908Y-161768028D01*
X113323176Y-162028037D01*
X113203507Y-162316943D01*
X113142500Y-162623645D01*
X113142500Y-162936355D01*
X113203507Y-163243057D01*
X113323176Y-163531963D01*
X113496908Y-163791972D01*
X113718028Y-164013092D01*
X113978037Y-164186824D01*
X114266943Y-164306493D01*
X114573645Y-164367500D01*
X114886355Y-164367500D01*
X115193057Y-164306493D01*
X115481963Y-164186824D01*
X115741972Y-164013092D01*
X115745549Y-164009515D01*
X115786963Y-164086994D01*
X115866315Y-164183685D01*
X115963006Y-164263037D01*
X116071079Y-164320804D01*
X116042804Y-164414012D01*
X116029999Y-164544025D01*
X116029999Y-164544032D01*
X116025718Y-164587501D01*
X116029999Y-164630970D01*
X116030000Y-174054546D01*
X116025718Y-174098025D01*
X116027991Y-174121100D01*
X115691076Y-174121100D01*
X115183178Y-174222127D01*
X114704749Y-174420299D01*
X114274174Y-174708000D01*
X113908000Y-175074174D01*
X113620299Y-175504749D01*
X113422127Y-175983178D01*
X113321100Y-176491076D01*
X113321100Y-177008924D01*
X113422127Y-177516822D01*
X113620299Y-177995251D01*
X113832712Y-178313149D01*
X112442900Y-178314944D01*
X112400000Y-178310719D01*
X112356653Y-178314988D01*
X94142035Y-178309544D01*
X94400050Y-178051529D01*
X94433818Y-178023816D01*
X94463479Y-177987675D01*
X94544412Y-177889058D01*
X94626590Y-177735312D01*
X94677196Y-177568489D01*
X94690001Y-177438476D01*
X94690001Y-177438468D01*
X94694282Y-177394999D01*
X94690001Y-177351530D01*
X94690001Y-176601278D01*
X109360000Y-176601278D01*
X109360000Y-176898722D01*
X109418029Y-177190451D01*
X109531856Y-177465253D01*
X109697107Y-177712569D01*
X109907431Y-177922893D01*
X110154747Y-178088144D01*
X110429549Y-178201971D01*
X110721278Y-178260000D01*
X111018722Y-178260000D01*
X111310451Y-178201971D01*
X111585253Y-178088144D01*
X111832569Y-177922893D01*
X112042893Y-177712569D01*
X112208144Y-177465253D01*
X112321971Y-177190451D01*
X112380000Y-176898722D01*
X112380000Y-176601278D01*
X112321971Y-176309549D01*
X112208144Y-176034747D01*
X112164882Y-175970000D01*
X112313345Y-175970000D01*
X112653373Y-175902364D01*
X112973673Y-175769692D01*
X113261935Y-175577081D01*
X113507081Y-175331935D01*
X113699692Y-175043673D01*
X113832364Y-174723373D01*
X113900000Y-174383345D01*
X113900000Y-174036655D01*
X113832364Y-173696627D01*
X113699692Y-173376327D01*
X113507081Y-173088065D01*
X113261935Y-172842919D01*
X112973673Y-172650308D01*
X112653373Y-172517636D01*
X112313345Y-172450000D01*
X111966655Y-172450000D01*
X111626627Y-172517636D01*
X111306327Y-172650308D01*
X111018065Y-172842919D01*
X110772919Y-173088065D01*
X110580308Y-173376327D01*
X110447636Y-173696627D01*
X110380000Y-174036655D01*
X110380000Y-174383345D01*
X110447636Y-174723373D01*
X110580308Y-175043673D01*
X110712638Y-175241719D01*
X110429549Y-175298029D01*
X110154747Y-175411856D01*
X109907431Y-175577107D01*
X109697107Y-175787431D01*
X109531856Y-176034747D01*
X109418029Y-176309549D01*
X109360000Y-176601278D01*
X94690001Y-176601278D01*
X94690001Y-169014077D01*
X95468002Y-168236076D01*
X96709100Y-168236076D01*
X96709100Y-168753924D01*
X96810127Y-169261822D01*
X97008299Y-169740251D01*
X97296000Y-170170826D01*
X97662174Y-170537000D01*
X98092749Y-170824701D01*
X98571178Y-171022873D01*
X99079076Y-171123900D01*
X99596924Y-171123900D01*
X100104822Y-171022873D01*
X100583251Y-170824701D01*
X101013826Y-170537000D01*
X101380000Y-170170826D01*
X101667701Y-169740251D01*
X101865873Y-169261822D01*
X101966900Y-168753924D01*
X101966900Y-168236076D01*
X101865873Y-167728178D01*
X101667701Y-167249749D01*
X101380000Y-166819174D01*
X101013826Y-166453000D01*
X100583251Y-166165299D01*
X100104822Y-165967127D01*
X99596924Y-165866100D01*
X99079076Y-165866100D01*
X98571178Y-165967127D01*
X98092749Y-166165299D01*
X97662174Y-166453000D01*
X97296000Y-166819174D01*
X97008299Y-167249749D01*
X96810127Y-167728178D01*
X96709100Y-168236076D01*
X95468002Y-168236076D01*
X98815049Y-164889030D01*
X98848817Y-164861317D01*
X98876533Y-164827546D01*
X98959410Y-164726560D01*
X99041588Y-164572814D01*
X99041589Y-164572813D01*
X99092195Y-164405990D01*
X99095683Y-164370572D01*
X99172500Y-164370572D01*
X99296982Y-164358312D01*
X99416680Y-164322002D01*
X99526994Y-164263037D01*
X99623685Y-164183685D01*
X99703037Y-164086994D01*
X99762002Y-163976680D01*
X99798312Y-163856982D01*
X99810572Y-163732500D01*
X99810572Y-161827500D01*
X99798312Y-161703018D01*
X99762002Y-161583320D01*
X99703037Y-161473006D01*
X99623685Y-161376315D01*
X99526994Y-161296963D01*
X99416680Y-161237998D01*
X99296982Y-161201688D01*
X99172500Y-161189428D01*
X99105000Y-161189428D01*
X99105000Y-160413552D01*
X99988951Y-159529602D01*
X100022718Y-159501890D01*
X100091437Y-159418157D01*
X100133312Y-159367132D01*
X100179134Y-159281404D01*
X100215490Y-159213386D01*
X100266096Y-159046563D01*
X100278901Y-158916550D01*
X100278901Y-158916542D01*
X100283182Y-158873073D01*
X100278901Y-158829604D01*
X100278901Y-157551278D01*
X100520000Y-157551278D01*
X100520000Y-157848722D01*
X100578029Y-158140451D01*
X100691856Y-158415253D01*
X100857107Y-158662569D01*
X101067431Y-158872893D01*
X101314747Y-159038144D01*
X101589549Y-159151971D01*
X101881278Y-159210000D01*
X102178722Y-159210000D01*
X102470451Y-159151971D01*
X102745253Y-159038144D01*
X102992569Y-158872893D01*
X103202893Y-158662569D01*
X103368144Y-158415253D01*
X103481971Y-158140451D01*
X103540000Y-157848722D01*
X103540000Y-157551278D01*
X109410000Y-157551278D01*
X109410000Y-157848722D01*
X109468029Y-158140451D01*
X109581856Y-158415253D01*
X109747107Y-158662569D01*
X109957431Y-158872893D01*
X110204747Y-159038144D01*
X110479549Y-159151971D01*
X110771278Y-159210000D01*
X111068722Y-159210000D01*
X111360451Y-159151971D01*
X111635253Y-159038144D01*
X111882569Y-158872893D01*
X112092893Y-158662569D01*
X112258144Y-158415253D01*
X112371971Y-158140451D01*
X112430000Y-157848722D01*
X112430000Y-157551278D01*
X112371971Y-157259549D01*
X112258144Y-156984747D01*
X112214882Y-156920000D01*
X112363345Y-156920000D01*
X112703373Y-156852364D01*
X113023673Y-156719692D01*
X113311935Y-156527081D01*
X113557081Y-156281935D01*
X113749692Y-155993673D01*
X113882364Y-155673373D01*
X113950000Y-155333345D01*
X113950000Y-154986655D01*
X113882364Y-154646627D01*
X113749692Y-154326327D01*
X113557081Y-154038065D01*
X113311935Y-153792919D01*
X113023673Y-153600308D01*
X112703373Y-153467636D01*
X112363345Y-153400000D01*
X112016655Y-153400000D01*
X111676627Y-153467636D01*
X111356327Y-153600308D01*
X111068065Y-153792919D01*
X110822919Y-154038065D01*
X110630308Y-154326327D01*
X110497636Y-154646627D01*
X110430000Y-154986655D01*
X110430000Y-155333345D01*
X110497636Y-155673373D01*
X110630308Y-155993673D01*
X110762638Y-156191719D01*
X110479549Y-156248029D01*
X110204747Y-156361856D01*
X109957431Y-156527107D01*
X109747107Y-156737431D01*
X109581856Y-156984747D01*
X109468029Y-157259549D01*
X109410000Y-157551278D01*
X103540000Y-157551278D01*
X103481971Y-157259549D01*
X103368144Y-156984747D01*
X103202893Y-156737431D01*
X102992569Y-156527107D01*
X102745253Y-156361856D01*
X102470451Y-156248029D01*
X102178722Y-156190000D01*
X101881278Y-156190000D01*
X101589549Y-156248029D01*
X101314747Y-156361856D01*
X101067431Y-156527107D01*
X100857107Y-156737431D01*
X100691856Y-156984747D01*
X100578029Y-157259549D01*
X100520000Y-157551278D01*
X100278901Y-157551278D01*
X100278901Y-154898368D01*
X100283182Y-154854902D01*
X100278901Y-154811436D01*
X100278901Y-154811426D01*
X100266096Y-154681413D01*
X100215490Y-154514590D01*
X100133312Y-154360844D01*
X100093525Y-154312364D01*
X100070654Y-154284495D01*
X100323673Y-154179692D01*
X100611935Y-153987081D01*
X100857081Y-153741935D01*
X101049692Y-153453673D01*
X101182364Y-153133373D01*
X101250000Y-152793345D01*
X101250000Y-152446655D01*
X101182364Y-152106627D01*
X101151848Y-152032954D01*
X101178798Y-152006004D01*
X101178803Y-152005998D01*
X107011023Y-146173779D01*
X107040021Y-146149981D01*
X107134994Y-146034256D01*
X107205566Y-145902227D01*
X107249023Y-145758966D01*
X107260020Y-145647313D01*
X107263697Y-145609980D01*
X107260020Y-145572647D01*
X107260020Y-138451278D01*
X109410000Y-138451278D01*
X109410000Y-138748722D01*
X109468029Y-139040451D01*
X109581856Y-139315253D01*
X109747107Y-139562569D01*
X109957431Y-139772893D01*
X110204747Y-139938144D01*
X110479549Y-140051971D01*
X110771278Y-140110000D01*
X111068722Y-140110000D01*
X111360451Y-140051971D01*
X111635253Y-139938144D01*
X111882569Y-139772893D01*
X112092893Y-139562569D01*
X112258144Y-139315253D01*
X112371971Y-139040451D01*
X112430000Y-138748722D01*
X112430000Y-138451278D01*
X112371971Y-138159549D01*
X112258144Y-137884747D01*
X112214882Y-137820000D01*
X112363345Y-137820000D01*
X112703373Y-137752364D01*
X113023673Y-137619692D01*
X113311935Y-137427081D01*
X113557081Y-137181935D01*
X113749692Y-136893673D01*
X113882364Y-136573373D01*
X113950000Y-136233345D01*
X113950000Y-135886655D01*
X113882364Y-135546627D01*
X113749692Y-135226327D01*
X113557081Y-134938065D01*
X113311935Y-134692919D01*
X113023673Y-134500308D01*
X112703373Y-134367636D01*
X112363345Y-134300000D01*
X112016655Y-134300000D01*
X111676627Y-134367636D01*
X111356327Y-134500308D01*
X111068065Y-134692919D01*
X110822919Y-134938065D01*
X110630308Y-135226327D01*
X110497636Y-135546627D01*
X110430000Y-135886655D01*
X110430000Y-136233345D01*
X110497636Y-136573373D01*
X110630308Y-136893673D01*
X110762638Y-137091719D01*
X110479549Y-137148029D01*
X110204747Y-137261856D01*
X109957431Y-137427107D01*
X109747107Y-137637431D01*
X109581856Y-137884747D01*
X109468029Y-138159549D01*
X109410000Y-138451278D01*
X107260020Y-138451278D01*
X107260020Y-119401278D01*
X109410000Y-119401278D01*
X109410000Y-119698722D01*
X109468029Y-119990451D01*
X109581856Y-120265253D01*
X109747107Y-120512569D01*
X109957431Y-120722893D01*
X110204747Y-120888144D01*
X110479549Y-121001971D01*
X110771278Y-121060000D01*
X111068722Y-121060000D01*
X111360451Y-121001971D01*
X111635253Y-120888144D01*
X111882569Y-120722893D01*
X112092893Y-120512569D01*
X112258144Y-120265253D01*
X112371971Y-119990451D01*
X112430000Y-119698722D01*
X112430000Y-119401278D01*
X112371971Y-119109549D01*
X112258144Y-118834747D01*
X112214882Y-118770000D01*
X112363345Y-118770000D01*
X112703373Y-118702364D01*
X113023673Y-118569692D01*
X113311935Y-118377081D01*
X113557081Y-118131935D01*
X113749692Y-117843673D01*
X113882364Y-117523373D01*
X113950000Y-117183345D01*
X113950000Y-116836655D01*
X113882364Y-116496627D01*
X113749692Y-116176327D01*
X113557081Y-115888065D01*
X113311935Y-115642919D01*
X113023673Y-115450308D01*
X112703373Y-115317636D01*
X112363345Y-115250000D01*
X112016655Y-115250000D01*
X111676627Y-115317636D01*
X111356327Y-115450308D01*
X111068065Y-115642919D01*
X110822919Y-115888065D01*
X110630308Y-116176327D01*
X110497636Y-116496627D01*
X110430000Y-116836655D01*
X110430000Y-117183345D01*
X110497636Y-117523373D01*
X110630308Y-117843673D01*
X110762638Y-118041719D01*
X110479549Y-118098029D01*
X110204747Y-118211856D01*
X109957431Y-118377107D01*
X109747107Y-118587431D01*
X109581856Y-118834747D01*
X109468029Y-119109549D01*
X109410000Y-119401278D01*
X107260020Y-119401278D01*
X107260020Y-100351278D01*
X109410000Y-100351278D01*
X109410000Y-100648722D01*
X109468029Y-100940451D01*
X109581856Y-101215253D01*
X109747107Y-101462569D01*
X109957431Y-101672893D01*
X110204747Y-101838144D01*
X110479549Y-101951971D01*
X110771278Y-102010000D01*
X111068722Y-102010000D01*
X111360451Y-101951971D01*
X111635253Y-101838144D01*
X111882569Y-101672893D01*
X112092893Y-101462569D01*
X112258144Y-101215253D01*
X112371971Y-100940451D01*
X112430000Y-100648722D01*
X112430000Y-100351278D01*
X112408080Y-100241076D01*
X113371100Y-100241076D01*
X113371100Y-100758924D01*
X113472127Y-101266822D01*
X113670299Y-101745251D01*
X113958000Y-102175826D01*
X114324174Y-102542000D01*
X114754749Y-102829701D01*
X115233178Y-103027873D01*
X115741076Y-103128900D01*
X116258924Y-103128900D01*
X116766822Y-103027873D01*
X117245251Y-102829701D01*
X117675826Y-102542000D01*
X118042000Y-102175826D01*
X118329701Y-101745251D01*
X118527873Y-101266822D01*
X118628900Y-100758924D01*
X118628900Y-100351278D01*
X119570000Y-100351278D01*
X119570000Y-100648722D01*
X119628029Y-100940451D01*
X119741856Y-101215253D01*
X119907107Y-101462569D01*
X120117431Y-101672893D01*
X120364747Y-101838144D01*
X120639549Y-101951971D01*
X120931278Y-102010000D01*
X121228722Y-102010000D01*
X121520451Y-101951971D01*
X121795253Y-101838144D01*
X122042569Y-101672893D01*
X122252893Y-101462569D01*
X122418144Y-101215253D01*
X122531971Y-100940451D01*
X122590000Y-100648722D01*
X122590000Y-100351278D01*
X122531971Y-100059549D01*
X122418144Y-99784747D01*
X122252893Y-99537431D01*
X122042569Y-99327107D01*
X121795253Y-99161856D01*
X121520451Y-99048029D01*
X121228722Y-98990000D01*
X120931278Y-98990000D01*
X120639549Y-99048029D01*
X120364747Y-99161856D01*
X120117431Y-99327107D01*
X119907107Y-99537431D01*
X119741856Y-99784747D01*
X119628029Y-100059549D01*
X119570000Y-100351278D01*
X118628900Y-100351278D01*
X118628900Y-100241076D01*
X118527873Y-99733178D01*
X118329701Y-99254749D01*
X118042000Y-98824174D01*
X117675826Y-98458000D01*
X117245251Y-98170299D01*
X116766822Y-97972127D01*
X116258924Y-97871100D01*
X115741076Y-97871100D01*
X115233178Y-97972127D01*
X114754749Y-98170299D01*
X114324174Y-98458000D01*
X113958000Y-98824174D01*
X113670299Y-99254749D01*
X113472127Y-99733178D01*
X113371100Y-100241076D01*
X112408080Y-100241076D01*
X112371971Y-100059549D01*
X112258144Y-99784747D01*
X112214882Y-99720000D01*
X112363345Y-99720000D01*
X112703373Y-99652364D01*
X113023673Y-99519692D01*
X113311935Y-99327081D01*
X113557081Y-99081935D01*
X113749692Y-98793673D01*
X113882364Y-98473373D01*
X113950000Y-98133345D01*
X113950000Y-97786655D01*
X113882364Y-97446627D01*
X113749692Y-97126327D01*
X113557081Y-96838065D01*
X113311935Y-96592919D01*
X113023673Y-96400308D01*
X112703373Y-96267636D01*
X112363345Y-96200000D01*
X112016655Y-96200000D01*
X111676627Y-96267636D01*
X111356327Y-96400308D01*
X111068065Y-96592919D01*
X110822919Y-96838065D01*
X110630308Y-97126327D01*
X110497636Y-97446627D01*
X110430000Y-97786655D01*
X110430000Y-98133345D01*
X110497636Y-98473373D01*
X110630308Y-98793673D01*
X110762638Y-98991719D01*
X110479549Y-99048029D01*
X110204747Y-99161856D01*
X109957431Y-99327107D01*
X109747107Y-99537431D01*
X109581856Y-99784747D01*
X109468029Y-100059549D01*
X109410000Y-100351278D01*
X107260020Y-100351278D01*
X107260020Y-98051191D01*
X119711003Y-85600209D01*
X119740001Y-85576411D01*
X119766332Y-85544327D01*
X119834974Y-85460687D01*
X119905546Y-85328657D01*
X119949003Y-85185396D01*
X119960000Y-85073743D01*
X119960000Y-85073733D01*
X119963676Y-85036410D01*
X119960000Y-84999087D01*
X119960000Y-69638043D01*
X120114759Y-69534637D01*
X120314637Y-69334759D01*
X120471680Y-69099727D01*
X120579853Y-68838574D01*
X120635000Y-68561335D01*
X120635000Y-68278665D01*
X120579853Y-68001426D01*
X120471680Y-67740273D01*
X120314637Y-67505241D01*
X120114759Y-67305363D01*
X119879727Y-67148320D01*
X119618574Y-67040147D01*
X119341335Y-66985000D01*
X119058665Y-66985000D01*
X118781426Y-67040147D01*
X118520273Y-67148320D01*
X118285241Y-67305363D01*
X118085363Y-67505241D01*
X117928320Y-67740273D01*
X117820147Y-68001426D01*
X117765000Y-68278665D01*
X117765000Y-68561335D01*
X117820147Y-68838574D01*
X117928320Y-69099727D01*
X118085363Y-69334759D01*
X118285241Y-69534637D01*
X118440000Y-69638043D01*
X118440001Y-84721607D01*
X117460000Y-85701608D01*
X117460000Y-67638043D01*
X117614759Y-67534637D01*
X117814637Y-67334759D01*
X117971680Y-67099727D01*
X118079853Y-66838574D01*
X118135000Y-66561335D01*
X118135000Y-66278665D01*
X118079853Y-66001426D01*
X117971680Y-65740273D01*
X117814637Y-65505241D01*
X117614759Y-65305363D01*
X117379727Y-65148320D01*
X117118574Y-65040147D01*
X116841335Y-64985000D01*
X116558665Y-64985000D01*
X116281426Y-65040147D01*
X116020273Y-65148320D01*
X115785241Y-65305363D01*
X115585363Y-65505241D01*
X115428320Y-65740273D01*
X115320147Y-66001426D01*
X115265000Y-66278665D01*
X115265000Y-66561335D01*
X115320147Y-66838574D01*
X115428320Y-67099727D01*
X115585363Y-67334759D01*
X115785241Y-67534637D01*
X115940000Y-67638043D01*
X115940001Y-86585197D01*
X106360000Y-96165199D01*
X106360000Y-95314801D01*
X114711003Y-86963799D01*
X114740001Y-86940001D01*
X114834974Y-86824276D01*
X114905546Y-86692247D01*
X114949003Y-86548986D01*
X114960000Y-86437333D01*
X114960000Y-86437325D01*
X114963676Y-86400000D01*
X114960000Y-86362675D01*
X114960000Y-65638043D01*
X115114759Y-65534637D01*
X115314637Y-65334759D01*
X115471680Y-65099727D01*
X115579853Y-64838574D01*
X115635000Y-64561335D01*
X115635000Y-64278665D01*
X115579853Y-64001426D01*
X115471680Y-63740273D01*
X115314637Y-63505241D01*
X115114759Y-63305363D01*
X114879727Y-63148320D01*
X114618574Y-63040147D01*
X114341335Y-62985000D01*
X114058665Y-62985000D01*
X113781426Y-63040147D01*
X113520273Y-63148320D01*
X113285241Y-63305363D01*
X113085363Y-63505241D01*
X112928320Y-63740273D01*
X112820147Y-64001426D01*
X112765000Y-64278665D01*
X112765000Y-64561335D01*
X112820147Y-64838574D01*
X112928320Y-65099727D01*
X113085363Y-65334759D01*
X113285241Y-65534637D01*
X113440000Y-65638043D01*
X113440001Y-86085197D01*
X105089003Y-94436196D01*
X105059999Y-94459999D01*
X105004871Y-94527174D01*
X104965026Y-94575724D01*
X104959359Y-94586327D01*
X104894454Y-94707754D01*
X104850997Y-94851015D01*
X104840000Y-94962668D01*
X104840000Y-94962678D01*
X104836324Y-95000000D01*
X104840000Y-95037322D01*
X104840001Y-108045197D01*
X100077046Y-112808152D01*
X100003373Y-112777636D01*
X99663345Y-112710000D01*
X99316655Y-112710000D01*
X98976627Y-112777636D01*
X98799999Y-112850797D01*
X98799999Y-107704079D01*
X98815045Y-107689033D01*
X98848817Y-107661317D01*
X98959411Y-107526559D01*
X99041589Y-107372813D01*
X99092195Y-107205990D01*
X99095683Y-107170572D01*
X99172500Y-107170572D01*
X99296982Y-107158312D01*
X99416680Y-107122002D01*
X99526994Y-107063037D01*
X99623685Y-106983685D01*
X99703037Y-106886994D01*
X99762002Y-106776680D01*
X99798312Y-106656982D01*
X99810572Y-106532500D01*
X99810572Y-104627500D01*
X99798312Y-104503018D01*
X99762002Y-104383320D01*
X99703037Y-104273006D01*
X99623685Y-104176315D01*
X99526994Y-104096963D01*
X99416680Y-104037998D01*
X99296982Y-104001688D01*
X99172500Y-103989428D01*
X97267500Y-103989428D01*
X97143018Y-104001688D01*
X97023320Y-104037998D01*
X96913006Y-104096963D01*
X96816315Y-104176315D01*
X96736963Y-104273006D01*
X96695549Y-104350485D01*
X96691972Y-104346908D01*
X96431963Y-104173176D01*
X96143057Y-104053507D01*
X95836355Y-103992500D01*
X95523645Y-103992500D01*
X95216943Y-104053507D01*
X94928037Y-104173176D01*
X94668028Y-104346908D01*
X94446908Y-104568028D01*
X94273176Y-104828037D01*
X94153507Y-105116943D01*
X94092500Y-105423645D01*
X94092500Y-105736355D01*
X94153507Y-106043057D01*
X94273176Y-106331963D01*
X94446908Y-106591972D01*
X94668028Y-106813092D01*
X94928037Y-106986824D01*
X95216943Y-107106493D01*
X95523645Y-107167500D01*
X95836355Y-107167500D01*
X96143057Y-107106493D01*
X96431963Y-106986824D01*
X96691972Y-106813092D01*
X96695549Y-106809515D01*
X96736963Y-106886994D01*
X96816315Y-106983685D01*
X96913006Y-107063037D01*
X97023320Y-107122002D01*
X97052832Y-107130954D01*
X97042804Y-107164011D01*
X97025718Y-107337501D01*
X97030000Y-107380980D01*
X97029999Y-115182532D01*
X97025718Y-115226001D01*
X97029999Y-115269470D01*
X97029999Y-115269477D01*
X97042804Y-115399490D01*
X97093410Y-115566313D01*
X97175588Y-115720059D01*
X97286182Y-115854818D01*
X97319955Y-115882535D01*
X98508902Y-117071483D01*
X98508902Y-117429874D01*
X98195251Y-117220299D01*
X97716822Y-117022127D01*
X97208924Y-116921100D01*
X96691076Y-116921100D01*
X96183178Y-117022127D01*
X95704749Y-117220299D01*
X95274174Y-117508000D01*
X94908000Y-117874174D01*
X94620299Y-118304749D01*
X94422127Y-118783178D01*
X94321100Y-119291076D01*
X94321100Y-119808924D01*
X94422127Y-120316822D01*
X94620299Y-120795251D01*
X94908000Y-121225826D01*
X95274174Y-121592000D01*
X95704749Y-121879701D01*
X96183178Y-122077873D01*
X96691076Y-122178900D01*
X97208924Y-122178900D01*
X97335001Y-122153822D01*
X97335001Y-123039428D01*
X97267500Y-123039428D01*
X97143018Y-123051688D01*
X97023320Y-123087998D01*
X96913006Y-123146963D01*
X96816315Y-123226315D01*
X96736963Y-123323006D01*
X96695549Y-123400485D01*
X96691972Y-123396908D01*
X96431963Y-123223176D01*
X96143057Y-123103507D01*
X95836355Y-123042500D01*
X95523645Y-123042500D01*
X95216943Y-123103507D01*
X94928037Y-123223176D01*
X94668028Y-123396908D01*
X94446908Y-123618028D01*
X94273176Y-123878037D01*
X94153507Y-124166943D01*
X94092500Y-124473645D01*
X94092500Y-124786355D01*
X94153507Y-125093057D01*
X94273176Y-125381963D01*
X94446908Y-125641972D01*
X94668028Y-125863092D01*
X94928037Y-126036824D01*
X95216943Y-126156493D01*
X95523645Y-126217500D01*
X95836355Y-126217500D01*
X96143057Y-126156493D01*
X96431963Y-126036824D01*
X96691972Y-125863092D01*
X96695549Y-125859515D01*
X96736963Y-125936994D01*
X96816315Y-126033685D01*
X96913006Y-126113037D01*
X97023320Y-126172002D01*
X97052832Y-126180954D01*
X97042804Y-126214011D01*
X97025718Y-126387501D01*
X97030000Y-126430980D01*
X97029999Y-134232532D01*
X97025718Y-134276001D01*
X97029999Y-134319470D01*
X97029999Y-134319477D01*
X97042804Y-134449490D01*
X97093410Y-134616313D01*
X97175588Y-134770059D01*
X97286182Y-134904818D01*
X97319955Y-134932535D01*
X98508902Y-136121483D01*
X98508902Y-136479874D01*
X98195251Y-136270299D01*
X97716822Y-136072127D01*
X97208924Y-135971100D01*
X96691076Y-135971100D01*
X96183178Y-136072127D01*
X95704749Y-136270299D01*
X95274174Y-136558000D01*
X94908000Y-136924174D01*
X94620299Y-137354749D01*
X94422127Y-137833178D01*
X94321100Y-138341076D01*
X94321100Y-138858924D01*
X94422127Y-139366822D01*
X94620299Y-139845251D01*
X94908000Y-140275826D01*
X95274174Y-140642000D01*
X95704749Y-140929701D01*
X96183178Y-141127873D01*
X96691076Y-141228900D01*
X97208924Y-141228900D01*
X97716822Y-141127873D01*
X98195251Y-140929701D01*
X98409129Y-140786792D01*
X97624951Y-141570971D01*
X97591184Y-141598683D01*
X97563471Y-141632451D01*
X97563468Y-141632454D01*
X97480590Y-141733441D01*
X97398412Y-141887187D01*
X97347805Y-142054010D01*
X97344317Y-142089428D01*
X97267500Y-142089428D01*
X97143018Y-142101688D01*
X97023320Y-142137998D01*
X96913006Y-142196963D01*
X96816315Y-142276315D01*
X96736963Y-142373006D01*
X96695549Y-142450485D01*
X96691972Y-142446908D01*
X96431963Y-142273176D01*
X96143057Y-142153507D01*
X95836355Y-142092500D01*
X95523645Y-142092500D01*
X95216943Y-142153507D01*
X94928037Y-142273176D01*
X94668028Y-142446908D01*
X94446908Y-142668028D01*
X94273176Y-142928037D01*
X94153507Y-143216943D01*
X94092500Y-143523645D01*
X94092500Y-143836355D01*
X94153507Y-144143057D01*
X94273176Y-144431963D01*
X94446908Y-144691972D01*
X94668028Y-144913092D01*
X94928037Y-145086824D01*
X95216943Y-145206493D01*
X95523645Y-145267500D01*
X95836355Y-145267500D01*
X96143057Y-145206493D01*
X96431963Y-145086824D01*
X96691972Y-144913092D01*
X96695549Y-144909515D01*
X96736963Y-144986994D01*
X96816315Y-145083685D01*
X96913006Y-145163037D01*
X97023320Y-145222002D01*
X97052832Y-145230954D01*
X97042804Y-145264011D01*
X97025718Y-145437501D01*
X97030000Y-145480980D01*
X97029999Y-153332532D01*
X97025718Y-153376001D01*
X97029999Y-153419470D01*
X97029999Y-153419477D01*
X97042804Y-153549490D01*
X97093410Y-153716313D01*
X97175588Y-153870059D01*
X97286182Y-154004818D01*
X97319955Y-154032535D01*
X98508902Y-155221483D01*
X98508902Y-155579874D01*
X98195251Y-155370299D01*
X97716822Y-155172127D01*
X97208924Y-155071100D01*
X96691076Y-155071100D01*
X96183178Y-155172127D01*
X95704749Y-155370299D01*
X95274174Y-155658000D01*
X94908000Y-156024174D01*
X94620299Y-156454749D01*
X94422127Y-156933178D01*
X94321100Y-157441076D01*
X94321100Y-157958924D01*
X94422127Y-158466822D01*
X94620299Y-158945251D01*
X94908000Y-159375826D01*
X95274174Y-159742000D01*
X95704749Y-160029701D01*
X96183178Y-160227873D01*
X96691076Y-160328900D01*
X97208924Y-160328900D01*
X97335001Y-160303822D01*
X97335001Y-161189428D01*
X97267500Y-161189428D01*
X97143018Y-161201688D01*
X97023320Y-161237998D01*
X96913006Y-161296963D01*
X96816315Y-161376315D01*
X96736963Y-161473006D01*
X96695549Y-161550485D01*
X96691972Y-161546908D01*
X96431963Y-161373176D01*
X96143057Y-161253507D01*
X95836355Y-161192500D01*
X95523645Y-161192500D01*
X95216943Y-161253507D01*
X94928037Y-161373176D01*
X94668028Y-161546908D01*
X94446908Y-161768028D01*
X94273176Y-162028037D01*
X94153507Y-162316943D01*
X94092500Y-162623645D01*
X94092500Y-162936355D01*
X94153507Y-163243057D01*
X94273176Y-163531963D01*
X94446908Y-163791972D01*
X94668028Y-164013092D01*
X94928037Y-164186824D01*
X95216943Y-164306493D01*
X95523645Y-164367500D01*
X95836355Y-164367500D01*
X96143057Y-164306493D01*
X96431963Y-164186824D01*
X96691972Y-164013092D01*
X96695549Y-164009515D01*
X96736963Y-164086994D01*
X96816315Y-164183685D01*
X96913006Y-164263037D01*
X96929218Y-164271703D01*
X93209957Y-167990965D01*
X93176184Y-168018682D01*
X93065590Y-168153441D01*
X92983412Y-168307187D01*
X92963480Y-168372893D01*
X92942251Y-168442876D01*
X92932806Y-168474010D01*
X92920001Y-168604023D01*
X92920001Y-168604030D01*
X92915720Y-168647499D01*
X92920001Y-168690968D01*
X92920002Y-175297940D01*
X92628722Y-175240000D01*
X92331278Y-175240000D01*
X92039549Y-175298029D01*
X91764747Y-175411856D01*
X91517431Y-175577107D01*
X91307107Y-175787431D01*
X91141856Y-176034747D01*
X91028029Y-176309549D01*
X90970000Y-176601278D01*
X90970000Y-176898722D01*
X91028029Y-177190451D01*
X91141856Y-177465253D01*
X91307107Y-177712569D01*
X91517431Y-177922893D01*
X91764747Y-178088144D01*
X91832297Y-178116124D01*
X91639521Y-178308901D01*
X89520127Y-178308901D01*
X89729701Y-177995251D01*
X89927873Y-177516822D01*
X90028900Y-177008924D01*
X90028900Y-176491076D01*
X89927873Y-175983178D01*
X89729701Y-175504749D01*
X89442000Y-175074174D01*
X89075826Y-174708000D01*
X88645251Y-174420299D01*
X88166822Y-174222127D01*
X87658924Y-174121100D01*
X87141076Y-174121100D01*
X86633178Y-174222127D01*
X86154749Y-174420299D01*
X85724174Y-174708000D01*
X85358000Y-175074174D01*
X85070299Y-175504749D01*
X84872127Y-175983178D01*
X84771100Y-176491076D01*
X84771100Y-177008924D01*
X84872127Y-177516822D01*
X85070299Y-177995251D01*
X85279873Y-178308901D01*
X82406752Y-178308901D01*
X82357697Y-178260000D01*
X82468722Y-178260000D01*
X82760451Y-178201971D01*
X83035253Y-178088144D01*
X83282569Y-177922893D01*
X83492893Y-177712569D01*
X83658144Y-177465253D01*
X83771971Y-177190451D01*
X83830000Y-176898722D01*
X83830000Y-176601278D01*
X83771971Y-176309549D01*
X83658144Y-176034747D01*
X83614882Y-175970000D01*
X83763345Y-175970000D01*
X84103373Y-175902364D01*
X84423673Y-175769692D01*
X84711935Y-175577081D01*
X84957081Y-175331935D01*
X85149692Y-175043673D01*
X85282364Y-174723373D01*
X85350000Y-174383345D01*
X85350000Y-174036655D01*
X85282364Y-173696627D01*
X85149692Y-173376327D01*
X84957081Y-173088065D01*
X84711935Y-172842919D01*
X84423673Y-172650308D01*
X84103373Y-172517636D01*
X83763345Y-172450000D01*
X83416655Y-172450000D01*
X83076627Y-172517636D01*
X82756327Y-172650308D01*
X82468065Y-172842919D01*
X82222919Y-173088065D01*
X82030308Y-173376327D01*
X81897636Y-173696627D01*
X81830000Y-174036655D01*
X81830000Y-174383345D01*
X81897636Y-174723373D01*
X82030308Y-175043673D01*
X82162638Y-175241719D01*
X81879549Y-175298029D01*
X81604747Y-175411856D01*
X81357431Y-175577107D01*
X81147107Y-175787431D01*
X80981856Y-176034747D01*
X80868029Y-176309549D01*
X80810000Y-176601278D01*
X80810000Y-176712332D01*
X80055000Y-175957332D01*
X80055000Y-164370572D01*
X80122500Y-164370572D01*
X80246982Y-164358312D01*
X80366680Y-164322002D01*
X80476994Y-164263037D01*
X80573685Y-164183685D01*
X80653037Y-164086994D01*
X80712002Y-163976680D01*
X80748312Y-163856982D01*
X80760572Y-163732500D01*
X80760572Y-161827500D01*
X80748312Y-161703018D01*
X80712002Y-161583320D01*
X80653037Y-161473006D01*
X80573685Y-161376315D01*
X80476994Y-161296963D01*
X80460781Y-161288297D01*
X80938950Y-160810129D01*
X80972718Y-160782416D01*
X81037479Y-160703506D01*
X81083312Y-160647658D01*
X81130001Y-160560308D01*
X81165490Y-160493912D01*
X81216096Y-160327089D01*
X81228901Y-160197076D01*
X81228901Y-160197068D01*
X81233182Y-160153599D01*
X81228901Y-160110130D01*
X81228901Y-157551278D01*
X81470000Y-157551278D01*
X81470000Y-157848722D01*
X81528029Y-158140451D01*
X81641856Y-158415253D01*
X81807107Y-158662569D01*
X82017431Y-158872893D01*
X82264747Y-159038144D01*
X82539549Y-159151971D01*
X82831278Y-159210000D01*
X83128722Y-159210000D01*
X83420451Y-159151971D01*
X83695253Y-159038144D01*
X83942569Y-158872893D01*
X84152893Y-158662569D01*
X84318144Y-158415253D01*
X84431971Y-158140451D01*
X84490000Y-157848722D01*
X84490000Y-157551278D01*
X84431971Y-157259549D01*
X84318144Y-156984747D01*
X84152893Y-156737431D01*
X83942569Y-156527107D01*
X83695253Y-156361856D01*
X83420451Y-156248029D01*
X83128722Y-156190000D01*
X82831278Y-156190000D01*
X82539549Y-156248029D01*
X82264747Y-156361856D01*
X82017431Y-156527107D01*
X81807107Y-156737431D01*
X81641856Y-156984747D01*
X81528029Y-157259549D01*
X81470000Y-157551278D01*
X81228901Y-157551278D01*
X81228901Y-156570392D01*
X81233182Y-156526926D01*
X81228901Y-156483460D01*
X81228901Y-156483450D01*
X81216096Y-156353437D01*
X81165490Y-156186614D01*
X81083312Y-156032868D01*
X81051145Y-155993673D01*
X81000433Y-155931880D01*
X81000431Y-155931878D01*
X80972718Y-155898110D01*
X80938951Y-155870398D01*
X79749999Y-154681447D01*
X79749999Y-154239203D01*
X79926627Y-154312364D01*
X80266655Y-154380000D01*
X80613345Y-154380000D01*
X80953373Y-154312364D01*
X81273673Y-154179692D01*
X81561935Y-153987081D01*
X81807081Y-153741935D01*
X81999692Y-153453673D01*
X82132364Y-153133373D01*
X82200000Y-152793345D01*
X82200000Y-152446655D01*
X82132364Y-152106627D01*
X82101848Y-152032954D01*
X82128798Y-152006004D01*
X82128803Y-152005998D01*
X88961013Y-145173789D01*
X88990011Y-145149991D01*
X89016342Y-145117907D01*
X89084984Y-145034267D01*
X89155556Y-144902237D01*
X89173690Y-144842455D01*
X89199013Y-144758976D01*
X89210010Y-144647323D01*
X89210010Y-144647313D01*
X89213686Y-144609990D01*
X89210010Y-144572667D01*
X89210010Y-90864791D01*
X89265002Y-90809799D01*
X89265001Y-164869711D01*
X88842876Y-164587656D01*
X88326939Y-164373948D01*
X87779223Y-164265000D01*
X87220777Y-164265000D01*
X86673061Y-164373948D01*
X86157124Y-164587656D01*
X85692793Y-164897912D01*
X85297912Y-165292793D01*
X84987656Y-165757124D01*
X84773948Y-166273061D01*
X84665000Y-166820777D01*
X84665000Y-167379223D01*
X84773948Y-167926939D01*
X84987656Y-168442876D01*
X85297912Y-168907207D01*
X85692793Y-169302088D01*
X86157124Y-169612344D01*
X86673061Y-169826052D01*
X87220777Y-169935000D01*
X87779223Y-169935000D01*
X88326939Y-169826052D01*
X88842876Y-169612344D01*
X89265001Y-169330289D01*
X89265001Y-169729615D01*
X89234454Y-169786764D01*
X89190998Y-169930025D01*
X89176324Y-170079010D01*
X89176542Y-170081224D01*
X89106327Y-170110308D01*
X88818065Y-170302919D01*
X88572919Y-170548065D01*
X88380308Y-170836327D01*
X88247636Y-171156627D01*
X88180000Y-171496655D01*
X88180000Y-171843345D01*
X88247636Y-172183373D01*
X88380308Y-172503673D01*
X88572919Y-172791935D01*
X88818065Y-173037081D01*
X89106327Y-173229692D01*
X89426627Y-173362364D01*
X89766655Y-173430000D01*
X90113345Y-173430000D01*
X90453373Y-173362364D01*
X90773673Y-173229692D01*
X91061935Y-173037081D01*
X91307081Y-172791935D01*
X91499692Y-172503673D01*
X91632364Y-172183373D01*
X91700000Y-171843345D01*
X91700000Y-171496655D01*
X91632364Y-171156627D01*
X91499692Y-170836327D01*
X91307081Y-170548065D01*
X91061935Y-170302919D01*
X90777004Y-170112534D01*
X90785001Y-170031342D01*
X90785001Y-170031341D01*
X90788678Y-169994009D01*
X90785001Y-169956676D01*
X90785001Y-158750463D01*
X90907431Y-158872893D01*
X91154747Y-159038144D01*
X91429549Y-159151971D01*
X91721278Y-159210000D01*
X92018722Y-159210000D01*
X92310451Y-159151971D01*
X92585253Y-159038144D01*
X92832569Y-158872893D01*
X93042893Y-158662569D01*
X93208144Y-158415253D01*
X93321971Y-158140451D01*
X93380000Y-157848722D01*
X93380000Y-157551278D01*
X93321971Y-157259549D01*
X93208144Y-156984747D01*
X93164882Y-156920000D01*
X93313345Y-156920000D01*
X93653373Y-156852364D01*
X93973673Y-156719692D01*
X94261935Y-156527081D01*
X94507081Y-156281935D01*
X94699692Y-155993673D01*
X94832364Y-155673373D01*
X94900000Y-155333345D01*
X94900000Y-154986655D01*
X94832364Y-154646627D01*
X94699692Y-154326327D01*
X94507081Y-154038065D01*
X94261935Y-153792919D01*
X93973673Y-153600308D01*
X93653373Y-153467636D01*
X93313345Y-153400000D01*
X92966655Y-153400000D01*
X92626627Y-153467636D01*
X92306327Y-153600308D01*
X92018065Y-153792919D01*
X91772919Y-154038065D01*
X91580308Y-154326327D01*
X91447636Y-154646627D01*
X91380000Y-154986655D01*
X91380000Y-155333345D01*
X91447636Y-155673373D01*
X91580308Y-155993673D01*
X91712638Y-156191719D01*
X91429549Y-156248029D01*
X91154747Y-156361856D01*
X90907431Y-156527107D01*
X90785001Y-156649537D01*
X90785001Y-139650463D01*
X90907431Y-139772893D01*
X91154747Y-139938144D01*
X91429549Y-140051971D01*
X91721278Y-140110000D01*
X92018722Y-140110000D01*
X92310451Y-140051971D01*
X92585253Y-139938144D01*
X92832569Y-139772893D01*
X93042893Y-139562569D01*
X93208144Y-139315253D01*
X93321971Y-139040451D01*
X93380000Y-138748722D01*
X93380000Y-138451278D01*
X93321971Y-138159549D01*
X93208144Y-137884747D01*
X93164882Y-137820000D01*
X93313345Y-137820000D01*
X93653373Y-137752364D01*
X93973673Y-137619692D01*
X94261935Y-137427081D01*
X94507081Y-137181935D01*
X94699692Y-136893673D01*
X94832364Y-136573373D01*
X94900000Y-136233345D01*
X94900000Y-135886655D01*
X94832364Y-135546627D01*
X94699692Y-135226327D01*
X94507081Y-134938065D01*
X94261935Y-134692919D01*
X93973673Y-134500308D01*
X93653373Y-134367636D01*
X93313345Y-134300000D01*
X92966655Y-134300000D01*
X92626627Y-134367636D01*
X92306327Y-134500308D01*
X92018065Y-134692919D01*
X91772919Y-134938065D01*
X91580308Y-135226327D01*
X91447636Y-135546627D01*
X91380000Y-135886655D01*
X91380000Y-136233345D01*
X91447636Y-136573373D01*
X91580308Y-136893673D01*
X91712638Y-137091719D01*
X91429549Y-137148029D01*
X91154747Y-137261856D01*
X90907431Y-137427107D01*
X90785001Y-137549537D01*
X90785001Y-120600463D01*
X90907431Y-120722893D01*
X91154747Y-120888144D01*
X91429549Y-121001971D01*
X91721278Y-121060000D01*
X92018722Y-121060000D01*
X92310451Y-121001971D01*
X92585253Y-120888144D01*
X92832569Y-120722893D01*
X93042893Y-120512569D01*
X93208144Y-120265253D01*
X93321971Y-119990451D01*
X93380000Y-119698722D01*
X93380000Y-119401278D01*
X93321971Y-119109549D01*
X93208144Y-118834747D01*
X93164882Y-118770000D01*
X93313345Y-118770000D01*
X93653373Y-118702364D01*
X93973673Y-118569692D01*
X94261935Y-118377081D01*
X94507081Y-118131935D01*
X94699692Y-117843673D01*
X94832364Y-117523373D01*
X94900000Y-117183345D01*
X94900000Y-116836655D01*
X94832364Y-116496627D01*
X94699692Y-116176327D01*
X94507081Y-115888065D01*
X94261935Y-115642919D01*
X93973673Y-115450308D01*
X93653373Y-115317636D01*
X93313345Y-115250000D01*
X92966655Y-115250000D01*
X92626627Y-115317636D01*
X92306327Y-115450308D01*
X92018065Y-115642919D01*
X91772919Y-115888065D01*
X91580308Y-116176327D01*
X91447636Y-116496627D01*
X91380000Y-116836655D01*
X91380000Y-117183345D01*
X91447636Y-117523373D01*
X91580308Y-117843673D01*
X91712638Y-118041719D01*
X91429549Y-118098029D01*
X91154747Y-118211856D01*
X90907431Y-118377107D01*
X90785001Y-118499537D01*
X90785001Y-101550463D01*
X90907431Y-101672893D01*
X91154747Y-101838144D01*
X91429549Y-101951971D01*
X91721278Y-102010000D01*
X92018722Y-102010000D01*
X92310451Y-101951971D01*
X92585253Y-101838144D01*
X92832569Y-101672893D01*
X93042893Y-101462569D01*
X93208144Y-101215253D01*
X93321971Y-100940451D01*
X93380000Y-100648722D01*
X93380000Y-100351278D01*
X93358080Y-100241076D01*
X94321100Y-100241076D01*
X94321100Y-100758924D01*
X94422127Y-101266822D01*
X94620299Y-101745251D01*
X94908000Y-102175826D01*
X95274174Y-102542000D01*
X95704749Y-102829701D01*
X96183178Y-103027873D01*
X96691076Y-103128900D01*
X97208924Y-103128900D01*
X97716822Y-103027873D01*
X98195251Y-102829701D01*
X98625826Y-102542000D01*
X98992000Y-102175826D01*
X99279701Y-101745251D01*
X99477873Y-101266822D01*
X99578900Y-100758924D01*
X99578900Y-100351278D01*
X100520000Y-100351278D01*
X100520000Y-100648722D01*
X100578029Y-100940451D01*
X100691856Y-101215253D01*
X100857107Y-101462569D01*
X101067431Y-101672893D01*
X101314747Y-101838144D01*
X101589549Y-101951971D01*
X101881278Y-102010000D01*
X102178722Y-102010000D01*
X102470451Y-101951971D01*
X102745253Y-101838144D01*
X102992569Y-101672893D01*
X103202893Y-101462569D01*
X103368144Y-101215253D01*
X103481971Y-100940451D01*
X103540000Y-100648722D01*
X103540000Y-100351278D01*
X103481971Y-100059549D01*
X103368144Y-99784747D01*
X103202893Y-99537431D01*
X102992569Y-99327107D01*
X102745253Y-99161856D01*
X102470451Y-99048029D01*
X102178722Y-98990000D01*
X101881278Y-98990000D01*
X101589549Y-99048029D01*
X101314747Y-99161856D01*
X101067431Y-99327107D01*
X100857107Y-99537431D01*
X100691856Y-99784747D01*
X100578029Y-100059549D01*
X100520000Y-100351278D01*
X99578900Y-100351278D01*
X99578900Y-100241076D01*
X99477873Y-99733178D01*
X99279701Y-99254749D01*
X98992000Y-98824174D01*
X98625826Y-98458000D01*
X98195251Y-98170299D01*
X97716822Y-97972127D01*
X97208924Y-97871100D01*
X96691076Y-97871100D01*
X96183178Y-97972127D01*
X95704749Y-98170299D01*
X95274174Y-98458000D01*
X94908000Y-98824174D01*
X94620299Y-99254749D01*
X94422127Y-99733178D01*
X94321100Y-100241076D01*
X93358080Y-100241076D01*
X93321971Y-100059549D01*
X93208144Y-99784747D01*
X93164882Y-99720000D01*
X93313345Y-99720000D01*
X93653373Y-99652364D01*
X93973673Y-99519692D01*
X94261935Y-99327081D01*
X94507081Y-99081935D01*
X94699692Y-98793673D01*
X94832364Y-98473373D01*
X94900000Y-98133345D01*
X94900000Y-97786655D01*
X94832364Y-97446627D01*
X94699692Y-97126327D01*
X94507081Y-96838065D01*
X94261935Y-96592919D01*
X93973673Y-96400308D01*
X93653373Y-96267636D01*
X93313345Y-96200000D01*
X92966655Y-96200000D01*
X92626627Y-96267636D01*
X92306327Y-96400308D01*
X92018065Y-96592919D01*
X91772919Y-96838065D01*
X91580308Y-97126327D01*
X91447636Y-97446627D01*
X91380000Y-97786655D01*
X91380000Y-98133345D01*
X91447636Y-98473373D01*
X91580308Y-98793673D01*
X91712638Y-98991719D01*
X91429549Y-99048029D01*
X91154747Y-99161856D01*
X90907431Y-99327107D01*
X90785001Y-99449537D01*
X90785001Y-91041170D01*
X109711003Y-72115169D01*
X109740001Y-72091371D01*
X109834974Y-71975646D01*
X109905546Y-71843617D01*
X109949003Y-71700356D01*
X109954798Y-71641519D01*
X110114759Y-71534637D01*
X110314637Y-71334759D01*
X110471680Y-71099727D01*
X110579853Y-70838574D01*
X110635000Y-70561335D01*
X110635000Y-70278665D01*
X110579853Y-70001426D01*
X110471680Y-69740273D01*
X110314637Y-69505241D01*
X110114759Y-69305363D01*
X109879727Y-69148320D01*
X109618574Y-69040147D01*
X109341335Y-68985000D01*
X109058665Y-68985000D01*
X108781426Y-69040147D01*
X108520273Y-69148320D01*
X108285241Y-69305363D01*
X108085363Y-69505241D01*
X107928320Y-69740273D01*
X107820147Y-70001426D01*
X107765000Y-70278665D01*
X107765000Y-70561335D01*
X107820147Y-70838574D01*
X107928320Y-71099727D01*
X108085363Y-71334759D01*
X108213586Y-71462982D01*
X91560000Y-88116569D01*
X91560000Y-84634801D01*
X106376114Y-69818688D01*
X106558665Y-69855000D01*
X106841335Y-69855000D01*
X107118574Y-69799853D01*
X107379727Y-69691680D01*
X107614759Y-69534637D01*
X107814637Y-69334759D01*
X107971680Y-69099727D01*
X108079853Y-68838574D01*
X108135000Y-68561335D01*
X108135000Y-68278665D01*
X108079853Y-68001426D01*
X107971680Y-67740273D01*
X107814637Y-67505241D01*
X107614759Y-67305363D01*
X107379727Y-67148320D01*
X107118574Y-67040147D01*
X106841335Y-66985000D01*
X106558665Y-66985000D01*
X106281426Y-67040147D01*
X106020273Y-67148320D01*
X105785241Y-67305363D01*
X105585363Y-67505241D01*
X105428320Y-67740273D01*
X105320147Y-68001426D01*
X105265000Y-68278665D01*
X105265000Y-68561335D01*
X105301312Y-68743886D01*
X90289003Y-83756196D01*
X90259999Y-83779999D01*
X90206676Y-83844974D01*
X90165026Y-83895724D01*
X90123359Y-83973677D01*
X90094454Y-84027754D01*
X90050997Y-84171015D01*
X90040000Y-84282668D01*
X90040000Y-84282678D01*
X90036324Y-84320000D01*
X90040000Y-84357323D01*
X90040001Y-87885197D01*
X88760000Y-89165199D01*
X88760000Y-82934801D01*
X103876114Y-67818688D01*
X104058665Y-67855000D01*
X104341335Y-67855000D01*
X104618574Y-67799853D01*
X104879727Y-67691680D01*
X105114759Y-67534637D01*
X105314637Y-67334759D01*
X105471680Y-67099727D01*
X105579853Y-66838574D01*
X105635000Y-66561335D01*
X105635000Y-66278665D01*
X105579853Y-66001426D01*
X105471680Y-65740273D01*
X105314637Y-65505241D01*
X105114759Y-65305363D01*
X104879727Y-65148320D01*
X104618574Y-65040147D01*
X104341335Y-64985000D01*
X104058665Y-64985000D01*
X103781426Y-65040147D01*
X103520273Y-65148320D01*
X103285241Y-65305363D01*
X103085363Y-65505241D01*
X102928320Y-65740273D01*
X102820147Y-66001426D01*
X102765000Y-66278665D01*
X102765000Y-66561335D01*
X102801312Y-66743886D01*
X87489003Y-82056196D01*
X87459999Y-82079999D01*
X87404871Y-82147174D01*
X87365026Y-82195724D01*
X87294455Y-82327753D01*
X87294454Y-82327754D01*
X87250997Y-82471015D01*
X87240000Y-82582668D01*
X87240000Y-82582678D01*
X87236324Y-82620000D01*
X87240000Y-82657322D01*
X87240001Y-125645197D01*
X81027046Y-131858152D01*
X80953373Y-131827636D01*
X80613345Y-131760000D01*
X80266655Y-131760000D01*
X79926627Y-131827636D01*
X79685000Y-131927721D01*
X79685000Y-126819078D01*
X79765044Y-126739034D01*
X79798817Y-126711317D01*
X79909411Y-126576559D01*
X79991589Y-126422813D01*
X80042195Y-126255990D01*
X80045683Y-126220572D01*
X80122500Y-126220572D01*
X80246982Y-126208312D01*
X80366680Y-126172002D01*
X80476994Y-126113037D01*
X80573685Y-126033685D01*
X80653037Y-125936994D01*
X80712002Y-125826680D01*
X80748312Y-125706982D01*
X80760572Y-125582500D01*
X80760572Y-123677500D01*
X80748312Y-123553018D01*
X80712002Y-123433320D01*
X80653037Y-123323006D01*
X80573685Y-123226315D01*
X80476994Y-123146963D01*
X80460781Y-123138297D01*
X80938950Y-122660129D01*
X80972718Y-122632416D01*
X81037479Y-122553506D01*
X81083312Y-122497658D01*
X81139959Y-122391677D01*
X81165490Y-122343912D01*
X81216096Y-122177089D01*
X81228901Y-122047076D01*
X81228901Y-122047068D01*
X81233182Y-122003599D01*
X81228901Y-121960130D01*
X81228901Y-119401278D01*
X81470000Y-119401278D01*
X81470000Y-119698722D01*
X81528029Y-119990451D01*
X81641856Y-120265253D01*
X81807107Y-120512569D01*
X82017431Y-120722893D01*
X82264747Y-120888144D01*
X82539549Y-121001971D01*
X82831278Y-121060000D01*
X83128722Y-121060000D01*
X83420451Y-121001971D01*
X83695253Y-120888144D01*
X83942569Y-120722893D01*
X84152893Y-120512569D01*
X84318144Y-120265253D01*
X84431971Y-119990451D01*
X84490000Y-119698722D01*
X84490000Y-119401278D01*
X84431971Y-119109549D01*
X84318144Y-118834747D01*
X84152893Y-118587431D01*
X83942569Y-118377107D01*
X83695253Y-118211856D01*
X83420451Y-118098029D01*
X83128722Y-118040000D01*
X82831278Y-118040000D01*
X82539549Y-118098029D01*
X82264747Y-118211856D01*
X82017431Y-118377107D01*
X81807107Y-118587431D01*
X81641856Y-118834747D01*
X81528029Y-119109549D01*
X81470000Y-119401278D01*
X81228901Y-119401278D01*
X81228901Y-118420392D01*
X81233182Y-118376926D01*
X81228901Y-118333460D01*
X81228901Y-118333450D01*
X81216096Y-118203437D01*
X81165490Y-118036614D01*
X81083312Y-117882868D01*
X81011200Y-117795000D01*
X81000433Y-117781880D01*
X81000431Y-117781878D01*
X80972718Y-117748110D01*
X80938951Y-117720398D01*
X79749999Y-116531447D01*
X79749999Y-116089203D01*
X79926627Y-116162364D01*
X80266655Y-116230000D01*
X80613345Y-116230000D01*
X80953373Y-116162364D01*
X81273673Y-116029692D01*
X81561935Y-115837081D01*
X81807081Y-115591935D01*
X81999692Y-115303673D01*
X82132364Y-114983373D01*
X82200000Y-114643345D01*
X82200000Y-114296655D01*
X82132364Y-113956627D01*
X82101848Y-113882954D01*
X86231003Y-109753799D01*
X86260001Y-109730001D01*
X86354974Y-109614276D01*
X86425546Y-109482247D01*
X86469003Y-109338986D01*
X86480000Y-109227333D01*
X86483677Y-109190000D01*
X86480000Y-109152667D01*
X86480000Y-80714801D01*
X101376114Y-65818688D01*
X101558665Y-65855000D01*
X101841335Y-65855000D01*
X102118574Y-65799853D01*
X102379727Y-65691680D01*
X102614759Y-65534637D01*
X102814637Y-65334759D01*
X102971680Y-65099727D01*
X103079853Y-64838574D01*
X103135000Y-64561335D01*
X103135000Y-64278665D01*
X103079853Y-64001426D01*
X102971680Y-63740273D01*
X102814637Y-63505241D01*
X102614759Y-63305363D01*
X102379727Y-63148320D01*
X102118574Y-63040147D01*
X101841335Y-62985000D01*
X101558665Y-62985000D01*
X101281426Y-63040147D01*
X101020273Y-63148320D01*
X100785241Y-63305363D01*
X100585363Y-63505241D01*
X100428320Y-63740273D01*
X100320147Y-64001426D01*
X100265000Y-64278665D01*
X100265000Y-64561335D01*
X100301312Y-64743886D01*
X85209003Y-79836196D01*
X85179999Y-79859999D01*
X85124871Y-79927174D01*
X85085026Y-79975724D01*
X85014455Y-80107753D01*
X85014454Y-80107754D01*
X84970997Y-80251015D01*
X84960000Y-80362668D01*
X84960000Y-80362678D01*
X84956324Y-80400000D01*
X84960000Y-80437322D01*
X84960001Y-108875197D01*
X81027046Y-112808152D01*
X80953373Y-112777636D01*
X80613345Y-112710000D01*
X80266655Y-112710000D01*
X79926627Y-112777636D01*
X79749999Y-112850797D01*
X79749999Y-107684968D01*
X79778817Y-107661317D01*
X79889411Y-107526559D01*
X79971589Y-107372813D01*
X80022195Y-107205990D01*
X80025683Y-107170572D01*
X80102500Y-107170572D01*
X80226982Y-107158312D01*
X80346680Y-107122002D01*
X80456994Y-107063037D01*
X80553685Y-106983685D01*
X80633037Y-106886994D01*
X80692002Y-106776680D01*
X80728312Y-106656982D01*
X80740572Y-106532500D01*
X80740572Y-104627500D01*
X80728312Y-104503018D01*
X80692002Y-104383320D01*
X80633037Y-104273006D01*
X80553685Y-104176315D01*
X80456994Y-104096963D01*
X80346680Y-104037998D01*
X80226982Y-104001688D01*
X80102500Y-103989428D01*
X80035000Y-103989428D01*
X80035000Y-103213552D01*
X80918951Y-102329602D01*
X80952718Y-102301890D01*
X81021437Y-102218157D01*
X81063312Y-102167132D01*
X81145489Y-102013387D01*
X81145490Y-102013386D01*
X81196096Y-101846563D01*
X81208901Y-101716550D01*
X81208901Y-101716542D01*
X81213182Y-101673073D01*
X81208901Y-101629604D01*
X81208901Y-100351278D01*
X81450000Y-100351278D01*
X81450000Y-100648722D01*
X81508029Y-100940451D01*
X81621856Y-101215253D01*
X81787107Y-101462569D01*
X81997431Y-101672893D01*
X82244747Y-101838144D01*
X82519549Y-101951971D01*
X82811278Y-102010000D01*
X83108722Y-102010000D01*
X83400451Y-101951971D01*
X83675253Y-101838144D01*
X83922569Y-101672893D01*
X84132893Y-101462569D01*
X84298144Y-101215253D01*
X84411971Y-100940451D01*
X84470000Y-100648722D01*
X84470000Y-100351278D01*
X84411971Y-100059549D01*
X84298144Y-99784747D01*
X84132893Y-99537431D01*
X83922569Y-99327107D01*
X83675253Y-99161856D01*
X83400451Y-99048029D01*
X83108722Y-98990000D01*
X82811278Y-98990000D01*
X82519549Y-99048029D01*
X82244747Y-99161856D01*
X81997431Y-99327107D01*
X81787107Y-99537431D01*
X81621856Y-99784747D01*
X81508029Y-100059549D01*
X81450000Y-100351278D01*
X81208901Y-100351278D01*
X81208901Y-97698369D01*
X81213182Y-97654902D01*
X81208901Y-97611436D01*
X81208901Y-97611426D01*
X81196096Y-97481413D01*
X81145490Y-97314590D01*
X81063312Y-97160844D01*
X81000654Y-97084495D01*
X81253673Y-96979692D01*
X81541935Y-96787081D01*
X81787081Y-96541935D01*
X81979692Y-96253673D01*
X82112364Y-95933373D01*
X82180000Y-95593345D01*
X82180000Y-95246655D01*
X82112364Y-94906627D01*
X81979692Y-94586327D01*
X81787081Y-94298065D01*
X81541935Y-94052919D01*
X81253673Y-93860308D01*
X81177762Y-93828865D01*
X81160442Y-81514359D01*
X98814721Y-63860081D01*
X98824277Y-63854973D01*
X98869978Y-63817467D01*
X99058665Y-63855000D01*
X99341335Y-63855000D01*
X99618574Y-63799853D01*
X99879727Y-63691680D01*
X100114759Y-63534637D01*
X100314637Y-63334759D01*
X100471680Y-63099727D01*
X100579853Y-62838574D01*
X100635000Y-62561335D01*
X100635000Y-62278665D01*
X100579853Y-62001426D01*
X100471680Y-61740273D01*
X100314637Y-61505241D01*
X100114759Y-61305363D01*
X99879727Y-61148320D01*
X99618574Y-61040147D01*
X99341335Y-60985000D01*
X99058665Y-60985000D01*
X98781426Y-61040147D01*
X98520273Y-61148320D01*
X98285241Y-61305363D01*
X98085363Y-61505241D01*
X97928320Y-61740273D01*
X97820147Y-62001426D01*
X97765000Y-62278665D01*
X97765000Y-62561335D01*
X97797994Y-62727204D01*
X79889003Y-80636196D01*
X79859999Y-80659999D01*
X79859652Y-80660422D01*
X79859241Y-80660760D01*
X79812574Y-80717787D01*
X79765026Y-80775724D01*
X79764771Y-80776202D01*
X79764430Y-80776618D01*
X79729625Y-80841953D01*
X79694454Y-80907753D01*
X79694297Y-80908272D01*
X79694044Y-80908746D01*
X79672705Y-80979452D01*
X79650997Y-81051014D01*
X79650944Y-81051556D01*
X79650789Y-81052068D01*
X79643661Y-81125492D01*
X79636323Y-81200000D01*
X79640053Y-81237874D01*
X79657765Y-93830718D01*
X79586327Y-93860308D01*
X79298065Y-94052919D01*
X79052919Y-94298065D01*
X78860308Y-94586327D01*
X78756799Y-94836222D01*
X71060001Y-87139425D01*
X71060001Y-70298585D01*
X71076888Y-70295226D01*
X71265246Y-70217205D01*
X71434764Y-70103937D01*
X71578927Y-69959774D01*
X71692195Y-69790256D01*
X71770216Y-69601898D01*
X71809990Y-69401939D01*
X71809990Y-69198061D01*
X71770216Y-68998102D01*
X71692195Y-68809744D01*
X71578927Y-68640226D01*
X71434764Y-68496063D01*
X71265246Y-68382795D01*
X71076888Y-68304774D01*
X70876929Y-68265000D01*
X70814792Y-68265000D01*
X69985001Y-67435210D01*
X69985001Y-66738072D01*
X71440000Y-66738072D01*
X71564482Y-66725812D01*
X71684180Y-66689502D01*
X71794494Y-66630537D01*
X71891185Y-66551185D01*
X71970537Y-66454494D01*
X72029502Y-66344180D01*
X72065812Y-66224482D01*
X72078072Y-66100000D01*
X72078072Y-65960000D01*
X73532678Y-65960000D01*
X73570000Y-65963676D01*
X73607322Y-65960000D01*
X73607333Y-65960000D01*
X73718986Y-65949003D01*
X73862247Y-65905546D01*
X73994276Y-65834974D01*
X74110001Y-65740001D01*
X74133804Y-65710997D01*
X77961157Y-61883645D01*
X78068514Y-61905000D01*
X78331486Y-61905000D01*
X78589405Y-61853696D01*
X78832359Y-61753061D01*
X79051013Y-61606962D01*
X79236962Y-61421013D01*
X79383061Y-61202359D01*
X79483696Y-60959405D01*
X79535000Y-60701486D01*
X79535000Y-60438514D01*
X79483696Y-60180595D01*
X79383061Y-59937641D01*
X79236962Y-59718987D01*
X79051013Y-59533038D01*
X78832359Y-59386939D01*
X78589405Y-59286304D01*
X78331486Y-59235000D01*
X78068514Y-59235000D01*
X77810595Y-59286304D01*
X77567641Y-59386939D01*
X77348987Y-59533038D01*
X77163038Y-59718987D01*
X77016939Y-59937641D01*
X76916304Y-60180595D01*
X76865000Y-60438514D01*
X76865000Y-60701486D01*
X76886355Y-60808843D01*
X73255199Y-64440000D01*
X72078072Y-64440000D01*
X72078072Y-64300000D01*
X72065812Y-64175518D01*
X72029502Y-64055820D01*
X71970537Y-63945506D01*
X71891185Y-63848815D01*
X71794494Y-63769463D01*
X71684180Y-63710498D01*
X71564482Y-63674188D01*
X71440000Y-63661928D01*
X69640000Y-63661928D01*
X69515518Y-63674188D01*
X69397724Y-63709920D01*
X69295001Y-63607198D01*
X69295001Y-59233470D01*
X69543109Y-59321481D01*
X69773000Y-59200814D01*
X69773000Y-58007000D01*
X70027000Y-58007000D01*
X70027000Y-59200814D01*
X70256891Y-59321481D01*
X70531252Y-59224157D01*
X70781355Y-59075178D01*
X70997588Y-58880269D01*
X71171641Y-58646920D01*
X71296825Y-58384099D01*
X71341476Y-58236890D01*
X71220155Y-58007000D01*
X70027000Y-58007000D01*
X69773000Y-58007000D01*
X69753000Y-58007000D01*
X69753000Y-57753000D01*
X69773000Y-57753000D01*
X69773000Y-57733000D01*
X70027000Y-57733000D01*
X70027000Y-57753000D01*
X71220155Y-57753000D01*
X71309621Y-57583472D01*
X71501898Y-57545226D01*
X71690256Y-57467205D01*
X71859774Y-57353937D01*
X72003937Y-57209774D01*
X72117205Y-57040256D01*
X72195226Y-56851898D01*
X72235000Y-56651939D01*
X72235000Y-56448061D01*
X72195226Y-56248102D01*
X72117205Y-56059744D01*
X72003937Y-55890226D01*
X71960000Y-55846289D01*
X71960000Y-53871269D01*
X77458336Y-53871269D01*
X77517797Y-54105037D01*
X77756242Y-54215934D01*
X78011740Y-54278183D01*
X78274473Y-54289390D01*
X78534344Y-54249125D01*
X78781366Y-54158935D01*
X78882203Y-54105037D01*
X78941664Y-53871269D01*
X78200000Y-53129605D01*
X77458336Y-53871269D01*
X71960000Y-53871269D01*
X71960000Y-53024473D01*
X76860610Y-53024473D01*
X76900875Y-53284344D01*
X76991065Y-53531366D01*
X77044963Y-53632203D01*
X77278731Y-53691664D01*
X78020395Y-52950000D01*
X77278731Y-52208336D01*
X77044963Y-52267797D01*
X76934066Y-52506242D01*
X76871817Y-52761740D01*
X76860610Y-53024473D01*
X71960000Y-53024473D01*
X71960000Y-49057325D01*
X71963676Y-49020000D01*
X71960000Y-48982675D01*
X71960000Y-48982667D01*
X71949003Y-48871014D01*
X71905546Y-48727753D01*
X71834974Y-48595724D01*
X71740001Y-48479999D01*
X71711003Y-48456201D01*
X71341210Y-48086408D01*
X71385000Y-47866260D01*
X71385000Y-47755009D01*
X73447210Y-47755009D01*
X77511585Y-51819385D01*
G37*
X77511585Y-51819385D02*
X77458336Y-52028731D01*
X78200000Y-52770395D01*
X78214143Y-52756253D01*
X78393748Y-52935858D01*
X78379605Y-52950000D01*
X79121269Y-53691664D01*
X79330615Y-53638415D01*
X83003203Y-57311003D01*
X83027001Y-57340001D01*
X83142726Y-57434974D01*
X83274755Y-57505546D01*
X83418016Y-57549003D01*
X83529669Y-57560000D01*
X83529678Y-57560000D01*
X83567001Y-57563676D01*
X83604324Y-57560000D01*
X100261928Y-57560000D01*
X100261928Y-57600000D01*
X100274188Y-57724482D01*
X100310498Y-57844180D01*
X100369463Y-57954494D01*
X100448815Y-58051185D01*
X100545506Y-58130537D01*
X100655820Y-58189502D01*
X100775518Y-58225812D01*
X100900000Y-58238072D01*
X102500000Y-58238072D01*
X102624482Y-58225812D01*
X102744180Y-58189502D01*
X102761928Y-58180015D01*
X102761928Y-59600000D01*
X102774188Y-59724482D01*
X102810498Y-59844180D01*
X102869463Y-59954494D01*
X102948815Y-60051185D01*
X103045506Y-60130537D01*
X103155820Y-60189502D01*
X103275518Y-60225812D01*
X103400000Y-60238072D01*
X105000000Y-60238072D01*
X105124482Y-60225812D01*
X105244180Y-60189502D01*
X105261928Y-60180015D01*
X105261928Y-61600000D01*
X105274188Y-61724482D01*
X105310498Y-61844180D01*
X105369463Y-61954494D01*
X105448815Y-62051185D01*
X105545506Y-62130537D01*
X105655820Y-62189502D01*
X105775518Y-62225812D01*
X105900000Y-62238072D01*
X107500000Y-62238072D01*
X107570639Y-62231115D01*
X107603383Y-62271014D01*
X107659999Y-62340001D01*
X107689002Y-62363804D01*
X107761928Y-62436729D01*
X107761928Y-63600000D01*
X107774188Y-63724482D01*
X107810498Y-63844180D01*
X107869463Y-63954494D01*
X107948815Y-64051185D01*
X108045506Y-64130537D01*
X108155820Y-64189502D01*
X108275518Y-64225812D01*
X108400000Y-64238072D01*
X110000000Y-64238072D01*
X110124482Y-64225812D01*
X110244180Y-64189502D01*
X110354494Y-64130537D01*
X110451185Y-64051185D01*
X110530537Y-63954494D01*
X110589502Y-63844180D01*
X110625812Y-63724482D01*
X110638072Y-63600000D01*
X110638072Y-63387468D01*
X110785241Y-63534637D01*
X110940000Y-63638043D01*
X110940001Y-82895197D01*
X100077046Y-93758152D01*
X100003373Y-93727636D01*
X99663345Y-93660000D01*
X99316655Y-93660000D01*
X98976627Y-93727636D01*
X98656327Y-93860308D01*
X98368065Y-94052919D01*
X98122919Y-94298065D01*
X97930308Y-94586327D01*
X97797636Y-94906627D01*
X97730000Y-95246655D01*
X97730000Y-95593345D01*
X97797636Y-95933373D01*
X97930308Y-96253673D01*
X98122919Y-96541935D01*
X98368065Y-96787081D01*
X98656327Y-96979692D01*
X98976627Y-97112364D01*
X99316655Y-97180000D01*
X99663345Y-97180000D01*
X100003373Y-97112364D01*
X100323673Y-96979692D01*
X100611935Y-96787081D01*
X100857081Y-96541935D01*
X101049692Y-96253673D01*
X101182364Y-95933373D01*
X101250000Y-95593345D01*
X101250000Y-95246655D01*
X101182364Y-94906627D01*
X101151848Y-94832954D01*
X112211003Y-83773799D01*
X112240001Y-83750001D01*
X112334974Y-83634276D01*
X112405546Y-83502247D01*
X112449003Y-83358986D01*
X112460000Y-83247333D01*
X112463677Y-83210000D01*
X112460000Y-83172667D01*
X112460000Y-63638043D01*
X112614759Y-63534637D01*
X112814637Y-63334759D01*
X112971680Y-63099727D01*
X113079853Y-62838574D01*
X113135000Y-62561335D01*
X113135000Y-62278665D01*
X113079853Y-62001426D01*
X112971680Y-61740273D01*
X112851226Y-61560000D01*
X113885199Y-61560000D01*
X115636201Y-63311003D01*
X115659999Y-63340001D01*
X115688997Y-63363799D01*
X115775723Y-63434974D01*
X115893117Y-63497723D01*
X115907753Y-63505546D01*
X116051014Y-63549003D01*
X116162667Y-63560000D01*
X116162676Y-63560000D01*
X116199999Y-63563676D01*
X116237322Y-63560000D01*
X119347680Y-63560000D01*
X119385002Y-63563676D01*
X119422324Y-63560000D01*
X119422335Y-63560000D01*
X119533988Y-63549003D01*
X119677249Y-63505546D01*
X119809278Y-63434974D01*
X119925003Y-63340001D01*
X119948806Y-63310997D01*
X120349753Y-62910050D01*
X120428320Y-63099727D01*
X120585363Y-63334759D01*
X120785241Y-63534637D01*
X120940000Y-63638043D01*
X120940001Y-91945197D01*
X119127046Y-93758152D01*
X119053373Y-93727636D01*
X118713345Y-93660000D01*
X118366655Y-93660000D01*
X118026627Y-93727636D01*
X117706327Y-93860308D01*
X117418065Y-94052919D01*
X117172919Y-94298065D01*
X116980308Y-94586327D01*
X116847636Y-94906627D01*
X116780000Y-95246655D01*
X116780000Y-95593345D01*
X116847636Y-95933373D01*
X116980308Y-96253673D01*
X117172919Y-96541935D01*
X117418065Y-96787081D01*
X117706327Y-96979692D01*
X118026627Y-97112364D01*
X118366655Y-97180000D01*
X118713345Y-97180000D01*
X119053373Y-97112364D01*
X119373673Y-96979692D01*
X119661935Y-96787081D01*
X119907081Y-96541935D01*
X120099692Y-96253673D01*
X120232364Y-95933373D01*
X120300000Y-95593345D01*
X120300000Y-95246655D01*
X120232364Y-94906627D01*
X120201848Y-94832954D01*
X122211003Y-92823799D01*
X122240001Y-92800001D01*
X122334974Y-92684276D01*
X122405546Y-92552247D01*
X122449003Y-92408986D01*
X122460000Y-92297333D01*
X122460000Y-92297323D01*
X122463676Y-92260000D01*
X122460000Y-92222677D01*
X122460000Y-63638043D01*
X122614759Y-63534637D01*
X122814637Y-63334759D01*
X122971680Y-63099727D01*
X123079853Y-62838574D01*
X123135000Y-62561335D01*
X123135000Y-62278665D01*
X123081560Y-62010010D01*
X124335209Y-62010010D01*
X125636201Y-63311003D01*
X125659999Y-63340001D01*
X125688997Y-63363799D01*
X125775723Y-63434974D01*
X125893117Y-63497723D01*
X125907753Y-63505546D01*
X126051014Y-63549003D01*
X126162667Y-63560000D01*
X126162677Y-63560000D01*
X126200000Y-63563676D01*
X126237323Y-63560000D01*
X130261928Y-63560000D01*
X130261928Y-63600000D01*
X130274188Y-63724482D01*
X130310498Y-63844180D01*
X130369463Y-63954494D01*
X130448815Y-64051185D01*
X130545506Y-64130537D01*
X130655820Y-64189502D01*
X130775518Y-64225812D01*
X130900000Y-64238072D01*
X132500000Y-64238072D01*
X132624482Y-64225812D01*
X132744180Y-64189502D01*
X132854494Y-64130537D01*
X132951185Y-64051185D01*
X133030537Y-63954494D01*
X133089502Y-63844180D01*
X133125812Y-63724482D01*
X133138072Y-63600000D01*
X133138072Y-63387468D01*
X133285241Y-63534637D01*
X133440000Y-63638043D01*
X133440001Y-91992667D01*
X133436324Y-92030000D01*
X133450998Y-92178985D01*
X133494454Y-92322246D01*
X133565026Y-92454276D01*
X133636201Y-92541002D01*
X133660000Y-92570001D01*
X133688998Y-92593799D01*
X135928152Y-94832954D01*
X135897636Y-94906627D01*
X135830000Y-95246655D01*
X135830000Y-95593345D01*
X135897636Y-95933373D01*
X136030308Y-96253673D01*
X136222919Y-96541935D01*
X136468065Y-96787081D01*
X136756327Y-96979692D01*
X137076627Y-97112364D01*
X137416655Y-97180000D01*
X137763345Y-97180000D01*
X138103373Y-97112364D01*
X138423673Y-96979692D01*
X138711935Y-96787081D01*
X138957081Y-96541935D01*
X139149692Y-96253673D01*
X139250793Y-96009593D01*
X140570001Y-97328801D01*
X140570001Y-99047940D01*
X140278722Y-98990000D01*
X139981278Y-98990000D01*
X139689549Y-99048029D01*
X139414747Y-99161856D01*
X139167431Y-99327107D01*
X138957107Y-99537431D01*
X138791856Y-99784747D01*
X138678029Y-100059549D01*
X138620000Y-100351278D01*
X138620000Y-100648722D01*
X138678029Y-100940451D01*
X138791856Y-101215253D01*
X138957107Y-101462569D01*
X139167431Y-101672893D01*
X139414747Y-101838144D01*
X139689549Y-101951971D01*
X139981278Y-102010000D01*
X140278722Y-102010000D01*
X140570001Y-101952060D01*
X140570002Y-114815674D01*
X137079003Y-118306674D01*
X137049999Y-118330477D01*
X137011731Y-118377107D01*
X136955026Y-118446202D01*
X136934830Y-118483986D01*
X136899999Y-118549150D01*
X136899999Y-107704079D01*
X136915045Y-107689033D01*
X136948817Y-107661317D01*
X137059411Y-107526559D01*
X137141589Y-107372813D01*
X137192195Y-107205990D01*
X137195683Y-107170572D01*
X137272500Y-107170572D01*
X137396982Y-107158312D01*
X137516680Y-107122002D01*
X137626994Y-107063037D01*
X137723685Y-106983685D01*
X137803037Y-106886994D01*
X137862002Y-106776680D01*
X137898312Y-106656982D01*
X137910572Y-106532500D01*
X137910572Y-104627500D01*
X137898312Y-104503018D01*
X137862002Y-104383320D01*
X137803037Y-104273006D01*
X137723685Y-104176315D01*
X137626994Y-104096963D01*
X137516680Y-104037998D01*
X137396982Y-104001688D01*
X137272500Y-103989428D01*
X135367500Y-103989428D01*
X135243018Y-104001688D01*
X135123320Y-104037998D01*
X135013006Y-104096963D01*
X134916315Y-104176315D01*
X134836963Y-104273006D01*
X134795549Y-104350485D01*
X134791972Y-104346908D01*
X134531963Y-104173176D01*
X134243057Y-104053507D01*
X133936355Y-103992500D01*
X133623645Y-103992500D01*
X133316943Y-104053507D01*
X133028037Y-104173176D01*
X132768028Y-104346908D01*
X132546908Y-104568028D01*
X132373176Y-104828037D01*
X132253507Y-105116943D01*
X132192500Y-105423645D01*
X132192500Y-105736355D01*
X132253507Y-106043057D01*
X132373176Y-106331963D01*
X132546908Y-106591972D01*
X132768028Y-106813092D01*
X133028037Y-106986824D01*
X133316943Y-107106493D01*
X133623645Y-107167500D01*
X133936355Y-107167500D01*
X134243057Y-107106493D01*
X134531963Y-106986824D01*
X134791972Y-106813092D01*
X134795549Y-106809515D01*
X134836963Y-106886994D01*
X134916315Y-106983685D01*
X135013006Y-107063037D01*
X135123320Y-107122002D01*
X135152832Y-107130954D01*
X135142804Y-107164011D01*
X135125718Y-107337501D01*
X135130000Y-107380980D01*
X135129999Y-126404556D01*
X135125718Y-126448025D01*
X135127991Y-126471100D01*
X134791076Y-126471100D01*
X134283178Y-126572127D01*
X133804749Y-126770299D01*
X133374174Y-127058000D01*
X133008000Y-127424174D01*
X132720299Y-127854749D01*
X132522127Y-128333178D01*
X132421100Y-128841076D01*
X132421100Y-129358924D01*
X132522127Y-129866822D01*
X132720299Y-130345251D01*
X133008000Y-130775826D01*
X133374174Y-131142000D01*
X133804749Y-131429701D01*
X134283178Y-131627873D01*
X134791076Y-131728900D01*
X135308924Y-131728900D01*
X135816822Y-131627873D01*
X136295251Y-131429701D01*
X136509129Y-131286792D01*
X135724951Y-132070971D01*
X135691184Y-132098683D01*
X135663471Y-132132451D01*
X135663468Y-132132454D01*
X135580590Y-132233441D01*
X135498412Y-132387187D01*
X135447805Y-132554010D01*
X135444317Y-132589428D01*
X135367500Y-132589428D01*
X135243018Y-132601688D01*
X135123320Y-132637998D01*
X135013006Y-132696963D01*
X134916315Y-132776315D01*
X134836963Y-132873006D01*
X134795549Y-132950485D01*
X134791972Y-132946908D01*
X134531963Y-132773176D01*
X134243057Y-132653507D01*
X133936355Y-132592500D01*
X133623645Y-132592500D01*
X133316943Y-132653507D01*
X133028037Y-132773176D01*
X132768028Y-132946908D01*
X132546908Y-133168028D01*
X132373176Y-133428037D01*
X132253507Y-133716943D01*
X132192500Y-134023645D01*
X132192500Y-134336355D01*
X132253507Y-134643057D01*
X132373176Y-134931963D01*
X132546908Y-135191972D01*
X132768028Y-135413092D01*
X133028037Y-135586824D01*
X133316943Y-135706493D01*
X133623645Y-135767500D01*
X133936355Y-135767500D01*
X134243057Y-135706493D01*
X134531963Y-135586824D01*
X134791972Y-135413092D01*
X134795549Y-135409515D01*
X134836963Y-135486994D01*
X134916315Y-135583685D01*
X135013006Y-135663037D01*
X135029218Y-135671703D01*
X131754950Y-138945971D01*
X131721183Y-138973684D01*
X131693470Y-139007452D01*
X131693467Y-139007455D01*
X131610589Y-139108442D01*
X131528411Y-139262188D01*
X131477804Y-139429011D01*
X131460718Y-139602501D01*
X131465000Y-139645980D01*
X131464999Y-159167532D01*
X131460718Y-159211001D01*
X131464999Y-159254470D01*
X131464999Y-159254477D01*
X131477804Y-159384490D01*
X131528410Y-159551313D01*
X131610588Y-159705059D01*
X131721182Y-159839818D01*
X131754955Y-159867535D01*
X136608902Y-164721483D01*
X136608902Y-165079874D01*
X136295251Y-164870299D01*
X135816822Y-164672127D01*
X135308924Y-164571100D01*
X134791076Y-164571100D01*
X134283178Y-164672127D01*
X133804749Y-164870299D01*
X133374174Y-165158000D01*
X133008000Y-165524174D01*
X132720299Y-165954749D01*
X132522127Y-166433178D01*
X132421100Y-166941076D01*
X132421100Y-167458924D01*
X132522127Y-167966822D01*
X132720299Y-168445251D01*
X133008000Y-168875826D01*
X133374174Y-169242000D01*
X133804749Y-169529701D01*
X134283178Y-169727873D01*
X134791076Y-169828900D01*
X135308924Y-169828900D01*
X135816822Y-169727873D01*
X136295251Y-169529701D01*
X136509129Y-169386792D01*
X135724951Y-170170971D01*
X135691184Y-170198683D01*
X135663471Y-170232451D01*
X135663468Y-170232454D01*
X135580590Y-170333441D01*
X135498412Y-170487187D01*
X135447805Y-170654010D01*
X135444317Y-170689428D01*
X135367500Y-170689428D01*
X135243018Y-170701688D01*
X135123320Y-170737998D01*
X135013006Y-170796963D01*
X134916315Y-170876315D01*
X134836963Y-170973006D01*
X134795549Y-171050485D01*
X134791972Y-171046908D01*
X134531963Y-170873176D01*
X134243057Y-170753507D01*
X133936355Y-170692500D01*
X133623645Y-170692500D01*
X133316943Y-170753507D01*
X133028037Y-170873176D01*
X132768028Y-171046908D01*
X132546908Y-171268028D01*
X132373176Y-171528037D01*
X132253507Y-171816943D01*
X132192500Y-172123645D01*
X132192500Y-172436355D01*
X132253507Y-172743057D01*
X132373176Y-173031963D01*
X132546908Y-173291972D01*
X132768028Y-173513092D01*
X133028037Y-173686824D01*
X133316943Y-173806493D01*
X133623645Y-173867500D01*
X133936355Y-173867500D01*
X134243057Y-173806493D01*
X134531963Y-173686824D01*
X134791972Y-173513092D01*
X134795549Y-173509515D01*
X134836963Y-173586994D01*
X134916315Y-173683685D01*
X135013006Y-173763037D01*
X135029218Y-173771703D01*
X129423900Y-179377022D01*
X129423900Y-178879076D01*
X129322873Y-178371178D01*
X129124701Y-177892749D01*
X128837000Y-177462174D01*
X128470826Y-177096000D01*
X128040251Y-176808299D01*
X127561822Y-176610127D01*
X127053924Y-176509100D01*
X126536076Y-176509100D01*
X126028178Y-176610127D01*
X125549749Y-176808299D01*
X125119174Y-177096000D01*
X124753000Y-177462174D01*
X124465299Y-177892749D01*
X124267127Y-178371178D01*
X124166100Y-178879076D01*
X124166100Y-179396924D01*
X124267127Y-179904822D01*
X124465299Y-180383251D01*
X124753000Y-180813826D01*
X124884174Y-180945000D01*
X118810572Y-180945000D01*
X118810572Y-180877500D01*
X118798312Y-180753018D01*
X118762002Y-180633320D01*
X118703037Y-180523006D01*
X118623685Y-180426315D01*
X118526994Y-180346963D01*
X118416680Y-180287998D01*
X118296982Y-180251688D01*
X118172500Y-180239428D01*
X116881006Y-180239428D01*
X116720999Y-180079421D01*
X117080173Y-180078957D01*
X117123073Y-180083182D01*
X117167113Y-180078845D01*
X117167692Y-180078844D01*
X117210621Y-180074560D01*
X117296563Y-180066096D01*
X117297116Y-180065928D01*
X117297689Y-180065871D01*
X117380407Y-180040661D01*
X117463386Y-180015489D01*
X117463895Y-180015217D01*
X117464446Y-180015049D01*
X117540811Y-179974105D01*
X117617132Y-179933311D01*
X117617577Y-179932946D01*
X117618086Y-179932673D01*
X117684859Y-179877729D01*
X117718119Y-179850433D01*
X117718527Y-179850025D01*
X117752701Y-179821905D01*
X117780007Y-179788545D01*
X118988951Y-178579602D01*
X119022718Y-178551890D01*
X119058539Y-178508243D01*
X119133311Y-178417133D01*
X119133312Y-178417132D01*
X119215490Y-178263386D01*
X119266096Y-178096563D01*
X119278901Y-177966550D01*
X119278901Y-177966540D01*
X119283182Y-177923074D01*
X119278901Y-177879608D01*
X119278901Y-176601278D01*
X119520000Y-176601278D01*
X119520000Y-176898722D01*
X119578029Y-177190451D01*
X119691856Y-177465253D01*
X119857107Y-177712569D01*
X120067431Y-177922893D01*
X120314747Y-178088144D01*
X120589549Y-178201971D01*
X120881278Y-178260000D01*
X121178722Y-178260000D01*
X121470451Y-178201971D01*
X121745253Y-178088144D01*
X121992569Y-177922893D01*
X122202893Y-177712569D01*
X122368144Y-177465253D01*
X122481971Y-177190451D01*
X122540000Y-176898722D01*
X122540000Y-176601278D01*
X122481971Y-176309549D01*
X122368144Y-176034747D01*
X122202893Y-175787431D01*
X121992569Y-175577107D01*
X121745253Y-175411856D01*
X121470451Y-175298029D01*
X121178722Y-175240000D01*
X120881278Y-175240000D01*
X120589549Y-175298029D01*
X120314747Y-175411856D01*
X120067431Y-175577107D01*
X119857107Y-175787431D01*
X119691856Y-176034747D01*
X119578029Y-176309549D01*
X119520000Y-176601278D01*
X119278901Y-176601278D01*
X119278901Y-175620392D01*
X119283182Y-175576926D01*
X119278901Y-175533460D01*
X119278901Y-175533450D01*
X119266096Y-175403437D01*
X119215490Y-175236614D01*
X119133312Y-175082868D01*
X119101145Y-175043673D01*
X119050433Y-174981880D01*
X119050431Y-174981878D01*
X119022718Y-174948110D01*
X118988950Y-174920397D01*
X117799999Y-173731447D01*
X117799999Y-173289203D01*
X117976627Y-173362364D01*
X118316655Y-173430000D01*
X118663345Y-173430000D01*
X119003373Y-173362364D01*
X119323673Y-173229692D01*
X119611935Y-173037081D01*
X119857081Y-172791935D01*
X120049692Y-172503673D01*
X120182364Y-172183373D01*
X120250000Y-171843345D01*
X120250000Y-171496655D01*
X120182364Y-171156627D01*
X120151848Y-171082954D01*
X123361013Y-167873789D01*
X123390011Y-167849991D01*
X123484984Y-167734266D01*
X123555556Y-167602237D01*
X123599013Y-167458976D01*
X123610010Y-167347323D01*
X123610010Y-167347314D01*
X123613686Y-167309991D01*
X123610010Y-167272668D01*
X123610010Y-167051278D01*
X128460000Y-167051278D01*
X128460000Y-167348722D01*
X128518029Y-167640451D01*
X128631856Y-167915253D01*
X128797107Y-168162569D01*
X129007431Y-168372893D01*
X129254747Y-168538144D01*
X129529549Y-168651971D01*
X129821278Y-168710000D01*
X130118722Y-168710000D01*
X130410451Y-168651971D01*
X130685253Y-168538144D01*
X130932569Y-168372893D01*
X131142893Y-168162569D01*
X131308144Y-167915253D01*
X131421971Y-167640451D01*
X131480000Y-167348722D01*
X131480000Y-167051278D01*
X131421971Y-166759549D01*
X131308144Y-166484747D01*
X131264882Y-166420000D01*
X131413345Y-166420000D01*
X131753373Y-166352364D01*
X132073673Y-166219692D01*
X132361935Y-166027081D01*
X132607081Y-165781935D01*
X132799692Y-165493673D01*
X132932364Y-165173373D01*
X133000000Y-164833345D01*
X133000000Y-164486655D01*
X132932364Y-164146627D01*
X132799692Y-163826327D01*
X132607081Y-163538065D01*
X132361935Y-163292919D01*
X132073673Y-163100308D01*
X131753373Y-162967636D01*
X131413345Y-162900000D01*
X131066655Y-162900000D01*
X130726627Y-162967636D01*
X130406327Y-163100308D01*
X130118065Y-163292919D01*
X129872919Y-163538065D01*
X129680308Y-163826327D01*
X129547636Y-164146627D01*
X129480000Y-164486655D01*
X129480000Y-164833345D01*
X129547636Y-165173373D01*
X129680308Y-165493673D01*
X129812638Y-165691719D01*
X129529549Y-165748029D01*
X129254747Y-165861856D01*
X129007431Y-166027107D01*
X128797107Y-166237431D01*
X128631856Y-166484747D01*
X128518029Y-166759549D01*
X128460000Y-167051278D01*
X123610010Y-167051278D01*
X123610010Y-155003076D01*
X124166100Y-155003076D01*
X124166100Y-155520924D01*
X124267127Y-156028822D01*
X124465299Y-156507251D01*
X124753000Y-156937826D01*
X125119174Y-157304000D01*
X125549749Y-157591701D01*
X126028178Y-157789873D01*
X126536076Y-157890900D01*
X127053924Y-157890900D01*
X127561822Y-157789873D01*
X128040251Y-157591701D01*
X128470826Y-157304000D01*
X128837000Y-156937826D01*
X129124701Y-156507251D01*
X129322873Y-156028822D01*
X129423900Y-155520924D01*
X129423900Y-155003076D01*
X129322873Y-154495178D01*
X129124701Y-154016749D01*
X128837000Y-153586174D01*
X128470826Y-153220000D01*
X128040251Y-152932299D01*
X127561822Y-152734127D01*
X127053924Y-152633100D01*
X126536076Y-152633100D01*
X126028178Y-152734127D01*
X125549749Y-152932299D01*
X125119174Y-153220000D01*
X124753000Y-153586174D01*
X124465299Y-154016749D01*
X124267127Y-154495178D01*
X124166100Y-155003076D01*
X123610010Y-155003076D01*
X123610010Y-140779076D01*
X124166100Y-140779076D01*
X124166100Y-141296924D01*
X124267127Y-141804822D01*
X124465299Y-142283251D01*
X124753000Y-142713826D01*
X125119174Y-143080000D01*
X125549749Y-143367701D01*
X126028178Y-143565873D01*
X126536076Y-143666900D01*
X127053924Y-143666900D01*
X127561822Y-143565873D01*
X128040251Y-143367701D01*
X128470826Y-143080000D01*
X128837000Y-142713826D01*
X129124701Y-142283251D01*
X129322873Y-141804822D01*
X129423900Y-141296924D01*
X129423900Y-140779076D01*
X129322873Y-140271178D01*
X129124701Y-139792749D01*
X128837000Y-139362174D01*
X128470826Y-138996000D01*
X128040251Y-138708299D01*
X127561822Y-138510127D01*
X127053924Y-138409100D01*
X126536076Y-138409100D01*
X126028178Y-138510127D01*
X125549749Y-138708299D01*
X125119174Y-138996000D01*
X124753000Y-139362174D01*
X124465299Y-139792749D01*
X124267127Y-140271178D01*
X124166100Y-140779076D01*
X123610010Y-140779076D01*
X123610010Y-128951278D01*
X128460000Y-128951278D01*
X128460000Y-129248722D01*
X128518029Y-129540451D01*
X128631856Y-129815253D01*
X128797107Y-130062569D01*
X129007431Y-130272893D01*
X129254747Y-130438144D01*
X129529549Y-130551971D01*
X129821278Y-130610000D01*
X130118722Y-130610000D01*
X130410451Y-130551971D01*
X130685253Y-130438144D01*
X130932569Y-130272893D01*
X131142893Y-130062569D01*
X131308144Y-129815253D01*
X131421971Y-129540451D01*
X131480000Y-129248722D01*
X131480000Y-128951278D01*
X131421971Y-128659549D01*
X131308144Y-128384747D01*
X131264882Y-128320000D01*
X131413345Y-128320000D01*
X131753373Y-128252364D01*
X132073673Y-128119692D01*
X132361935Y-127927081D01*
X132607081Y-127681935D01*
X132799692Y-127393673D01*
X132932364Y-127073373D01*
X133000000Y-126733345D01*
X133000000Y-126386655D01*
X132932364Y-126046627D01*
X132799692Y-125726327D01*
X132607081Y-125438065D01*
X132361935Y-125192919D01*
X132073673Y-125000308D01*
X131753373Y-124867636D01*
X131413345Y-124800000D01*
X131066655Y-124800000D01*
X130726627Y-124867636D01*
X130406327Y-125000308D01*
X130118065Y-125192919D01*
X129872919Y-125438065D01*
X129680308Y-125726327D01*
X129547636Y-126046627D01*
X129480000Y-126386655D01*
X129480000Y-126733345D01*
X129547636Y-127073373D01*
X129680308Y-127393673D01*
X129812638Y-127591719D01*
X129529549Y-127648029D01*
X129254747Y-127761856D01*
X129007431Y-127927107D01*
X128797107Y-128137431D01*
X128631856Y-128384747D01*
X128518029Y-128659549D01*
X128460000Y-128951278D01*
X123610010Y-128951278D01*
X123610010Y-116864791D01*
X124399712Y-116075089D01*
X124267127Y-116395178D01*
X124166100Y-116903076D01*
X124166100Y-117420924D01*
X124267127Y-117928822D01*
X124465299Y-118407251D01*
X124753000Y-118837826D01*
X125119174Y-119204000D01*
X125549749Y-119491701D01*
X126028178Y-119689873D01*
X126536076Y-119790900D01*
X127053924Y-119790900D01*
X127561822Y-119689873D01*
X128040251Y-119491701D01*
X128470826Y-119204000D01*
X128837000Y-118837826D01*
X129124701Y-118407251D01*
X129322873Y-117928822D01*
X129423900Y-117420924D01*
X129423900Y-116903076D01*
X129322873Y-116395178D01*
X129124701Y-115916749D01*
X128837000Y-115486174D01*
X128470826Y-115120000D01*
X128040251Y-114832299D01*
X127561822Y-114634127D01*
X127053924Y-114533100D01*
X126536076Y-114533100D01*
X126028178Y-114634127D01*
X125708089Y-114766712D01*
X128111022Y-112363780D01*
X128140020Y-112339982D01*
X128166351Y-112307898D01*
X128234993Y-112224258D01*
X128305565Y-112092228D01*
X128318677Y-112049003D01*
X128349022Y-111948967D01*
X128360019Y-111837314D01*
X128360019Y-111837305D01*
X128363695Y-111799982D01*
X128360019Y-111762659D01*
X128360019Y-100351278D01*
X128460000Y-100351278D01*
X128460000Y-100648722D01*
X128518029Y-100940451D01*
X128631856Y-101215253D01*
X128797107Y-101462569D01*
X129007431Y-101672893D01*
X129254747Y-101838144D01*
X129529549Y-101951971D01*
X129821278Y-102010000D01*
X130118722Y-102010000D01*
X130410451Y-101951971D01*
X130685253Y-101838144D01*
X130932569Y-101672893D01*
X131142893Y-101462569D01*
X131308144Y-101215253D01*
X131421971Y-100940451D01*
X131480000Y-100648722D01*
X131480000Y-100351278D01*
X131458080Y-100241076D01*
X132421100Y-100241076D01*
X132421100Y-100758924D01*
X132522127Y-101266822D01*
X132720299Y-101745251D01*
X133008000Y-102175826D01*
X133374174Y-102542000D01*
X133804749Y-102829701D01*
X134283178Y-103027873D01*
X134791076Y-103128900D01*
X135308924Y-103128900D01*
X135816822Y-103027873D01*
X136295251Y-102829701D01*
X136725826Y-102542000D01*
X137092000Y-102175826D01*
X137379701Y-101745251D01*
X137577873Y-101266822D01*
X137678900Y-100758924D01*
X137678900Y-100241076D01*
X137577873Y-99733178D01*
X137379701Y-99254749D01*
X137092000Y-98824174D01*
X136725826Y-98458000D01*
X136295251Y-98170299D01*
X135816822Y-97972127D01*
X135308924Y-97871100D01*
X134791076Y-97871100D01*
X134283178Y-97972127D01*
X133804749Y-98170299D01*
X133374174Y-98458000D01*
X133008000Y-98824174D01*
X132720299Y-99254749D01*
X132522127Y-99733178D01*
X132421100Y-100241076D01*
X131458080Y-100241076D01*
X131421971Y-100059549D01*
X131308144Y-99784747D01*
X131264882Y-99720000D01*
X131413345Y-99720000D01*
X131753373Y-99652364D01*
X132073673Y-99519692D01*
X132361935Y-99327081D01*
X132607081Y-99081935D01*
X132799692Y-98793673D01*
X132932364Y-98473373D01*
X133000000Y-98133345D01*
X133000000Y-97786655D01*
X132932364Y-97446627D01*
X132799692Y-97126327D01*
X132607081Y-96838065D01*
X132361935Y-96592919D01*
X132073673Y-96400308D01*
X131753373Y-96267636D01*
X131413345Y-96200000D01*
X131066655Y-96200000D01*
X130726627Y-96267636D01*
X130406327Y-96400308D01*
X130118065Y-96592919D01*
X129872919Y-96838065D01*
X129680308Y-97126327D01*
X129547636Y-97446627D01*
X129480000Y-97786655D01*
X129480000Y-98133345D01*
X129547636Y-98473373D01*
X129680308Y-98793673D01*
X129812638Y-98991719D01*
X129529549Y-99048029D01*
X129254747Y-99161856D01*
X129007431Y-99327107D01*
X128797107Y-99537431D01*
X128631856Y-99784747D01*
X128518029Y-100059549D01*
X128460000Y-100351278D01*
X128360019Y-100351278D01*
X128360019Y-92314801D01*
X132211003Y-88463818D01*
X132240001Y-88440020D01*
X132334974Y-88324295D01*
X132405546Y-88192266D01*
X132449003Y-88049005D01*
X132460000Y-87937352D01*
X132460000Y-87937344D01*
X132463676Y-87900019D01*
X132460000Y-87862694D01*
X132460000Y-71638043D01*
X132614759Y-71534637D01*
X132814637Y-71334759D01*
X132971680Y-71099727D01*
X133079853Y-70838574D01*
X133135000Y-70561335D01*
X133135000Y-70278665D01*
X133079853Y-70001426D01*
X132971680Y-69740273D01*
X132814637Y-69505241D01*
X132614759Y-69305363D01*
X132379727Y-69148320D01*
X132118574Y-69040147D01*
X131841335Y-68985000D01*
X131558665Y-68985000D01*
X131281426Y-69040147D01*
X131020273Y-69148320D01*
X130785241Y-69305363D01*
X130585363Y-69505241D01*
X130428320Y-69740273D01*
X130320147Y-70001426D01*
X130265000Y-70278665D01*
X130265000Y-70561335D01*
X130320147Y-70838574D01*
X130428320Y-71099727D01*
X130585363Y-71334759D01*
X130785241Y-71534637D01*
X130940000Y-71638043D01*
X130940001Y-87585216D01*
X129960000Y-88565217D01*
X129960000Y-69638043D01*
X130114759Y-69534637D01*
X130314637Y-69334759D01*
X130471680Y-69099727D01*
X130579853Y-68838574D01*
X130635000Y-68561335D01*
X130635000Y-68278665D01*
X130579853Y-68001426D01*
X130471680Y-67740273D01*
X130314637Y-67505241D01*
X130114759Y-67305363D01*
X129879727Y-67148320D01*
X129618574Y-67040147D01*
X129341335Y-66985000D01*
X129058665Y-66985000D01*
X128781426Y-67040147D01*
X128520273Y-67148320D01*
X128285241Y-67305363D01*
X128085363Y-67505241D01*
X127928320Y-67740273D01*
X127820147Y-68001426D01*
X127765000Y-68278665D01*
X127765000Y-68561335D01*
X127820147Y-68838574D01*
X127928320Y-69099727D01*
X128085363Y-69334759D01*
X128285241Y-69534637D01*
X128440000Y-69638043D01*
X128440001Y-89285197D01*
X127460000Y-90265199D01*
X127460000Y-67638043D01*
X127614759Y-67534637D01*
X127814637Y-67334759D01*
X127971680Y-67099727D01*
X128079853Y-66838574D01*
X128135000Y-66561335D01*
X128135000Y-66278665D01*
X128079853Y-66001426D01*
X127971680Y-65740273D01*
X127814637Y-65505241D01*
X127614759Y-65305363D01*
X127379727Y-65148320D01*
X127118574Y-65040147D01*
X126841335Y-64985000D01*
X126558665Y-64985000D01*
X126281426Y-65040147D01*
X126020273Y-65148320D01*
X125785241Y-65305363D01*
X125585363Y-65505241D01*
X125428320Y-65740273D01*
X125320147Y-66001426D01*
X125265000Y-66278665D01*
X125265000Y-66561335D01*
X125320147Y-66838574D01*
X125428320Y-67099727D01*
X125585363Y-67334759D01*
X125785241Y-67534637D01*
X125940000Y-67638043D01*
X125940001Y-110985197D01*
X119154002Y-117771197D01*
X119124998Y-117795000D01*
X119118099Y-117803406D01*
X119111200Y-117795000D01*
X119100433Y-117781880D01*
X119100431Y-117781878D01*
X119072718Y-117748110D01*
X119038951Y-117720398D01*
X117849999Y-116531447D01*
X117849999Y-116089203D01*
X118026627Y-116162364D01*
X118366655Y-116230000D01*
X118713345Y-116230000D01*
X119053373Y-116162364D01*
X119373673Y-116029692D01*
X119661935Y-115837081D01*
X119907081Y-115591935D01*
X120099692Y-115303673D01*
X120232364Y-114983373D01*
X120300000Y-114643345D01*
X120300000Y-114296655D01*
X120232364Y-113956627D01*
X120201848Y-113882954D01*
X124711003Y-109373799D01*
X124740001Y-109350001D01*
X124834974Y-109234276D01*
X124905546Y-109102247D01*
X124949003Y-108958986D01*
X124960000Y-108847333D01*
X124960000Y-108847325D01*
X124963676Y-108810000D01*
X124960000Y-108772675D01*
X124960000Y-65638043D01*
X125114759Y-65534637D01*
X125314637Y-65334759D01*
X125471680Y-65099727D01*
X125579853Y-64838574D01*
X125635000Y-64561335D01*
X125635000Y-64278665D01*
X125579853Y-64001426D01*
X125471680Y-63740273D01*
X125314637Y-63505241D01*
X125114759Y-63305363D01*
X124879727Y-63148320D01*
X124618574Y-63040147D01*
X124341335Y-62985000D01*
X124058665Y-62985000D01*
X123781426Y-63040147D01*
X123520273Y-63148320D01*
X123285241Y-63305363D01*
X123085363Y-63505241D01*
X122928320Y-63740273D01*
X122820147Y-64001426D01*
X122765000Y-64278665D01*
X122765000Y-64561335D01*
X122820147Y-64838574D01*
X122928320Y-65099727D01*
X123085363Y-65334759D01*
X123285241Y-65534637D01*
X123440000Y-65638043D01*
X123440001Y-108495197D01*
X119127046Y-112808152D01*
X119053373Y-112777636D01*
X118713345Y-112710000D01*
X118366655Y-112710000D01*
X118155000Y-112752101D01*
X118155000Y-107170572D01*
X118222500Y-107170572D01*
X118346982Y-107158312D01*
X118466680Y-107122002D01*
X118576994Y-107063037D01*
X118673685Y-106983685D01*
X118753037Y-106886994D01*
X118812002Y-106776680D01*
X118848312Y-106656982D01*
X118860572Y-106532500D01*
X118860572Y-104627500D01*
X118848312Y-104503018D01*
X118812002Y-104383320D01*
X118753037Y-104273006D01*
X118673685Y-104176315D01*
X118576994Y-104096963D01*
X118466680Y-104037998D01*
X118346982Y-104001688D01*
X118222500Y-103989428D01*
X116317500Y-103989428D01*
X116193018Y-104001688D01*
X116073320Y-104037998D01*
X115963006Y-104096963D01*
X115866315Y-104176315D01*
X115786963Y-104273006D01*
X115745549Y-104350485D01*
X115741972Y-104346908D01*
X115481963Y-104173176D01*
X115193057Y-104053507D01*
X114886355Y-103992500D01*
X114573645Y-103992500D01*
X114266943Y-104053507D01*
X113978037Y-104173176D01*
X113718028Y-104346908D01*
X113496908Y-104568028D01*
X113323176Y-104828037D01*
X113203507Y-105116943D01*
X113142500Y-105423645D01*
X113142500Y-105736355D01*
X113203507Y-106043057D01*
X113323176Y-106331963D01*
X113496908Y-106591972D01*
X113718028Y-106813092D01*
X113978037Y-106986824D01*
X114266943Y-107106493D01*
X114573645Y-107167500D01*
X114886355Y-107167500D01*
X115193057Y-107106493D01*
X115481963Y-106986824D01*
X115741972Y-106813092D01*
X115745549Y-106809515D01*
X115786963Y-106886994D01*
X115866315Y-106983685D01*
X115963006Y-107063037D01*
X116073320Y-107122002D01*
X116193018Y-107158312D01*
X116317500Y-107170572D01*
X116385000Y-107170572D01*
X116385001Y-113042419D01*
X116369955Y-113057465D01*
X116336182Y-113085182D01*
X116225588Y-113219941D01*
X116143410Y-113373687D01*
X116092804Y-113540510D01*
X116079999Y-113670523D01*
X116079999Y-113670530D01*
X116075718Y-113713999D01*
X116079999Y-113757468D01*
X116080000Y-116854546D01*
X116075718Y-116898025D01*
X116077991Y-116921100D01*
X115741076Y-116921100D01*
X115233178Y-117022127D01*
X114754749Y-117220299D01*
X114324174Y-117508000D01*
X113958000Y-117874174D01*
X113670299Y-118304749D01*
X113472127Y-118783178D01*
X113371100Y-119291076D01*
X113371100Y-119808924D01*
X113472127Y-120316822D01*
X113670299Y-120795251D01*
X113958000Y-121225826D01*
X114324174Y-121592000D01*
X114754749Y-121879701D01*
X115233178Y-122077873D01*
X115741076Y-122178900D01*
X116258924Y-122178900D01*
X116766822Y-122077873D01*
X117245251Y-121879701D01*
X117459129Y-121736792D01*
X116674956Y-122520966D01*
X116641183Y-122548683D01*
X116530589Y-122683442D01*
X116448411Y-122837188D01*
X116397805Y-123004011D01*
X116394317Y-123039428D01*
X116317500Y-123039428D01*
X116193018Y-123051688D01*
X116073320Y-123087998D01*
X115963006Y-123146963D01*
X115866315Y-123226315D01*
X115786963Y-123323006D01*
X115745549Y-123400485D01*
X115741972Y-123396908D01*
X115481963Y-123223176D01*
X115193057Y-123103507D01*
X114886355Y-123042500D01*
X114573645Y-123042500D01*
X114266943Y-123103507D01*
X113978037Y-123223176D01*
X113718028Y-123396908D01*
X113496908Y-123618028D01*
X113323176Y-123878037D01*
X113203507Y-124166943D01*
X113142500Y-124473645D01*
X113142500Y-124786355D01*
X113203507Y-125093057D01*
X113323176Y-125381963D01*
X113496908Y-125641972D01*
X113718028Y-125863092D01*
X113978037Y-126036824D01*
X114266943Y-126156493D01*
X114573645Y-126217500D01*
X114886355Y-126217500D01*
X115193057Y-126156493D01*
X115481963Y-126036824D01*
X115741972Y-125863092D01*
X115745549Y-125859515D01*
X115786963Y-125936994D01*
X115866315Y-126033685D01*
X115963006Y-126113037D01*
X116073320Y-126172002D01*
X116193018Y-126208312D01*
X116317500Y-126220572D01*
X116385000Y-126220572D01*
X116385001Y-132092419D01*
X116369955Y-132107465D01*
X116336182Y-132135182D01*
X116225588Y-132269941D01*
X116143410Y-132423687D01*
X116092804Y-132590510D01*
X116079999Y-132720523D01*
X116079999Y-132720530D01*
X116075718Y-132763999D01*
X116079999Y-132807468D01*
X116080000Y-135904546D01*
X116075718Y-135948025D01*
X116077991Y-135971100D01*
X115741076Y-135971100D01*
X115233178Y-136072127D01*
X114754749Y-136270299D01*
X114324174Y-136558000D01*
X113958000Y-136924174D01*
X113670299Y-137354749D01*
X113472127Y-137833178D01*
X113371100Y-138341076D01*
X113371100Y-138858924D01*
X113472127Y-139366822D01*
X113670299Y-139845251D01*
X113958000Y-140275826D01*
X114324174Y-140642000D01*
X114754749Y-140929701D01*
X115233178Y-141127873D01*
X115741076Y-141228900D01*
X116258924Y-141228900D01*
X116766822Y-141127873D01*
X117245251Y-140929701D01*
X117459129Y-140786792D01*
X116674956Y-141570966D01*
X116641183Y-141598683D01*
X116530589Y-141733442D01*
X116448411Y-141887188D01*
X116397805Y-142054011D01*
X116394317Y-142089428D01*
X116317500Y-142089428D01*
X116193018Y-142101688D01*
X116073320Y-142137998D01*
X115963006Y-142196963D01*
X115866315Y-142276315D01*
X115786963Y-142373006D01*
X115745549Y-142450485D01*
X115741972Y-142446908D01*
X115481963Y-142273176D01*
X115193057Y-142153507D01*
X114886355Y-142092500D01*
X114573645Y-142092500D01*
X114266943Y-142153507D01*
X113978037Y-142273176D01*
X113718028Y-142446908D01*
X113496908Y-142668028D01*
X113323176Y-142928037D01*
X113203507Y-143216943D01*
X113142500Y-143523645D01*
X113142500Y-143836355D01*
X113203507Y-144143057D01*
X113323176Y-144431963D01*
X113496908Y-144691972D01*
X113718028Y-144913092D01*
X113978037Y-145086824D01*
X114266943Y-145206493D01*
X114573645Y-145267500D01*
X114886355Y-145267500D01*
X115193057Y-145206493D01*
X115481963Y-145086824D01*
X115741972Y-144913092D01*
X115745549Y-144909515D01*
X115786963Y-144986994D01*
X115866315Y-145083685D01*
X115963006Y-145163037D01*
X116073320Y-145222002D01*
X116193018Y-145258312D01*
X116317500Y-145270572D01*
X116385000Y-145270572D01*
X116385001Y-151192419D01*
X116369955Y-151207465D01*
X116336182Y-151235182D01*
X116225588Y-151369941D01*
X116143410Y-151523687D01*
X116092804Y-151690510D01*
X116079999Y-151820523D01*
X116079999Y-151820530D01*
X116075718Y-151863999D01*
X116079999Y-151907469D01*
X116080000Y-153332522D01*
X116075718Y-153376001D01*
X116092804Y-153549491D01*
X116143411Y-153716314D01*
X116225589Y-153870060D01*
X116308467Y-153971047D01*
X116308470Y-153971050D01*
X116336183Y-154004818D01*
X116369950Y-154032530D01*
X117558901Y-155221482D01*
X117558901Y-155579873D01*
X117245251Y-155370299D01*
X116766822Y-155172127D01*
X116258924Y-155071100D01*
X115741076Y-155071100D01*
X115233178Y-155172127D01*
X114754749Y-155370299D01*
X114324174Y-155658000D01*
X113958000Y-156024174D01*
X113670299Y-156454749D01*
X113472127Y-156933178D01*
X113371100Y-157441076D01*
X113371100Y-157958924D01*
X113472127Y-158466822D01*
X113670299Y-158945251D01*
X113958000Y-159375826D01*
X114324174Y-159742000D01*
X114754749Y-160029701D01*
X115233178Y-160227873D01*
X115741076Y-160328900D01*
X116258924Y-160328900D01*
X116766822Y-160227873D01*
X117245251Y-160029701D01*
X117459129Y-159886792D01*
X116674956Y-160670966D01*
X116641183Y-160698683D01*
X116530589Y-160833442D01*
X116448411Y-160987188D01*
X116397805Y-161154011D01*
X116394317Y-161189428D01*
X116317500Y-161189428D01*
X116193018Y-161201688D01*
X116073320Y-161237998D01*
X115963006Y-161296963D01*
X115866315Y-161376315D01*
X115786963Y-161473006D01*
X115745549Y-161550485D01*
X115741972Y-161546908D01*
X115481963Y-161373176D01*
X115193057Y-161253507D01*
X114886355Y-161192500D01*
X114573645Y-161192500D01*
X114266943Y-161253507D01*
X113978037Y-161373176D01*
X113718028Y-161546908D01*
X113496908Y-161768028D01*
X113323176Y-162028037D01*
X113203507Y-162316943D01*
X113142500Y-162623645D01*
X113142500Y-162936355D01*
X113203507Y-163243057D01*
X113323176Y-163531963D01*
X113496908Y-163791972D01*
X113718028Y-164013092D01*
X113978037Y-164186824D01*
X114266943Y-164306493D01*
X114573645Y-164367500D01*
X114886355Y-164367500D01*
X115193057Y-164306493D01*
X115481963Y-164186824D01*
X115741972Y-164013092D01*
X115745549Y-164009515D01*
X115786963Y-164086994D01*
X115866315Y-164183685D01*
X115963006Y-164263037D01*
X116071079Y-164320804D01*
X116042804Y-164414012D01*
X116029999Y-164544025D01*
X116029999Y-164544032D01*
X116025718Y-164587501D01*
X116029999Y-164630970D01*
X116030000Y-174054546D01*
X116025718Y-174098025D01*
X116027991Y-174121100D01*
X115691076Y-174121100D01*
X115183178Y-174222127D01*
X114704749Y-174420299D01*
X114274174Y-174708000D01*
X113908000Y-175074174D01*
X113620299Y-175504749D01*
X113422127Y-175983178D01*
X113321100Y-176491076D01*
X113321100Y-177008924D01*
X113422127Y-177516822D01*
X113620299Y-177995251D01*
X113832712Y-178313149D01*
X112442900Y-178314944D01*
X112400000Y-178310719D01*
X112356653Y-178314988D01*
X94142035Y-178309544D01*
X94400050Y-178051529D01*
X94433818Y-178023816D01*
X94463479Y-177987675D01*
X94544412Y-177889058D01*
X94626590Y-177735312D01*
X94677196Y-177568489D01*
X94690001Y-177438476D01*
X94690001Y-177438468D01*
X94694282Y-177394999D01*
X94690001Y-177351530D01*
X94690001Y-176601278D01*
X109360000Y-176601278D01*
X109360000Y-176898722D01*
X109418029Y-177190451D01*
X109531856Y-177465253D01*
X109697107Y-177712569D01*
X109907431Y-177922893D01*
X110154747Y-178088144D01*
X110429549Y-178201971D01*
X110721278Y-178260000D01*
X111018722Y-178260000D01*
X111310451Y-178201971D01*
X111585253Y-178088144D01*
X111832569Y-177922893D01*
X112042893Y-177712569D01*
X112208144Y-177465253D01*
X112321971Y-177190451D01*
X112380000Y-176898722D01*
X112380000Y-176601278D01*
X112321971Y-176309549D01*
X112208144Y-176034747D01*
X112164882Y-175970000D01*
X112313345Y-175970000D01*
X112653373Y-175902364D01*
X112973673Y-175769692D01*
X113261935Y-175577081D01*
X113507081Y-175331935D01*
X113699692Y-175043673D01*
X113832364Y-174723373D01*
X113900000Y-174383345D01*
X113900000Y-174036655D01*
X113832364Y-173696627D01*
X113699692Y-173376327D01*
X113507081Y-173088065D01*
X113261935Y-172842919D01*
X112973673Y-172650308D01*
X112653373Y-172517636D01*
X112313345Y-172450000D01*
X111966655Y-172450000D01*
X111626627Y-172517636D01*
X111306327Y-172650308D01*
X111018065Y-172842919D01*
X110772919Y-173088065D01*
X110580308Y-173376327D01*
X110447636Y-173696627D01*
X110380000Y-174036655D01*
X110380000Y-174383345D01*
X110447636Y-174723373D01*
X110580308Y-175043673D01*
X110712638Y-175241719D01*
X110429549Y-175298029D01*
X110154747Y-175411856D01*
X109907431Y-175577107D01*
X109697107Y-175787431D01*
X109531856Y-176034747D01*
X109418029Y-176309549D01*
X109360000Y-176601278D01*
X94690001Y-176601278D01*
X94690001Y-169014077D01*
X95468002Y-168236076D01*
X96709100Y-168236076D01*
X96709100Y-168753924D01*
X96810127Y-169261822D01*
X97008299Y-169740251D01*
X97296000Y-170170826D01*
X97662174Y-170537000D01*
X98092749Y-170824701D01*
X98571178Y-171022873D01*
X99079076Y-171123900D01*
X99596924Y-171123900D01*
X100104822Y-171022873D01*
X100583251Y-170824701D01*
X101013826Y-170537000D01*
X101380000Y-170170826D01*
X101667701Y-169740251D01*
X101865873Y-169261822D01*
X101966900Y-168753924D01*
X101966900Y-168236076D01*
X101865873Y-167728178D01*
X101667701Y-167249749D01*
X101380000Y-166819174D01*
X101013826Y-166453000D01*
X100583251Y-166165299D01*
X100104822Y-165967127D01*
X99596924Y-165866100D01*
X99079076Y-165866100D01*
X98571178Y-165967127D01*
X98092749Y-166165299D01*
X97662174Y-166453000D01*
X97296000Y-166819174D01*
X97008299Y-167249749D01*
X96810127Y-167728178D01*
X96709100Y-168236076D01*
X95468002Y-168236076D01*
X98815049Y-164889030D01*
X98848817Y-164861317D01*
X98876533Y-164827546D01*
X98959410Y-164726560D01*
X99041588Y-164572814D01*
X99041589Y-164572813D01*
X99092195Y-164405990D01*
X99095683Y-164370572D01*
X99172500Y-164370572D01*
X99296982Y-164358312D01*
X99416680Y-164322002D01*
X99526994Y-164263037D01*
X99623685Y-164183685D01*
X99703037Y-164086994D01*
X99762002Y-163976680D01*
X99798312Y-163856982D01*
X99810572Y-163732500D01*
X99810572Y-161827500D01*
X99798312Y-161703018D01*
X99762002Y-161583320D01*
X99703037Y-161473006D01*
X99623685Y-161376315D01*
X99526994Y-161296963D01*
X99416680Y-161237998D01*
X99296982Y-161201688D01*
X99172500Y-161189428D01*
X99105000Y-161189428D01*
X99105000Y-160413552D01*
X99988951Y-159529602D01*
X100022718Y-159501890D01*
X100091437Y-159418157D01*
X100133312Y-159367132D01*
X100179134Y-159281404D01*
X100215490Y-159213386D01*
X100266096Y-159046563D01*
X100278901Y-158916550D01*
X100278901Y-158916542D01*
X100283182Y-158873073D01*
X100278901Y-158829604D01*
X100278901Y-157551278D01*
X100520000Y-157551278D01*
X100520000Y-157848722D01*
X100578029Y-158140451D01*
X100691856Y-158415253D01*
X100857107Y-158662569D01*
X101067431Y-158872893D01*
X101314747Y-159038144D01*
X101589549Y-159151971D01*
X101881278Y-159210000D01*
X102178722Y-159210000D01*
X102470451Y-159151971D01*
X102745253Y-159038144D01*
X102992569Y-158872893D01*
X103202893Y-158662569D01*
X103368144Y-158415253D01*
X103481971Y-158140451D01*
X103540000Y-157848722D01*
X103540000Y-157551278D01*
X109410000Y-157551278D01*
X109410000Y-157848722D01*
X109468029Y-158140451D01*
X109581856Y-158415253D01*
X109747107Y-158662569D01*
X109957431Y-158872893D01*
X110204747Y-159038144D01*
X110479549Y-159151971D01*
X110771278Y-159210000D01*
X111068722Y-159210000D01*
X111360451Y-159151971D01*
X111635253Y-159038144D01*
X111882569Y-158872893D01*
X112092893Y-158662569D01*
X112258144Y-158415253D01*
X112371971Y-158140451D01*
X112430000Y-157848722D01*
X112430000Y-157551278D01*
X112371971Y-157259549D01*
X112258144Y-156984747D01*
X112214882Y-156920000D01*
X112363345Y-156920000D01*
X112703373Y-156852364D01*
X113023673Y-156719692D01*
X113311935Y-156527081D01*
X113557081Y-156281935D01*
X113749692Y-155993673D01*
X113882364Y-155673373D01*
X113950000Y-155333345D01*
X113950000Y-154986655D01*
X113882364Y-154646627D01*
X113749692Y-154326327D01*
X113557081Y-154038065D01*
X113311935Y-153792919D01*
X113023673Y-153600308D01*
X112703373Y-153467636D01*
X112363345Y-153400000D01*
X112016655Y-153400000D01*
X111676627Y-153467636D01*
X111356327Y-153600308D01*
X111068065Y-153792919D01*
X110822919Y-154038065D01*
X110630308Y-154326327D01*
X110497636Y-154646627D01*
X110430000Y-154986655D01*
X110430000Y-155333345D01*
X110497636Y-155673373D01*
X110630308Y-155993673D01*
X110762638Y-156191719D01*
X110479549Y-156248029D01*
X110204747Y-156361856D01*
X109957431Y-156527107D01*
X109747107Y-156737431D01*
X109581856Y-156984747D01*
X109468029Y-157259549D01*
X109410000Y-157551278D01*
X103540000Y-157551278D01*
X103481971Y-157259549D01*
X103368144Y-156984747D01*
X103202893Y-156737431D01*
X102992569Y-156527107D01*
X102745253Y-156361856D01*
X102470451Y-156248029D01*
X102178722Y-156190000D01*
X101881278Y-156190000D01*
X101589549Y-156248029D01*
X101314747Y-156361856D01*
X101067431Y-156527107D01*
X100857107Y-156737431D01*
X100691856Y-156984747D01*
X100578029Y-157259549D01*
X100520000Y-157551278D01*
X100278901Y-157551278D01*
X100278901Y-154898368D01*
X100283182Y-154854902D01*
X100278901Y-154811436D01*
X100278901Y-154811426D01*
X100266096Y-154681413D01*
X100215490Y-154514590D01*
X100133312Y-154360844D01*
X100093525Y-154312364D01*
X100070654Y-154284495D01*
X100323673Y-154179692D01*
X100611935Y-153987081D01*
X100857081Y-153741935D01*
X101049692Y-153453673D01*
X101182364Y-153133373D01*
X101250000Y-152793345D01*
X101250000Y-152446655D01*
X101182364Y-152106627D01*
X101151848Y-152032954D01*
X101178798Y-152006004D01*
X101178803Y-152005998D01*
X107011023Y-146173779D01*
X107040021Y-146149981D01*
X107134994Y-146034256D01*
X107205566Y-145902227D01*
X107249023Y-145758966D01*
X107260020Y-145647313D01*
X107263697Y-145609980D01*
X107260020Y-145572647D01*
X107260020Y-138451278D01*
X109410000Y-138451278D01*
X109410000Y-138748722D01*
X109468029Y-139040451D01*
X109581856Y-139315253D01*
X109747107Y-139562569D01*
X109957431Y-139772893D01*
X110204747Y-139938144D01*
X110479549Y-140051971D01*
X110771278Y-140110000D01*
X111068722Y-140110000D01*
X111360451Y-140051971D01*
X111635253Y-139938144D01*
X111882569Y-139772893D01*
X112092893Y-139562569D01*
X112258144Y-139315253D01*
X112371971Y-139040451D01*
X112430000Y-138748722D01*
X112430000Y-138451278D01*
X112371971Y-138159549D01*
X112258144Y-137884747D01*
X112214882Y-137820000D01*
X112363345Y-137820000D01*
X112703373Y-137752364D01*
X113023673Y-137619692D01*
X113311935Y-137427081D01*
X113557081Y-137181935D01*
X113749692Y-136893673D01*
X113882364Y-136573373D01*
X113950000Y-136233345D01*
X113950000Y-135886655D01*
X113882364Y-135546627D01*
X113749692Y-135226327D01*
X113557081Y-134938065D01*
X113311935Y-134692919D01*
X113023673Y-134500308D01*
X112703373Y-134367636D01*
X112363345Y-134300000D01*
X112016655Y-134300000D01*
X111676627Y-134367636D01*
X111356327Y-134500308D01*
X111068065Y-134692919D01*
X110822919Y-134938065D01*
X110630308Y-135226327D01*
X110497636Y-135546627D01*
X110430000Y-135886655D01*
X110430000Y-136233345D01*
X110497636Y-136573373D01*
X110630308Y-136893673D01*
X110762638Y-137091719D01*
X110479549Y-137148029D01*
X110204747Y-137261856D01*
X109957431Y-137427107D01*
X109747107Y-137637431D01*
X109581856Y-137884747D01*
X109468029Y-138159549D01*
X109410000Y-138451278D01*
X107260020Y-138451278D01*
X107260020Y-119401278D01*
X109410000Y-119401278D01*
X109410000Y-119698722D01*
X109468029Y-119990451D01*
X109581856Y-120265253D01*
X109747107Y-120512569D01*
X109957431Y-120722893D01*
X110204747Y-120888144D01*
X110479549Y-121001971D01*
X110771278Y-121060000D01*
X111068722Y-121060000D01*
X111360451Y-121001971D01*
X111635253Y-120888144D01*
X111882569Y-120722893D01*
X112092893Y-120512569D01*
X112258144Y-120265253D01*
X112371971Y-119990451D01*
X112430000Y-119698722D01*
X112430000Y-119401278D01*
X112371971Y-119109549D01*
X112258144Y-118834747D01*
X112214882Y-118770000D01*
X112363345Y-118770000D01*
X112703373Y-118702364D01*
X113023673Y-118569692D01*
X113311935Y-118377081D01*
X113557081Y-118131935D01*
X113749692Y-117843673D01*
X113882364Y-117523373D01*
X113950000Y-117183345D01*
X113950000Y-116836655D01*
X113882364Y-116496627D01*
X113749692Y-116176327D01*
X113557081Y-115888065D01*
X113311935Y-115642919D01*
X113023673Y-115450308D01*
X112703373Y-115317636D01*
X112363345Y-115250000D01*
X112016655Y-115250000D01*
X111676627Y-115317636D01*
X111356327Y-115450308D01*
X111068065Y-115642919D01*
X110822919Y-115888065D01*
X110630308Y-116176327D01*
X110497636Y-116496627D01*
X110430000Y-116836655D01*
X110430000Y-117183345D01*
X110497636Y-117523373D01*
X110630308Y-117843673D01*
X110762638Y-118041719D01*
X110479549Y-118098029D01*
X110204747Y-118211856D01*
X109957431Y-118377107D01*
X109747107Y-118587431D01*
X109581856Y-118834747D01*
X109468029Y-119109549D01*
X109410000Y-119401278D01*
X107260020Y-119401278D01*
X107260020Y-100351278D01*
X109410000Y-100351278D01*
X109410000Y-100648722D01*
X109468029Y-100940451D01*
X109581856Y-101215253D01*
X109747107Y-101462569D01*
X109957431Y-101672893D01*
X110204747Y-101838144D01*
X110479549Y-101951971D01*
X110771278Y-102010000D01*
X111068722Y-102010000D01*
X111360451Y-101951971D01*
X111635253Y-101838144D01*
X111882569Y-101672893D01*
X112092893Y-101462569D01*
X112258144Y-101215253D01*
X112371971Y-100940451D01*
X112430000Y-100648722D01*
X112430000Y-100351278D01*
X112408080Y-100241076D01*
X113371100Y-100241076D01*
X113371100Y-100758924D01*
X113472127Y-101266822D01*
X113670299Y-101745251D01*
X113958000Y-102175826D01*
X114324174Y-102542000D01*
X114754749Y-102829701D01*
X115233178Y-103027873D01*
X115741076Y-103128900D01*
X116258924Y-103128900D01*
X116766822Y-103027873D01*
X117245251Y-102829701D01*
X117675826Y-102542000D01*
X118042000Y-102175826D01*
X118329701Y-101745251D01*
X118527873Y-101266822D01*
X118628900Y-100758924D01*
X118628900Y-100351278D01*
X119570000Y-100351278D01*
X119570000Y-100648722D01*
X119628029Y-100940451D01*
X119741856Y-101215253D01*
X119907107Y-101462569D01*
X120117431Y-101672893D01*
X120364747Y-101838144D01*
X120639549Y-101951971D01*
X120931278Y-102010000D01*
X121228722Y-102010000D01*
X121520451Y-101951971D01*
X121795253Y-101838144D01*
X122042569Y-101672893D01*
X122252893Y-101462569D01*
X122418144Y-101215253D01*
X122531971Y-100940451D01*
X122590000Y-100648722D01*
X122590000Y-100351278D01*
X122531971Y-100059549D01*
X122418144Y-99784747D01*
X122252893Y-99537431D01*
X122042569Y-99327107D01*
X121795253Y-99161856D01*
X121520451Y-99048029D01*
X121228722Y-98990000D01*
X120931278Y-98990000D01*
X120639549Y-99048029D01*
X120364747Y-99161856D01*
X120117431Y-99327107D01*
X119907107Y-99537431D01*
X119741856Y-99784747D01*
X119628029Y-100059549D01*
X119570000Y-100351278D01*
X118628900Y-100351278D01*
X118628900Y-100241076D01*
X118527873Y-99733178D01*
X118329701Y-99254749D01*
X118042000Y-98824174D01*
X117675826Y-98458000D01*
X117245251Y-98170299D01*
X116766822Y-97972127D01*
X116258924Y-97871100D01*
X115741076Y-97871100D01*
X115233178Y-97972127D01*
X114754749Y-98170299D01*
X114324174Y-98458000D01*
X113958000Y-98824174D01*
X113670299Y-99254749D01*
X113472127Y-99733178D01*
X113371100Y-100241076D01*
X112408080Y-100241076D01*
X112371971Y-100059549D01*
X112258144Y-99784747D01*
X112214882Y-99720000D01*
X112363345Y-99720000D01*
X112703373Y-99652364D01*
X113023673Y-99519692D01*
X113311935Y-99327081D01*
X113557081Y-99081935D01*
X113749692Y-98793673D01*
X113882364Y-98473373D01*
X113950000Y-98133345D01*
X113950000Y-97786655D01*
X113882364Y-97446627D01*
X113749692Y-97126327D01*
X113557081Y-96838065D01*
X113311935Y-96592919D01*
X113023673Y-96400308D01*
X112703373Y-96267636D01*
X112363345Y-96200000D01*
X112016655Y-96200000D01*
X111676627Y-96267636D01*
X111356327Y-96400308D01*
X111068065Y-96592919D01*
X110822919Y-96838065D01*
X110630308Y-97126327D01*
X110497636Y-97446627D01*
X110430000Y-97786655D01*
X110430000Y-98133345D01*
X110497636Y-98473373D01*
X110630308Y-98793673D01*
X110762638Y-98991719D01*
X110479549Y-99048029D01*
X110204747Y-99161856D01*
X109957431Y-99327107D01*
X109747107Y-99537431D01*
X109581856Y-99784747D01*
X109468029Y-100059549D01*
X109410000Y-100351278D01*
X107260020Y-100351278D01*
X107260020Y-98051191D01*
X119711003Y-85600209D01*
X119740001Y-85576411D01*
X119766332Y-85544327D01*
X119834974Y-85460687D01*
X119905546Y-85328657D01*
X119949003Y-85185396D01*
X119960000Y-85073743D01*
X119960000Y-85073733D01*
X119963676Y-85036410D01*
X119960000Y-84999087D01*
X119960000Y-69638043D01*
X120114759Y-69534637D01*
X120314637Y-69334759D01*
X120471680Y-69099727D01*
X120579853Y-68838574D01*
X120635000Y-68561335D01*
X120635000Y-68278665D01*
X120579853Y-68001426D01*
X120471680Y-67740273D01*
X120314637Y-67505241D01*
X120114759Y-67305363D01*
X119879727Y-67148320D01*
X119618574Y-67040147D01*
X119341335Y-66985000D01*
X119058665Y-66985000D01*
X118781426Y-67040147D01*
X118520273Y-67148320D01*
X118285241Y-67305363D01*
X118085363Y-67505241D01*
X117928320Y-67740273D01*
X117820147Y-68001426D01*
X117765000Y-68278665D01*
X117765000Y-68561335D01*
X117820147Y-68838574D01*
X117928320Y-69099727D01*
X118085363Y-69334759D01*
X118285241Y-69534637D01*
X118440000Y-69638043D01*
X118440001Y-84721607D01*
X117460000Y-85701608D01*
X117460000Y-67638043D01*
X117614759Y-67534637D01*
X117814637Y-67334759D01*
X117971680Y-67099727D01*
X118079853Y-66838574D01*
X118135000Y-66561335D01*
X118135000Y-66278665D01*
X118079853Y-66001426D01*
X117971680Y-65740273D01*
X117814637Y-65505241D01*
X117614759Y-65305363D01*
X117379727Y-65148320D01*
X117118574Y-65040147D01*
X116841335Y-64985000D01*
X116558665Y-64985000D01*
X116281426Y-65040147D01*
X116020273Y-65148320D01*
X115785241Y-65305363D01*
X115585363Y-65505241D01*
X115428320Y-65740273D01*
X115320147Y-66001426D01*
X115265000Y-66278665D01*
X115265000Y-66561335D01*
X115320147Y-66838574D01*
X115428320Y-67099727D01*
X115585363Y-67334759D01*
X115785241Y-67534637D01*
X115940000Y-67638043D01*
X115940001Y-86585197D01*
X106360000Y-96165199D01*
X106360000Y-95314801D01*
X114711003Y-86963799D01*
X114740001Y-86940001D01*
X114834974Y-86824276D01*
X114905546Y-86692247D01*
X114949003Y-86548986D01*
X114960000Y-86437333D01*
X114960000Y-86437325D01*
X114963676Y-86400000D01*
X114960000Y-86362675D01*
X114960000Y-65638043D01*
X115114759Y-65534637D01*
X115314637Y-65334759D01*
X115471680Y-65099727D01*
X115579853Y-64838574D01*
X115635000Y-64561335D01*
X115635000Y-64278665D01*
X115579853Y-64001426D01*
X115471680Y-63740273D01*
X115314637Y-63505241D01*
X115114759Y-63305363D01*
X114879727Y-63148320D01*
X114618574Y-63040147D01*
X114341335Y-62985000D01*
X114058665Y-62985000D01*
X113781426Y-63040147D01*
X113520273Y-63148320D01*
X113285241Y-63305363D01*
X113085363Y-63505241D01*
X112928320Y-63740273D01*
X112820147Y-64001426D01*
X112765000Y-64278665D01*
X112765000Y-64561335D01*
X112820147Y-64838574D01*
X112928320Y-65099727D01*
X113085363Y-65334759D01*
X113285241Y-65534637D01*
X113440000Y-65638043D01*
X113440001Y-86085197D01*
X105089003Y-94436196D01*
X105059999Y-94459999D01*
X105004871Y-94527174D01*
X104965026Y-94575724D01*
X104959359Y-94586327D01*
X104894454Y-94707754D01*
X104850997Y-94851015D01*
X104840000Y-94962668D01*
X104840000Y-94962678D01*
X104836324Y-95000000D01*
X104840000Y-95037322D01*
X104840001Y-108045197D01*
X100077046Y-112808152D01*
X100003373Y-112777636D01*
X99663345Y-112710000D01*
X99316655Y-112710000D01*
X98976627Y-112777636D01*
X98799999Y-112850797D01*
X98799999Y-107704079D01*
X98815045Y-107689033D01*
X98848817Y-107661317D01*
X98959411Y-107526559D01*
X99041589Y-107372813D01*
X99092195Y-107205990D01*
X99095683Y-107170572D01*
X99172500Y-107170572D01*
X99296982Y-107158312D01*
X99416680Y-107122002D01*
X99526994Y-107063037D01*
X99623685Y-106983685D01*
X99703037Y-106886994D01*
X99762002Y-106776680D01*
X99798312Y-106656982D01*
X99810572Y-106532500D01*
X99810572Y-104627500D01*
X99798312Y-104503018D01*
X99762002Y-104383320D01*
X99703037Y-104273006D01*
X99623685Y-104176315D01*
X99526994Y-104096963D01*
X99416680Y-104037998D01*
X99296982Y-104001688D01*
X99172500Y-103989428D01*
X97267500Y-103989428D01*
X97143018Y-104001688D01*
X97023320Y-104037998D01*
X96913006Y-104096963D01*
X96816315Y-104176315D01*
X96736963Y-104273006D01*
X96695549Y-104350485D01*
X96691972Y-104346908D01*
X96431963Y-104173176D01*
X96143057Y-104053507D01*
X95836355Y-103992500D01*
X95523645Y-103992500D01*
X95216943Y-104053507D01*
X94928037Y-104173176D01*
X94668028Y-104346908D01*
X94446908Y-104568028D01*
X94273176Y-104828037D01*
X94153507Y-105116943D01*
X94092500Y-105423645D01*
X94092500Y-105736355D01*
X94153507Y-106043057D01*
X94273176Y-106331963D01*
X94446908Y-106591972D01*
X94668028Y-106813092D01*
X94928037Y-106986824D01*
X95216943Y-107106493D01*
X95523645Y-107167500D01*
X95836355Y-107167500D01*
X96143057Y-107106493D01*
X96431963Y-106986824D01*
X96691972Y-106813092D01*
X96695549Y-106809515D01*
X96736963Y-106886994D01*
X96816315Y-106983685D01*
X96913006Y-107063037D01*
X97023320Y-107122002D01*
X97052832Y-107130954D01*
X97042804Y-107164011D01*
X97025718Y-107337501D01*
X97030000Y-107380980D01*
X97029999Y-115182532D01*
X97025718Y-115226001D01*
X97029999Y-115269470D01*
X97029999Y-115269477D01*
X97042804Y-115399490D01*
X97093410Y-115566313D01*
X97175588Y-115720059D01*
X97286182Y-115854818D01*
X97319955Y-115882535D01*
X98508902Y-117071483D01*
X98508902Y-117429874D01*
X98195251Y-117220299D01*
X97716822Y-117022127D01*
X97208924Y-116921100D01*
X96691076Y-116921100D01*
X96183178Y-117022127D01*
X95704749Y-117220299D01*
X95274174Y-117508000D01*
X94908000Y-117874174D01*
X94620299Y-118304749D01*
X94422127Y-118783178D01*
X94321100Y-119291076D01*
X94321100Y-119808924D01*
X94422127Y-120316822D01*
X94620299Y-120795251D01*
X94908000Y-121225826D01*
X95274174Y-121592000D01*
X95704749Y-121879701D01*
X96183178Y-122077873D01*
X96691076Y-122178900D01*
X97208924Y-122178900D01*
X97335001Y-122153822D01*
X97335001Y-123039428D01*
X97267500Y-123039428D01*
X97143018Y-123051688D01*
X97023320Y-123087998D01*
X96913006Y-123146963D01*
X96816315Y-123226315D01*
X96736963Y-123323006D01*
X96695549Y-123400485D01*
X96691972Y-123396908D01*
X96431963Y-123223176D01*
X96143057Y-123103507D01*
X95836355Y-123042500D01*
X95523645Y-123042500D01*
X95216943Y-123103507D01*
X94928037Y-123223176D01*
X94668028Y-123396908D01*
X94446908Y-123618028D01*
X94273176Y-123878037D01*
X94153507Y-124166943D01*
X94092500Y-124473645D01*
X94092500Y-124786355D01*
X94153507Y-125093057D01*
X94273176Y-125381963D01*
X94446908Y-125641972D01*
X94668028Y-125863092D01*
X94928037Y-126036824D01*
X95216943Y-126156493D01*
X95523645Y-126217500D01*
X95836355Y-126217500D01*
X96143057Y-126156493D01*
X96431963Y-126036824D01*
X96691972Y-125863092D01*
X96695549Y-125859515D01*
X96736963Y-125936994D01*
X96816315Y-126033685D01*
X96913006Y-126113037D01*
X97023320Y-126172002D01*
X97052832Y-126180954D01*
X97042804Y-126214011D01*
X97025718Y-126387501D01*
X97030000Y-126430980D01*
X97029999Y-134232532D01*
X97025718Y-134276001D01*
X97029999Y-134319470D01*
X97029999Y-134319477D01*
X97042804Y-134449490D01*
X97093410Y-134616313D01*
X97175588Y-134770059D01*
X97286182Y-134904818D01*
X97319955Y-134932535D01*
X98508902Y-136121483D01*
X98508902Y-136479874D01*
X98195251Y-136270299D01*
X97716822Y-136072127D01*
X97208924Y-135971100D01*
X96691076Y-135971100D01*
X96183178Y-136072127D01*
X95704749Y-136270299D01*
X95274174Y-136558000D01*
X94908000Y-136924174D01*
X94620299Y-137354749D01*
X94422127Y-137833178D01*
X94321100Y-138341076D01*
X94321100Y-138858924D01*
X94422127Y-139366822D01*
X94620299Y-139845251D01*
X94908000Y-140275826D01*
X95274174Y-140642000D01*
X95704749Y-140929701D01*
X96183178Y-141127873D01*
X96691076Y-141228900D01*
X97208924Y-141228900D01*
X97716822Y-141127873D01*
X98195251Y-140929701D01*
X98409129Y-140786792D01*
X97624951Y-141570971D01*
X97591184Y-141598683D01*
X97563471Y-141632451D01*
X97563468Y-141632454D01*
X97480590Y-141733441D01*
X97398412Y-141887187D01*
X97347805Y-142054010D01*
X97344317Y-142089428D01*
X97267500Y-142089428D01*
X97143018Y-142101688D01*
X97023320Y-142137998D01*
X96913006Y-142196963D01*
X96816315Y-142276315D01*
X96736963Y-142373006D01*
X96695549Y-142450485D01*
X96691972Y-142446908D01*
X96431963Y-142273176D01*
X96143057Y-142153507D01*
X95836355Y-142092500D01*
X95523645Y-142092500D01*
X95216943Y-142153507D01*
X94928037Y-142273176D01*
X94668028Y-142446908D01*
X94446908Y-142668028D01*
X94273176Y-142928037D01*
X94153507Y-143216943D01*
X94092500Y-143523645D01*
X94092500Y-143836355D01*
X94153507Y-144143057D01*
X94273176Y-144431963D01*
X94446908Y-144691972D01*
X94668028Y-144913092D01*
X94928037Y-145086824D01*
X95216943Y-145206493D01*
X95523645Y-145267500D01*
X95836355Y-145267500D01*
X96143057Y-145206493D01*
X96431963Y-145086824D01*
X96691972Y-144913092D01*
X96695549Y-144909515D01*
X96736963Y-144986994D01*
X96816315Y-145083685D01*
X96913006Y-145163037D01*
X97023320Y-145222002D01*
X97052832Y-145230954D01*
X97042804Y-145264011D01*
X97025718Y-145437501D01*
X97030000Y-145480980D01*
X97029999Y-153332532D01*
X97025718Y-153376001D01*
X97029999Y-153419470D01*
X97029999Y-153419477D01*
X97042804Y-153549490D01*
X97093410Y-153716313D01*
X97175588Y-153870059D01*
X97286182Y-154004818D01*
X97319955Y-154032535D01*
X98508902Y-155221483D01*
X98508902Y-155579874D01*
X98195251Y-155370299D01*
X97716822Y-155172127D01*
X97208924Y-155071100D01*
X96691076Y-155071100D01*
X96183178Y-155172127D01*
X95704749Y-155370299D01*
X95274174Y-155658000D01*
X94908000Y-156024174D01*
X94620299Y-156454749D01*
X94422127Y-156933178D01*
X94321100Y-157441076D01*
X94321100Y-157958924D01*
X94422127Y-158466822D01*
X94620299Y-158945251D01*
X94908000Y-159375826D01*
X95274174Y-159742000D01*
X95704749Y-160029701D01*
X96183178Y-160227873D01*
X96691076Y-160328900D01*
X97208924Y-160328900D01*
X97335001Y-160303822D01*
X97335001Y-161189428D01*
X97267500Y-161189428D01*
X97143018Y-161201688D01*
X97023320Y-161237998D01*
X96913006Y-161296963D01*
X96816315Y-161376315D01*
X96736963Y-161473006D01*
X96695549Y-161550485D01*
X96691972Y-161546908D01*
X96431963Y-161373176D01*
X96143057Y-161253507D01*
X95836355Y-161192500D01*
X95523645Y-161192500D01*
X95216943Y-161253507D01*
X94928037Y-161373176D01*
X94668028Y-161546908D01*
X94446908Y-161768028D01*
X94273176Y-162028037D01*
X94153507Y-162316943D01*
X94092500Y-162623645D01*
X94092500Y-162936355D01*
X94153507Y-163243057D01*
X94273176Y-163531963D01*
X94446908Y-163791972D01*
X94668028Y-164013092D01*
X94928037Y-164186824D01*
X95216943Y-164306493D01*
X95523645Y-164367500D01*
X95836355Y-164367500D01*
X96143057Y-164306493D01*
X96431963Y-164186824D01*
X96691972Y-164013092D01*
X96695549Y-164009515D01*
X96736963Y-164086994D01*
X96816315Y-164183685D01*
X96913006Y-164263037D01*
X96929218Y-164271703D01*
X93209957Y-167990965D01*
X93176184Y-168018682D01*
X93065590Y-168153441D01*
X92983412Y-168307187D01*
X92963480Y-168372893D01*
X92942251Y-168442876D01*
X92932806Y-168474010D01*
X92920001Y-168604023D01*
X92920001Y-168604030D01*
X92915720Y-168647499D01*
X92920001Y-168690968D01*
X92920002Y-175297940D01*
X92628722Y-175240000D01*
X92331278Y-175240000D01*
X92039549Y-175298029D01*
X91764747Y-175411856D01*
X91517431Y-175577107D01*
X91307107Y-175787431D01*
X91141856Y-176034747D01*
X91028029Y-176309549D01*
X90970000Y-176601278D01*
X90970000Y-176898722D01*
X91028029Y-177190451D01*
X91141856Y-177465253D01*
X91307107Y-177712569D01*
X91517431Y-177922893D01*
X91764747Y-178088144D01*
X91832297Y-178116124D01*
X91639521Y-178308901D01*
X89520127Y-178308901D01*
X89729701Y-177995251D01*
X89927873Y-177516822D01*
X90028900Y-177008924D01*
X90028900Y-176491076D01*
X89927873Y-175983178D01*
X89729701Y-175504749D01*
X89442000Y-175074174D01*
X89075826Y-174708000D01*
X88645251Y-174420299D01*
X88166822Y-174222127D01*
X87658924Y-174121100D01*
X87141076Y-174121100D01*
X86633178Y-174222127D01*
X86154749Y-174420299D01*
X85724174Y-174708000D01*
X85358000Y-175074174D01*
X85070299Y-175504749D01*
X84872127Y-175983178D01*
X84771100Y-176491076D01*
X84771100Y-177008924D01*
X84872127Y-177516822D01*
X85070299Y-177995251D01*
X85279873Y-178308901D01*
X82406752Y-178308901D01*
X82357697Y-178260000D01*
X82468722Y-178260000D01*
X82760451Y-178201971D01*
X83035253Y-178088144D01*
X83282569Y-177922893D01*
X83492893Y-177712569D01*
X83658144Y-177465253D01*
X83771971Y-177190451D01*
X83830000Y-176898722D01*
X83830000Y-176601278D01*
X83771971Y-176309549D01*
X83658144Y-176034747D01*
X83614882Y-175970000D01*
X83763345Y-175970000D01*
X84103373Y-175902364D01*
X84423673Y-175769692D01*
X84711935Y-175577081D01*
X84957081Y-175331935D01*
X85149692Y-175043673D01*
X85282364Y-174723373D01*
X85350000Y-174383345D01*
X85350000Y-174036655D01*
X85282364Y-173696627D01*
X85149692Y-173376327D01*
X84957081Y-173088065D01*
X84711935Y-172842919D01*
X84423673Y-172650308D01*
X84103373Y-172517636D01*
X83763345Y-172450000D01*
X83416655Y-172450000D01*
X83076627Y-172517636D01*
X82756327Y-172650308D01*
X82468065Y-172842919D01*
X82222919Y-173088065D01*
X82030308Y-173376327D01*
X81897636Y-173696627D01*
X81830000Y-174036655D01*
X81830000Y-174383345D01*
X81897636Y-174723373D01*
X82030308Y-175043673D01*
X82162638Y-175241719D01*
X81879549Y-175298029D01*
X81604747Y-175411856D01*
X81357431Y-175577107D01*
X81147107Y-175787431D01*
X80981856Y-176034747D01*
X80868029Y-176309549D01*
X80810000Y-176601278D01*
X80810000Y-176712332D01*
X80055000Y-175957332D01*
X80055000Y-164370572D01*
X80122500Y-164370572D01*
X80246982Y-164358312D01*
X80366680Y-164322002D01*
X80476994Y-164263037D01*
X80573685Y-164183685D01*
X80653037Y-164086994D01*
X80712002Y-163976680D01*
X80748312Y-163856982D01*
X80760572Y-163732500D01*
X80760572Y-161827500D01*
X80748312Y-161703018D01*
X80712002Y-161583320D01*
X80653037Y-161473006D01*
X80573685Y-161376315D01*
X80476994Y-161296963D01*
X80460781Y-161288297D01*
X80938950Y-160810129D01*
X80972718Y-160782416D01*
X81037479Y-160703506D01*
X81083312Y-160647658D01*
X81130001Y-160560308D01*
X81165490Y-160493912D01*
X81216096Y-160327089D01*
X81228901Y-160197076D01*
X81228901Y-160197068D01*
X81233182Y-160153599D01*
X81228901Y-160110130D01*
X81228901Y-157551278D01*
X81470000Y-157551278D01*
X81470000Y-157848722D01*
X81528029Y-158140451D01*
X81641856Y-158415253D01*
X81807107Y-158662569D01*
X82017431Y-158872893D01*
X82264747Y-159038144D01*
X82539549Y-159151971D01*
X82831278Y-159210000D01*
X83128722Y-159210000D01*
X83420451Y-159151971D01*
X83695253Y-159038144D01*
X83942569Y-158872893D01*
X84152893Y-158662569D01*
X84318144Y-158415253D01*
X84431971Y-158140451D01*
X84490000Y-157848722D01*
X84490000Y-157551278D01*
X84431971Y-157259549D01*
X84318144Y-156984747D01*
X84152893Y-156737431D01*
X83942569Y-156527107D01*
X83695253Y-156361856D01*
X83420451Y-156248029D01*
X83128722Y-156190000D01*
X82831278Y-156190000D01*
X82539549Y-156248029D01*
X82264747Y-156361856D01*
X82017431Y-156527107D01*
X81807107Y-156737431D01*
X81641856Y-156984747D01*
X81528029Y-157259549D01*
X81470000Y-157551278D01*
X81228901Y-157551278D01*
X81228901Y-156570392D01*
X81233182Y-156526926D01*
X81228901Y-156483460D01*
X81228901Y-156483450D01*
X81216096Y-156353437D01*
X81165490Y-156186614D01*
X81083312Y-156032868D01*
X81051145Y-155993673D01*
X81000433Y-155931880D01*
X81000431Y-155931878D01*
X80972718Y-155898110D01*
X80938951Y-155870398D01*
X79749999Y-154681447D01*
X79749999Y-154239203D01*
X79926627Y-154312364D01*
X80266655Y-154380000D01*
X80613345Y-154380000D01*
X80953373Y-154312364D01*
X81273673Y-154179692D01*
X81561935Y-153987081D01*
X81807081Y-153741935D01*
X81999692Y-153453673D01*
X82132364Y-153133373D01*
X82200000Y-152793345D01*
X82200000Y-152446655D01*
X82132364Y-152106627D01*
X82101848Y-152032954D01*
X82128798Y-152006004D01*
X82128803Y-152005998D01*
X88961013Y-145173789D01*
X88990011Y-145149991D01*
X89016342Y-145117907D01*
X89084984Y-145034267D01*
X89155556Y-144902237D01*
X89173690Y-144842455D01*
X89199013Y-144758976D01*
X89210010Y-144647323D01*
X89210010Y-144647313D01*
X89213686Y-144609990D01*
X89210010Y-144572667D01*
X89210010Y-90864791D01*
X89265002Y-90809799D01*
X89265001Y-164869711D01*
X88842876Y-164587656D01*
X88326939Y-164373948D01*
X87779223Y-164265000D01*
X87220777Y-164265000D01*
X86673061Y-164373948D01*
X86157124Y-164587656D01*
X85692793Y-164897912D01*
X85297912Y-165292793D01*
X84987656Y-165757124D01*
X84773948Y-166273061D01*
X84665000Y-166820777D01*
X84665000Y-167379223D01*
X84773948Y-167926939D01*
X84987656Y-168442876D01*
X85297912Y-168907207D01*
X85692793Y-169302088D01*
X86157124Y-169612344D01*
X86673061Y-169826052D01*
X87220777Y-169935000D01*
X87779223Y-169935000D01*
X88326939Y-169826052D01*
X88842876Y-169612344D01*
X89265001Y-169330289D01*
X89265001Y-169729615D01*
X89234454Y-169786764D01*
X89190998Y-169930025D01*
X89176324Y-170079010D01*
X89176542Y-170081224D01*
X89106327Y-170110308D01*
X88818065Y-170302919D01*
X88572919Y-170548065D01*
X88380308Y-170836327D01*
X88247636Y-171156627D01*
X88180000Y-171496655D01*
X88180000Y-171843345D01*
X88247636Y-172183373D01*
X88380308Y-172503673D01*
X88572919Y-172791935D01*
X88818065Y-173037081D01*
X89106327Y-173229692D01*
X89426627Y-173362364D01*
X89766655Y-173430000D01*
X90113345Y-173430000D01*
X90453373Y-173362364D01*
X90773673Y-173229692D01*
X91061935Y-173037081D01*
X91307081Y-172791935D01*
X91499692Y-172503673D01*
X91632364Y-172183373D01*
X91700000Y-171843345D01*
X91700000Y-171496655D01*
X91632364Y-171156627D01*
X91499692Y-170836327D01*
X91307081Y-170548065D01*
X91061935Y-170302919D01*
X90777004Y-170112534D01*
X90785001Y-170031342D01*
X90785001Y-170031341D01*
X90788678Y-169994009D01*
X90785001Y-169956676D01*
X90785001Y-158750463D01*
X90907431Y-158872893D01*
X91154747Y-159038144D01*
X91429549Y-159151971D01*
X91721278Y-159210000D01*
X92018722Y-159210000D01*
X92310451Y-159151971D01*
X92585253Y-159038144D01*
X92832569Y-158872893D01*
X93042893Y-158662569D01*
X93208144Y-158415253D01*
X93321971Y-158140451D01*
X93380000Y-157848722D01*
X93380000Y-157551278D01*
X93321971Y-157259549D01*
X93208144Y-156984747D01*
X93164882Y-156920000D01*
X93313345Y-156920000D01*
X93653373Y-156852364D01*
X93973673Y-156719692D01*
X94261935Y-156527081D01*
X94507081Y-156281935D01*
X94699692Y-155993673D01*
X94832364Y-155673373D01*
X94900000Y-155333345D01*
X94900000Y-154986655D01*
X94832364Y-154646627D01*
X94699692Y-154326327D01*
X94507081Y-154038065D01*
X94261935Y-153792919D01*
X93973673Y-153600308D01*
X93653373Y-153467636D01*
X93313345Y-153400000D01*
X92966655Y-153400000D01*
X92626627Y-153467636D01*
X92306327Y-153600308D01*
X92018065Y-153792919D01*
X91772919Y-154038065D01*
X91580308Y-154326327D01*
X91447636Y-154646627D01*
X91380000Y-154986655D01*
X91380000Y-155333345D01*
X91447636Y-155673373D01*
X91580308Y-155993673D01*
X91712638Y-156191719D01*
X91429549Y-156248029D01*
X91154747Y-156361856D01*
X90907431Y-156527107D01*
X90785001Y-156649537D01*
X90785001Y-139650463D01*
X90907431Y-139772893D01*
X91154747Y-139938144D01*
X91429549Y-140051971D01*
X91721278Y-140110000D01*
X92018722Y-140110000D01*
X92310451Y-140051971D01*
X92585253Y-139938144D01*
X92832569Y-139772893D01*
X93042893Y-139562569D01*
X93208144Y-139315253D01*
X93321971Y-139040451D01*
X93380000Y-138748722D01*
X93380000Y-138451278D01*
X93321971Y-138159549D01*
X93208144Y-137884747D01*
X93164882Y-137820000D01*
X93313345Y-137820000D01*
X93653373Y-137752364D01*
X93973673Y-137619692D01*
X94261935Y-137427081D01*
X94507081Y-137181935D01*
X94699692Y-136893673D01*
X94832364Y-136573373D01*
X94900000Y-136233345D01*
X94900000Y-135886655D01*
X94832364Y-135546627D01*
X94699692Y-135226327D01*
X94507081Y-134938065D01*
X94261935Y-134692919D01*
X93973673Y-134500308D01*
X93653373Y-134367636D01*
X93313345Y-134300000D01*
X92966655Y-134300000D01*
X92626627Y-134367636D01*
X92306327Y-134500308D01*
X92018065Y-134692919D01*
X91772919Y-134938065D01*
X91580308Y-135226327D01*
X91447636Y-135546627D01*
X91380000Y-135886655D01*
X91380000Y-136233345D01*
X91447636Y-136573373D01*
X91580308Y-136893673D01*
X91712638Y-137091719D01*
X91429549Y-137148029D01*
X91154747Y-137261856D01*
X90907431Y-137427107D01*
X90785001Y-137549537D01*
X90785001Y-120600463D01*
X90907431Y-120722893D01*
X91154747Y-120888144D01*
X91429549Y-121001971D01*
X91721278Y-121060000D01*
X92018722Y-121060000D01*
X92310451Y-121001971D01*
X92585253Y-120888144D01*
X92832569Y-120722893D01*
X93042893Y-120512569D01*
X93208144Y-120265253D01*
X93321971Y-119990451D01*
X93380000Y-119698722D01*
X93380000Y-119401278D01*
X93321971Y-119109549D01*
X93208144Y-118834747D01*
X93164882Y-118770000D01*
X93313345Y-118770000D01*
X93653373Y-118702364D01*
X93973673Y-118569692D01*
X94261935Y-118377081D01*
X94507081Y-118131935D01*
X94699692Y-117843673D01*
X94832364Y-117523373D01*
X94900000Y-117183345D01*
X94900000Y-116836655D01*
X94832364Y-116496627D01*
X94699692Y-116176327D01*
X94507081Y-115888065D01*
X94261935Y-115642919D01*
X93973673Y-115450308D01*
X93653373Y-115317636D01*
X93313345Y-115250000D01*
X92966655Y-115250000D01*
X92626627Y-115317636D01*
X92306327Y-115450308D01*
X92018065Y-115642919D01*
X91772919Y-115888065D01*
X91580308Y-116176327D01*
X91447636Y-116496627D01*
X91380000Y-116836655D01*
X91380000Y-117183345D01*
X91447636Y-117523373D01*
X91580308Y-117843673D01*
X91712638Y-118041719D01*
X91429549Y-118098029D01*
X91154747Y-118211856D01*
X90907431Y-118377107D01*
X90785001Y-118499537D01*
X90785001Y-101550463D01*
X90907431Y-101672893D01*
X91154747Y-101838144D01*
X91429549Y-101951971D01*
X91721278Y-102010000D01*
X92018722Y-102010000D01*
X92310451Y-101951971D01*
X92585253Y-101838144D01*
X92832569Y-101672893D01*
X93042893Y-101462569D01*
X93208144Y-101215253D01*
X93321971Y-100940451D01*
X93380000Y-100648722D01*
X93380000Y-100351278D01*
X93358080Y-100241076D01*
X94321100Y-100241076D01*
X94321100Y-100758924D01*
X94422127Y-101266822D01*
X94620299Y-101745251D01*
X94908000Y-102175826D01*
X95274174Y-102542000D01*
X95704749Y-102829701D01*
X96183178Y-103027873D01*
X96691076Y-103128900D01*
X97208924Y-103128900D01*
X97716822Y-103027873D01*
X98195251Y-102829701D01*
X98625826Y-102542000D01*
X98992000Y-102175826D01*
X99279701Y-101745251D01*
X99477873Y-101266822D01*
X99578900Y-100758924D01*
X99578900Y-100351278D01*
X100520000Y-100351278D01*
X100520000Y-100648722D01*
X100578029Y-100940451D01*
X100691856Y-101215253D01*
X100857107Y-101462569D01*
X101067431Y-101672893D01*
X101314747Y-101838144D01*
X101589549Y-101951971D01*
X101881278Y-102010000D01*
X102178722Y-102010000D01*
X102470451Y-101951971D01*
X102745253Y-101838144D01*
X102992569Y-101672893D01*
X103202893Y-101462569D01*
X103368144Y-101215253D01*
X103481971Y-100940451D01*
X103540000Y-100648722D01*
X103540000Y-100351278D01*
X103481971Y-100059549D01*
X103368144Y-99784747D01*
X103202893Y-99537431D01*
X102992569Y-99327107D01*
X102745253Y-99161856D01*
X102470451Y-99048029D01*
X102178722Y-98990000D01*
X101881278Y-98990000D01*
X101589549Y-99048029D01*
X101314747Y-99161856D01*
X101067431Y-99327107D01*
X100857107Y-99537431D01*
X100691856Y-99784747D01*
X100578029Y-100059549D01*
X100520000Y-100351278D01*
X99578900Y-100351278D01*
X99578900Y-100241076D01*
X99477873Y-99733178D01*
X99279701Y-99254749D01*
X98992000Y-98824174D01*
X98625826Y-98458000D01*
X98195251Y-98170299D01*
X97716822Y-97972127D01*
X97208924Y-97871100D01*
X96691076Y-97871100D01*
X96183178Y-97972127D01*
X95704749Y-98170299D01*
X95274174Y-98458000D01*
X94908000Y-98824174D01*
X94620299Y-99254749D01*
X94422127Y-99733178D01*
X94321100Y-100241076D01*
X93358080Y-100241076D01*
X93321971Y-100059549D01*
X93208144Y-99784747D01*
X93164882Y-99720000D01*
X93313345Y-99720000D01*
X93653373Y-99652364D01*
X93973673Y-99519692D01*
X94261935Y-99327081D01*
X94507081Y-99081935D01*
X94699692Y-98793673D01*
X94832364Y-98473373D01*
X94900000Y-98133345D01*
X94900000Y-97786655D01*
X94832364Y-97446627D01*
X94699692Y-97126327D01*
X94507081Y-96838065D01*
X94261935Y-96592919D01*
X93973673Y-96400308D01*
X93653373Y-96267636D01*
X93313345Y-96200000D01*
X92966655Y-96200000D01*
X92626627Y-96267636D01*
X92306327Y-96400308D01*
X92018065Y-96592919D01*
X91772919Y-96838065D01*
X91580308Y-97126327D01*
X91447636Y-97446627D01*
X91380000Y-97786655D01*
X91380000Y-98133345D01*
X91447636Y-98473373D01*
X91580308Y-98793673D01*
X91712638Y-98991719D01*
X91429549Y-99048029D01*
X91154747Y-99161856D01*
X90907431Y-99327107D01*
X90785001Y-99449537D01*
X90785001Y-91041170D01*
X109711003Y-72115169D01*
X109740001Y-72091371D01*
X109834974Y-71975646D01*
X109905546Y-71843617D01*
X109949003Y-71700356D01*
X109954798Y-71641519D01*
X110114759Y-71534637D01*
X110314637Y-71334759D01*
X110471680Y-71099727D01*
X110579853Y-70838574D01*
X110635000Y-70561335D01*
X110635000Y-70278665D01*
X110579853Y-70001426D01*
X110471680Y-69740273D01*
X110314637Y-69505241D01*
X110114759Y-69305363D01*
X109879727Y-69148320D01*
X109618574Y-69040147D01*
X109341335Y-68985000D01*
X109058665Y-68985000D01*
X108781426Y-69040147D01*
X108520273Y-69148320D01*
X108285241Y-69305363D01*
X108085363Y-69505241D01*
X107928320Y-69740273D01*
X107820147Y-70001426D01*
X107765000Y-70278665D01*
X107765000Y-70561335D01*
X107820147Y-70838574D01*
X107928320Y-71099727D01*
X108085363Y-71334759D01*
X108213586Y-71462982D01*
X91560000Y-88116569D01*
X91560000Y-84634801D01*
X106376114Y-69818688D01*
X106558665Y-69855000D01*
X106841335Y-69855000D01*
X107118574Y-69799853D01*
X107379727Y-69691680D01*
X107614759Y-69534637D01*
X107814637Y-69334759D01*
X107971680Y-69099727D01*
X108079853Y-68838574D01*
X108135000Y-68561335D01*
X108135000Y-68278665D01*
X108079853Y-68001426D01*
X107971680Y-67740273D01*
X107814637Y-67505241D01*
X107614759Y-67305363D01*
X107379727Y-67148320D01*
X107118574Y-67040147D01*
X106841335Y-66985000D01*
X106558665Y-66985000D01*
X106281426Y-67040147D01*
X106020273Y-67148320D01*
X105785241Y-67305363D01*
X105585363Y-67505241D01*
X105428320Y-67740273D01*
X105320147Y-68001426D01*
X105265000Y-68278665D01*
X105265000Y-68561335D01*
X105301312Y-68743886D01*
X90289003Y-83756196D01*
X90259999Y-83779999D01*
X90206676Y-83844974D01*
X90165026Y-83895724D01*
X90123359Y-83973677D01*
X90094454Y-84027754D01*
X90050997Y-84171015D01*
X90040000Y-84282668D01*
X90040000Y-84282678D01*
X90036324Y-84320000D01*
X90040000Y-84357323D01*
X90040001Y-87885197D01*
X88760000Y-89165199D01*
X88760000Y-82934801D01*
X103876114Y-67818688D01*
X104058665Y-67855000D01*
X104341335Y-67855000D01*
X104618574Y-67799853D01*
X104879727Y-67691680D01*
X105114759Y-67534637D01*
X105314637Y-67334759D01*
X105471680Y-67099727D01*
X105579853Y-66838574D01*
X105635000Y-66561335D01*
X105635000Y-66278665D01*
X105579853Y-66001426D01*
X105471680Y-65740273D01*
X105314637Y-65505241D01*
X105114759Y-65305363D01*
X104879727Y-65148320D01*
X104618574Y-65040147D01*
X104341335Y-64985000D01*
X104058665Y-64985000D01*
X103781426Y-65040147D01*
X103520273Y-65148320D01*
X103285241Y-65305363D01*
X103085363Y-65505241D01*
X102928320Y-65740273D01*
X102820147Y-66001426D01*
X102765000Y-66278665D01*
X102765000Y-66561335D01*
X102801312Y-66743886D01*
X87489003Y-82056196D01*
X87459999Y-82079999D01*
X87404871Y-82147174D01*
X87365026Y-82195724D01*
X87294455Y-82327753D01*
X87294454Y-82327754D01*
X87250997Y-82471015D01*
X87240000Y-82582668D01*
X87240000Y-82582678D01*
X87236324Y-82620000D01*
X87240000Y-82657322D01*
X87240001Y-125645197D01*
X81027046Y-131858152D01*
X80953373Y-131827636D01*
X80613345Y-131760000D01*
X80266655Y-131760000D01*
X79926627Y-131827636D01*
X79685000Y-131927721D01*
X79685000Y-126819078D01*
X79765044Y-126739034D01*
X79798817Y-126711317D01*
X79909411Y-126576559D01*
X79991589Y-126422813D01*
X80042195Y-126255990D01*
X80045683Y-126220572D01*
X80122500Y-126220572D01*
X80246982Y-126208312D01*
X80366680Y-126172002D01*
X80476994Y-126113037D01*
X80573685Y-126033685D01*
X80653037Y-125936994D01*
X80712002Y-125826680D01*
X80748312Y-125706982D01*
X80760572Y-125582500D01*
X80760572Y-123677500D01*
X80748312Y-123553018D01*
X80712002Y-123433320D01*
X80653037Y-123323006D01*
X80573685Y-123226315D01*
X80476994Y-123146963D01*
X80460781Y-123138297D01*
X80938950Y-122660129D01*
X80972718Y-122632416D01*
X81037479Y-122553506D01*
X81083312Y-122497658D01*
X81139959Y-122391677D01*
X81165490Y-122343912D01*
X81216096Y-122177089D01*
X81228901Y-122047076D01*
X81228901Y-122047068D01*
X81233182Y-122003599D01*
X81228901Y-121960130D01*
X81228901Y-119401278D01*
X81470000Y-119401278D01*
X81470000Y-119698722D01*
X81528029Y-119990451D01*
X81641856Y-120265253D01*
X81807107Y-120512569D01*
X82017431Y-120722893D01*
X82264747Y-120888144D01*
X82539549Y-121001971D01*
X82831278Y-121060000D01*
X83128722Y-121060000D01*
X83420451Y-121001971D01*
X83695253Y-120888144D01*
X83942569Y-120722893D01*
X84152893Y-120512569D01*
X84318144Y-120265253D01*
X84431971Y-119990451D01*
X84490000Y-119698722D01*
X84490000Y-119401278D01*
X84431971Y-119109549D01*
X84318144Y-118834747D01*
X84152893Y-118587431D01*
X83942569Y-118377107D01*
X83695253Y-118211856D01*
X83420451Y-118098029D01*
X83128722Y-118040000D01*
X82831278Y-118040000D01*
X82539549Y-118098029D01*
X82264747Y-118211856D01*
X82017431Y-118377107D01*
X81807107Y-118587431D01*
X81641856Y-118834747D01*
X81528029Y-119109549D01*
X81470000Y-119401278D01*
X81228901Y-119401278D01*
X81228901Y-118420392D01*
X81233182Y-118376926D01*
X81228901Y-118333460D01*
X81228901Y-118333450D01*
X81216096Y-118203437D01*
X81165490Y-118036614D01*
X81083312Y-117882868D01*
X81011200Y-117795000D01*
X81000433Y-117781880D01*
X81000431Y-117781878D01*
X80972718Y-117748110D01*
X80938951Y-117720398D01*
X79749999Y-116531447D01*
X79749999Y-116089203D01*
X79926627Y-116162364D01*
X80266655Y-116230000D01*
X80613345Y-116230000D01*
X80953373Y-116162364D01*
X81273673Y-116029692D01*
X81561935Y-115837081D01*
X81807081Y-115591935D01*
X81999692Y-115303673D01*
X82132364Y-114983373D01*
X82200000Y-114643345D01*
X82200000Y-114296655D01*
X82132364Y-113956627D01*
X82101848Y-113882954D01*
X86231003Y-109753799D01*
X86260001Y-109730001D01*
X86354974Y-109614276D01*
X86425546Y-109482247D01*
X86469003Y-109338986D01*
X86480000Y-109227333D01*
X86483677Y-109190000D01*
X86480000Y-109152667D01*
X86480000Y-80714801D01*
X101376114Y-65818688D01*
X101558665Y-65855000D01*
X101841335Y-65855000D01*
X102118574Y-65799853D01*
X102379727Y-65691680D01*
X102614759Y-65534637D01*
X102814637Y-65334759D01*
X102971680Y-65099727D01*
X103079853Y-64838574D01*
X103135000Y-64561335D01*
X103135000Y-64278665D01*
X103079853Y-64001426D01*
X102971680Y-63740273D01*
X102814637Y-63505241D01*
X102614759Y-63305363D01*
X102379727Y-63148320D01*
X102118574Y-63040147D01*
X101841335Y-62985000D01*
X101558665Y-62985000D01*
X101281426Y-63040147D01*
X101020273Y-63148320D01*
X100785241Y-63305363D01*
X100585363Y-63505241D01*
X100428320Y-63740273D01*
X100320147Y-64001426D01*
X100265000Y-64278665D01*
X100265000Y-64561335D01*
X100301312Y-64743886D01*
X85209003Y-79836196D01*
X85179999Y-79859999D01*
X85124871Y-79927174D01*
X85085026Y-79975724D01*
X85014455Y-80107753D01*
X85014454Y-80107754D01*
X84970997Y-80251015D01*
X84960000Y-80362668D01*
X84960000Y-80362678D01*
X84956324Y-80400000D01*
X84960000Y-80437322D01*
X84960001Y-108875197D01*
X81027046Y-112808152D01*
X80953373Y-112777636D01*
X80613345Y-112710000D01*
X80266655Y-112710000D01*
X79926627Y-112777636D01*
X79749999Y-112850797D01*
X79749999Y-107684968D01*
X79778817Y-107661317D01*
X79889411Y-107526559D01*
X79971589Y-107372813D01*
X80022195Y-107205990D01*
X80025683Y-107170572D01*
X80102500Y-107170572D01*
X80226982Y-107158312D01*
X80346680Y-107122002D01*
X80456994Y-107063037D01*
X80553685Y-106983685D01*
X80633037Y-106886994D01*
X80692002Y-106776680D01*
X80728312Y-106656982D01*
X80740572Y-106532500D01*
X80740572Y-104627500D01*
X80728312Y-104503018D01*
X80692002Y-104383320D01*
X80633037Y-104273006D01*
X80553685Y-104176315D01*
X80456994Y-104096963D01*
X80346680Y-104037998D01*
X80226982Y-104001688D01*
X80102500Y-103989428D01*
X80035000Y-103989428D01*
X80035000Y-103213552D01*
X80918951Y-102329602D01*
X80952718Y-102301890D01*
X81021437Y-102218157D01*
X81063312Y-102167132D01*
X81145489Y-102013387D01*
X81145490Y-102013386D01*
X81196096Y-101846563D01*
X81208901Y-101716550D01*
X81208901Y-101716542D01*
X81213182Y-101673073D01*
X81208901Y-101629604D01*
X81208901Y-100351278D01*
X81450000Y-100351278D01*
X81450000Y-100648722D01*
X81508029Y-100940451D01*
X81621856Y-101215253D01*
X81787107Y-101462569D01*
X81997431Y-101672893D01*
X82244747Y-101838144D01*
X82519549Y-101951971D01*
X82811278Y-102010000D01*
X83108722Y-102010000D01*
X83400451Y-101951971D01*
X83675253Y-101838144D01*
X83922569Y-101672893D01*
X84132893Y-101462569D01*
X84298144Y-101215253D01*
X84411971Y-100940451D01*
X84470000Y-100648722D01*
X84470000Y-100351278D01*
X84411971Y-100059549D01*
X84298144Y-99784747D01*
X84132893Y-99537431D01*
X83922569Y-99327107D01*
X83675253Y-99161856D01*
X83400451Y-99048029D01*
X83108722Y-98990000D01*
X82811278Y-98990000D01*
X82519549Y-99048029D01*
X82244747Y-99161856D01*
X81997431Y-99327107D01*
X81787107Y-99537431D01*
X81621856Y-99784747D01*
X81508029Y-100059549D01*
X81450000Y-100351278D01*
X81208901Y-100351278D01*
X81208901Y-97698369D01*
X81213182Y-97654902D01*
X81208901Y-97611436D01*
X81208901Y-97611426D01*
X81196096Y-97481413D01*
X81145490Y-97314590D01*
X81063312Y-97160844D01*
X81000654Y-97084495D01*
X81253673Y-96979692D01*
X81541935Y-96787081D01*
X81787081Y-96541935D01*
X81979692Y-96253673D01*
X82112364Y-95933373D01*
X82180000Y-95593345D01*
X82180000Y-95246655D01*
X82112364Y-94906627D01*
X81979692Y-94586327D01*
X81787081Y-94298065D01*
X81541935Y-94052919D01*
X81253673Y-93860308D01*
X81177762Y-93828865D01*
X81160442Y-81514359D01*
X98814721Y-63860081D01*
X98824277Y-63854973D01*
X98869978Y-63817467D01*
X99058665Y-63855000D01*
X99341335Y-63855000D01*
X99618574Y-63799853D01*
X99879727Y-63691680D01*
X100114759Y-63534637D01*
X100314637Y-63334759D01*
X100471680Y-63099727D01*
X100579853Y-62838574D01*
X100635000Y-62561335D01*
X100635000Y-62278665D01*
X100579853Y-62001426D01*
X100471680Y-61740273D01*
X100314637Y-61505241D01*
X100114759Y-61305363D01*
X99879727Y-61148320D01*
X99618574Y-61040147D01*
X99341335Y-60985000D01*
X99058665Y-60985000D01*
X98781426Y-61040147D01*
X98520273Y-61148320D01*
X98285241Y-61305363D01*
X98085363Y-61505241D01*
X97928320Y-61740273D01*
X97820147Y-62001426D01*
X97765000Y-62278665D01*
X97765000Y-62561335D01*
X97797994Y-62727204D01*
X79889003Y-80636196D01*
X79859999Y-80659999D01*
X79859652Y-80660422D01*
X79859241Y-80660760D01*
X79812574Y-80717787D01*
X79765026Y-80775724D01*
X79764771Y-80776202D01*
X79764430Y-80776618D01*
X79729625Y-80841953D01*
X79694454Y-80907753D01*
X79694297Y-80908272D01*
X79694044Y-80908746D01*
X79672705Y-80979452D01*
X79650997Y-81051014D01*
X79650944Y-81051556D01*
X79650789Y-81052068D01*
X79643661Y-81125492D01*
X79636323Y-81200000D01*
X79640053Y-81237874D01*
X79657765Y-93830718D01*
X79586327Y-93860308D01*
X79298065Y-94052919D01*
X79052919Y-94298065D01*
X78860308Y-94586327D01*
X78756799Y-94836222D01*
X71060001Y-87139425D01*
X71060001Y-70298585D01*
X71076888Y-70295226D01*
X71265246Y-70217205D01*
X71434764Y-70103937D01*
X71578927Y-69959774D01*
X71692195Y-69790256D01*
X71770216Y-69601898D01*
X71809990Y-69401939D01*
X71809990Y-69198061D01*
X71770216Y-68998102D01*
X71692195Y-68809744D01*
X71578927Y-68640226D01*
X71434764Y-68496063D01*
X71265246Y-68382795D01*
X71076888Y-68304774D01*
X70876929Y-68265000D01*
X70814792Y-68265000D01*
X69985001Y-67435210D01*
X69985001Y-66738072D01*
X71440000Y-66738072D01*
X71564482Y-66725812D01*
X71684180Y-66689502D01*
X71794494Y-66630537D01*
X71891185Y-66551185D01*
X71970537Y-66454494D01*
X72029502Y-66344180D01*
X72065812Y-66224482D01*
X72078072Y-66100000D01*
X72078072Y-65960000D01*
X73532678Y-65960000D01*
X73570000Y-65963676D01*
X73607322Y-65960000D01*
X73607333Y-65960000D01*
X73718986Y-65949003D01*
X73862247Y-65905546D01*
X73994276Y-65834974D01*
X74110001Y-65740001D01*
X74133804Y-65710997D01*
X77961157Y-61883645D01*
X78068514Y-61905000D01*
X78331486Y-61905000D01*
X78589405Y-61853696D01*
X78832359Y-61753061D01*
X79051013Y-61606962D01*
X79236962Y-61421013D01*
X79383061Y-61202359D01*
X79483696Y-60959405D01*
X79535000Y-60701486D01*
X79535000Y-60438514D01*
X79483696Y-60180595D01*
X79383061Y-59937641D01*
X79236962Y-59718987D01*
X79051013Y-59533038D01*
X78832359Y-59386939D01*
X78589405Y-59286304D01*
X78331486Y-59235000D01*
X78068514Y-59235000D01*
X77810595Y-59286304D01*
X77567641Y-59386939D01*
X77348987Y-59533038D01*
X77163038Y-59718987D01*
X77016939Y-59937641D01*
X76916304Y-60180595D01*
X76865000Y-60438514D01*
X76865000Y-60701486D01*
X76886355Y-60808843D01*
X73255199Y-64440000D01*
X72078072Y-64440000D01*
X72078072Y-64300000D01*
X72065812Y-64175518D01*
X72029502Y-64055820D01*
X71970537Y-63945506D01*
X71891185Y-63848815D01*
X71794494Y-63769463D01*
X71684180Y-63710498D01*
X71564482Y-63674188D01*
X71440000Y-63661928D01*
X69640000Y-63661928D01*
X69515518Y-63674188D01*
X69397724Y-63709920D01*
X69295001Y-63607198D01*
X69295001Y-59233470D01*
X69543109Y-59321481D01*
X69773000Y-59200814D01*
X69773000Y-58007000D01*
X70027000Y-58007000D01*
X70027000Y-59200814D01*
X70256891Y-59321481D01*
X70531252Y-59224157D01*
X70781355Y-59075178D01*
X70997588Y-58880269D01*
X71171641Y-58646920D01*
X71296825Y-58384099D01*
X71341476Y-58236890D01*
X71220155Y-58007000D01*
X70027000Y-58007000D01*
X69773000Y-58007000D01*
X69753000Y-58007000D01*
X69753000Y-57753000D01*
X69773000Y-57753000D01*
X69773000Y-57733000D01*
X70027000Y-57733000D01*
X70027000Y-57753000D01*
X71220155Y-57753000D01*
X71309621Y-57583472D01*
X71501898Y-57545226D01*
X71690256Y-57467205D01*
X71859774Y-57353937D01*
X72003937Y-57209774D01*
X72117205Y-57040256D01*
X72195226Y-56851898D01*
X72235000Y-56651939D01*
X72235000Y-56448061D01*
X72195226Y-56248102D01*
X72117205Y-56059744D01*
X72003937Y-55890226D01*
X71960000Y-55846289D01*
X71960000Y-53871269D01*
X77458336Y-53871269D01*
X77517797Y-54105037D01*
X77756242Y-54215934D01*
X78011740Y-54278183D01*
X78274473Y-54289390D01*
X78534344Y-54249125D01*
X78781366Y-54158935D01*
X78882203Y-54105037D01*
X78941664Y-53871269D01*
X78200000Y-53129605D01*
X77458336Y-53871269D01*
X71960000Y-53871269D01*
X71960000Y-53024473D01*
X76860610Y-53024473D01*
X76900875Y-53284344D01*
X76991065Y-53531366D01*
X77044963Y-53632203D01*
X77278731Y-53691664D01*
X78020395Y-52950000D01*
X77278731Y-52208336D01*
X77044963Y-52267797D01*
X76934066Y-52506242D01*
X76871817Y-52761740D01*
X76860610Y-53024473D01*
X71960000Y-53024473D01*
X71960000Y-49057325D01*
X71963676Y-49020000D01*
X71960000Y-48982675D01*
X71960000Y-48982667D01*
X71949003Y-48871014D01*
X71905546Y-48727753D01*
X71834974Y-48595724D01*
X71740001Y-48479999D01*
X71711003Y-48456201D01*
X71341210Y-48086408D01*
X71385000Y-47866260D01*
X71385000Y-47755009D01*
X73447210Y-47755009D01*
X77511585Y-51819385D01*
G36*
X91295200Y-45784999D02*
G01*
X79400245Y-45784999D01*
X79465934Y-45643758D01*
X79528183Y-45388260D01*
X79539390Y-45125527D01*
X79499125Y-44865656D01*
X79408935Y-44618634D01*
X79355037Y-44517797D01*
X79121269Y-44458336D01*
X78379605Y-45200000D01*
X78393748Y-45214143D01*
X78214143Y-45393748D01*
X78200000Y-45379605D01*
X78185858Y-45393748D01*
X78006253Y-45214143D01*
X78020395Y-45200000D01*
X77278731Y-44458336D01*
X77044963Y-44517797D01*
X76934066Y-44756242D01*
X76871817Y-45011740D01*
X76860610Y-45274473D01*
X76900875Y-45534344D01*
X76991065Y-45781366D01*
X76993007Y-45784999D01*
X71579801Y-45784999D01*
X71341209Y-45546408D01*
X71385000Y-45326260D01*
X71385000Y-45033740D01*
X71327932Y-44746842D01*
X71215990Y-44476589D01*
X71083786Y-44278731D01*
X77458336Y-44278731D01*
X78200000Y-45020395D01*
X78941664Y-44278731D01*
X78882203Y-44044963D01*
X78643758Y-43934066D01*
X78388260Y-43871817D01*
X78125527Y-43860610D01*
X77865656Y-43900875D01*
X77618634Y-43991065D01*
X77517797Y-44044963D01*
X77458336Y-44278731D01*
X71083786Y-44278731D01*
X71053475Y-44233368D01*
X70846632Y-44026525D01*
X70672240Y-43910000D01*
X70846632Y-43793475D01*
X71053475Y-43586632D01*
X71178178Y-43400000D01*
X88910201Y-43400000D01*
X91295200Y-45784999D01*
G37*
X91295200Y-45784999D02*
X79400245Y-45784999D01*
X79465934Y-45643758D01*
X79528183Y-45388260D01*
X79539390Y-45125527D01*
X79499125Y-44865656D01*
X79408935Y-44618634D01*
X79355037Y-44517797D01*
X79121269Y-44458336D01*
X78379605Y-45200000D01*
X78393748Y-45214143D01*
X78214143Y-45393748D01*
X78200000Y-45379605D01*
X78185858Y-45393748D01*
X78006253Y-45214143D01*
X78020395Y-45200000D01*
X77278731Y-44458336D01*
X77044963Y-44517797D01*
X76934066Y-44756242D01*
X76871817Y-45011740D01*
X76860610Y-45274473D01*
X76900875Y-45534344D01*
X76991065Y-45781366D01*
X76993007Y-45784999D01*
X71579801Y-45784999D01*
X71341209Y-45546408D01*
X71385000Y-45326260D01*
X71385000Y-45033740D01*
X71327932Y-44746842D01*
X71215990Y-44476589D01*
X71083786Y-44278731D01*
X77458336Y-44278731D01*
X78200000Y-45020395D01*
X78941664Y-44278731D01*
X78882203Y-44044963D01*
X78643758Y-43934066D01*
X78388260Y-43871817D01*
X78125527Y-43860610D01*
X77865656Y-43900875D01*
X77618634Y-43991065D01*
X77517797Y-44044963D01*
X77458336Y-44278731D01*
X71083786Y-44278731D01*
X71053475Y-44233368D01*
X70846632Y-44026525D01*
X70672240Y-43910000D01*
X70846632Y-43793475D01*
X71053475Y-43586632D01*
X71178178Y-43400000D01*
X88910201Y-43400000D01*
X91295200Y-45784999D01*
M02*
