M48
; DRILL file {KiCad (5.1.5)-3} date 2021-09-09 23:02:02
; FORMAT={-:-/ absolute / metric / decimal}
; #@! TF.CreationDate,2021-09-09T23:02:02-04:00
; #@! TF.GenerationSoftware,Kicad,Pcbnew,(5.1.5)-3
FMAT,2
METRIC
T1C0.400
T2C0.700
T3C0.800
T4C0.900
T5C1.000
T6C1.040
T7C1.470
T8C2.200
T9C1.750
T10C3.048
T11C3.988
%
G90
G05
T1
X70.775Y-69.3
X71.2Y-56.55
T2
X134.2Y-39.8
X134.2Y-47.42
X111.7Y-39.8
X111.7Y-47.42
X101.7Y-37.8
X101.7Y-45.42
X126.7Y-39.8
X126.7Y-47.42
X114.2Y-35.8
X114.2Y-43.42
X119.2Y-39.8
X119.2Y-47.42
X129.2Y-35.8
X129.2Y-43.42
X104.2Y-39.8
X104.2Y-47.42
X124.2Y-37.8
X124.2Y-45.42
X78.2Y-52.95
X78.2Y-60.57
X139.2Y-37.8
X139.2Y-45.42
X99.2Y-35.8
X99.2Y-43.42
X109.2Y-37.8
X109.2Y-45.42
X116.7Y-37.8
X116.7Y-45.42
X136.7Y-35.8
X136.7Y-43.42
X121.7Y-35.8
X121.7Y-43.42
X131.7Y-37.8
X131.7Y-45.42
X106.7Y-35.8
X106.7Y-43.42
X78.2Y-37.58
X78.2Y-45.2
T3
X139.2Y-58.8
X139.2Y-66.42
X104.2Y-58.8
X104.2Y-66.42
X126.7Y-58.8
X126.7Y-66.42
X136.7Y-56.8
X136.7Y-64.42
X129.2Y-60.8
X129.2Y-68.42
X131.7Y-62.8
X131.7Y-70.42
X114.2Y-56.8
X114.2Y-64.42
X116.7Y-58.8
X116.7Y-66.42
X124.2Y-56.8
X124.2Y-64.42
X109.2Y-62.8
X109.2Y-70.42
X106.7Y-60.8
X106.7Y-68.42
X134.2Y-54.8
X134.2Y-62.42
X119.2Y-60.8
X119.2Y-68.42
X111.7Y-54.8
X111.7Y-62.42
X101.7Y-56.8
X101.7Y-64.42
X121.7Y-54.8
X121.7Y-62.42
X99.2Y-54.8
X99.2Y-62.42
T4
X76.885Y-33.6
X79.425Y-33.6
X68.0Y-65.2
X70.54Y-65.2
T5
X67.36Y-40.1
X67.36Y-42.64
X67.36Y-45.18
X67.36Y-47.72
X67.36Y-50.26
X67.36Y-52.8
X67.36Y-55.34
X67.36Y-57.88
X69.9Y-40.1
X69.9Y-42.64
X69.9Y-45.18
X69.9Y-47.72
X69.9Y-50.26
X69.9Y-52.8
X69.9Y-55.34
X69.9Y-57.88
T6
X76.63Y-143.68
X79.17Y-143.68
X95.68Y-143.68
X98.22Y-143.68
X76.61Y-105.58
X79.15Y-105.58
X114.68Y-181.83
X117.22Y-181.83
X95.68Y-124.63
X98.22Y-124.63
X133.78Y-172.28
X136.32Y-172.28
X76.63Y-162.78
X79.17Y-162.78
X133.78Y-105.58
X136.32Y-105.58
X114.73Y-124.63
X117.27Y-124.63
X95.68Y-162.78
X98.22Y-162.78
X76.63Y-124.63
X79.17Y-124.63
X114.73Y-105.58
X117.27Y-105.58
X86.13Y-181.83
X88.67Y-181.83
X114.73Y-162.78
X117.27Y-162.78
X133.78Y-134.18
X136.32Y-134.18
X95.68Y-105.58
X98.22Y-105.58
X114.73Y-143.68
X117.27Y-143.68
T7
X131.24Y-164.66
X137.59Y-162.12
X74.09Y-155.16
X80.44Y-152.62
X131.24Y-97.96
X137.59Y-95.42
X112.19Y-117.01
X118.54Y-114.47
X93.14Y-155.16
X99.49Y-152.62
X74.09Y-117.01
X80.44Y-114.47
X112.19Y-97.96
X118.54Y-95.42
X83.59Y-174.21
X89.94Y-171.67
X112.19Y-155.16
X118.54Y-152.62
X131.24Y-126.56
X137.59Y-124.02
X93.14Y-97.96
X99.49Y-95.42
X112.19Y-136.06
X118.54Y-133.52
X74.09Y-136.06
X80.44Y-133.52
X93.14Y-136.06
X99.49Y-133.52
X74.07Y-97.96
X80.42Y-95.42
X112.14Y-174.21
X118.49Y-171.67
X93.14Y-117.01
X99.49Y-114.47
T8
X140.55Y-30.0
X135.0Y-148.1
X87.5Y-167.1
X140.55Y-86.975
X67.525Y-30.0
X67.525Y-86.975
X68.4Y-129.1
T9
X110.87Y-176.75
X121.03Y-176.75
X91.87Y-119.55
X102.03Y-119.55
X129.97Y-167.2
X140.13Y-167.2
X72.82Y-157.7
X82.98Y-157.7
X129.97Y-100.5
X140.13Y-100.5
X110.92Y-119.55
X121.08Y-119.55
X91.87Y-157.7
X102.03Y-157.7
X72.82Y-119.55
X82.98Y-119.55
X110.92Y-100.5
X121.08Y-100.5
X82.32Y-176.75
X92.48Y-176.75
X110.92Y-157.7
X121.08Y-157.7
X129.97Y-129.1
X140.13Y-129.1
X91.87Y-100.5
X102.03Y-100.5
X110.92Y-138.6
X121.08Y-138.6
X72.82Y-138.6
X82.98Y-138.6
X91.87Y-138.6
X102.03Y-138.6
X72.8Y-100.5
X82.96Y-100.5
T10
X142.035Y-155.262
X142.035Y-179.138
X75.462Y-183.735
X99.338Y-183.735
X142.035Y-117.162
X142.035Y-141.038
T11
X126.795Y-155.262
X126.795Y-179.138
X135.05Y-167.2
X77.9Y-157.7
X135.05Y-100.5
X116.0Y-119.55
X96.95Y-157.7
X77.9Y-119.55
X116.0Y-100.5
X75.462Y-168.495
X87.4Y-176.75
X99.338Y-168.495
X116.0Y-157.7
X126.795Y-117.162
X126.795Y-141.038
X135.05Y-129.1
X96.95Y-100.5
X116.0Y-138.6
X77.9Y-138.6
X96.95Y-138.6
X77.88Y-100.5
X115.95Y-176.75
X96.95Y-119.55
T0
M30
