G04 #@! TF.GenerationSoftware,KiCad,Pcbnew,(5.1.5)-3*
G04 #@! TF.CreationDate,2021-09-09T23:23:36-04:00*
G04 #@! TF.ProjectId,numpad_pcb,6e756d70-6164-45f7-9063-622e6b696361,rev?*
G04 #@! TF.SameCoordinates,Original*
G04 #@! TF.FileFunction,Legend,Bot*
G04 #@! TF.FilePolarity,Positive*
%FSLAX46Y46*%
G04 Gerber Fmt 4.6, Leading zero omitted, Abs format (unit mm)*
G04 Created by KiCad (PCBNEW (5.1.5)-3) date 2021-09-09 23:23:36*
%MOMM*%
%LPD*%
G04 APERTURE LIST*
%ADD10C,0.300000*%
%ADD11C,4.502000*%
%ADD12C,1.852000*%
%ADD13R,2.007000X2.007000*%
%ADD14C,2.007000*%
%ADD15C,2.352000*%
%ADD16C,4.089800*%
%ADD17O,1.702000X1.702000*%
%ADD18R,1.702000X1.702000*%
%ADD19O,1.502000X1.502000*%
%ADD20C,1.502000*%
%ADD21C,3.150000*%
%ADD22O,1.802000X1.802000*%
%ADD23R,1.802000X1.802000*%
%ADD24C,1.902000*%
%ADD25R,1.902000X1.902000*%
G04 APERTURE END LIST*
D10*
X125928571Y-83578571D02*
X125928571Y-84650000D01*
X126000000Y-84864285D01*
X126142857Y-85007142D01*
X126357142Y-85078571D01*
X126500000Y-85078571D01*
X124500000Y-85078571D02*
X125214285Y-85078571D01*
X125214285Y-83578571D01*
X123142857Y-84935714D02*
X123214285Y-85007142D01*
X123428571Y-85078571D01*
X123571428Y-85078571D01*
X123785714Y-85007142D01*
X123928571Y-84864285D01*
X124000000Y-84721428D01*
X124071428Y-84435714D01*
X124071428Y-84221428D01*
X124000000Y-83935714D01*
X123928571Y-83792857D01*
X123785714Y-83650000D01*
X123571428Y-83578571D01*
X123428571Y-83578571D01*
X123214285Y-83650000D01*
X123142857Y-83721428D01*
X122071428Y-83578571D02*
X122071428Y-84650000D01*
X122142857Y-84864285D01*
X122285714Y-85007142D01*
X122500000Y-85078571D01*
X122642857Y-85078571D01*
X120642857Y-85078571D02*
X121357142Y-85078571D01*
X121357142Y-83578571D01*
X119285714Y-84935714D02*
X119357142Y-85007142D01*
X119571428Y-85078571D01*
X119714285Y-85078571D01*
X119928571Y-85007142D01*
X120071428Y-84864285D01*
X120142857Y-84721428D01*
X120214285Y-84435714D01*
X120214285Y-84221428D01*
X120142857Y-83935714D01*
X120071428Y-83792857D01*
X119928571Y-83650000D01*
X119714285Y-83578571D01*
X119571428Y-83578571D01*
X119357142Y-83650000D01*
X119285714Y-83721428D01*
X118214285Y-83578571D02*
X118214285Y-84650000D01*
X118285714Y-84864285D01*
X118428571Y-85007142D01*
X118642857Y-85078571D01*
X118785714Y-85078571D01*
X116785714Y-85078571D02*
X117500000Y-85078571D01*
X117500000Y-83578571D01*
X115428571Y-84935714D02*
X115500000Y-85007142D01*
X115714285Y-85078571D01*
X115857142Y-85078571D01*
X116071428Y-85007142D01*
X116214285Y-84864285D01*
X116285714Y-84721428D01*
X116357142Y-84435714D01*
X116357142Y-84221428D01*
X116285714Y-83935714D01*
X116214285Y-83792857D01*
X116071428Y-83650000D01*
X115857142Y-83578571D01*
X115714285Y-83578571D01*
X115500000Y-83650000D01*
X115428571Y-83721428D01*
X114357142Y-83578571D02*
X114357142Y-84650000D01*
X114428571Y-84864285D01*
X114571428Y-85007142D01*
X114785714Y-85078571D01*
X114928571Y-85078571D01*
X112928571Y-85078571D02*
X113642857Y-85078571D01*
X113642857Y-83578571D01*
X111571428Y-84935714D02*
X111642857Y-85007142D01*
X111857142Y-85078571D01*
X112000000Y-85078571D01*
X112214285Y-85007142D01*
X112357142Y-84864285D01*
X112428571Y-84721428D01*
X112500000Y-84435714D01*
X112500000Y-84221428D01*
X112428571Y-83935714D01*
X112357142Y-83792857D01*
X112214285Y-83650000D01*
X112000000Y-83578571D01*
X111857142Y-83578571D01*
X111642857Y-83650000D01*
X111571428Y-83721428D01*
X124842857Y-72596428D02*
X124985714Y-72525000D01*
X125128571Y-72382142D01*
X125342857Y-72167857D01*
X125485714Y-72096428D01*
X125628571Y-72096428D01*
X125557142Y-72453571D02*
X125700000Y-72382142D01*
X125842857Y-72239285D01*
X125914285Y-71953571D01*
X125914285Y-71453571D01*
X125842857Y-71167857D01*
X125700000Y-71025000D01*
X125557142Y-70953571D01*
X125271428Y-70953571D01*
X125128571Y-71025000D01*
X124985714Y-71167857D01*
X124914285Y-71453571D01*
X124914285Y-71953571D01*
X124985714Y-72239285D01*
X125128571Y-72382142D01*
X125271428Y-72453571D01*
X125557142Y-72453571D01*
X123771428Y-71667857D02*
X123557142Y-71739285D01*
X123485714Y-71810714D01*
X123414285Y-71953571D01*
X123414285Y-72167857D01*
X123485714Y-72310714D01*
X123557142Y-72382142D01*
X123700000Y-72453571D01*
X124271428Y-72453571D01*
X124271428Y-70953571D01*
X123771428Y-70953571D01*
X123628571Y-71025000D01*
X123557142Y-71096428D01*
X123485714Y-71239285D01*
X123485714Y-71382142D01*
X123557142Y-71525000D01*
X123628571Y-71596428D01*
X123771428Y-71667857D01*
X124271428Y-71667857D01*
X122557142Y-72453571D02*
X122700000Y-72382142D01*
X122771428Y-72310714D01*
X122842857Y-72167857D01*
X122842857Y-71739285D01*
X122771428Y-71596428D01*
X122700000Y-71525000D01*
X122557142Y-71453571D01*
X122342857Y-71453571D01*
X122200000Y-71525000D01*
X122128571Y-71596428D01*
X122057142Y-71739285D01*
X122057142Y-72167857D01*
X122128571Y-72310714D01*
X122200000Y-72382142D01*
X122342857Y-72453571D01*
X122557142Y-72453571D01*
X120771428Y-72453571D02*
X120771428Y-71667857D01*
X120842857Y-71525000D01*
X120985714Y-71453571D01*
X121271428Y-71453571D01*
X121414285Y-71525000D01*
X120771428Y-72382142D02*
X120914285Y-72453571D01*
X121271428Y-72453571D01*
X121414285Y-72382142D01*
X121485714Y-72239285D01*
X121485714Y-72096428D01*
X121414285Y-71953571D01*
X121271428Y-71882142D01*
X120914285Y-71882142D01*
X120771428Y-71810714D01*
X120057142Y-72453571D02*
X120057142Y-71453571D01*
X120057142Y-71739285D02*
X119985714Y-71596428D01*
X119914285Y-71525000D01*
X119771428Y-71453571D01*
X119628571Y-71453571D01*
X118485714Y-72453571D02*
X118485714Y-70953571D01*
X118485714Y-72382142D02*
X118628571Y-72453571D01*
X118914285Y-72453571D01*
X119057142Y-72382142D01*
X119128571Y-72310714D01*
X119200000Y-72167857D01*
X119200000Y-71739285D01*
X119128571Y-71596428D01*
X119057142Y-71525000D01*
X118914285Y-71453571D01*
X118628571Y-71453571D01*
X118485714Y-71525000D01*
X116628571Y-72453571D02*
X116628571Y-71453571D01*
X116628571Y-71739285D02*
X116557142Y-71596428D01*
X116485714Y-71525000D01*
X116342857Y-71453571D01*
X116200000Y-71453571D01*
X115128571Y-72382142D02*
X115271428Y-72453571D01*
X115557142Y-72453571D01*
X115700000Y-72382142D01*
X115771428Y-72239285D01*
X115771428Y-71667857D01*
X115700000Y-71525000D01*
X115557142Y-71453571D01*
X115271428Y-71453571D01*
X115128571Y-71525000D01*
X115057142Y-71667857D01*
X115057142Y-71810714D01*
X115771428Y-71953571D01*
X114557142Y-71453571D02*
X114200000Y-72453571D01*
X113842857Y-71453571D01*
X112985714Y-70953571D02*
X112842857Y-70953571D01*
X112700000Y-71025000D01*
X112628571Y-71096428D01*
X112557142Y-71239285D01*
X112485714Y-71525000D01*
X112485714Y-71882142D01*
X112557142Y-72167857D01*
X112628571Y-72310714D01*
X112700000Y-72382142D01*
X112842857Y-72453571D01*
X112985714Y-72453571D01*
X113128571Y-72382142D01*
X113200000Y-72310714D01*
X113271428Y-72167857D01*
X113342857Y-71882142D01*
X113342857Y-71525000D01*
X113271428Y-71239285D01*
X113200000Y-71096428D01*
X113128571Y-71025000D01*
X112985714Y-70953571D01*
X135628571Y-74217857D02*
X135414285Y-74289285D01*
X135342857Y-74360714D01*
X135271428Y-74503571D01*
X135271428Y-74717857D01*
X135342857Y-74860714D01*
X135414285Y-74932142D01*
X135557142Y-75003571D01*
X136128571Y-75003571D01*
X136128571Y-73503571D01*
X135628571Y-73503571D01*
X135485714Y-73575000D01*
X135414285Y-73646428D01*
X135342857Y-73789285D01*
X135342857Y-73932142D01*
X135414285Y-74075000D01*
X135485714Y-74146428D01*
X135628571Y-74217857D01*
X136128571Y-74217857D01*
X134771428Y-74003571D02*
X134414285Y-75003571D01*
X134057142Y-74003571D02*
X134414285Y-75003571D01*
X134557142Y-75360714D01*
X134628571Y-75432142D01*
X134771428Y-75503571D01*
X131342857Y-75146428D02*
X131485714Y-75075000D01*
X131628571Y-74932142D01*
X131842857Y-74717857D01*
X131985714Y-74646428D01*
X132128571Y-74646428D01*
X132057142Y-75003571D02*
X132200000Y-74932142D01*
X132342857Y-74789285D01*
X132414285Y-74503571D01*
X132414285Y-74003571D01*
X132342857Y-73717857D01*
X132200000Y-73575000D01*
X132057142Y-73503571D01*
X131771428Y-73503571D01*
X131628571Y-73575000D01*
X131485714Y-73717857D01*
X131414285Y-74003571D01*
X131414285Y-74503571D01*
X131485714Y-74789285D01*
X131628571Y-74932142D01*
X131771428Y-75003571D01*
X132057142Y-75003571D01*
X130128571Y-74003571D02*
X130128571Y-75003571D01*
X130771428Y-74003571D02*
X130771428Y-74789285D01*
X130700000Y-74932142D01*
X130557142Y-75003571D01*
X130342857Y-75003571D01*
X130200000Y-74932142D01*
X130128571Y-74860714D01*
X128771428Y-75003571D02*
X128771428Y-74217857D01*
X128842857Y-74075000D01*
X128985714Y-74003571D01*
X129271428Y-74003571D01*
X129414285Y-74075000D01*
X128771428Y-74932142D02*
X128914285Y-75003571D01*
X129271428Y-75003571D01*
X129414285Y-74932142D01*
X129485714Y-74789285D01*
X129485714Y-74646428D01*
X129414285Y-74503571D01*
X129271428Y-74432142D01*
X128914285Y-74432142D01*
X128771428Y-74360714D01*
X128057142Y-74003571D02*
X128057142Y-75003571D01*
X128057142Y-74146428D02*
X127985714Y-74075000D01*
X127842857Y-74003571D01*
X127628571Y-74003571D01*
X127485714Y-74075000D01*
X127414285Y-74217857D01*
X127414285Y-75003571D01*
X126914285Y-74003571D02*
X126342857Y-74003571D01*
X126700000Y-73503571D02*
X126700000Y-74789285D01*
X126628571Y-74932142D01*
X126485714Y-75003571D01*
X126342857Y-75003571D01*
X125200000Y-74003571D02*
X125200000Y-75003571D01*
X125842857Y-74003571D02*
X125842857Y-74789285D01*
X125771428Y-74932142D01*
X125628571Y-75003571D01*
X125414285Y-75003571D01*
X125271428Y-74932142D01*
X125200000Y-74860714D01*
X124485714Y-75003571D02*
X124485714Y-74003571D01*
X124485714Y-74146428D02*
X124414285Y-74075000D01*
X124271428Y-74003571D01*
X124057142Y-74003571D01*
X123914285Y-74075000D01*
X123842857Y-74217857D01*
X123842857Y-75003571D01*
X123842857Y-74217857D02*
X123771428Y-74075000D01*
X123628571Y-74003571D01*
X123414285Y-74003571D01*
X123271428Y-74075000D01*
X123200000Y-74217857D01*
X123200000Y-75003571D01*
X122485714Y-75003571D02*
X122485714Y-73503571D01*
X121985714Y-74575000D01*
X121485714Y-73503571D01*
X121485714Y-75003571D01*
X120128571Y-75003571D02*
X120128571Y-74217857D01*
X120200000Y-74075000D01*
X120342857Y-74003571D01*
X120628571Y-74003571D01*
X120771428Y-74075000D01*
X120128571Y-74932142D02*
X120271428Y-75003571D01*
X120628571Y-75003571D01*
X120771428Y-74932142D01*
X120842857Y-74789285D01*
X120842857Y-74646428D01*
X120771428Y-74503571D01*
X120628571Y-74432142D01*
X120271428Y-74432142D01*
X120128571Y-74360714D01*
X119414285Y-74003571D02*
X119414285Y-75003571D01*
X119414285Y-74146428D02*
X119342857Y-74075000D01*
X119200000Y-74003571D01*
X118985714Y-74003571D01*
X118842857Y-74075000D01*
X118771428Y-74217857D01*
X118771428Y-75003571D01*
X118057142Y-75003571D02*
X118057142Y-74003571D01*
X118057142Y-73503571D02*
X118128571Y-73575000D01*
X118057142Y-73646428D01*
X117985714Y-73575000D01*
X118057142Y-73503571D01*
X118057142Y-73646428D01*
X116700000Y-75003571D02*
X116700000Y-74217857D01*
X116771428Y-74075000D01*
X116914285Y-74003571D01*
X117200000Y-74003571D01*
X117342857Y-74075000D01*
X116700000Y-74932142D02*
X116842857Y-75003571D01*
X117200000Y-75003571D01*
X117342857Y-74932142D01*
X117414285Y-74789285D01*
X117414285Y-74646428D01*
X117342857Y-74503571D01*
X117200000Y-74432142D01*
X116842857Y-74432142D01*
X116700000Y-74360714D01*
X115342857Y-74932142D02*
X115485714Y-75003571D01*
X115771428Y-75003571D01*
X115914285Y-74932142D01*
X115985714Y-74860714D01*
X116057142Y-74717857D01*
X116057142Y-74289285D01*
X115985714Y-74146428D01*
X115914285Y-74075000D01*
X115771428Y-74003571D01*
X115485714Y-74003571D01*
X115342857Y-74075000D01*
X112914285Y-75003571D02*
X112914285Y-74217857D01*
X112985714Y-74075000D01*
X113128571Y-74003571D01*
X113414285Y-74003571D01*
X113557142Y-74075000D01*
X112914285Y-74932142D02*
X113057142Y-75003571D01*
X113414285Y-75003571D01*
X113557142Y-74932142D01*
X113628571Y-74789285D01*
X113628571Y-74646428D01*
X113557142Y-74503571D01*
X113414285Y-74432142D01*
X113057142Y-74432142D01*
X112914285Y-74360714D01*
X112200000Y-74003571D02*
X112200000Y-75003571D01*
X112200000Y-74146428D02*
X112128571Y-74075000D01*
X111985714Y-74003571D01*
X111771428Y-74003571D01*
X111628571Y-74075000D01*
X111557142Y-74217857D01*
X111557142Y-75003571D01*
X110200000Y-75003571D02*
X110200000Y-73503571D01*
X110200000Y-74932142D02*
X110342857Y-75003571D01*
X110628571Y-75003571D01*
X110771428Y-74932142D01*
X110842857Y-74860714D01*
X110914285Y-74717857D01*
X110914285Y-74289285D01*
X110842857Y-74146428D01*
X110771428Y-74075000D01*
X110628571Y-74003571D01*
X110342857Y-74003571D01*
X110200000Y-74075000D01*
X107914285Y-73503571D02*
X107914285Y-74575000D01*
X107985714Y-74789285D01*
X108128571Y-74932142D01*
X108342857Y-75003571D01*
X108485714Y-75003571D01*
X106985714Y-75003571D02*
X107128571Y-74932142D01*
X107200000Y-74789285D01*
X107200000Y-73503571D01*
X106485714Y-74932142D02*
X106342857Y-75003571D01*
X106057142Y-75003571D01*
X105914285Y-74932142D01*
X105842857Y-74789285D01*
X105842857Y-74717857D01*
X105914285Y-74575000D01*
X106057142Y-74503571D01*
X106271428Y-74503571D01*
X106414285Y-74432142D01*
X106485714Y-74289285D01*
X106485714Y-74217857D01*
X106414285Y-74075000D01*
X106271428Y-74003571D01*
X106057142Y-74003571D01*
X105914285Y-74075000D01*
X104557142Y-75003571D02*
X104557142Y-74217857D01*
X104628571Y-74075000D01*
X104771428Y-74003571D01*
X105057142Y-74003571D01*
X105200000Y-74075000D01*
X104557142Y-74932142D02*
X104700000Y-75003571D01*
X105057142Y-75003571D01*
X105200000Y-74932142D01*
X105271428Y-74789285D01*
X105271428Y-74646428D01*
X105200000Y-74503571D01*
X105057142Y-74432142D01*
X104700000Y-74432142D01*
X104557142Y-74360714D01*
X103842857Y-74003571D02*
X103842857Y-75289285D01*
X103914285Y-75432142D01*
X104057142Y-75503571D01*
X104128571Y-75503571D01*
X103842857Y-73503571D02*
X103914285Y-73575000D01*
X103842857Y-73646428D01*
X103771428Y-73575000D01*
X103842857Y-73503571D01*
X103842857Y-73646428D01*
X103342857Y-74003571D02*
X102771428Y-74003571D01*
X103128571Y-75003571D02*
X103128571Y-73717857D01*
X103057142Y-73575000D01*
X102914285Y-73503571D01*
X102771428Y-73503571D01*
X102271428Y-74003571D02*
X102271428Y-75289285D01*
X102342857Y-75432142D01*
X102485714Y-75503571D01*
X102557142Y-75503571D01*
X102271428Y-73503571D02*
X102342857Y-73575000D01*
X102271428Y-73646428D01*
X102200000Y-73575000D01*
X102271428Y-73503571D01*
X102271428Y-73646428D01*
X126485714Y-76196428D02*
X126414285Y-76125000D01*
X126271428Y-76053571D01*
X125914285Y-76053571D01*
X125771428Y-76125000D01*
X125700000Y-76196428D01*
X125628571Y-76339285D01*
X125628571Y-76482142D01*
X125700000Y-76696428D01*
X126557142Y-77553571D01*
X125628571Y-77553571D01*
X124700000Y-76053571D02*
X124557142Y-76053571D01*
X124414285Y-76125000D01*
X124342857Y-76196428D01*
X124271428Y-76339285D01*
X124200000Y-76625000D01*
X124200000Y-76982142D01*
X124271428Y-77267857D01*
X124342857Y-77410714D01*
X124414285Y-77482142D01*
X124557142Y-77553571D01*
X124700000Y-77553571D01*
X124842857Y-77482142D01*
X124914285Y-77410714D01*
X124985714Y-77267857D01*
X125057142Y-76982142D01*
X125057142Y-76625000D01*
X124985714Y-76339285D01*
X124914285Y-76196428D01*
X124842857Y-76125000D01*
X124700000Y-76053571D01*
X123628571Y-76196428D02*
X123557142Y-76125000D01*
X123414285Y-76053571D01*
X123057142Y-76053571D01*
X122914285Y-76125000D01*
X122842857Y-76196428D01*
X122771428Y-76339285D01*
X122771428Y-76482142D01*
X122842857Y-76696428D01*
X123700000Y-77553571D01*
X122771428Y-77553571D01*
X121342857Y-77553571D02*
X122200000Y-77553571D01*
X121771428Y-77553571D02*
X121771428Y-76053571D01*
X121914285Y-76267857D01*
X122057142Y-76410714D01*
X122200000Y-76482142D01*
X120700000Y-76982142D02*
X119557142Y-76982142D01*
X118557142Y-76053571D02*
X118414285Y-76053571D01*
X118271428Y-76125000D01*
X118200000Y-76196428D01*
X118128571Y-76339285D01*
X118057142Y-76625000D01*
X118057142Y-76982142D01*
X118128571Y-77267857D01*
X118200000Y-77410714D01*
X118271428Y-77482142D01*
X118414285Y-77553571D01*
X118557142Y-77553571D01*
X118700000Y-77482142D01*
X118771428Y-77410714D01*
X118842857Y-77267857D01*
X118914285Y-76982142D01*
X118914285Y-76625000D01*
X118842857Y-76339285D01*
X118771428Y-76196428D01*
X118700000Y-76125000D01*
X118557142Y-76053571D01*
X117200000Y-76696428D02*
X117342857Y-76625000D01*
X117414285Y-76553571D01*
X117485714Y-76410714D01*
X117485714Y-76339285D01*
X117414285Y-76196428D01*
X117342857Y-76125000D01*
X117200000Y-76053571D01*
X116914285Y-76053571D01*
X116771428Y-76125000D01*
X116700000Y-76196428D01*
X116628571Y-76339285D01*
X116628571Y-76410714D01*
X116700000Y-76553571D01*
X116771428Y-76625000D01*
X116914285Y-76696428D01*
X117200000Y-76696428D01*
X117342857Y-76767857D01*
X117414285Y-76839285D01*
X117485714Y-76982142D01*
X117485714Y-77267857D01*
X117414285Y-77410714D01*
X117342857Y-77482142D01*
X117200000Y-77553571D01*
X116914285Y-77553571D01*
X116771428Y-77482142D01*
X116700000Y-77410714D01*
X116628571Y-77267857D01*
X116628571Y-76982142D01*
X116700000Y-76839285D01*
X116771428Y-76767857D01*
X116914285Y-76696428D01*
X115985714Y-76982142D02*
X114842857Y-76982142D01*
X114271428Y-76053571D02*
X113342857Y-76053571D01*
X113842857Y-76625000D01*
X113628571Y-76625000D01*
X113485714Y-76696428D01*
X113414285Y-76767857D01*
X113342857Y-76910714D01*
X113342857Y-77267857D01*
X113414285Y-77410714D01*
X113485714Y-77482142D01*
X113628571Y-77553571D01*
X114057142Y-77553571D01*
X114200000Y-77482142D01*
X114271428Y-77410714D01*
X112414285Y-76053571D02*
X112271428Y-76053571D01*
X112128571Y-76125000D01*
X112057142Y-76196428D01*
X111985714Y-76339285D01*
X111914285Y-76625000D01*
X111914285Y-76982142D01*
X111985714Y-77267857D01*
X112057142Y-77410714D01*
X112128571Y-77482142D01*
X112271428Y-77553571D01*
X112414285Y-77553571D01*
X112557142Y-77482142D01*
X112628571Y-77410714D01*
X112700000Y-77267857D01*
X112771428Y-76982142D01*
X112771428Y-76625000D01*
X112700000Y-76339285D01*
X112628571Y-76196428D01*
X112557142Y-76125000D01*
X112414285Y-76053571D01*
X127164285Y-80103571D02*
X127164285Y-78603571D01*
X126307142Y-80103571D01*
X126307142Y-78603571D01*
X124950000Y-79103571D02*
X124950000Y-80103571D01*
X125592857Y-79103571D02*
X125592857Y-79889285D01*
X125521428Y-80032142D01*
X125378571Y-80103571D01*
X125164285Y-80103571D01*
X125021428Y-80032142D01*
X124950000Y-79960714D01*
X124235714Y-80103571D02*
X124235714Y-79103571D01*
X124235714Y-79246428D02*
X124164285Y-79175000D01*
X124021428Y-79103571D01*
X123807142Y-79103571D01*
X123664285Y-79175000D01*
X123592857Y-79317857D01*
X123592857Y-80103571D01*
X123592857Y-79317857D02*
X123521428Y-79175000D01*
X123378571Y-79103571D01*
X123164285Y-79103571D01*
X123021428Y-79175000D01*
X122950000Y-79317857D01*
X122950000Y-80103571D01*
X122235714Y-79103571D02*
X122235714Y-80603571D01*
X122235714Y-79175000D02*
X122092857Y-79103571D01*
X121807142Y-79103571D01*
X121664285Y-79175000D01*
X121592857Y-79246428D01*
X121521428Y-79389285D01*
X121521428Y-79817857D01*
X121592857Y-79960714D01*
X121664285Y-80032142D01*
X121807142Y-80103571D01*
X122092857Y-80103571D01*
X122235714Y-80032142D01*
X120235714Y-80103571D02*
X120235714Y-79317857D01*
X120307142Y-79175000D01*
X120450000Y-79103571D01*
X120735714Y-79103571D01*
X120878571Y-79175000D01*
X120235714Y-80032142D02*
X120378571Y-80103571D01*
X120735714Y-80103571D01*
X120878571Y-80032142D01*
X120950000Y-79889285D01*
X120950000Y-79746428D01*
X120878571Y-79603571D01*
X120735714Y-79532142D01*
X120378571Y-79532142D01*
X120235714Y-79460714D01*
X118878571Y-80103571D02*
X118878571Y-78603571D01*
X118878571Y-80032142D02*
X119021428Y-80103571D01*
X119307142Y-80103571D01*
X119450000Y-80032142D01*
X119521428Y-79960714D01*
X119592857Y-79817857D01*
X119592857Y-79389285D01*
X119521428Y-79246428D01*
X119450000Y-79175000D01*
X119307142Y-79103571D01*
X119021428Y-79103571D01*
X118878571Y-79175000D01*
X116521428Y-79317857D02*
X116307142Y-79389285D01*
X116235714Y-79460714D01*
X116164285Y-79603571D01*
X116164285Y-79817857D01*
X116235714Y-79960714D01*
X116307142Y-80032142D01*
X116450000Y-80103571D01*
X117021428Y-80103571D01*
X117021428Y-78603571D01*
X116521428Y-78603571D01*
X116378571Y-78675000D01*
X116307142Y-78746428D01*
X116235714Y-78889285D01*
X116235714Y-79032142D01*
X116307142Y-79175000D01*
X116378571Y-79246428D01*
X116521428Y-79317857D01*
X117021428Y-79317857D01*
X115307142Y-80103571D02*
X115450000Y-80032142D01*
X115521428Y-79960714D01*
X115592857Y-79817857D01*
X115592857Y-79389285D01*
X115521428Y-79246428D01*
X115450000Y-79175000D01*
X115307142Y-79103571D01*
X115092857Y-79103571D01*
X114950000Y-79175000D01*
X114878571Y-79246428D01*
X114807142Y-79389285D01*
X114807142Y-79817857D01*
X114878571Y-79960714D01*
X114950000Y-80032142D01*
X115092857Y-80103571D01*
X115307142Y-80103571D01*
X113521428Y-80103571D02*
X113521428Y-79317857D01*
X113592857Y-79175000D01*
X113735714Y-79103571D01*
X114021428Y-79103571D01*
X114164285Y-79175000D01*
X113521428Y-80032142D02*
X113664285Y-80103571D01*
X114021428Y-80103571D01*
X114164285Y-80032142D01*
X114235714Y-79889285D01*
X114235714Y-79746428D01*
X114164285Y-79603571D01*
X114021428Y-79532142D01*
X113664285Y-79532142D01*
X113521428Y-79460714D01*
X112807142Y-80103571D02*
X112807142Y-79103571D01*
X112807142Y-79389285D02*
X112735714Y-79246428D01*
X112664285Y-79175000D01*
X112521428Y-79103571D01*
X112378571Y-79103571D01*
X111235714Y-80103571D02*
X111235714Y-78603571D01*
X111235714Y-80032142D02*
X111378571Y-80103571D01*
X111664285Y-80103571D01*
X111807142Y-80032142D01*
X111878571Y-79960714D01*
X111950000Y-79817857D01*
X111950000Y-79389285D01*
X111878571Y-79246428D01*
X111807142Y-79175000D01*
X111664285Y-79103571D01*
X111378571Y-79103571D01*
X111235714Y-79175000D01*
%LPC*%
D11*
X140550000Y-86975000D03*
D12*
X102030000Y-100500000D03*
X91870000Y-100500000D03*
D13*
X98220000Y-105580000D03*
D14*
X95680000Y-105580000D03*
D15*
X93140000Y-97960000D03*
D16*
X96950000Y-100500000D03*
D15*
X99490000Y-95420000D03*
D17*
X131700000Y-70420000D03*
D18*
X131700000Y-62800000D03*
D17*
X126700000Y-66420000D03*
D18*
X126700000Y-58800000D03*
D17*
X124200000Y-64420000D03*
D18*
X124200000Y-56800000D03*
D17*
X134200000Y-62420000D03*
D18*
X134200000Y-54800000D03*
D17*
X109200000Y-70420000D03*
D18*
X109200000Y-62800000D03*
D17*
X129200000Y-68420000D03*
D18*
X129200000Y-60800000D03*
D17*
X104200000Y-66420000D03*
D18*
X104200000Y-58800000D03*
D17*
X114200000Y-64420000D03*
D18*
X114200000Y-56800000D03*
D17*
X99200000Y-62420000D03*
D18*
X99200000Y-54800000D03*
D17*
X106700000Y-68420000D03*
D18*
X106700000Y-60800000D03*
D17*
X139200000Y-66420000D03*
D18*
X139200000Y-58800000D03*
D17*
X121700000Y-62420000D03*
D18*
X121700000Y-54800000D03*
D17*
X101700000Y-64420000D03*
D18*
X101700000Y-56800000D03*
D17*
X111700000Y-62420000D03*
D18*
X111700000Y-54800000D03*
D17*
X136700000Y-64420000D03*
D18*
X136700000Y-56800000D03*
D17*
X116700000Y-66420000D03*
D18*
X116700000Y-58800000D03*
D17*
X119200000Y-68420000D03*
D18*
X119200000Y-60800000D03*
D19*
X78200000Y-37580000D03*
D20*
X78200000Y-45200000D03*
D11*
X67525000Y-30000000D03*
X68400000Y-129100000D03*
X87500000Y-167100000D03*
X135000000Y-148100000D03*
X67525000Y-86975000D03*
X140550000Y-30000000D03*
D19*
X131700000Y-37800000D03*
D20*
X131700000Y-45420000D03*
D19*
X109200000Y-37800000D03*
D20*
X109200000Y-45420000D03*
D19*
X139200000Y-37800000D03*
D20*
X139200000Y-45420000D03*
D19*
X129200000Y-35800000D03*
D20*
X129200000Y-43420000D03*
D19*
X119200000Y-39800000D03*
D20*
X119200000Y-47420000D03*
D19*
X106700000Y-35800000D03*
D20*
X106700000Y-43420000D03*
D19*
X126700000Y-39800000D03*
D20*
X126700000Y-47420000D03*
D19*
X116700000Y-37800000D03*
D20*
X116700000Y-45420000D03*
D19*
X99200000Y-35800000D03*
D20*
X99200000Y-43420000D03*
D19*
X104200000Y-39800000D03*
D20*
X104200000Y-47420000D03*
D19*
X136700000Y-35800000D03*
D20*
X136700000Y-43420000D03*
D19*
X124200000Y-37800000D03*
D20*
X124200000Y-45420000D03*
D19*
X114200000Y-35800000D03*
D20*
X114200000Y-43420000D03*
D19*
X101700000Y-37800000D03*
D20*
X101700000Y-45420000D03*
D19*
X134200000Y-39800000D03*
D20*
X134200000Y-47420000D03*
D19*
X121700000Y-35800000D03*
D20*
X121700000Y-43420000D03*
D19*
X111700000Y-39800000D03*
D20*
X111700000Y-47420000D03*
D19*
X78200000Y-60570000D03*
D20*
X78200000Y-52950000D03*
D12*
X121030000Y-176750000D03*
X110870000Y-176750000D03*
D13*
X117220000Y-181830000D03*
D14*
X114680000Y-181830000D03*
D15*
X112140000Y-174210000D03*
D16*
X115950000Y-176750000D03*
D15*
X118490000Y-171670000D03*
D16*
X99338000Y-168495000D03*
X75462000Y-168495000D03*
D21*
X99338000Y-183735000D03*
X75462000Y-183735000D03*
D12*
X92480000Y-176750000D03*
X82320000Y-176750000D03*
D13*
X86130000Y-181830000D03*
D14*
X88670000Y-181830000D03*
D15*
X83590000Y-174210000D03*
D16*
X87400000Y-176750000D03*
D15*
X89940000Y-171670000D03*
D14*
X133780000Y-172280000D03*
D13*
X136320000Y-172280000D03*
D15*
X131240000Y-164660000D03*
D16*
X135050000Y-167200000D03*
D12*
X140130000Y-167200000D03*
D16*
X126795000Y-155262000D03*
D15*
X137590000Y-162120000D03*
D21*
X142035000Y-155262000D03*
D16*
X126795000Y-179138000D03*
D12*
X129970000Y-167200000D03*
D21*
X142035000Y-179138000D03*
D12*
X121080000Y-157700000D03*
X110920000Y-157700000D03*
D13*
X117270000Y-162780000D03*
D14*
X114730000Y-162780000D03*
D15*
X112190000Y-155160000D03*
D16*
X116000000Y-157700000D03*
D15*
X118540000Y-152620000D03*
D12*
X102030000Y-157700000D03*
X91870000Y-157700000D03*
D13*
X98220000Y-162780000D03*
D14*
X95680000Y-162780000D03*
D15*
X93140000Y-155160000D03*
D16*
X96950000Y-157700000D03*
D15*
X99490000Y-152620000D03*
D12*
X82980000Y-157700000D03*
X72820000Y-157700000D03*
D13*
X79170000Y-162780000D03*
D14*
X76630000Y-162780000D03*
D15*
X74090000Y-155160000D03*
D16*
X77900000Y-157700000D03*
D15*
X80440000Y-152620000D03*
D12*
X121080000Y-138600000D03*
X110920000Y-138600000D03*
D13*
X117270000Y-143680000D03*
D14*
X114730000Y-143680000D03*
D15*
X112190000Y-136060000D03*
D16*
X116000000Y-138600000D03*
D15*
X118540000Y-133520000D03*
D12*
X102030000Y-138600000D03*
X91870000Y-138600000D03*
D13*
X98220000Y-143680000D03*
D14*
X95680000Y-143680000D03*
D15*
X93140000Y-136060000D03*
D16*
X96950000Y-138600000D03*
D15*
X99490000Y-133520000D03*
D12*
X82980000Y-138600000D03*
X72820000Y-138600000D03*
D13*
X79170000Y-143680000D03*
D14*
X76630000Y-143680000D03*
D15*
X74090000Y-136060000D03*
D16*
X77900000Y-138600000D03*
D15*
X80440000Y-133520000D03*
D14*
X133780000Y-134180000D03*
D13*
X136320000Y-134180000D03*
D15*
X131240000Y-126560000D03*
D16*
X135050000Y-129100000D03*
D12*
X140130000Y-129100000D03*
D16*
X126795000Y-117162000D03*
D15*
X137590000Y-124020000D03*
D21*
X142035000Y-117162000D03*
D16*
X126795000Y-141038000D03*
D12*
X129970000Y-129100000D03*
D21*
X142035000Y-141038000D03*
D12*
X121080000Y-119550000D03*
X110920000Y-119550000D03*
D13*
X117270000Y-124630000D03*
D14*
X114730000Y-124630000D03*
D15*
X112190000Y-117010000D03*
D16*
X116000000Y-119550000D03*
D15*
X118540000Y-114470000D03*
D12*
X102030000Y-119550000D03*
X91870000Y-119550000D03*
D13*
X98220000Y-124630000D03*
D14*
X95680000Y-124630000D03*
D15*
X93140000Y-117010000D03*
D16*
X96950000Y-119550000D03*
D15*
X99490000Y-114470000D03*
D12*
X82980000Y-119550000D03*
X72820000Y-119550000D03*
D13*
X79170000Y-124630000D03*
D14*
X76630000Y-124630000D03*
D15*
X74090000Y-117010000D03*
D16*
X77900000Y-119550000D03*
D15*
X80440000Y-114470000D03*
D12*
X140130000Y-100500000D03*
X129970000Y-100500000D03*
D13*
X136320000Y-105580000D03*
D14*
X133780000Y-105580000D03*
D15*
X131240000Y-97960000D03*
D16*
X135050000Y-100500000D03*
D15*
X137590000Y-95420000D03*
D12*
X121080000Y-100500000D03*
X110920000Y-100500000D03*
D13*
X117270000Y-105580000D03*
D14*
X114730000Y-105580000D03*
D15*
X112190000Y-97960000D03*
D16*
X116000000Y-100500000D03*
D15*
X118540000Y-95420000D03*
D12*
X82960000Y-100500000D03*
X72800000Y-100500000D03*
D13*
X79150000Y-105580000D03*
D14*
X76610000Y-105580000D03*
D15*
X74070000Y-97960000D03*
D16*
X77880000Y-100500000D03*
D15*
X80420000Y-95420000D03*
D22*
X67360000Y-57880000D03*
X69900000Y-57880000D03*
X67360000Y-55340000D03*
X69900000Y-55340000D03*
X67360000Y-52800000D03*
X69900000Y-52800000D03*
X67360000Y-50260000D03*
X69900000Y-50260000D03*
X67360000Y-47720000D03*
X69900000Y-47720000D03*
X67360000Y-45180000D03*
X69900000Y-45180000D03*
X67360000Y-42640000D03*
X69900000Y-42640000D03*
X67360000Y-40100000D03*
D23*
X69900000Y-40100000D03*
D24*
X68000000Y-65200000D03*
D25*
X70540000Y-65200000D03*
D24*
X76885000Y-33600000D03*
D25*
X79425000Y-33600000D03*
M02*
