  0
SECTION
  2
HEADER
  9
$ANGBASE
  50
0.0
  9
$ANGDIR
  70
1
  9
$MEASUREMENT
  70
1
  0
ENDSEC
  0
SECTION
  2
TABLES
  0
TABLE
  2
LTYPE
  70
4
  0
LTYPE
  5
40F
  2
CONTINUOUS
  70
0
  3
Solid line
  72
65
  73
0
  40
0.0
  0
LTYPE
  5
410
  2
DASHDOT
 70
0
  3
Dash Dot ____ _ ____ _
 72
65
 73
4
 40
2.0
 49
1.25
 49
-0.25
 49
0.25
 49
-0.25
  0
LTYPE
  5
411
  2
DASHED
 70
0
  3
Dashed __ __ __ __ __
 72
65
 73
2
 40
0.75
 49
0.5
 49
-0.25
  0
LTYPE
  5
43B
  2
DOTTED
 70
0
  3
Dotted .  .  .  .
 72
65
 73
2
 40
0.2
 49
0.0
 49
-0.2
  0
ENDTAB
  0
TABLE
  2
STYLE
  70
4
  0
STYLE
  2
KICAD
  70
0
  40
0
  41
1
  42
1
  50
0
  71
0
  3
isocp.shx
  0
STYLE
  2
KICADB
  70
0
  40
0
  41
1
  42
1
  50
0
  71
0
  3
isocp.shx
  0
STYLE
  2
KICADI
  70
0
  40
0
  41
1
  42
1
  50
15
  71
0
  3
isocp.shx
  0
STYLE
  2
KICADBI
  70
0
  40
0
  41
1
  42
1
  50
15
  71
0
  3
isocp.shx
  0
ENDTAB
  0
TABLE
  2
LAYER
  70
1
  0
LAYER
  2
BLACK
  70
0
  62
7
  6
CONTINUOUS
  0
ENDTAB
  0
ENDSEC
  0
SECTION
  2
ENTITIES
0
LINE
8
BLACK
6
CONTINUOUS
10
217.242
20
-207.877
11
217.642
21
-208.042
0
LINE
8
BLACK
6
CONTINUOUS
10
217.642
20
-208.042
11
218.002
21
-208.283
0
LINE
8
BLACK
6
CONTINUOUS
10
218.002
20
-208.283
11
218.309
21
-208.59
0
LINE
8
BLACK
6
CONTINUOUS
10
218.309
20
-208.59
11
218.55
21
-208.95
0
LINE
8
BLACK
6
CONTINUOUS
10
218.55
20
-208.95
11
218.715
21
-209.35
0
LINE
8
BLACK
6
CONTINUOUS
10
218.715
20
-209.35
11
218.8
21
-209.775
0
LINE
8
BLACK
6
CONTINUOUS
10
218.8
20
-209.775
11
218.8
21
-210.209
0
LINE
8
BLACK
6
CONTINUOUS
10
218.8
20
-210.209
11
218.715
21
-210.634
0
LINE
8
BLACK
6
CONTINUOUS
10
218.715
20
-210.634
11
218.55
21
-211.034
0
LINE
8
BLACK
6
CONTINUOUS
10
218.55
20
-211.034
11
218.309
21
-211.394
0
LINE
8
BLACK
6
CONTINUOUS
10
218.309
20
-211.394
11
218.002
21
-211.701
0
LINE
8
BLACK
6
CONTINUOUS
10
218.002
20
-211.701
11
217.642
21
-211.942
0
LINE
8
BLACK
6
CONTINUOUS
10
217.642
20
-211.942
11
217.242
21
-212.107
0
LINE
8
BLACK
6
CONTINUOUS
10
217.242
20
-212.107
11
216.817
21
-212.192
0
LINE
8
BLACK
6
CONTINUOUS
10
216.817
20
-212.192
11
216.383
21
-212.192
0
LINE
8
BLACK
6
CONTINUOUS
10
216.383
20
-212.192
11
215.958
21
-212.107
0
LINE
8
BLACK
6
CONTINUOUS
10
215.958
20
-212.107
11
215.558
21
-211.942
0
LINE
8
BLACK
6
CONTINUOUS
10
215.558
20
-211.942
11
215.198
21
-211.701
0
LINE
8
BLACK
6
CONTINUOUS
10
215.198
20
-211.701
11
214.891
21
-211.394
0
LINE
8
BLACK
6
CONTINUOUS
10
214.891
20
-211.394
11
214.65
21
-211.034
0
LINE
8
BLACK
6
CONTINUOUS
10
214.65
20
-211.034
11
214.485
21
-210.634
0
LINE
8
BLACK
6
CONTINUOUS
10
214.485
20
-210.634
11
214.4
21
-210.209
0
LINE
8
BLACK
6
CONTINUOUS
10
214.4
20
-210.209
11
214.4
21
-209.775
0
LINE
8
BLACK
6
CONTINUOUS
10
214.4
20
-209.775
11
214.485
21
-209.35
0
LINE
8
BLACK
6
CONTINUOUS
10
214.485
20
-209.35
11
214.65
21
-208.95
0
LINE
8
BLACK
6
CONTINUOUS
10
214.65
20
-208.95
11
214.891
21
-208.59
0
LINE
8
BLACK
6
CONTINUOUS
10
214.891
20
-208.59
11
215.198
21
-208.283
0
LINE
8
BLACK
6
CONTINUOUS
10
215.198
20
-208.283
11
215.558
21
-208.042
0
LINE
8
BLACK
6
CONTINUOUS
10
215.558
20
-208.042
11
215.958
21
-207.877
0
LINE
8
BLACK
6
CONTINUOUS
10
215.958
20
-207.877
11
216.383
21
-207.792
0
LINE
8
BLACK
6
CONTINUOUS
10
216.383
20
-207.792
11
216.817
21
-207.792
0
LINE
8
BLACK
6
CONTINUOUS
10
216.817
20
-207.792
11
217.242
21
-207.877
0
LINE
8
BLACK
6
CONTINUOUS
10
83.8417
20
-207.777
11
84.2421
21
-207.942
0
LINE
8
BLACK
6
CONTINUOUS
10
84.2421
20
-207.942
11
84.6024
21
-208.183
0
LINE
8
BLACK
6
CONTINUOUS
10
84.6024
20
-208.183
11
84.9089
21
-208.49
0
LINE
8
BLACK
6
CONTINUOUS
10
84.9089
20
-208.49
11
85.1496
21
-208.85
0
LINE
8
BLACK
6
CONTINUOUS
10
85.1496
20
-208.85
11
85.3155
21
-209.25
0
LINE
8
BLACK
6
CONTINUOUS
10
85.3155
20
-209.25
11
85.4
21
-209.675
0
LINE
8
BLACK
6
CONTINUOUS
10
85.4
20
-209.675
11
85.4
21
-210.109
0
LINE
8
BLACK
6
CONTINUOUS
10
85.4
20
-210.109
11
85.3155
21
-210.534
0
LINE
8
BLACK
6
CONTINUOUS
10
85.3155
20
-210.534
11
85.1496
21
-210.934
0
LINE
8
BLACK
6
CONTINUOUS
10
85.1496
20
-210.934
11
84.9089
21
-211.294
0
LINE
8
BLACK
6
CONTINUOUS
10
84.9089
20
-211.294
11
84.6024
21
-211.601
0
LINE
8
BLACK
6
CONTINUOUS
10
84.6024
20
-211.601
11
84.2421
21
-211.842
0
LINE
8
BLACK
6
CONTINUOUS
10
84.2421
20
-211.842
11
83.8417
21
-212.007
0
LINE
8
BLACK
6
CONTINUOUS
10
83.8417
20
-212.007
11
83.4167
21
-212.092
0
LINE
8
BLACK
6
CONTINUOUS
10
83.4167
20
-212.092
11
82.9833
21
-212.092
0
LINE
8
BLACK
6
CONTINUOUS
10
82.9833
20
-212.092
11
82.5583
21
-212.007
0
LINE
8
BLACK
6
CONTINUOUS
10
82.5583
20
-212.007
11
82.1579
21
-211.842
0
LINE
8
BLACK
6
CONTINUOUS
10
82.1579
20
-211.842
11
81.7976
21
-211.601
0
LINE
8
BLACK
6
CONTINUOUS
10
81.7976
20
-211.601
11
81.4911
21
-211.294
0
LINE
8
BLACK
6
CONTINUOUS
10
81.4911
20
-211.294
11
81.2504
21
-210.934
0
LINE
8
BLACK
6
CONTINUOUS
10
81.2504
20
-210.934
11
81.0845
21
-210.534
0
LINE
8
BLACK
6
CONTINUOUS
10
81.0845
20
-210.534
11
81
21
-210.109
0
LINE
8
BLACK
6
CONTINUOUS
10
81
20
-210.109
11
81
21
-209.675
0
LINE
8
BLACK
6
CONTINUOUS
10
81
20
-209.675
11
81.0845
21
-209.25
0
LINE
8
BLACK
6
CONTINUOUS
10
81.0845
20
-209.25
11
81.2504
21
-208.85
0
LINE
8
BLACK
6
CONTINUOUS
10
81.2504
20
-208.85
11
81.4911
21
-208.49
0
LINE
8
BLACK
6
CONTINUOUS
10
81.4911
20
-208.49
11
81.7976
21
-208.183
0
LINE
8
BLACK
6
CONTINUOUS
10
81.7976
20
-208.183
11
82.1579
21
-207.942
0
LINE
8
BLACK
6
CONTINUOUS
10
82.1579
20
-207.942
11
82.5583
21
-207.777
0
LINE
8
BLACK
6
CONTINUOUS
10
82.5583
20
-207.777
11
82.9833
21
-207.692
0
LINE
8
BLACK
6
CONTINUOUS
10
82.9833
20
-207.692
11
83.4167
21
-207.692
0
LINE
8
BLACK
6
CONTINUOUS
10
83.4167
20
-207.692
11
83.8417
21
-207.777
0
LINE
8
BLACK
6
CONTINUOUS
10
345.842
20
-198.177
11
346.242
21
-198.342
0
LINE
8
BLACK
6
CONTINUOUS
10
346.242
20
-198.342
11
346.602
21
-198.583
0
LINE
8
BLACK
6
CONTINUOUS
10
346.602
20
-198.583
11
346.909
21
-198.89
0
LINE
8
BLACK
6
CONTINUOUS
10
346.909
20
-198.89
11
347.15
21
-199.25
0
LINE
8
BLACK
6
CONTINUOUS
10
347.15
20
-199.25
11
347.315
21
-199.65
0
LINE
8
BLACK
6
CONTINUOUS
10
347.315
20
-199.65
11
347.4
21
-200.075
0
LINE
8
BLACK
6
CONTINUOUS
10
347.4
20
-200.075
11
347.4
21
-200.509
0
LINE
8
BLACK
6
CONTINUOUS
10
347.4
20
-200.509
11
347.315
21
-200.934
0
LINE
8
BLACK
6
CONTINUOUS
10
347.315
20
-200.934
11
347.15
21
-201.334
0
LINE
8
BLACK
6
CONTINUOUS
10
347.15
20
-201.334
11
346.909
21
-201.694
0
LINE
8
BLACK
6
CONTINUOUS
10
346.909
20
-201.694
11
346.602
21
-202.001
0
LINE
8
BLACK
6
CONTINUOUS
10
346.602
20
-202.001
11
346.242
21
-202.242
0
LINE
8
BLACK
6
CONTINUOUS
10
346.242
20
-202.242
11
345.842
21
-202.407
0
LINE
8
BLACK
6
CONTINUOUS
10
345.842
20
-202.407
11
345.417
21
-202.492
0
LINE
8
BLACK
6
CONTINUOUS
10
345.417
20
-202.492
11
344.983
21
-202.492
0
LINE
8
BLACK
6
CONTINUOUS
10
344.983
20
-202.492
11
344.558
21
-202.407
0
LINE
8
BLACK
6
CONTINUOUS
10
344.558
20
-202.407
11
344.158
21
-202.242
0
LINE
8
BLACK
6
CONTINUOUS
10
344.158
20
-202.242
11
343.798
21
-202.001
0
LINE
8
BLACK
6
CONTINUOUS
10
343.798
20
-202.001
11
343.491
21
-201.694
0
LINE
8
BLACK
6
CONTINUOUS
10
343.491
20
-201.694
11
343.25
21
-201.334
0
LINE
8
BLACK
6
CONTINUOUS
10
343.25
20
-201.334
11
343.085
21
-200.934
0
LINE
8
BLACK
6
CONTINUOUS
10
343.085
20
-200.934
11
343
21
-200.509
0
LINE
8
BLACK
6
CONTINUOUS
10
343
20
-200.509
11
343
21
-200.075
0
LINE
8
BLACK
6
CONTINUOUS
10
343
20
-200.075
11
343.085
21
-199.65
0
LINE
8
BLACK
6
CONTINUOUS
10
343.085
20
-199.65
11
343.25
21
-199.25
0
LINE
8
BLACK
6
CONTINUOUS
10
343.25
20
-199.25
11
343.491
21
-198.89
0
LINE
8
BLACK
6
CONTINUOUS
10
343.491
20
-198.89
11
343.798
21
-198.583
0
LINE
8
BLACK
6
CONTINUOUS
10
343.798
20
-198.583
11
344.158
21
-198.342
0
LINE
8
BLACK
6
CONTINUOUS
10
344.158
20
-198.342
11
344.558
21
-198.177
0
LINE
8
BLACK
6
CONTINUOUS
10
344.558
20
-198.177
11
344.983
21
-198.092
0
LINE
8
BLACK
6
CONTINUOUS
10
344.983
20
-198.092
11
345.417
21
-198.092
0
LINE
8
BLACK
6
CONTINUOUS
10
345.417
20
-198.092
11
345.842
21
-198.177
0
LINE
8
BLACK
6
CONTINUOUS
10
212.442
20
-122.077
11
212.842
21
-122.242
0
LINE
8
BLACK
6
CONTINUOUS
10
212.842
20
-122.242
11
213.202
21
-122.483
0
LINE
8
BLACK
6
CONTINUOUS
10
213.202
20
-122.483
11
213.509
21
-122.79
0
LINE
8
BLACK
6
CONTINUOUS
10
213.509
20
-122.79
11
213.75
21
-123.15
0
LINE
8
BLACK
6
CONTINUOUS
10
213.75
20
-123.15
11
213.915
21
-123.55
0
LINE
8
BLACK
6
CONTINUOUS
10
213.915
20
-123.55
11
214
21
-123.975
0
LINE
8
BLACK
6
CONTINUOUS
10
214
20
-123.975
11
214
21
-124.409
0
LINE
8
BLACK
6
CONTINUOUS
10
214
20
-124.409
11
213.915
21
-124.834
0
LINE
8
BLACK
6
CONTINUOUS
10
213.915
20
-124.834
11
213.75
21
-125.234
0
LINE
8
BLACK
6
CONTINUOUS
10
213.75
20
-125.234
11
213.509
21
-125.594
0
LINE
8
BLACK
6
CONTINUOUS
10
213.509
20
-125.594
11
213.202
21
-125.901
0
LINE
8
BLACK
6
CONTINUOUS
10
213.202
20
-125.901
11
212.842
21
-126.142
0
LINE
8
BLACK
6
CONTINUOUS
10
212.842
20
-126.142
11
212.442
21
-126.307
0
LINE
8
BLACK
6
CONTINUOUS
10
212.442
20
-126.307
11
212.017
21
-126.392
0
LINE
8
BLACK
6
CONTINUOUS
10
212.017
20
-126.392
11
211.583
21
-126.392
0
LINE
8
BLACK
6
CONTINUOUS
10
211.583
20
-126.392
11
211.158
21
-126.307
0
LINE
8
BLACK
6
CONTINUOUS
10
211.158
20
-126.307
11
210.758
21
-126.142
0
LINE
8
BLACK
6
CONTINUOUS
10
210.758
20
-126.142
11
210.398
21
-125.901
0
LINE
8
BLACK
6
CONTINUOUS
10
210.398
20
-125.901
11
210.091
21
-125.594
0
LINE
8
BLACK
6
CONTINUOUS
10
210.091
20
-125.594
11
209.85
21
-125.234
0
LINE
8
BLACK
6
CONTINUOUS
10
209.85
20
-125.234
11
209.685
21
-124.834
0
LINE
8
BLACK
6
CONTINUOUS
10
209.685
20
-124.834
11
209.6
21
-124.409
0
LINE
8
BLACK
6
CONTINUOUS
10
209.6
20
-124.409
11
209.6
21
-123.975
0
LINE
8
BLACK
6
CONTINUOUS
10
209.6
20
-123.975
11
209.685
21
-123.55
0
LINE
8
BLACK
6
CONTINUOUS
10
209.685
20
-123.55
11
209.85
21
-123.15
0
LINE
8
BLACK
6
CONTINUOUS
10
209.85
20
-123.15
11
210.091
21
-122.79
0
LINE
8
BLACK
6
CONTINUOUS
10
210.091
20
-122.79
11
210.398
21
-122.483
0
LINE
8
BLACK
6
CONTINUOUS
10
210.398
20
-122.483
11
210.758
21
-122.242
0
LINE
8
BLACK
6
CONTINUOUS
10
210.758
20
-122.242
11
211.158
21
-122.077
0
LINE
8
BLACK
6
CONTINUOUS
10
211.158
20
-122.077
11
211.583
21
-121.992
0
LINE
8
BLACK
6
CONTINUOUS
10
211.583
20
-121.992
11
212.017
21
-121.992
0
LINE
8
BLACK
6
CONTINUOUS
10
212.017
20
-121.992
11
212.442
21
-122.077
0
LINE
8
BLACK
6
CONTINUOUS
10
345.842
20
-122.077
11
346.242
21
-122.242
0
LINE
8
BLACK
6
CONTINUOUS
10
346.242
20
-122.242
11
346.602
21
-122.483
0
LINE
8
BLACK
6
CONTINUOUS
10
346.602
20
-122.483
11
346.909
21
-122.79
0
LINE
8
BLACK
6
CONTINUOUS
10
346.909
20
-122.79
11
347.15
21
-123.15
0
LINE
8
BLACK
6
CONTINUOUS
10
347.15
20
-123.15
11
347.315
21
-123.55
0
LINE
8
BLACK
6
CONTINUOUS
10
347.315
20
-123.55
11
347.4
21
-123.975
0
LINE
8
BLACK
6
CONTINUOUS
10
347.4
20
-123.975
11
347.4
21
-124.409
0
LINE
8
BLACK
6
CONTINUOUS
10
347.4
20
-124.409
11
347.315
21
-124.834
0
LINE
8
BLACK
6
CONTINUOUS
10
347.315
20
-124.834
11
347.15
21
-125.234
0
LINE
8
BLACK
6
CONTINUOUS
10
347.15
20
-125.234
11
346.909
21
-125.594
0
LINE
8
BLACK
6
CONTINUOUS
10
346.909
20
-125.594
11
346.602
21
-125.901
0
LINE
8
BLACK
6
CONTINUOUS
10
346.602
20
-125.901
11
346.242
21
-126.142
0
LINE
8
BLACK
6
CONTINUOUS
10
346.242
20
-126.142
11
345.842
21
-126.307
0
LINE
8
BLACK
6
CONTINUOUS
10
345.842
20
-126.307
11
345.417
21
-126.392
0
LINE
8
BLACK
6
CONTINUOUS
10
345.417
20
-126.392
11
344.983
21
-126.392
0
LINE
8
BLACK
6
CONTINUOUS
10
344.983
20
-126.392
11
344.558
21
-126.307
0
LINE
8
BLACK
6
CONTINUOUS
10
344.558
20
-126.307
11
344.158
21
-126.142
0
LINE
8
BLACK
6
CONTINUOUS
10
344.158
20
-126.142
11
343.798
21
-125.901
0
LINE
8
BLACK
6
CONTINUOUS
10
343.798
20
-125.901
11
343.491
21
-125.594
0
LINE
8
BLACK
6
CONTINUOUS
10
343.491
20
-125.594
11
343.25
21
-125.234
0
LINE
8
BLACK
6
CONTINUOUS
10
343.25
20
-125.234
11
343.085
21
-124.834
0
LINE
8
BLACK
6
CONTINUOUS
10
343.085
20
-124.834
11
343
21
-124.409
0
LINE
8
BLACK
6
CONTINUOUS
10
343
20
-124.409
11
343
21
-123.975
0
LINE
8
BLACK
6
CONTINUOUS
10
343
20
-123.975
11
343.085
21
-123.55
0
LINE
8
BLACK
6
CONTINUOUS
10
343.085
20
-123.55
11
343.25
21
-123.15
0
LINE
8
BLACK
6
CONTINUOUS
10
343.25
20
-123.15
11
343.491
21
-122.79
0
LINE
8
BLACK
6
CONTINUOUS
10
343.491
20
-122.79
11
343.798
21
-122.483
0
LINE
8
BLACK
6
CONTINUOUS
10
343.798
20
-122.483
11
344.158
21
-122.242
0
LINE
8
BLACK
6
CONTINUOUS
10
344.158
20
-122.242
11
344.558
21
-122.077
0
LINE
8
BLACK
6
CONTINUOUS
10
344.558
20
-122.077
11
344.983
21
-121.992
0
LINE
8
BLACK
6
CONTINUOUS
10
344.983
20
-121.992
11
345.417
21
-121.992
0
LINE
8
BLACK
6
CONTINUOUS
10
345.417
20
-121.992
11
345.842
21
-122.077
0
LINE
8
BLACK
6
CONTINUOUS
10
79.1417
20
-121.985
11
79.5421
21
-122.15
0
LINE
8
BLACK
6
CONTINUOUS
10
79.5421
20
-122.15
11
79.9024
21
-122.391
0
LINE
8
BLACK
6
CONTINUOUS
10
79.9024
20
-122.391
11
80.2089
21
-122.698
0
LINE
8
BLACK
6
CONTINUOUS
10
80.2089
20
-122.698
11
80.4496
21
-123.058
0
LINE
8
BLACK
6
CONTINUOUS
10
80.4496
20
-123.058
11
80.6155
21
-123.458
0
LINE
8
BLACK
6
CONTINUOUS
10
80.6155
20
-123.458
11
80.7
21
-123.883
0
LINE
8
BLACK
6
CONTINUOUS
10
80.7
20
-123.883
11
80.7
21
-124.317
0
LINE
8
BLACK
6
CONTINUOUS
10
80.7
20
-124.317
11
80.6155
21
-124.742
0
LINE
8
BLACK
6
CONTINUOUS
10
80.6155
20
-124.742
11
80.4496
21
-125.142
0
LINE
8
BLACK
6
CONTINUOUS
10
80.4496
20
-125.142
11
80.2089
21
-125.502
0
LINE
8
BLACK
6
CONTINUOUS
10
80.2089
20
-125.502
11
79.9024
21
-125.809
0
LINE
8
BLACK
6
CONTINUOUS
10
79.9024
20
-125.809
11
79.5421
21
-126.05
0
LINE
8
BLACK
6
CONTINUOUS
10
79.5421
20
-126.05
11
79.1417
21
-126.215
0
LINE
8
BLACK
6
CONTINUOUS
10
79.1417
20
-126.215
11
78.7167
21
-126.3
0
LINE
8
BLACK
6
CONTINUOUS
10
78.7167
20
-126.3
11
78.2833
21
-126.3
0
LINE
8
BLACK
6
CONTINUOUS
10
78.2833
20
-126.3
11
77.8583
21
-126.215
0
LINE
8
BLACK
6
CONTINUOUS
10
77.8583
20
-126.215
11
77.4579
21
-126.05
0
LINE
8
BLACK
6
CONTINUOUS
10
77.4579
20
-126.05
11
77.0976
21
-125.809
0
LINE
8
BLACK
6
CONTINUOUS
10
77.0976
20
-125.809
11
76.7911
21
-125.502
0
LINE
8
BLACK
6
CONTINUOUS
10
76.7911
20
-125.502
11
76.5504
21
-125.142
0
LINE
8
BLACK
6
CONTINUOUS
10
76.5504
20
-125.142
11
76.3845
21
-124.742
0
LINE
8
BLACK
6
CONTINUOUS
10
76.3845
20
-124.742
11
76.3
21
-124.317
0
LINE
8
BLACK
6
CONTINUOUS
10
76.3
20
-124.317
11
76.3
21
-123.883
0
LINE
8
BLACK
6
CONTINUOUS
10
76.3
20
-123.883
11
76.3845
21
-123.458
0
LINE
8
BLACK
6
CONTINUOUS
10
76.3845
20
-123.458
11
76.5504
21
-123.058
0
LINE
8
BLACK
6
CONTINUOUS
10
76.5504
20
-123.058
11
76.7911
21
-122.698
0
LINE
8
BLACK
6
CONTINUOUS
10
76.7911
20
-122.698
11
77.0976
21
-122.391
0
LINE
8
BLACK
6
CONTINUOUS
10
77.0976
20
-122.391
11
77.4579
21
-122.15
0
LINE
8
BLACK
6
CONTINUOUS
10
77.4579
20
-122.15
11
77.8583
21
-121.985
0
LINE
8
BLACK
6
CONTINUOUS
10
77.8583
20
-121.985
11
78.2833
21
-121.9
0
LINE
8
BLACK
6
CONTINUOUS
10
78.2833
20
-121.9
11
78.7167
21
-121.9
0
LINE
8
BLACK
6
CONTINUOUS
10
78.7167
20
-121.9
11
79.1417
21
-121.985
0
LINE
8
BLACK
6
CONTINUOUS
10
161.142
20
-99.0845
11
161.542
21
-99.2504
0
LINE
8
BLACK
6
CONTINUOUS
10
161.542
20
-99.2504
11
161.902
21
-99.4911
0
LINE
8
BLACK
6
CONTINUOUS
10
161.902
20
-99.4911
11
162.209
21
-99.7976
0
LINE
8
BLACK
6
CONTINUOUS
10
162.209
20
-99.7976
11
162.45
21
-100.158
0
LINE
8
BLACK
6
CONTINUOUS
10
162.45
20
-100.158
11
162.615
21
-100.558
0
LINE
8
BLACK
6
CONTINUOUS
10
162.615
20
-100.558
11
162.7
21
-100.983
0
LINE
8
BLACK
6
CONTINUOUS
10
162.7
20
-100.983
11
162.7
21
-101.417
0
LINE
8
BLACK
6
CONTINUOUS
10
162.7
20
-101.417
11
162.615
21
-101.842
0
LINE
8
BLACK
6
CONTINUOUS
10
162.615
20
-101.842
11
162.45
21
-102.242
0
LINE
8
BLACK
6
CONTINUOUS
10
162.45
20
-102.242
11
162.209
21
-102.602
0
LINE
8
BLACK
6
CONTINUOUS
10
162.209
20
-102.602
11
161.902
21
-102.909
0
LINE
8
BLACK
6
CONTINUOUS
10
161.902
20
-102.909
11
161.542
21
-103.15
0
LINE
8
BLACK
6
CONTINUOUS
10
161.542
20
-103.15
11
161.142
21
-103.315
0
LINE
8
BLACK
6
CONTINUOUS
10
161.142
20
-103.315
11
160.717
21
-103.4
0
LINE
8
BLACK
6
CONTINUOUS
10
160.717
20
-103.4
11
160.283
21
-103.4
0
LINE
8
BLACK
6
CONTINUOUS
10
160.283
20
-103.4
11
159.858
21
-103.315
0
LINE
8
BLACK
6
CONTINUOUS
10
159.858
20
-103.315
11
159.458
21
-103.15
0
LINE
8
BLACK
6
CONTINUOUS
10
159.458
20
-103.15
11
159.098
21
-102.909
0
LINE
8
BLACK
6
CONTINUOUS
10
159.098
20
-102.909
11
158.791
21
-102.602
0
LINE
8
BLACK
6
CONTINUOUS
10
158.791
20
-102.602
11
158.55
21
-102.242
0
LINE
8
BLACK
6
CONTINUOUS
10
158.55
20
-102.242
11
158.385
21
-101.842
0
LINE
8
BLACK
6
CONTINUOUS
10
158.385
20
-101.842
11
158.3
21
-101.417
0
LINE
8
BLACK
6
CONTINUOUS
10
158.3
20
-101.417
11
158.3
21
-100.983
0
LINE
8
BLACK
6
CONTINUOUS
10
158.3
20
-100.983
11
158.385
21
-100.558
0
LINE
8
BLACK
6
CONTINUOUS
10
158.385
20
-100.558
11
158.55
21
-100.158
0
LINE
8
BLACK
6
CONTINUOUS
10
158.55
20
-100.158
11
158.791
21
-99.7976
0
LINE
8
BLACK
6
CONTINUOUS
10
158.791
20
-99.7976
11
159.098
21
-99.4911
0
LINE
8
BLACK
6
CONTINUOUS
10
159.098
20
-99.4911
11
159.458
21
-99.2504
0
LINE
8
BLACK
6
CONTINUOUS
10
159.458
20
-99.2504
11
159.858
21
-99.0845
0
LINE
8
BLACK
6
CONTINUOUS
10
159.858
20
-99.0845
11
160.283
21
-99
0
LINE
8
BLACK
6
CONTINUOUS
10
160.283
20
-99
11
160.717
21
-99
0
LINE
8
BLACK
6
CONTINUOUS
10
160.717
20
-99
11
161.142
21
-99.0845
0
LINE
8
BLACK
6
CONTINUOUS
10
264.942
20
-99.0845
11
265.342
21
-99.2504
0
LINE
8
BLACK
6
CONTINUOUS
10
265.342
20
-99.2504
11
265.702
21
-99.4911
0
LINE
8
BLACK
6
CONTINUOUS
10
265.702
20
-99.4911
11
266.009
21
-99.7976
0
LINE
8
BLACK
6
CONTINUOUS
10
266.009
20
-99.7976
11
266.25
21
-100.158
0
LINE
8
BLACK
6
CONTINUOUS
10
266.25
20
-100.158
11
266.415
21
-100.558
0
LINE
8
BLACK
6
CONTINUOUS
10
266.415
20
-100.558
11
266.5
21
-100.983
0
LINE
8
BLACK
6
CONTINUOUS
10
266.5
20
-100.983
11
266.5
21
-101.417
0
LINE
8
BLACK
6
CONTINUOUS
10
266.5
20
-101.417
11
266.415
21
-101.842
0
LINE
8
BLACK
6
CONTINUOUS
10
266.415
20
-101.842
11
266.25
21
-102.242
0
LINE
8
BLACK
6
CONTINUOUS
10
266.25
20
-102.242
11
266.009
21
-102.602
0
LINE
8
BLACK
6
CONTINUOUS
10
266.009
20
-102.602
11
265.702
21
-102.909
0
LINE
8
BLACK
6
CONTINUOUS
10
265.702
20
-102.909
11
265.342
21
-103.15
0
LINE
8
BLACK
6
CONTINUOUS
10
265.342
20
-103.15
11
264.942
21
-103.315
0
LINE
8
BLACK
6
CONTINUOUS
10
264.942
20
-103.315
11
264.517
21
-103.4
0
LINE
8
BLACK
6
CONTINUOUS
10
264.517
20
-103.4
11
264.083
21
-103.4
0
LINE
8
BLACK
6
CONTINUOUS
10
264.083
20
-103.4
11
263.658
21
-103.315
0
LINE
8
BLACK
6
CONTINUOUS
10
263.658
20
-103.315
11
263.258
21
-103.15
0
LINE
8
BLACK
6
CONTINUOUS
10
263.258
20
-103.15
11
262.898
21
-102.909
0
LINE
8
BLACK
6
CONTINUOUS
10
262.898
20
-102.909
11
262.591
21
-102.602
0
LINE
8
BLACK
6
CONTINUOUS
10
262.591
20
-102.602
11
262.35
21
-102.242
0
LINE
8
BLACK
6
CONTINUOUS
10
262.35
20
-102.242
11
262.185
21
-101.842
0
LINE
8
BLACK
6
CONTINUOUS
10
262.185
20
-101.842
11
262.1
21
-101.417
0
LINE
8
BLACK
6
CONTINUOUS
10
262.1
20
-101.417
11
262.1
21
-100.983
0
LINE
8
BLACK
6
CONTINUOUS
10
262.1
20
-100.983
11
262.185
21
-100.558
0
LINE
8
BLACK
6
CONTINUOUS
10
262.185
20
-100.558
11
262.35
21
-100.158
0
LINE
8
BLACK
6
CONTINUOUS
10
262.35
20
-100.158
11
262.591
21
-99.7976
0
LINE
8
BLACK
6
CONTINUOUS
10
262.591
20
-99.7976
11
262.898
21
-99.4911
0
LINE
8
BLACK
6
CONTINUOUS
10
262.898
20
-99.4911
11
263.258
21
-99.2504
0
LINE
8
BLACK
6
CONTINUOUS
10
263.258
20
-99.2504
11
263.658
21
-99.0845
0
LINE
8
BLACK
6
CONTINUOUS
10
263.658
20
-99.0845
11
264.083
21
-99
0
LINE
8
BLACK
6
CONTINUOUS
10
264.083
20
-99
11
264.517
21
-99
0
LINE
8
BLACK
6
CONTINUOUS
10
264.517
20
-99
11
264.942
21
-99.0845
0
LINE
8
BLACK
6
CONTINUOUS
10
64.1417
20
-99.0845
11
64.5421
21
-99.2504
0
LINE
8
BLACK
6
CONTINUOUS
10
64.5421
20
-99.2504
11
64.9024
21
-99.4911
0
LINE
8
BLACK
6
CONTINUOUS
10
64.9024
20
-99.4911
11
65.2089
21
-99.7976
0
LINE
8
BLACK
6
CONTINUOUS
10
65.2089
20
-99.7976
11
65.4496
21
-100.158
0
LINE
8
BLACK
6
CONTINUOUS
10
65.4496
20
-100.158
11
65.6155
21
-100.558
0
LINE
8
BLACK
6
CONTINUOUS
10
65.6155
20
-100.558
11
65.7
21
-100.983
0
LINE
8
BLACK
6
CONTINUOUS
10
65.7
20
-100.983
11
65.7
21
-101.417
0
LINE
8
BLACK
6
CONTINUOUS
10
65.7
20
-101.417
11
65.6155
21
-101.842
0
LINE
8
BLACK
6
CONTINUOUS
10
65.6155
20
-101.842
11
65.4496
21
-102.242
0
LINE
8
BLACK
6
CONTINUOUS
10
65.4496
20
-102.242
11
65.2089
21
-102.602
0
LINE
8
BLACK
6
CONTINUOUS
10
65.2089
20
-102.602
11
64.9024
21
-102.909
0
LINE
8
BLACK
6
CONTINUOUS
10
64.9024
20
-102.909
11
64.5421
21
-103.15
0
LINE
8
BLACK
6
CONTINUOUS
10
64.5421
20
-103.15
11
64.1417
21
-103.315
0
LINE
8
BLACK
6
CONTINUOUS
10
64.1417
20
-103.315
11
63.7167
21
-103.4
0
LINE
8
BLACK
6
CONTINUOUS
10
63.7167
20
-103.4
11
63.2833
21
-103.4
0
LINE
8
BLACK
6
CONTINUOUS
10
63.2833
20
-103.4
11
62.8583
21
-103.315
0
LINE
8
BLACK
6
CONTINUOUS
10
62.8583
20
-103.315
11
62.4579
21
-103.15
0
LINE
8
BLACK
6
CONTINUOUS
10
62.4579
20
-103.15
11
62.0976
21
-102.909
0
LINE
8
BLACK
6
CONTINUOUS
10
62.0976
20
-102.909
11
61.7911
21
-102.602
0
LINE
8
BLACK
6
CONTINUOUS
10
61.7911
20
-102.602
11
61.5504
21
-102.242
0
LINE
8
BLACK
6
CONTINUOUS
10
61.5504
20
-102.242
11
61.3845
21
-101.842
0
LINE
8
BLACK
6
CONTINUOUS
10
61.3845
20
-101.842
11
61.3
21
-101.417
0
LINE
8
BLACK
6
CONTINUOUS
10
61.3
20
-101.417
11
61.3
21
-100.983
0
LINE
8
BLACK
6
CONTINUOUS
10
61.3
20
-100.983
11
61.3845
21
-100.558
0
LINE
8
BLACK
6
CONTINUOUS
10
61.3845
20
-100.558
11
61.5504
21
-100.158
0
LINE
8
BLACK
6
CONTINUOUS
10
61.5504
20
-100.158
11
61.7911
21
-99.7976
0
LINE
8
BLACK
6
CONTINUOUS
10
61.7911
20
-99.7976
11
62.0976
21
-99.4911
0
LINE
8
BLACK
6
CONTINUOUS
10
62.0976
20
-99.4911
11
62.4579
21
-99.2504
0
LINE
8
BLACK
6
CONTINUOUS
10
62.4579
20
-99.2504
11
62.8583
21
-99.0845
0
LINE
8
BLACK
6
CONTINUOUS
10
62.8583
20
-99.0845
11
63.2833
21
-99
0
LINE
8
BLACK
6
CONTINUOUS
10
63.2833
20
-99
11
63.7167
21
-99
0
LINE
8
BLACK
6
CONTINUOUS
10
63.7167
20
-99
11
64.1417
21
-99.0845
0
LINE
8
BLACK
6
CONTINUOUS
10
360.942
20
-99.0845
11
361.342
21
-99.2504
0
LINE
8
BLACK
6
CONTINUOUS
10
361.342
20
-99.2504
11
361.702
21
-99.4911
0
LINE
8
BLACK
6
CONTINUOUS
10
361.702
20
-99.4911
11
362.009
21
-99.7976
0
LINE
8
BLACK
6
CONTINUOUS
10
362.009
20
-99.7976
11
362.25
21
-100.158
0
LINE
8
BLACK
6
CONTINUOUS
10
362.25
20
-100.158
11
362.415
21
-100.558
0
LINE
8
BLACK
6
CONTINUOUS
10
362.415
20
-100.558
11
362.5
21
-100.983
0
LINE
8
BLACK
6
CONTINUOUS
10
362.5
20
-100.983
11
362.5
21
-101.417
0
LINE
8
BLACK
6
CONTINUOUS
10
362.5
20
-101.417
11
362.415
21
-101.842
0
LINE
8
BLACK
6
CONTINUOUS
10
362.415
20
-101.842
11
362.25
21
-102.242
0
LINE
8
BLACK
6
CONTINUOUS
10
362.25
20
-102.242
11
362.009
21
-102.602
0
LINE
8
BLACK
6
CONTINUOUS
10
362.009
20
-102.602
11
361.702
21
-102.909
0
LINE
8
BLACK
6
CONTINUOUS
10
361.702
20
-102.909
11
361.342
21
-103.15
0
LINE
8
BLACK
6
CONTINUOUS
10
361.342
20
-103.15
11
360.942
21
-103.315
0
LINE
8
BLACK
6
CONTINUOUS
10
360.942
20
-103.315
11
360.517
21
-103.4
0
LINE
8
BLACK
6
CONTINUOUS
10
360.517
20
-103.4
11
360.083
21
-103.4
0
LINE
8
BLACK
6
CONTINUOUS
10
360.083
20
-103.4
11
359.658
21
-103.315
0
LINE
8
BLACK
6
CONTINUOUS
10
359.658
20
-103.315
11
359.258
21
-103.15
0
LINE
8
BLACK
6
CONTINUOUS
10
359.258
20
-103.15
11
358.898
21
-102.909
0
LINE
8
BLACK
6
CONTINUOUS
10
358.898
20
-102.909
11
358.591
21
-102.602
0
LINE
8
BLACK
6
CONTINUOUS
10
358.591
20
-102.602
11
358.35
21
-102.242
0
LINE
8
BLACK
6
CONTINUOUS
10
358.35
20
-102.242
11
358.185
21
-101.842
0
LINE
8
BLACK
6
CONTINUOUS
10
358.185
20
-101.842
11
358.1
21
-101.417
0
LINE
8
BLACK
6
CONTINUOUS
10
358.1
20
-101.417
11
358.1
21
-100.983
0
LINE
8
BLACK
6
CONTINUOUS
10
358.1
20
-100.983
11
358.185
21
-100.558
0
LINE
8
BLACK
6
CONTINUOUS
10
358.185
20
-100.558
11
358.35
21
-100.158
0
LINE
8
BLACK
6
CONTINUOUS
10
358.35
20
-100.158
11
358.591
21
-99.7976
0
LINE
8
BLACK
6
CONTINUOUS
10
358.591
20
-99.7976
11
358.898
21
-99.4911
0
LINE
8
BLACK
6
CONTINUOUS
10
358.898
20
-99.4911
11
359.258
21
-99.2504
0
LINE
8
BLACK
6
CONTINUOUS
10
359.258
20
-99.2504
11
359.658
21
-99.0845
0
LINE
8
BLACK
6
CONTINUOUS
10
359.658
20
-99.0845
11
360.083
21
-99
0
LINE
8
BLACK
6
CONTINUOUS
10
360.083
20
-99
11
360.517
21
-99
0
LINE
8
BLACK
6
CONTINUOUS
10
360.517
20
-99
11
360.942
21
-99.0845
0
LINE
8
BLACK
6
CONTINUOUS
10
264.942
20
-61.0845
11
265.342
21
-61.2504
0
LINE
8
BLACK
6
CONTINUOUS
10
265.342
20
-61.2504
11
265.702
21
-61.4911
0
LINE
8
BLACK
6
CONTINUOUS
10
265.702
20
-61.4911
11
266.009
21
-61.7976
0
LINE
8
BLACK
6
CONTINUOUS
10
266.009
20
-61.7976
11
266.25
21
-62.1579
0
LINE
8
BLACK
6
CONTINUOUS
10
266.25
20
-62.1579
11
266.415
21
-62.5583
0
LINE
8
BLACK
6
CONTINUOUS
10
266.415
20
-62.5583
11
266.5
21
-62.9833
0
LINE
8
BLACK
6
CONTINUOUS
10
266.5
20
-62.9833
11
266.5
21
-63.4167
0
LINE
8
BLACK
6
CONTINUOUS
10
266.5
20
-63.4167
11
266.415
21
-63.8417
0
LINE
8
BLACK
6
CONTINUOUS
10
266.415
20
-63.8417
11
266.25
21
-64.2421
0
LINE
8
BLACK
6
CONTINUOUS
10
266.25
20
-64.2421
11
266.009
21
-64.6024
0
LINE
8
BLACK
6
CONTINUOUS
10
266.009
20
-64.6024
11
265.702
21
-64.9089
0
LINE
8
BLACK
6
CONTINUOUS
10
265.702
20
-64.9089
11
265.342
21
-65.1496
0
LINE
8
BLACK
6
CONTINUOUS
10
265.342
20
-65.1496
11
264.942
21
-65.3155
0
LINE
8
BLACK
6
CONTINUOUS
10
264.942
20
-65.3155
11
264.517
21
-65.4
0
LINE
8
BLACK
6
CONTINUOUS
10
264.517
20
-65.4
11
264.083
21
-65.4
0
LINE
8
BLACK
6
CONTINUOUS
10
264.083
20
-65.4
11
263.658
21
-65.3155
0
LINE
8
BLACK
6
CONTINUOUS
10
263.658
20
-65.3155
11
263.258
21
-65.1496
0
LINE
8
BLACK
6
CONTINUOUS
10
263.258
20
-65.1496
11
262.898
21
-64.9089
0
LINE
8
BLACK
6
CONTINUOUS
10
262.898
20
-64.9089
11
262.591
21
-64.6024
0
LINE
8
BLACK
6
CONTINUOUS
10
262.591
20
-64.6024
11
262.35
21
-64.2421
0
LINE
8
BLACK
6
CONTINUOUS
10
262.35
20
-64.2421
11
262.185
21
-63.8417
0
LINE
8
BLACK
6
CONTINUOUS
10
262.185
20
-63.8417
11
262.1
21
-63.4167
0
LINE
8
BLACK
6
CONTINUOUS
10
262.1
20
-63.4167
11
262.1
21
-62.9833
0
LINE
8
BLACK
6
CONTINUOUS
10
262.1
20
-62.9833
11
262.185
21
-62.5583
0
LINE
8
BLACK
6
CONTINUOUS
10
262.185
20
-62.5583
11
262.35
21
-62.1579
0
LINE
8
BLACK
6
CONTINUOUS
10
262.35
20
-62.1579
11
262.591
21
-61.7976
0
LINE
8
BLACK
6
CONTINUOUS
10
262.591
20
-61.7976
11
262.898
21
-61.4911
0
LINE
8
BLACK
6
CONTINUOUS
10
262.898
20
-61.4911
11
263.258
21
-61.2504
0
LINE
8
BLACK
6
CONTINUOUS
10
263.258
20
-61.2504
11
263.658
21
-61.0845
0
LINE
8
BLACK
6
CONTINUOUS
10
263.658
20
-61.0845
11
264.083
21
-61
0
LINE
8
BLACK
6
CONTINUOUS
10
264.083
20
-61
11
264.517
21
-61
0
LINE
8
BLACK
6
CONTINUOUS
10
264.517
20
-61
11
264.942
21
-61.0845
0
LINE
8
BLACK
6
CONTINUOUS
10
161.142
20
-61.0845
11
161.542
21
-61.2504
0
LINE
8
BLACK
6
CONTINUOUS
10
161.542
20
-61.2504
11
161.902
21
-61.4911
0
LINE
8
BLACK
6
CONTINUOUS
10
161.902
20
-61.4911
11
162.209
21
-61.7976
0
LINE
8
BLACK
6
CONTINUOUS
10
162.209
20
-61.7976
11
162.45
21
-62.1579
0
LINE
8
BLACK
6
CONTINUOUS
10
162.45
20
-62.1579
11
162.615
21
-62.5583
0
LINE
8
BLACK
6
CONTINUOUS
10
162.615
20
-62.5583
11
162.7
21
-62.9833
0
LINE
8
BLACK
6
CONTINUOUS
10
162.7
20
-62.9833
11
162.7
21
-63.4167
0
LINE
8
BLACK
6
CONTINUOUS
10
162.7
20
-63.4167
11
162.615
21
-63.8417
0
LINE
8
BLACK
6
CONTINUOUS
10
162.615
20
-63.8417
11
162.45
21
-64.2421
0
LINE
8
BLACK
6
CONTINUOUS
10
162.45
20
-64.2421
11
162.209
21
-64.6024
0
LINE
8
BLACK
6
CONTINUOUS
10
162.209
20
-64.6024
11
161.902
21
-64.9089
0
LINE
8
BLACK
6
CONTINUOUS
10
161.902
20
-64.9089
11
161.542
21
-65.1496
0
LINE
8
BLACK
6
CONTINUOUS
10
161.542
20
-65.1496
11
161.142
21
-65.3155
0
LINE
8
BLACK
6
CONTINUOUS
10
161.142
20
-65.3155
11
160.717
21
-65.4
0
LINE
8
BLACK
6
CONTINUOUS
10
160.717
20
-65.4
11
160.283
21
-65.4
0
LINE
8
BLACK
6
CONTINUOUS
10
160.283
20
-65.4
11
159.858
21
-65.3155
0
LINE
8
BLACK
6
CONTINUOUS
10
159.858
20
-65.3155
11
159.458
21
-65.1496
0
LINE
8
BLACK
6
CONTINUOUS
10
159.458
20
-65.1496
11
159.098
21
-64.9089
0
LINE
8
BLACK
6
CONTINUOUS
10
159.098
20
-64.9089
11
158.791
21
-64.6024
0
LINE
8
BLACK
6
CONTINUOUS
10
158.791
20
-64.6024
11
158.55
21
-64.2421
0
LINE
8
BLACK
6
CONTINUOUS
10
158.55
20
-64.2421
11
158.385
21
-63.8417
0
LINE
8
BLACK
6
CONTINUOUS
10
158.385
20
-63.8417
11
158.3
21
-63.4167
0
LINE
8
BLACK
6
CONTINUOUS
10
158.3
20
-63.4167
11
158.3
21
-62.9833
0
LINE
8
BLACK
6
CONTINUOUS
10
158.3
20
-62.9833
11
158.385
21
-62.5583
0
LINE
8
BLACK
6
CONTINUOUS
10
158.385
20
-62.5583
11
158.55
21
-62.1579
0
LINE
8
BLACK
6
CONTINUOUS
10
158.55
20
-62.1579
11
158.791
21
-61.7976
0
LINE
8
BLACK
6
CONTINUOUS
10
158.791
20
-61.7976
11
159.098
21
-61.4911
0
LINE
8
BLACK
6
CONTINUOUS
10
159.098
20
-61.4911
11
159.458
21
-61.2504
0
LINE
8
BLACK
6
CONTINUOUS
10
159.458
20
-61.2504
11
159.858
21
-61.0845
0
LINE
8
BLACK
6
CONTINUOUS
10
159.858
20
-61.0845
11
160.283
21
-61
0
LINE
8
BLACK
6
CONTINUOUS
10
160.283
20
-61
11
160.717
21
-61
0
LINE
8
BLACK
6
CONTINUOUS
10
160.717
20
-61
11
161.142
21
-61.0845
0
LINE
8
BLACK
6
CONTINUOUS
10
360.942
20
-61.0845
11
361.342
21
-61.2504
0
LINE
8
BLACK
6
CONTINUOUS
10
361.342
20
-61.2504
11
361.702
21
-61.4911
0
LINE
8
BLACK
6
CONTINUOUS
10
361.702
20
-61.4911
11
362.009
21
-61.7976
0
LINE
8
BLACK
6
CONTINUOUS
10
362.009
20
-61.7976
11
362.25
21
-62.1579
0
LINE
8
BLACK
6
CONTINUOUS
10
362.25
20
-62.1579
11
362.415
21
-62.5583
0
LINE
8
BLACK
6
CONTINUOUS
10
362.415
20
-62.5583
11
362.5
21
-62.9833
0
LINE
8
BLACK
6
CONTINUOUS
10
362.5
20
-62.9833
11
362.5
21
-63.4167
0
LINE
8
BLACK
6
CONTINUOUS
10
362.5
20
-63.4167
11
362.415
21
-63.8417
0
LINE
8
BLACK
6
CONTINUOUS
10
362.415
20
-63.8417
11
362.25
21
-64.2421
0
LINE
8
BLACK
6
CONTINUOUS
10
362.25
20
-64.2421
11
362.009
21
-64.6024
0
LINE
8
BLACK
6
CONTINUOUS
10
362.009
20
-64.6024
11
361.702
21
-64.9089
0
LINE
8
BLACK
6
CONTINUOUS
10
361.702
20
-64.9089
11
361.342
21
-65.1496
0
LINE
8
BLACK
6
CONTINUOUS
10
361.342
20
-65.1496
11
360.942
21
-65.3155
0
LINE
8
BLACK
6
CONTINUOUS
10
360.942
20
-65.3155
11
360.517
21
-65.4
0
LINE
8
BLACK
6
CONTINUOUS
10
360.517
20
-65.4
11
360.083
21
-65.4
0
LINE
8
BLACK
6
CONTINUOUS
10
360.083
20
-65.4
11
359.658
21
-65.3155
0
LINE
8
BLACK
6
CONTINUOUS
10
359.658
20
-65.3155
11
359.258
21
-65.1496
0
LINE
8
BLACK
6
CONTINUOUS
10
359.258
20
-65.1496
11
358.898
21
-64.9089
0
LINE
8
BLACK
6
CONTINUOUS
10
358.898
20
-64.9089
11
358.591
21
-64.6024
0
LINE
8
BLACK
6
CONTINUOUS
10
358.591
20
-64.6024
11
358.35
21
-64.2421
0
LINE
8
BLACK
6
CONTINUOUS
10
358.35
20
-64.2421
11
358.185
21
-63.8417
0
LINE
8
BLACK
6
CONTINUOUS
10
358.185
20
-63.8417
11
358.1
21
-63.4167
0
LINE
8
BLACK
6
CONTINUOUS
10
358.1
20
-63.4167
11
358.1
21
-62.9833
0
LINE
8
BLACK
6
CONTINUOUS
10
358.1
20
-62.9833
11
358.185
21
-62.5583
0
LINE
8
BLACK
6
CONTINUOUS
10
358.185
20
-62.5583
11
358.35
21
-62.1579
0
LINE
8
BLACK
6
CONTINUOUS
10
358.35
20
-62.1579
11
358.591
21
-61.7976
0
LINE
8
BLACK
6
CONTINUOUS
10
358.591
20
-61.7976
11
358.898
21
-61.4911
0
LINE
8
BLACK
6
CONTINUOUS
10
358.898
20
-61.4911
11
359.258
21
-61.2504
0
LINE
8
BLACK
6
CONTINUOUS
10
359.258
20
-61.2504
11
359.658
21
-61.0845
0
LINE
8
BLACK
6
CONTINUOUS
10
359.658
20
-61.0845
11
360.083
21
-61
0
LINE
8
BLACK
6
CONTINUOUS
10
360.083
20
-61
11
360.517
21
-61
0
LINE
8
BLACK
6
CONTINUOUS
10
360.517
20
-61
11
360.942
21
-61.0845
0
LINE
8
BLACK
6
CONTINUOUS
10
64.1417
20
-61.0845
11
64.5421
21
-61.2504
0
LINE
8
BLACK
6
CONTINUOUS
10
64.5421
20
-61.2504
11
64.9024
21
-61.4911
0
LINE
8
BLACK
6
CONTINUOUS
10
64.9024
20
-61.4911
11
65.2089
21
-61.7976
0
LINE
8
BLACK
6
CONTINUOUS
10
65.2089
20
-61.7976
11
65.4496
21
-62.1579
0
LINE
8
BLACK
6
CONTINUOUS
10
65.4496
20
-62.1579
11
65.6155
21
-62.5583
0
LINE
8
BLACK
6
CONTINUOUS
10
65.6155
20
-62.5583
11
65.7
21
-62.9833
0
LINE
8
BLACK
6
CONTINUOUS
10
65.7
20
-62.9833
11
65.7
21
-63.4167
0
LINE
8
BLACK
6
CONTINUOUS
10
65.7
20
-63.4167
11
65.6155
21
-63.8417
0
LINE
8
BLACK
6
CONTINUOUS
10
65.6155
20
-63.8417
11
65.4496
21
-64.2421
0
LINE
8
BLACK
6
CONTINUOUS
10
65.4496
20
-64.2421
11
65.2089
21
-64.6024
0
LINE
8
BLACK
6
CONTINUOUS
10
65.2089
20
-64.6024
11
64.9024
21
-64.9089
0
LINE
8
BLACK
6
CONTINUOUS
10
64.9024
20
-64.9089
11
64.5421
21
-65.1496
0
LINE
8
BLACK
6
CONTINUOUS
10
64.5421
20
-65.1496
11
64.1417
21
-65.3155
0
LINE
8
BLACK
6
CONTINUOUS
10
64.1417
20
-65.3155
11
63.7167
21
-65.4
0
LINE
8
BLACK
6
CONTINUOUS
10
63.7167
20
-65.4
11
63.2833
21
-65.4
0
LINE
8
BLACK
6
CONTINUOUS
10
63.2833
20
-65.4
11
62.8583
21
-65.3155
0
LINE
8
BLACK
6
CONTINUOUS
10
62.8583
20
-65.3155
11
62.4579
21
-65.1496
0
LINE
8
BLACK
6
CONTINUOUS
10
62.4579
20
-65.1496
11
62.0976
21
-64.9089
0
LINE
8
BLACK
6
CONTINUOUS
10
62.0976
20
-64.9089
11
61.7911
21
-64.6024
0
LINE
8
BLACK
6
CONTINUOUS
10
61.7911
20
-64.6024
11
61.5504
21
-64.2421
0
LINE
8
BLACK
6
CONTINUOUS
10
61.5504
20
-64.2421
11
61.3845
21
-63.8417
0
LINE
8
BLACK
6
CONTINUOUS
10
61.3845
20
-63.8417
11
61.3
21
-63.4167
0
LINE
8
BLACK
6
CONTINUOUS
10
61.3
20
-63.4167
11
61.3
21
-62.9833
0
LINE
8
BLACK
6
CONTINUOUS
10
61.3
20
-62.9833
11
61.3845
21
-62.5583
0
LINE
8
BLACK
6
CONTINUOUS
10
61.3845
20
-62.5583
11
61.5504
21
-62.1579
0
LINE
8
BLACK
6
CONTINUOUS
10
61.5504
20
-62.1579
11
61.7911
21
-61.7976
0
LINE
8
BLACK
6
CONTINUOUS
10
61.7911
20
-61.7976
11
62.0976
21
-61.4911
0
LINE
8
BLACK
6
CONTINUOUS
10
62.0976
20
-61.4911
11
62.4579
21
-61.2504
0
LINE
8
BLACK
6
CONTINUOUS
10
62.4579
20
-61.2504
11
62.8583
21
-61.0845
0
LINE
8
BLACK
6
CONTINUOUS
10
62.8583
20
-61.0845
11
63.2833
21
-61
0
LINE
8
BLACK
6
CONTINUOUS
10
63.2833
20
-61
11
63.7167
21
-61
0
LINE
8
BLACK
6
CONTINUOUS
10
63.7167
20
-61
11
64.1417
21
-61.0845
0
CIRCLE
8
BLACK
10
160.5
20
-101.2
40
1.1
0
CIRCLE
8
BLACK
10
216.6
20
-209.992
40
1.1
0
CIRCLE
8
BLACK
10
211.8
20
-124.192
40
1.1
0
CIRCLE
8
BLACK
10
78.5
20
-124.1
40
1.1
0
CIRCLE
8
BLACK
10
345.2
20
-124.192
40
1.1
0
CIRCLE
8
BLACK
10
345.2
20
-200.292
40
1.1
0
CIRCLE
8
BLACK
10
83.2
20
-209.892
40
1.1
0
CIRCLE
8
BLACK
10
264.3
20
-101.2
40
1.1
0
CIRCLE
8
BLACK
10
264.3
20
-63.2
40
1.1
0
CIRCLE
8
BLACK
10
160.5
20
-63.2
40
1.1
0
CIRCLE
8
BLACK
10
63.5
20
-101.2
40
1.1
0
CIRCLE
8
BLACK
10
360.3
20
-101.2
40
1.1
0
CIRCLE
8
BLACK
10
360.3
20
-63.2
40
1.1
0
CIRCLE
8
BLACK
10
63.5
20
-63.2
40
1.1
  0
ENDSEC
  0
EOF
