  0
SECTION
  2
HEADER
  9
$ANGBASE
  50
0.0
  9
$ANGDIR
  70
1
  9
$MEASUREMENT
  70
1
  0
ENDSEC
  0
SECTION
  2
TABLES
  0
TABLE
  2
LTYPE
  70
4
  0
LTYPE
  5
40F
  2
CONTINUOUS
  70
0
  3
Solid line
  72
65
  73
0
  40
0.0
  0
LTYPE
  5
410
  2
DASHDOT
 70
0
  3
Dash Dot ____ _ ____ _
 72
65
 73
4
 40
2.0
 49
1.25
 49
-0.25
 49
0.25
 49
-0.25
  0
LTYPE
  5
411
  2
DASHED
 70
0
  3
Dashed __ __ __ __ __
 72
65
 73
2
 40
0.75
 49
0.5
 49
-0.25
  0
LTYPE
  5
43B
  2
DOTTED
 70
0
  3
Dotted .  .  .  .
 72
65
 73
2
 40
0.2
 49
0.0
 49
-0.2
  0
ENDTAB
  0
TABLE
  2
STYLE
  70
4
  0
STYLE
  2
KICAD
  70
0
  40
0
  41
1
  42
1
  50
0
  71
0
  3
isocp.shx
  0
STYLE
  2
KICADB
  70
0
  40
0
  41
1
  42
1
  50
0
  71
0
  3
isocp.shx
  0
STYLE
  2
KICADI
  70
0
  40
0
  41
1
  42
1
  50
15
  71
0
  3
isocp.shx
  0
STYLE
  2
KICADBI
  70
0
  40
0
  41
1
  42
1
  50
15
  71
0
  3
isocp.shx
  0
ENDTAB
  0
TABLE
  2
LAYER
  70
1
  0
LAYER
  2
BLACK
  70
0
  62
7
  6
CONTINUOUS
  0
ENDTAB
  0
ENDSEC
  0
SECTION
  2
ENTITIES
0
LINE
8
BLACK
6
CONTINUOUS
10
61.8897
20
-59.2373
11
61.892
21
-59.2369
0
LINE
8
BLACK
6
CONTINUOUS
10
61.892
20
-59.2369
11
61.8942
21
-59.2364
0
LINE
8
BLACK
6
CONTINUOUS
10
61.8942
20
-59.2364
11
62.4764
21
-59.1752
0
LINE
8
BLACK
6
CONTINUOUS
10
62.4764
20
-59.1752
11
62.4768
21
-59.1752
0
LINE
8
BLACK
6
CONTINUOUS
10
62.4768
20
-59.1752
11
62.4779
21
-59.1752
0
LINE
8
BLACK
6
CONTINUOUS
10
62.4779
20
-59.1752
11
62.479
21
-59.1751
0
LINE
8
BLACK
6
CONTINUOUS
10
62.479
20
-59.1751
11
62.4987
21
-59.175
0
LINE
8
BLACK
6
CONTINUOUS
10
62.4987
20
-59.175
11
62.4988
21
-59.175
0
LINE
8
BLACK
6
CONTINUOUS
10
62.4988
20
-59.175
11
364.299
21
-59.175
0
LINE
8
BLACK
6
CONTINUOUS
10
364.299
20
-59.175
11
364.3
21
-59.1749
0
LINE
8
BLACK
6
CONTINUOUS
10
364.3
20
-59.1749
11
364.301
21
-59.175
0
LINE
8
BLACK
6
CONTINUOUS
10
364.301
20
-59.175
11
364.301
21
-59.175
0
LINE
8
BLACK
6
CONTINUOUS
10
364.301
20
-59.175
11
364.305
21
-59.1754
0
LINE
8
BLACK
6
CONTINUOUS
10
364.305
20
-59.1754
11
364.31
21
-59.1768
0
LINE
8
BLACK
6
CONTINUOUS
10
364.31
20
-59.1768
11
364.314
21
-59.1791
0
LINE
8
BLACK
6
CONTINUOUS
10
364.314
20
-59.1791
11
364.318
21
-59.1822
0
LINE
8
BLACK
6
CONTINUOUS
10
364.318
20
-59.1822
11
364.321
21
-59.186
0
LINE
8
BLACK
6
CONTINUOUS
10
364.321
20
-59.186
11
364.323
21
-59.1904
0
LINE
8
BLACK
6
CONTINUOUS
10
364.323
20
-59.1904
11
364.325
21
-59.1951
0
LINE
8
BLACK
6
CONTINUOUS
10
364.325
20
-59.1951
11
364.325
21
-59.2
0
LINE
8
BLACK
6
CONTINUOUS
10
364.325
20
-59.2
11
364.325
21
-59.2012
0
LINE
8
BLACK
6
CONTINUOUS
10
364.325
20
-59.2012
11
364.325
21
-219.399
0
LINE
8
BLACK
6
CONTINUOUS
10
364.325
20
-219.399
11
364.325
21
-219.4
0
LINE
8
BLACK
6
CONTINUOUS
10
364.325
20
-219.4
11
364.325
21
-219.401
0
LINE
8
BLACK
6
CONTINUOUS
10
364.325
20
-219.401
11
364.325
21
-219.401
0
LINE
8
BLACK
6
CONTINUOUS
10
364.325
20
-219.401
11
364.325
21
-219.405
0
LINE
8
BLACK
6
CONTINUOUS
10
364.325
20
-219.405
11
364.323
21
-219.41
0
LINE
8
BLACK
6
CONTINUOUS
10
364.323
20
-219.41
11
364.321
21
-219.414
0
LINE
8
BLACK
6
CONTINUOUS
10
364.321
20
-219.414
11
364.318
21
-219.418
0
LINE
8
BLACK
6
CONTINUOUS
10
364.318
20
-219.418
11
364.314
21
-219.421
0
LINE
8
BLACK
6
CONTINUOUS
10
364.314
20
-219.421
11
364.31
21
-219.423
0
LINE
8
BLACK
6
CONTINUOUS
10
364.31
20
-219.423
11
364.305
21
-219.425
0
LINE
8
BLACK
6
CONTINUOUS
10
364.305
20
-219.425
11
364.3
21
-219.425
0
LINE
8
BLACK
6
CONTINUOUS
10
364.3
20
-219.425
11
364.299
21
-219.425
0
LINE
8
BLACK
6
CONTINUOUS
10
364.299
20
-219.425
11
62.496
21
-219.422
0
LINE
8
BLACK
6
CONTINUOUS
10
62.496
20
-219.422
11
62.4948
21
-219.422
0
LINE
8
BLACK
6
CONTINUOUS
10
62.4948
20
-219.422
11
62.4948
21
-219.422
0
LINE
8
BLACK
6
CONTINUOUS
10
62.4948
20
-219.422
11
61.9126
21
-219.365
0
LINE
8
BLACK
6
CONTINUOUS
10
61.9126
20
-219.365
11
61.9123
21
-219.365
0
LINE
8
BLACK
6
CONTINUOUS
10
61.9123
20
-219.365
11
61.91
21
-219.364
0
LINE
8
BLACK
6
CONTINUOUS
10
61.91
20
-219.364
11
61.9078
21
-219.364
0
LINE
8
BLACK
6
CONTINUOUS
10
61.9078
20
-219.364
11
61.3478
21
-219.195
0
LINE
8
BLACK
6
CONTINUOUS
10
61.3478
20
-219.195
11
61.3475
21
-219.195
0
LINE
8
BLACK
6
CONTINUOUS
10
61.3475
20
-219.195
11
61.3454
21
-219.194
0
LINE
8
BLACK
6
CONTINUOUS
10
61.3454
20
-219.194
11
61.3433
21
-219.193
0
LINE
8
BLACK
6
CONTINUOUS
10
61.3433
20
-219.193
11
60.8268
21
-218.919
0
LINE
8
BLACK
6
CONTINUOUS
10
60.8268
20
-218.919
11
60.8265
21
-218.918
0
LINE
8
BLACK
6
CONTINUOUS
10
60.8265
20
-218.918
11
60.8247
21
-218.917
0
LINE
8
BLACK
6
CONTINUOUS
10
60.8247
20
-218.917
11
60.8228
21
-218.916
0
LINE
8
BLACK
6
CONTINUOUS
10
60.8228
20
-218.916
11
60.3695
21
-218.546
0
LINE
8
BLACK
6
CONTINUOUS
10
60.3695
20
-218.546
11
60.3692
21
-218.546
0
LINE
8
BLACK
6
CONTINUOUS
10
60.3692
20
-218.546
11
60.3676
21
-218.544
0
LINE
8
BLACK
6
CONTINUOUS
10
60.3676
20
-218.544
11
60.366
21
-218.543
0
LINE
8
BLACK
6
CONTINUOUS
10
60.366
20
-218.543
11
59.9931
21
-218.092
0
LINE
8
BLACK
6
CONTINUOUS
10
59.9931
20
-218.092
11
59.9929
21
-218.092
0
LINE
8
BLACK
6
CONTINUOUS
10
59.9929
20
-218.092
11
59.9917
21
-218.09
0
LINE
8
BLACK
6
CONTINUOUS
10
59.9917
20
-218.09
11
59.9904
21
-218.088
0
LINE
8
BLACK
6
CONTINUOUS
10
59.9904
20
-218.088
11
59.7122
21
-217.573
0
LINE
8
BLACK
6
CONTINUOUS
10
59.7122
20
-217.573
11
59.712
21
-217.573
0
LINE
8
BLACK
6
CONTINUOUS
10
59.712
20
-217.573
11
59.7112
21
-217.571
0
LINE
8
BLACK
6
CONTINUOUS
10
59.7112
20
-217.571
11
59.7103
21
-217.569
0
LINE
8
BLACK
6
CONTINUOUS
10
59.7103
20
-217.569
11
59.5373
21
-217.01
0
LINE
8
BLACK
6
CONTINUOUS
10
59.5373
20
-217.01
11
59.5372
21
-217.01
0
LINE
8
BLACK
6
CONTINUOUS
10
59.5372
20
-217.01
11
59.5368
21
-217.007
0
LINE
8
BLACK
6
CONTINUOUS
10
59.5368
20
-217.007
11
59.5364
21
-217.005
0
LINE
8
BLACK
6
CONTINUOUS
10
59.5364
20
-217.005
11
59.4752
21
-216.424
0
LINE
8
BLACK
6
CONTINUOUS
10
59.4752
20
-216.424
11
59.4752
21
-216.423
0
LINE
8
BLACK
6
CONTINUOUS
10
59.4752
20
-216.423
11
59.4752
21
-216.422
0
LINE
8
BLACK
6
CONTINUOUS
10
59.4752
20
-216.422
11
59.4751
21
-216.421
0
LINE
8
BLACK
6
CONTINUOUS
10
59.4751
20
-216.421
11
59.475
21
-216.401
0
LINE
8
BLACK
6
CONTINUOUS
10
59.475
20
-216.401
11
59.475
21
-216.401
0
LINE
8
BLACK
6
CONTINUOUS
10
59.475
20
-216.401
11
59.475
21
-62.1988
0
LINE
8
BLACK
6
CONTINUOUS
10
59.475
20
-62.1988
11
59.4751
21
-62.1976
0
LINE
8
BLACK
6
CONTINUOUS
10
59.4751
20
-62.1976
11
59.4751
21
-62.1976
0
LINE
8
BLACK
6
CONTINUOUS
10
59.4751
20
-62.1976
11
59.5323
21
-61.6149
0
LINE
8
BLACK
6
CONTINUOUS
10
59.5323
20
-61.6149
11
59.5323
21
-61.6145
0
LINE
8
BLACK
6
CONTINUOUS
10
59.5323
20
-61.6145
11
59.5328
21
-61.6123
0
LINE
8
BLACK
6
CONTINUOUS
10
59.5328
20
-61.6123
11
59.5332
21
-61.6101
0
LINE
8
BLACK
6
CONTINUOUS
10
59.5332
20
-61.6101
11
59.7024
21
-61.0496
0
LINE
8
BLACK
6
CONTINUOUS
10
59.7024
20
-61.0496
11
59.7025
21
-61.0492
0
LINE
8
BLACK
6
CONTINUOUS
10
59.7025
20
-61.0492
11
59.7034
21
-61.0471
0
LINE
8
BLACK
6
CONTINUOUS
10
59.7034
20
-61.0471
11
59.7043
21
-61.0451
0
LINE
8
BLACK
6
CONTINUOUS
10
59.7043
20
-61.0451
11
59.9792
21
-60.5281
0
LINE
8
BLACK
6
CONTINUOUS
10
59.9792
20
-60.5281
11
59.9793
21
-60.5278
0
LINE
8
BLACK
6
CONTINUOUS
10
59.9793
20
-60.5278
11
59.9806
21
-60.5259
0
LINE
8
BLACK
6
CONTINUOUS
10
59.9806
20
-60.5259
11
59.9819
21
-60.524
0
LINE
8
BLACK
6
CONTINUOUS
10
59.9819
20
-60.524
11
60.3519
21
-60.0703
0
LINE
8
BLACK
6
CONTINUOUS
10
60.3519
20
-60.0703
11
60.3519
21
-60.0703
0
LINE
8
BLACK
6
CONTINUOUS
10
60.3519
20
-60.0703
11
60.3519
21
-60.0703
0
LINE
8
BLACK
6
CONTINUOUS
10
60.3519
20
-60.0703
11
60.3521
21
-60.07
0
LINE
8
BLACK
6
CONTINUOUS
10
60.3521
20
-60.07
11
60.3537
21
-60.0685
0
LINE
8
BLACK
6
CONTINUOUS
10
60.3537
20
-60.0685
11
60.3554
21
-60.0668
0
LINE
8
BLACK
6
CONTINUOUS
10
60.3554
20
-60.0668
11
60.8065
21
-59.6936
0
LINE
8
BLACK
6
CONTINUOUS
10
60.8065
20
-59.6936
11
60.8068
21
-59.6934
0
LINE
8
BLACK
6
CONTINUOUS
10
60.8068
20
-59.6934
11
60.8086
21
-59.6922
0
LINE
8
BLACK
6
CONTINUOUS
10
60.8086
20
-59.6922
11
60.8105
21
-59.6909
0
LINE
8
BLACK
6
CONTINUOUS
10
60.8105
20
-59.6909
11
61.3256
21
-59.4124
0
LINE
8
BLACK
6
CONTINUOUS
10
61.3256
20
-59.4124
11
61.3259
21
-59.4123
0
LINE
8
BLACK
6
CONTINUOUS
10
61.3259
20
-59.4123
11
61.328
21
-59.4114
0
LINE
8
BLACK
6
CONTINUOUS
10
61.328
20
-59.4114
11
61.3301
21
-59.4105
0
LINE
8
BLACK
6
CONTINUOUS
10
61.3301
20
-59.4105
11
61.8894
21
-59.2374
0
LINE
8
BLACK
6
CONTINUOUS
10
61.8894
20
-59.2374
11
61.8894
21
-59.2374
0
LINE
8
BLACK
6
CONTINUOUS
10
61.8894
20
-59.2374
11
61.8897
21
-59.2373
0
LINE
8
BLACK
6
CONTINUOUS
10
62.5001
20
-59.225
11
62.4804
21
-59.2251
0
LINE
8
BLACK
6
CONTINUOUS
10
62.4804
20
-59.2251
11
61.9018
21
-59.2859
0
LINE
8
BLACK
6
CONTINUOUS
10
61.9018
20
-59.2859
11
61.3472
21
-59.4576
0
LINE
8
BLACK
6
CONTINUOUS
10
61.3472
20
-59.4576
11
60.8365
21
-59.7337
0
LINE
8
BLACK
6
CONTINUOUS
10
60.8365
20
-59.7337
11
60.3891
21
-60.1038
0
LINE
8
BLACK
6
CONTINUOUS
10
60.3891
20
-60.1038
11
60.0222
21
-60.5537
0
LINE
8
BLACK
6
CONTINUOUS
10
60.0222
20
-60.5537
11
59.7496
21
-61.0664
0
LINE
8
BLACK
6
CONTINUOUS
10
59.7496
20
-61.0664
11
59.5818
21
-61.6222
0
LINE
8
BLACK
6
CONTINUOUS
10
59.5818
20
-61.6222
11
59.525
21
-62.2012
0
LINE
8
BLACK
6
CONTINUOUS
10
59.525
20
-62.2012
11
59.525
21
-216.4
0
LINE
8
BLACK
6
CONTINUOUS
10
59.525
20
-216.4
11
59.5251
21
-216.42
0
LINE
8
BLACK
6
CONTINUOUS
10
59.5251
20
-216.42
11
59.5858
21
-216.998
0
LINE
8
BLACK
6
CONTINUOUS
10
59.5858
20
-216.998
11
59.7573
21
-217.552
0
LINE
8
BLACK
6
CONTINUOUS
10
59.7573
20
-217.552
11
60.0332
21
-218.062
0
LINE
8
BLACK
6
CONTINUOUS
10
60.0332
20
-218.062
11
60.403
21
-218.509
0
LINE
8
BLACK
6
CONTINUOUS
10
60.403
20
-218.509
11
60.8525
21
-218.876
0
LINE
8
BLACK
6
CONTINUOUS
10
60.8525
20
-218.876
11
61.3646
21
-219.148
0
LINE
8
BLACK
6
CONTINUOUS
10
61.3646
20
-219.148
11
61.9199
21
-219.315
0
LINE
8
BLACK
6
CONTINUOUS
10
61.9199
20
-219.315
11
62.4984
21
-219.372
0
LINE
8
BLACK
6
CONTINUOUS
10
62.4984
20
-219.372
11
364.275
21
-219.375
0
LINE
8
BLACK
6
CONTINUOUS
10
364.275
20
-219.375
11
364.275
21
-59.225
0
LINE
8
BLACK
6
CONTINUOUS
10
364.275
20
-59.225
11
62.5001
21
-59.225
  0
ENDSEC
  0
EOF
