  0
SECTION
  2
HEADER
  9
$ANGBASE
  50
0.0
  9
$ANGDIR
  70
1
  9
$MEASUREMENT
  70
1
  0
ENDSEC
  0
SECTION
  2
TABLES
  0
TABLE
  2
LTYPE
  70
4
  0
LTYPE
  5
40F
  2
CONTINUOUS
  70
0
  3
Solid line
  72
65
  73
0
  40
0.0
  0
LTYPE
  5
410
  2
DASHDOT
 70
0
  3
Dash Dot ____ _ ____ _
 72
65
 73
4
 40
2.0
 49
1.25
 49
-0.25
 49
0.25
 49
-0.25
  0
LTYPE
  5
411
  2
DASHED
 70
0
  3
Dashed __ __ __ __ __
 72
65
 73
2
 40
0.75
 49
0.5
 49
-0.25
  0
LTYPE
  5
43B
  2
DOTTED
 70
0
  3
Dotted .  .  .  .
 72
65
 73
2
 40
0.2
 49
0.0
 49
-0.2
  0
ENDTAB
  0
TABLE
  2
STYLE
  70
4
  0
STYLE
  2
KICAD
  70
0
  40
0
  41
1
  42
1
  50
0
  71
0
  3
isocp.shx
  0
STYLE
  2
KICADB
  70
0
  40
0
  41
1
  42
1
  50
0
  71
0
  3
isocp.shx
  0
STYLE
  2
KICADI
  70
0
  40
0
  41
1
  42
1
  50
15
  71
0
  3
isocp.shx
  0
STYLE
  2
KICADBI
  70
0
  40
0
  41
1
  42
1
  50
15
  71
0
  3
isocp.shx
  0
ENDTAB
  0
TABLE
  2
LAYER
  70
1
  0
LAYER
  2
BLACK
  70
0
  62
7
  6
CONTINUOUS
  0
ENDTAB
  0
ENDSEC
  0
SECTION
  2
ENTITIES
0
LINE
8
BLACK
6
CONTINUOUS
10
63.525
20
-186.225
11
63.5201
21
-186.225
0
LINE
8
BLACK
6
CONTINUOUS
10
63.5201
20
-186.225
11
63.5154
21
-186.223
0
LINE
8
BLACK
6
CONTINUOUS
10
63.5154
20
-186.223
11
63.511
21
-186.221
0
LINE
8
BLACK
6
CONTINUOUS
10
63.511
20
-186.221
11
63.5072
21
-186.218
0
LINE
8
BLACK
6
CONTINUOUS
10
63.5072
20
-186.218
11
63.5071
21
-186.218
0
LINE
8
BLACK
6
CONTINUOUS
10
63.5071
20
-186.218
11
63.5041
21
-186.214
0
LINE
8
BLACK
6
CONTINUOUS
10
63.5041
20
-186.214
11
63.5018
21
-186.21
0
LINE
8
BLACK
6
CONTINUOUS
10
63.5018
20
-186.21
11
63.5004
21
-186.205
0
LINE
8
BLACK
6
CONTINUOUS
10
63.5004
20
-186.205
11
63.4999
21
-186.2
0
LINE
8
BLACK
6
CONTINUOUS
10
63.4999
20
-186.2
11
63.5
21
-186.199
0
LINE
8
BLACK
6
CONTINUOUS
10
63.5
20
-186.199
11
63.5
21
-26.0012
0
LINE
8
BLACK
6
CONTINUOUS
10
63.5
20
-26.0012
11
63.4999
21
-26
0
LINE
8
BLACK
6
CONTINUOUS
10
63.4999
20
-26
11
63.5004
21
-25.9951
0
LINE
8
BLACK
6
CONTINUOUS
10
63.5004
20
-25.9951
11
63.5018
21
-25.9904
0
LINE
8
BLACK
6
CONTINUOUS
10
63.5018
20
-25.9904
11
63.5041
21
-25.986
0
LINE
8
BLACK
6
CONTINUOUS
10
63.5041
20
-25.986
11
63.5072
21
-25.9822
0
LINE
8
BLACK
6
CONTINUOUS
10
63.5072
20
-25.9822
11
63.511
21
-25.9791
0
LINE
8
BLACK
6
CONTINUOUS
10
63.511
20
-25.9791
11
63.5154
21
-25.9768
0
LINE
8
BLACK
6
CONTINUOUS
10
63.5154
20
-25.9768
11
63.5201
21
-25.9754
0
LINE
8
BLACK
6
CONTINUOUS
10
63.5201
20
-25.9754
11
63.5238
21
-25.975
0
LINE
8
BLACK
6
CONTINUOUS
10
63.5238
20
-25.975
11
63.5238
21
-25.975
0
LINE
8
BLACK
6
CONTINUOUS
10
63.5238
20
-25.975
11
63.525
21
-25.9749
0
LINE
8
BLACK
6
CONTINUOUS
10
63.525
20
-25.9749
11
63.5262
21
-25.975
0
LINE
8
BLACK
6
CONTINUOUS
10
63.5262
20
-25.975
11
140.551
21
-25.975
0
LINE
8
BLACK
6
CONTINUOUS
10
140.551
20
-25.975
11
140.552
21
-25.9751
0
LINE
8
BLACK
6
CONTINUOUS
10
140.552
20
-25.9751
11
140.552
21
-25.9751
0
LINE
8
BLACK
6
CONTINUOUS
10
140.552
20
-25.9751
11
141.329
21
-26.0513
0
LINE
8
BLACK
6
CONTINUOUS
10
141.329
20
-26.0513
11
141.33
21
-26.0513
0
LINE
8
BLACK
6
CONTINUOUS
10
141.33
20
-26.0513
11
141.332
21
-26.0518
0
LINE
8
BLACK
6
CONTINUOUS
10
141.332
20
-26.0518
11
141.334
21
-26.0522
0
LINE
8
BLACK
6
CONTINUOUS
10
141.334
20
-26.0522
11
142.082
21
-26.2779
0
LINE
8
BLACK
6
CONTINUOUS
10
142.082
20
-26.2779
11
142.082
21
-26.278
0
LINE
8
BLACK
6
CONTINUOUS
10
142.082
20
-26.278
11
142.084
21
-26.2789
0
LINE
8
BLACK
6
CONTINUOUS
10
142.084
20
-26.2789
11
142.086
21
-26.2797
0
LINE
8
BLACK
6
CONTINUOUS
10
142.086
20
-26.2797
11
142.775
21
-26.6462
0
LINE
8
BLACK
6
CONTINUOUS
10
142.775
20
-26.6462
11
142.775
21
-26.6462
0
LINE
8
BLACK
6
CONTINUOUS
10
142.775
20
-26.6462
11
142.775
21
-26.6462
0
LINE
8
BLACK
6
CONTINUOUS
10
142.775
20
-26.6462
11
142.776
21
-26.6464
0
LINE
8
BLACK
6
CONTINUOUS
10
142.776
20
-26.6464
11
142.777
21
-26.6477
0
LINE
8
BLACK
6
CONTINUOUS
10
142.777
20
-26.6477
11
142.779
21
-26.6489
0
LINE
8
BLACK
6
CONTINUOUS
10
142.779
20
-26.6489
11
143.384
21
-27.1423
0
LINE
8
BLACK
6
CONTINUOUS
10
143.384
20
-27.1423
11
143.384
21
-27.1423
0
LINE
8
BLACK
6
CONTINUOUS
10
143.384
20
-27.1423
11
143.384
21
-27.1423
0
LINE
8
BLACK
6
CONTINUOUS
10
143.384
20
-27.1423
11
143.385
21
-27.1426
0
LINE
8
BLACK
6
CONTINUOUS
10
143.385
20
-27.1426
11
143.386
21
-27.1442
0
LINE
8
BLACK
6
CONTINUOUS
10
143.386
20
-27.1442
11
143.388
21
-27.1458
0
LINE
8
BLACK
6
CONTINUOUS
10
143.388
20
-27.1458
11
143.885
21
-27.7473
0
LINE
8
BLACK
6
CONTINUOUS
10
143.885
20
-27.7473
11
143.885
21
-27.7473
0
LINE
8
BLACK
6
CONTINUOUS
10
143.885
20
-27.7473
11
143.885
21
-27.7473
0
LINE
8
BLACK
6
CONTINUOUS
10
143.885
20
-27.7473
11
143.886
21
-27.7476
0
LINE
8
BLACK
6
CONTINUOUS
10
143.886
20
-27.7476
11
143.887
21
-27.7495
0
LINE
8
BLACK
6
CONTINUOUS
10
143.887
20
-27.7495
11
143.888
21
-27.7513
0
LINE
8
BLACK
6
CONTINUOUS
10
143.888
20
-27.7513
11
144.259
21
-28.438
0
LINE
8
BLACK
6
CONTINUOUS
10
144.259
20
-28.438
11
144.26
21
-28.4384
0
LINE
8
BLACK
6
CONTINUOUS
10
144.26
20
-28.4384
11
144.26
21
-28.4405
0
LINE
8
BLACK
6
CONTINUOUS
10
144.26
20
-28.4405
11
144.261
21
-28.4425
0
LINE
8
BLACK
6
CONTINUOUS
10
144.261
20
-28.4425
11
144.492
21
-29.1883
0
LINE
8
BLACK
6
CONTINUOUS
10
144.492
20
-29.1883
11
144.492
21
-29.1886
0
LINE
8
BLACK
6
CONTINUOUS
10
144.492
20
-29.1886
11
144.493
21
-29.1909
0
LINE
8
BLACK
6
CONTINUOUS
10
144.493
20
-29.1909
11
144.493
21
-29.1931
0
LINE
8
BLACK
6
CONTINUOUS
10
144.493
20
-29.1931
11
144.575
21
-29.9695
0
LINE
8
BLACK
6
CONTINUOUS
10
144.575
20
-29.9695
11
144.575
21
-29.9698
0
LINE
8
BLACK
6
CONTINUOUS
10
144.575
20
-29.9698
11
144.575
21
-29.9709
0
LINE
8
BLACK
6
CONTINUOUS
10
144.575
20
-29.9709
11
144.575
21
-29.972
0
LINE
8
BLACK
6
CONTINUOUS
10
144.575
20
-29.972
11
144.575
21
-29.9987
0
LINE
8
BLACK
6
CONTINUOUS
10
144.575
20
-29.9987
11
144.575
21
-29.9988
0
LINE
8
BLACK
6
CONTINUOUS
10
144.575
20
-29.9988
11
144.575
21
-182.201
0
LINE
8
BLACK
6
CONTINUOUS
10
144.575
20
-182.201
11
144.575
21
-182.202
0
LINE
8
BLACK
6
CONTINUOUS
10
144.575
20
-182.202
11
144.575
21
-182.202
0
LINE
8
BLACK
6
CONTINUOUS
10
144.575
20
-182.202
11
144.499
21
-182.979
0
LINE
8
BLACK
6
CONTINUOUS
10
144.499
20
-182.979
11
144.499
21
-182.98
0
LINE
8
BLACK
6
CONTINUOUS
10
144.499
20
-182.98
11
144.498
21
-182.982
0
LINE
8
BLACK
6
CONTINUOUS
10
144.498
20
-182.982
11
144.498
21
-182.984
0
LINE
8
BLACK
6
CONTINUOUS
10
144.498
20
-182.984
11
144.272
21
-183.732
0
LINE
8
BLACK
6
CONTINUOUS
10
144.272
20
-183.732
11
144.272
21
-183.732
0
LINE
8
BLACK
6
CONTINUOUS
10
144.272
20
-183.732
11
144.271
21
-183.734
0
LINE
8
BLACK
6
CONTINUOUS
10
144.271
20
-183.734
11
144.27
21
-183.736
0
LINE
8
BLACK
6
CONTINUOUS
10
144.27
20
-183.736
11
143.904
21
-184.425
0
LINE
8
BLACK
6
CONTINUOUS
10
143.904
20
-184.425
11
143.904
21
-184.426
0
LINE
8
BLACK
6
CONTINUOUS
10
143.904
20
-184.426
11
143.902
21
-184.427
0
LINE
8
BLACK
6
CONTINUOUS
10
143.902
20
-184.427
11
143.901
21
-184.429
0
LINE
8
BLACK
6
CONTINUOUS
10
143.901
20
-184.429
11
143.408
21
-185.034
0
LINE
8
BLACK
6
CONTINUOUS
10
143.408
20
-185.034
11
143.407
21
-185.035
0
LINE
8
BLACK
6
CONTINUOUS
10
143.407
20
-185.035
11
143.406
21
-185.036
0
LINE
8
BLACK
6
CONTINUOUS
10
143.406
20
-185.036
11
143.404
21
-185.038
0
LINE
8
BLACK
6
CONTINUOUS
10
143.404
20
-185.038
11
142.803
21
-185.535
0
LINE
8
BLACK
6
CONTINUOUS
10
142.803
20
-185.535
11
142.802
21
-185.536
0
LINE
8
BLACK
6
CONTINUOUS
10
142.802
20
-185.536
11
142.801
21
-185.537
0
LINE
8
BLACK
6
CONTINUOUS
10
142.801
20
-185.537
11
142.799
21
-185.538
0
LINE
8
BLACK
6
CONTINUOUS
10
142.799
20
-185.538
11
142.112
21
-185.909
0
LINE
8
BLACK
6
CONTINUOUS
10
142.112
20
-185.909
11
142.112
21
-185.91
0
LINE
8
BLACK
6
CONTINUOUS
10
142.112
20
-185.91
11
142.11
21
-185.91
0
LINE
8
BLACK
6
CONTINUOUS
10
142.11
20
-185.91
11
142.107
21
-185.911
0
LINE
8
BLACK
6
CONTINUOUS
10
142.107
20
-185.911
11
141.362
21
-186.142
0
LINE
8
BLACK
6
CONTINUOUS
10
141.362
20
-186.142
11
141.361
21
-186.142
0
LINE
8
BLACK
6
CONTINUOUS
10
141.361
20
-186.142
11
141.359
21
-186.143
0
LINE
8
BLACK
6
CONTINUOUS
10
141.359
20
-186.143
11
141.357
21
-186.143
0
LINE
8
BLACK
6
CONTINUOUS
10
141.357
20
-186.143
11
140.581
21
-186.225
0
LINE
8
BLACK
6
CONTINUOUS
10
140.581
20
-186.225
11
140.58
21
-186.225
0
LINE
8
BLACK
6
CONTINUOUS
10
140.58
20
-186.225
11
140.579
21
-186.225
0
LINE
8
BLACK
6
CONTINUOUS
10
140.579
20
-186.225
11
140.578
21
-186.225
0
LINE
8
BLACK
6
CONTINUOUS
10
140.578
20
-186.225
11
140.551
21
-186.225
0
LINE
8
BLACK
6
CONTINUOUS
10
140.551
20
-186.225
11
140.551
21
-186.225
0
LINE
8
BLACK
6
CONTINUOUS
10
140.551
20
-186.225
11
63.5262
21
-186.225
0
LINE
8
BLACK
6
CONTINUOUS
10
63.5262
20
-186.225
11
63.525
21
-186.225
0
LINE
8
BLACK
6
CONTINUOUS
10
63.55
20
-26.025
11
63.55
21
-186.175
0
LINE
8
BLACK
6
CONTINUOUS
10
63.55
20
-186.175
11
140.55
21
-186.175
0
LINE
8
BLACK
6
CONTINUOUS
10
140.55
20
-186.175
11
140.577
21
-186.175
0
LINE
8
BLACK
6
CONTINUOUS
10
140.577
20
-186.175
11
141.349
21
-186.094
0
LINE
8
BLACK
6
CONTINUOUS
10
141.349
20
-186.094
11
142.09
21
-185.864
0
LINE
8
BLACK
6
CONTINUOUS
10
142.09
20
-185.864
11
142.773
21
-185.495
0
LINE
8
BLACK
6
CONTINUOUS
10
142.773
20
-185.495
11
143.37
21
-185.001
0
LINE
8
BLACK
6
CONTINUOUS
10
143.37
20
-185.001
11
143.861
21
-184.4
0
LINE
8
BLACK
6
CONTINUOUS
10
143.861
20
-184.4
11
144.225
21
-183.715
0
LINE
8
BLACK
6
CONTINUOUS
10
144.225
20
-183.715
11
144.449
21
-182.972
0
LINE
8
BLACK
6
CONTINUOUS
10
144.449
20
-182.972
11
144.525
21
-182.199
0
LINE
8
BLACK
6
CONTINUOUS
10
144.525
20
-182.199
11
144.525
21
-30.0001
0
LINE
8
BLACK
6
CONTINUOUS
10
144.525
20
-30.0001
11
144.525
21
-30.0001
0
LINE
8
BLACK
6
CONTINUOUS
10
144.525
20
-30.0001
11
144.525
21
-29.9734
0
LINE
8
BLACK
6
CONTINUOUS
10
144.525
20
-29.9734
11
144.444
21
-29.2007
0
LINE
8
BLACK
6
CONTINUOUS
10
144.444
20
-29.2007
11
144.214
21
-28.4597
0
LINE
8
BLACK
6
CONTINUOUS
10
144.214
20
-28.4597
11
143.845
21
-27.7773
0
LINE
8
BLACK
6
CONTINUOUS
10
143.845
20
-27.7773
11
143.351
21
-27.1795
0
LINE
8
BLACK
6
CONTINUOUS
10
143.351
20
-27.1795
11
142.75
21
-26.6892
0
LINE
8
BLACK
6
CONTINUOUS
10
142.75
20
-26.6892
11
142.065
21
-26.325
0
LINE
8
BLACK
6
CONTINUOUS
10
142.065
20
-26.325
11
141.322
21
-26.1008
0
LINE
8
BLACK
6
CONTINUOUS
10
141.322
20
-26.1008
11
140.549
21
-26.025
0
LINE
8
BLACK
6
CONTINUOUS
10
140.549
20
-26.025
11
63.55
21
-26.025
  0
ENDSEC
  0
EOF
