  0
SECTION
  2
HEADER
  9
$ANGBASE
  50
0.0
  9
$ANGDIR
  70
1
  9
$MEASUREMENT
  70
1
  0
ENDSEC
  0
SECTION
  2
TABLES
  0
TABLE
  2
LTYPE
  70
4
  0
LTYPE
  5
40F
  2
CONTINUOUS
  70
0
  3
Solid line
  72
65
  73
0
  40
0.0
  0
LTYPE
  5
410
  2
DASHDOT
 70
0
  3
Dash Dot ____ _ ____ _
 72
65
 73
4
 40
2.0
 49
1.25
 49
-0.25
 49
0.25
 49
-0.25
  0
LTYPE
  5
411
  2
DASHED
 70
0
  3
Dashed __ __ __ __ __
 72
65
 73
2
 40
0.75
 49
0.5
 49
-0.25
  0
LTYPE
  5
43B
  2
DOTTED
 70
0
  3
Dotted .  .  .  .
 72
65
 73
2
 40
0.2
 49
0.0
 49
-0.2
  0
ENDTAB
  0
TABLE
  2
STYLE
  70
4
  0
STYLE
  2
KICAD
  70
0
  40
0
  41
1
  42
1
  50
0
  71
0
  3
isocp.shx
  0
STYLE
  2
KICADB
  70
0
  40
0
  41
1
  42
1
  50
0
  71
0
  3
isocp.shx
  0
STYLE
  2
KICADI
  70
0
  40
0
  41
1
  42
1
  50
15
  71
0
  3
isocp.shx
  0
STYLE
  2
KICADBI
  70
0
  40
0
  41
1
  42
1
  50
15
  71
0
  3
isocp.shx
  0
ENDTAB
  0
TABLE
  2
LAYER
  70
1
  0
LAYER
  2
BLACK
  70
0
  62
7
  6
CONTINUOUS
  0
ENDTAB
  0
ENDSEC
  0
SECTION
  2
ENTITIES
0
LINE
8
BLACK
6
CONTINUOUS
10
88.1417
20
-164.985
11
88.5421
21
-165.15
0
LINE
8
BLACK
6
CONTINUOUS
10
88.5421
20
-165.15
11
88.9024
21
-165.391
0
LINE
8
BLACK
6
CONTINUOUS
10
88.9024
20
-165.391
11
89.2089
21
-165.698
0
LINE
8
BLACK
6
CONTINUOUS
10
89.2089
20
-165.698
11
89.4496
21
-166.058
0
LINE
8
BLACK
6
CONTINUOUS
10
89.4496
20
-166.058
11
89.6155
21
-166.458
0
LINE
8
BLACK
6
CONTINUOUS
10
89.6155
20
-166.458
11
89.7
21
-166.883
0
LINE
8
BLACK
6
CONTINUOUS
10
89.7
20
-166.883
11
89.7
21
-167.317
0
LINE
8
BLACK
6
CONTINUOUS
10
89.7
20
-167.317
11
89.6155
21
-167.742
0
LINE
8
BLACK
6
CONTINUOUS
10
89.6155
20
-167.742
11
89.4496
21
-168.142
0
LINE
8
BLACK
6
CONTINUOUS
10
89.4496
20
-168.142
11
89.2089
21
-168.502
0
LINE
8
BLACK
6
CONTINUOUS
10
89.2089
20
-168.502
11
88.9024
21
-168.809
0
LINE
8
BLACK
6
CONTINUOUS
10
88.9024
20
-168.809
11
88.5421
21
-169.05
0
LINE
8
BLACK
6
CONTINUOUS
10
88.5421
20
-169.05
11
88.1417
21
-169.215
0
LINE
8
BLACK
6
CONTINUOUS
10
88.1417
20
-169.215
11
87.7167
21
-169.3
0
LINE
8
BLACK
6
CONTINUOUS
10
87.7167
20
-169.3
11
87.2833
21
-169.3
0
LINE
8
BLACK
6
CONTINUOUS
10
87.2833
20
-169.3
11
86.8583
21
-169.215
0
LINE
8
BLACK
6
CONTINUOUS
10
86.8583
20
-169.215
11
86.4579
21
-169.05
0
LINE
8
BLACK
6
CONTINUOUS
10
86.4579
20
-169.05
11
86.0976
21
-168.809
0
LINE
8
BLACK
6
CONTINUOUS
10
86.0976
20
-168.809
11
85.7911
21
-168.502
0
LINE
8
BLACK
6
CONTINUOUS
10
85.7911
20
-168.502
11
85.5504
21
-168.142
0
LINE
8
BLACK
6
CONTINUOUS
10
85.5504
20
-168.142
11
85.3845
21
-167.742
0
LINE
8
BLACK
6
CONTINUOUS
10
85.3845
20
-167.742
11
85.3
21
-167.317
0
LINE
8
BLACK
6
CONTINUOUS
10
85.3
20
-167.317
11
85.3
21
-166.883
0
LINE
8
BLACK
6
CONTINUOUS
10
85.3
20
-166.883
11
85.3845
21
-166.458
0
LINE
8
BLACK
6
CONTINUOUS
10
85.3845
20
-166.458
11
85.5504
21
-166.058
0
LINE
8
BLACK
6
CONTINUOUS
10
85.5504
20
-166.058
11
85.7911
21
-165.698
0
LINE
8
BLACK
6
CONTINUOUS
10
85.7911
20
-165.698
11
86.0976
21
-165.391
0
LINE
8
BLACK
6
CONTINUOUS
10
86.0976
20
-165.391
11
86.4579
21
-165.15
0
LINE
8
BLACK
6
CONTINUOUS
10
86.4579
20
-165.15
11
86.8583
21
-164.985
0
LINE
8
BLACK
6
CONTINUOUS
10
86.8583
20
-164.985
11
87.2833
21
-164.9
0
LINE
8
BLACK
6
CONTINUOUS
10
87.2833
20
-164.9
11
87.7167
21
-164.9
0
LINE
8
BLACK
6
CONTINUOUS
10
87.7167
20
-164.9
11
88.1417
21
-164.985
0
LINE
8
BLACK
6
CONTINUOUS
10
135.642
20
-145.985
11
136.042
21
-146.15
0
LINE
8
BLACK
6
CONTINUOUS
10
136.042
20
-146.15
11
136.402
21
-146.391
0
LINE
8
BLACK
6
CONTINUOUS
10
136.402
20
-146.391
11
136.709
21
-146.698
0
LINE
8
BLACK
6
CONTINUOUS
10
136.709
20
-146.698
11
136.95
21
-147.058
0
LINE
8
BLACK
6
CONTINUOUS
10
136.95
20
-147.058
11
137.115
21
-147.458
0
LINE
8
BLACK
6
CONTINUOUS
10
137.115
20
-147.458
11
137.2
21
-147.883
0
LINE
8
BLACK
6
CONTINUOUS
10
137.2
20
-147.883
11
137.2
21
-148.317
0
LINE
8
BLACK
6
CONTINUOUS
10
137.2
20
-148.317
11
137.115
21
-148.742
0
LINE
8
BLACK
6
CONTINUOUS
10
137.115
20
-148.742
11
136.95
21
-149.142
0
LINE
8
BLACK
6
CONTINUOUS
10
136.95
20
-149.142
11
136.709
21
-149.502
0
LINE
8
BLACK
6
CONTINUOUS
10
136.709
20
-149.502
11
136.402
21
-149.809
0
LINE
8
BLACK
6
CONTINUOUS
10
136.402
20
-149.809
11
136.042
21
-150.05
0
LINE
8
BLACK
6
CONTINUOUS
10
136.042
20
-150.05
11
135.642
21
-150.215
0
LINE
8
BLACK
6
CONTINUOUS
10
135.642
20
-150.215
11
135.217
21
-150.3
0
LINE
8
BLACK
6
CONTINUOUS
10
135.217
20
-150.3
11
134.783
21
-150.3
0
LINE
8
BLACK
6
CONTINUOUS
10
134.783
20
-150.3
11
134.358
21
-150.215
0
LINE
8
BLACK
6
CONTINUOUS
10
134.358
20
-150.215
11
133.958
21
-150.05
0
LINE
8
BLACK
6
CONTINUOUS
10
133.958
20
-150.05
11
133.598
21
-149.809
0
LINE
8
BLACK
6
CONTINUOUS
10
133.598
20
-149.809
11
133.291
21
-149.502
0
LINE
8
BLACK
6
CONTINUOUS
10
133.291
20
-149.502
11
133.05
21
-149.142
0
LINE
8
BLACK
6
CONTINUOUS
10
133.05
20
-149.142
11
132.885
21
-148.742
0
LINE
8
BLACK
6
CONTINUOUS
10
132.885
20
-148.742
11
132.8
21
-148.317
0
LINE
8
BLACK
6
CONTINUOUS
10
132.8
20
-148.317
11
132.8
21
-147.883
0
LINE
8
BLACK
6
CONTINUOUS
10
132.8
20
-147.883
11
132.885
21
-147.458
0
LINE
8
BLACK
6
CONTINUOUS
10
132.885
20
-147.458
11
133.05
21
-147.058
0
LINE
8
BLACK
6
CONTINUOUS
10
133.05
20
-147.058
11
133.291
21
-146.698
0
LINE
8
BLACK
6
CONTINUOUS
10
133.291
20
-146.698
11
133.598
21
-146.391
0
LINE
8
BLACK
6
CONTINUOUS
10
133.598
20
-146.391
11
133.958
21
-146.15
0
LINE
8
BLACK
6
CONTINUOUS
10
133.958
20
-146.15
11
134.358
21
-145.985
0
LINE
8
BLACK
6
CONTINUOUS
10
134.358
20
-145.985
11
134.783
21
-145.9
0
LINE
8
BLACK
6
CONTINUOUS
10
134.783
20
-145.9
11
135.217
21
-145.9
0
LINE
8
BLACK
6
CONTINUOUS
10
135.217
20
-145.9
11
135.642
21
-145.985
0
LINE
8
BLACK
6
CONTINUOUS
10
69.0417
20
-126.985
11
69.4421
21
-127.15
0
LINE
8
BLACK
6
CONTINUOUS
10
69.4421
20
-127.15
11
69.8024
21
-127.391
0
LINE
8
BLACK
6
CONTINUOUS
10
69.8024
20
-127.391
11
70.1089
21
-127.698
0
LINE
8
BLACK
6
CONTINUOUS
10
70.1089
20
-127.698
11
70.3496
21
-128.058
0
LINE
8
BLACK
6
CONTINUOUS
10
70.3496
20
-128.058
11
70.5155
21
-128.458
0
LINE
8
BLACK
6
CONTINUOUS
10
70.5155
20
-128.458
11
70.6
21
-128.883
0
LINE
8
BLACK
6
CONTINUOUS
10
70.6
20
-128.883
11
70.6
21
-129.317
0
LINE
8
BLACK
6
CONTINUOUS
10
70.6
20
-129.317
11
70.5155
21
-129.742
0
LINE
8
BLACK
6
CONTINUOUS
10
70.5155
20
-129.742
11
70.3496
21
-130.142
0
LINE
8
BLACK
6
CONTINUOUS
10
70.3496
20
-130.142
11
70.1089
21
-130.502
0
LINE
8
BLACK
6
CONTINUOUS
10
70.1089
20
-130.502
11
69.8024
21
-130.809
0
LINE
8
BLACK
6
CONTINUOUS
10
69.8024
20
-130.809
11
69.4421
21
-131.05
0
LINE
8
BLACK
6
CONTINUOUS
10
69.4421
20
-131.05
11
69.0417
21
-131.215
0
LINE
8
BLACK
6
CONTINUOUS
10
69.0417
20
-131.215
11
68.6167
21
-131.3
0
LINE
8
BLACK
6
CONTINUOUS
10
68.6167
20
-131.3
11
68.1833
21
-131.3
0
LINE
8
BLACK
6
CONTINUOUS
10
68.1833
20
-131.3
11
67.7583
21
-131.215
0
LINE
8
BLACK
6
CONTINUOUS
10
67.7583
20
-131.215
11
67.3579
21
-131.05
0
LINE
8
BLACK
6
CONTINUOUS
10
67.3579
20
-131.05
11
66.9976
21
-130.809
0
LINE
8
BLACK
6
CONTINUOUS
10
66.9976
20
-130.809
11
66.6911
21
-130.502
0
LINE
8
BLACK
6
CONTINUOUS
10
66.6911
20
-130.502
11
66.4504
21
-130.142
0
LINE
8
BLACK
6
CONTINUOUS
10
66.4504
20
-130.142
11
66.2845
21
-129.742
0
LINE
8
BLACK
6
CONTINUOUS
10
66.2845
20
-129.742
11
66.2
21
-129.317
0
LINE
8
BLACK
6
CONTINUOUS
10
66.2
20
-129.317
11
66.2
21
-128.883
0
LINE
8
BLACK
6
CONTINUOUS
10
66.2
20
-128.883
11
66.2845
21
-128.458
0
LINE
8
BLACK
6
CONTINUOUS
10
66.2845
20
-128.458
11
66.4504
21
-128.058
0
LINE
8
BLACK
6
CONTINUOUS
10
66.4504
20
-128.058
11
66.6911
21
-127.698
0
LINE
8
BLACK
6
CONTINUOUS
10
66.6911
20
-127.698
11
66.9976
21
-127.391
0
LINE
8
BLACK
6
CONTINUOUS
10
66.9976
20
-127.391
11
67.3579
21
-127.15
0
LINE
8
BLACK
6
CONTINUOUS
10
67.3579
20
-127.15
11
67.7583
21
-126.985
0
LINE
8
BLACK
6
CONTINUOUS
10
67.7583
20
-126.985
11
68.1833
21
-126.9
0
LINE
8
BLACK
6
CONTINUOUS
10
68.1833
20
-126.9
11
68.6167
21
-126.9
0
LINE
8
BLACK
6
CONTINUOUS
10
68.6167
20
-126.9
11
69.0417
21
-126.985
0
LINE
8
BLACK
6
CONTINUOUS
10
141.192
20
-84.8595
11
141.592
21
-85.0254
0
LINE
8
BLACK
6
CONTINUOUS
10
141.592
20
-85.0254
11
141.952
21
-85.2661
0
LINE
8
BLACK
6
CONTINUOUS
10
141.952
20
-85.2661
11
142.259
21
-85.5726
0
LINE
8
BLACK
6
CONTINUOUS
10
142.259
20
-85.5726
11
142.5
21
-85.9329
0
LINE
8
BLACK
6
CONTINUOUS
10
142.5
20
-85.9329
11
142.665
21
-86.3333
0
LINE
8
BLACK
6
CONTINUOUS
10
142.665
20
-86.3333
11
142.75
21
-86.7583
0
LINE
8
BLACK
6
CONTINUOUS
10
142.75
20
-86.7583
11
142.75
21
-87.1917
0
LINE
8
BLACK
6
CONTINUOUS
10
142.75
20
-87.1917
11
142.665
21
-87.6167
0
LINE
8
BLACK
6
CONTINUOUS
10
142.665
20
-87.6167
11
142.5
21
-88.0171
0
LINE
8
BLACK
6
CONTINUOUS
10
142.5
20
-88.0171
11
142.259
21
-88.3774
0
LINE
8
BLACK
6
CONTINUOUS
10
142.259
20
-88.3774
11
141.952
21
-88.6839
0
LINE
8
BLACK
6
CONTINUOUS
10
141.952
20
-88.6839
11
141.592
21
-88.9246
0
LINE
8
BLACK
6
CONTINUOUS
10
141.592
20
-88.9246
11
141.192
21
-89.0905
0
LINE
8
BLACK
6
CONTINUOUS
10
141.192
20
-89.0905
11
140.767
21
-89.175
0
LINE
8
BLACK
6
CONTINUOUS
10
140.767
20
-89.175
11
140.333
21
-89.175
0
LINE
8
BLACK
6
CONTINUOUS
10
140.333
20
-89.175
11
139.908
21
-89.0905
0
LINE
8
BLACK
6
CONTINUOUS
10
139.908
20
-89.0905
11
139.508
21
-88.9246
0
LINE
8
BLACK
6
CONTINUOUS
10
139.508
20
-88.9246
11
139.148
21
-88.6839
0
LINE
8
BLACK
6
CONTINUOUS
10
139.148
20
-88.6839
11
138.841
21
-88.3774
0
LINE
8
BLACK
6
CONTINUOUS
10
138.841
20
-88.3774
11
138.6
21
-88.0171
0
LINE
8
BLACK
6
CONTINUOUS
10
138.6
20
-88.0171
11
138.435
21
-87.6167
0
LINE
8
BLACK
6
CONTINUOUS
10
138.435
20
-87.6167
11
138.35
21
-87.1917
0
LINE
8
BLACK
6
CONTINUOUS
10
138.35
20
-87.1917
11
138.35
21
-86.7583
0
LINE
8
BLACK
6
CONTINUOUS
10
138.35
20
-86.7583
11
138.435
21
-86.3333
0
LINE
8
BLACK
6
CONTINUOUS
10
138.435
20
-86.3333
11
138.6
21
-85.9329
0
LINE
8
BLACK
6
CONTINUOUS
10
138.6
20
-85.9329
11
138.841
21
-85.5726
0
LINE
8
BLACK
6
CONTINUOUS
10
138.841
20
-85.5726
11
139.148
21
-85.2661
0
LINE
8
BLACK
6
CONTINUOUS
10
139.148
20
-85.2661
11
139.508
21
-85.0254
0
LINE
8
BLACK
6
CONTINUOUS
10
139.508
20
-85.0254
11
139.908
21
-84.8595
0
LINE
8
BLACK
6
CONTINUOUS
10
139.908
20
-84.8595
11
140.333
21
-84.775
0
LINE
8
BLACK
6
CONTINUOUS
10
140.333
20
-84.775
11
140.767
21
-84.775
0
LINE
8
BLACK
6
CONTINUOUS
10
140.767
20
-84.775
11
141.192
21
-84.8595
0
LINE
8
BLACK
6
CONTINUOUS
10
68.1667
20
-84.8595
11
68.5671
21
-85.0254
0
LINE
8
BLACK
6
CONTINUOUS
10
68.5671
20
-85.0254
11
68.9274
21
-85.2661
0
LINE
8
BLACK
6
CONTINUOUS
10
68.9274
20
-85.2661
11
69.2339
21
-85.5726
0
LINE
8
BLACK
6
CONTINUOUS
10
69.2339
20
-85.5726
11
69.4746
21
-85.9329
0
LINE
8
BLACK
6
CONTINUOUS
10
69.4746
20
-85.9329
11
69.6405
21
-86.3333
0
LINE
8
BLACK
6
CONTINUOUS
10
69.6405
20
-86.3333
11
69.725
21
-86.7583
0
LINE
8
BLACK
6
CONTINUOUS
10
69.725
20
-86.7583
11
69.725
21
-87.1917
0
LINE
8
BLACK
6
CONTINUOUS
10
69.725
20
-87.1917
11
69.6405
21
-87.6167
0
LINE
8
BLACK
6
CONTINUOUS
10
69.6405
20
-87.6167
11
69.4746
21
-88.0171
0
LINE
8
BLACK
6
CONTINUOUS
10
69.4746
20
-88.0171
11
69.2339
21
-88.3774
0
LINE
8
BLACK
6
CONTINUOUS
10
69.2339
20
-88.3774
11
68.9274
21
-88.6839
0
LINE
8
BLACK
6
CONTINUOUS
10
68.9274
20
-88.6839
11
68.5671
21
-88.9246
0
LINE
8
BLACK
6
CONTINUOUS
10
68.5671
20
-88.9246
11
68.1667
21
-89.0905
0
LINE
8
BLACK
6
CONTINUOUS
10
68.1667
20
-89.0905
11
67.7417
21
-89.175
0
LINE
8
BLACK
6
CONTINUOUS
10
67.7417
20
-89.175
11
67.3083
21
-89.175
0
LINE
8
BLACK
6
CONTINUOUS
10
67.3083
20
-89.175
11
66.8833
21
-89.0905
0
LINE
8
BLACK
6
CONTINUOUS
10
66.8833
20
-89.0905
11
66.4829
21
-88.9246
0
LINE
8
BLACK
6
CONTINUOUS
10
66.4829
20
-88.9246
11
66.1226
21
-88.6839
0
LINE
8
BLACK
6
CONTINUOUS
10
66.1226
20
-88.6839
11
65.8161
21
-88.3774
0
LINE
8
BLACK
6
CONTINUOUS
10
65.8161
20
-88.3774
11
65.5754
21
-88.0171
0
LINE
8
BLACK
6
CONTINUOUS
10
65.5754
20
-88.0171
11
65.4095
21
-87.6167
0
LINE
8
BLACK
6
CONTINUOUS
10
65.4095
20
-87.6167
11
65.325
21
-87.1917
0
LINE
8
BLACK
6
CONTINUOUS
10
65.325
20
-87.1917
11
65.325
21
-86.7583
0
LINE
8
BLACK
6
CONTINUOUS
10
65.325
20
-86.7583
11
65.4095
21
-86.3333
0
LINE
8
BLACK
6
CONTINUOUS
10
65.4095
20
-86.3333
11
65.5754
21
-85.9329
0
LINE
8
BLACK
6
CONTINUOUS
10
65.5754
20
-85.9329
11
65.8161
21
-85.5726
0
LINE
8
BLACK
6
CONTINUOUS
10
65.8161
20
-85.5726
11
66.1226
21
-85.2661
0
LINE
8
BLACK
6
CONTINUOUS
10
66.1226
20
-85.2661
11
66.4829
21
-85.0254
0
LINE
8
BLACK
6
CONTINUOUS
10
66.4829
20
-85.0254
11
66.8833
21
-84.8595
0
LINE
8
BLACK
6
CONTINUOUS
10
66.8833
20
-84.8595
11
67.3083
21
-84.775
0
LINE
8
BLACK
6
CONTINUOUS
10
67.3083
20
-84.775
11
67.7417
21
-84.775
0
LINE
8
BLACK
6
CONTINUOUS
10
67.7417
20
-84.775
11
68.1667
21
-84.8595
0
LINE
8
BLACK
6
CONTINUOUS
10
68.1667
20
-27.8845
11
68.5671
21
-28.0504
0
LINE
8
BLACK
6
CONTINUOUS
10
68.5671
20
-28.0504
11
68.9274
21
-28.2911
0
LINE
8
BLACK
6
CONTINUOUS
10
68.9274
20
-28.2911
11
69.2339
21
-28.5976
0
LINE
8
BLACK
6
CONTINUOUS
10
69.2339
20
-28.5976
11
69.4746
21
-28.9579
0
LINE
8
BLACK
6
CONTINUOUS
10
69.4746
20
-28.9579
11
69.6405
21
-29.3583
0
LINE
8
BLACK
6
CONTINUOUS
10
69.6405
20
-29.3583
11
69.725
21
-29.7833
0
LINE
8
BLACK
6
CONTINUOUS
10
69.725
20
-29.7833
11
69.725
21
-30.2167
0
LINE
8
BLACK
6
CONTINUOUS
10
69.725
20
-30.2167
11
69.6405
21
-30.6417
0
LINE
8
BLACK
6
CONTINUOUS
10
69.6405
20
-30.6417
11
69.4746
21
-31.0421
0
LINE
8
BLACK
6
CONTINUOUS
10
69.4746
20
-31.0421
11
69.2339
21
-31.4024
0
LINE
8
BLACK
6
CONTINUOUS
10
69.2339
20
-31.4024
11
68.9274
21
-31.7089
0
LINE
8
BLACK
6
CONTINUOUS
10
68.9274
20
-31.7089
11
68.5671
21
-31.9496
0
LINE
8
BLACK
6
CONTINUOUS
10
68.5671
20
-31.9496
11
68.1667
21
-32.1155
0
LINE
8
BLACK
6
CONTINUOUS
10
68.1667
20
-32.1155
11
67.7417
21
-32.2
0
LINE
8
BLACK
6
CONTINUOUS
10
67.7417
20
-32.2
11
67.3083
21
-32.2
0
LINE
8
BLACK
6
CONTINUOUS
10
67.3083
20
-32.2
11
66.8833
21
-32.1155
0
LINE
8
BLACK
6
CONTINUOUS
10
66.8833
20
-32.1155
11
66.4829
21
-31.9496
0
LINE
8
BLACK
6
CONTINUOUS
10
66.4829
20
-31.9496
11
66.1226
21
-31.7089
0
LINE
8
BLACK
6
CONTINUOUS
10
66.1226
20
-31.7089
11
65.8161
21
-31.4024
0
LINE
8
BLACK
6
CONTINUOUS
10
65.8161
20
-31.4024
11
65.5754
21
-31.0421
0
LINE
8
BLACK
6
CONTINUOUS
10
65.5754
20
-31.0421
11
65.4095
21
-30.6417
0
LINE
8
BLACK
6
CONTINUOUS
10
65.4095
20
-30.6417
11
65.325
21
-30.2167
0
LINE
8
BLACK
6
CONTINUOUS
10
65.325
20
-30.2167
11
65.325
21
-29.7833
0
LINE
8
BLACK
6
CONTINUOUS
10
65.325
20
-29.7833
11
65.4095
21
-29.3583
0
LINE
8
BLACK
6
CONTINUOUS
10
65.4095
20
-29.3583
11
65.5754
21
-28.9579
0
LINE
8
BLACK
6
CONTINUOUS
10
65.5754
20
-28.9579
11
65.8161
21
-28.5976
0
LINE
8
BLACK
6
CONTINUOUS
10
65.8161
20
-28.5976
11
66.1226
21
-28.2911
0
LINE
8
BLACK
6
CONTINUOUS
10
66.1226
20
-28.2911
11
66.4829
21
-28.0504
0
LINE
8
BLACK
6
CONTINUOUS
10
66.4829
20
-28.0504
11
66.8833
21
-27.8845
0
LINE
8
BLACK
6
CONTINUOUS
10
66.8833
20
-27.8845
11
67.3083
21
-27.8
0
LINE
8
BLACK
6
CONTINUOUS
10
67.3083
20
-27.8
11
67.7417
21
-27.8
0
LINE
8
BLACK
6
CONTINUOUS
10
67.7417
20
-27.8
11
68.1667
21
-27.8845
0
LINE
8
BLACK
6
CONTINUOUS
10
141.192
20
-27.8845
11
141.592
21
-28.0504
0
LINE
8
BLACK
6
CONTINUOUS
10
141.592
20
-28.0504
11
141.952
21
-28.2911
0
LINE
8
BLACK
6
CONTINUOUS
10
141.952
20
-28.2911
11
142.259
21
-28.5976
0
LINE
8
BLACK
6
CONTINUOUS
10
142.259
20
-28.5976
11
142.5
21
-28.9579
0
LINE
8
BLACK
6
CONTINUOUS
10
142.5
20
-28.9579
11
142.665
21
-29.3583
0
LINE
8
BLACK
6
CONTINUOUS
10
142.665
20
-29.3583
11
142.75
21
-29.7833
0
LINE
8
BLACK
6
CONTINUOUS
10
142.75
20
-29.7833
11
142.75
21
-30.2167
0
LINE
8
BLACK
6
CONTINUOUS
10
142.75
20
-30.2167
11
142.665
21
-30.6417
0
LINE
8
BLACK
6
CONTINUOUS
10
142.665
20
-30.6417
11
142.5
21
-31.0421
0
LINE
8
BLACK
6
CONTINUOUS
10
142.5
20
-31.0421
11
142.259
21
-31.4024
0
LINE
8
BLACK
6
CONTINUOUS
10
142.259
20
-31.4024
11
141.952
21
-31.7089
0
LINE
8
BLACK
6
CONTINUOUS
10
141.952
20
-31.7089
11
141.592
21
-31.9496
0
LINE
8
BLACK
6
CONTINUOUS
10
141.592
20
-31.9496
11
141.192
21
-32.1155
0
LINE
8
BLACK
6
CONTINUOUS
10
141.192
20
-32.1155
11
140.767
21
-32.2
0
LINE
8
BLACK
6
CONTINUOUS
10
140.767
20
-32.2
11
140.333
21
-32.2
0
LINE
8
BLACK
6
CONTINUOUS
10
140.333
20
-32.2
11
139.908
21
-32.1155
0
LINE
8
BLACK
6
CONTINUOUS
10
139.908
20
-32.1155
11
139.508
21
-31.9496
0
LINE
8
BLACK
6
CONTINUOUS
10
139.508
20
-31.9496
11
139.148
21
-31.7089
0
LINE
8
BLACK
6
CONTINUOUS
10
139.148
20
-31.7089
11
138.841
21
-31.4024
0
LINE
8
BLACK
6
CONTINUOUS
10
138.841
20
-31.4024
11
138.6
21
-31.0421
0
LINE
8
BLACK
6
CONTINUOUS
10
138.6
20
-31.0421
11
138.435
21
-30.6417
0
LINE
8
BLACK
6
CONTINUOUS
10
138.435
20
-30.6417
11
138.35
21
-30.2167
0
LINE
8
BLACK
6
CONTINUOUS
10
138.35
20
-30.2167
11
138.35
21
-29.7833
0
LINE
8
BLACK
6
CONTINUOUS
10
138.35
20
-29.7833
11
138.435
21
-29.3583
0
LINE
8
BLACK
6
CONTINUOUS
10
138.435
20
-29.3583
11
138.6
21
-28.9579
0
LINE
8
BLACK
6
CONTINUOUS
10
138.6
20
-28.9579
11
138.841
21
-28.5976
0
LINE
8
BLACK
6
CONTINUOUS
10
138.841
20
-28.5976
11
139.148
21
-28.2911
0
LINE
8
BLACK
6
CONTINUOUS
10
139.148
20
-28.2911
11
139.508
21
-28.0504
0
LINE
8
BLACK
6
CONTINUOUS
10
139.508
20
-28.0504
11
139.908
21
-27.8845
0
LINE
8
BLACK
6
CONTINUOUS
10
139.908
20
-27.8845
11
140.333
21
-27.8
0
LINE
8
BLACK
6
CONTINUOUS
10
140.333
20
-27.8
11
140.767
21
-27.8
0
LINE
8
BLACK
6
CONTINUOUS
10
140.767
20
-27.8
11
141.192
21
-27.8845
0
CIRCLE
8
BLACK
10
140.55
20
-86.975
40
1.1
0
CIRCLE
8
BLACK
10
67.525
20
-30
40
1.1
0
CIRCLE
8
BLACK
10
68.4
20
-129.1
40
1.1
0
CIRCLE
8
BLACK
10
87.5
20
-167.1
40
1.1
0
CIRCLE
8
BLACK
10
135
20
-148.1
40
1.1
0
CIRCLE
8
BLACK
10
67.525
20
-86.975
40
1.1
0
CIRCLE
8
BLACK
10
140.55
20
-30
40
1.1
  0
ENDSEC
  0
EOF
