M48
; DRILL file {KiCad (5.1.5)-3} date 2021-09-09 23:00:30
; FORMAT={-:-/ absolute / metric / decimal}
; #@! TF.CreationDate,2021-09-09T23:00:30-04:00
; #@! TF.GenerationSoftware,Kicad,Pcbnew,(5.1.5)-3
FMAT,2
METRIC
T1C0.400
T2C0.600
T3C0.700
T4C0.800
T5C0.900
T6C0.990
T7C1.000
T8C1.040
T9C1.100
T10C1.300
T11C1.470
T12C2.200
T13C1.750
T14C3.048
T15C3.988
%
G90
G05
T1
X65.15Y-109.05
X74.65Y-89.075
X78.9Y-112.3
X89.15Y-91.05
X182.9Y-198.55
X182.9Y-199.55
X182.9Y-200.55
X188.4Y-198.55
X188.4Y-199.55
X188.4Y-200.55
X195.262Y-204.912
X195.379Y-203.832
X195.925Y-202.994
X201.4Y-154.8
X205.9Y-65.225
X205.9Y-67.375
X207.15Y-203.3
X207.15Y-204.3
X207.15Y-205.3
X209.4Y-67.375
X209.431Y-102.079
X210.026Y-102.882
X210.724Y-103.598
X211.431Y-104.305
X221.15Y-130.8
X221.15Y-203.3
X221.15Y-204.3
X221.615Y-205.55
X224.4Y-66.3
X224.65Y-101.05
X225.15Y-101.995
X226.15Y-101.995
X226.4Y-203.55
X226.57Y-204.8
X226.57Y-205.8
X227.154Y-102.052
X228.152Y-102.116
X229.989Y-127.389
X230.0Y-123.7
X230.0Y-125.0
X230.0Y-126.3
X230.65Y-65.05
X241.513Y-99.287
X243.0Y-126.1
X244.65Y-214.05
X245.3Y-123.2
X245.65Y-130.3
X246.15Y-216.95
X247.15Y-128.8
X247.925Y-119.9
X248.892Y-203.808
X249.642Y-204.558
X250.392Y-205.308
X251.175Y-128.8
X251.3Y-110.825
X252.15Y-200.55
X252.65Y-65.05
X252.982Y-201.275
X254.413Y-204.037
X254.9Y-126.3
X255.65Y-65.05
X258.15Y-199.05
X258.65Y-203.8
X259.615Y-123.55
X261.165Y-197.05
X262.15Y-216.3
X262.4Y-207.05
X266.15Y-121.3
X266.65Y-201.3
X266.9Y-216.8
X268.7Y-112.1
X271.082Y-200.118
X271.15Y-121.55
X272.65Y-195.3
X273.4Y-216.8
X273.9Y-116.8
X274.15Y-79.05
X274.15Y-85.05
X274.15Y-193.8
X274.537Y-196.663
X274.65Y-71.3
X274.65Y-83.05
X274.9Y-75.55
X274.9Y-86.05
X274.9Y-216.3
X275.92Y-189.05
X276.15Y-86.3
X277.15Y-184.8
X277.892Y-216.558
X279.15Y-84.05
X279.15Y-90.8
X279.65Y-71.3
X280.215Y-193.55
X281.15Y-89.3
X281.4Y-75.8
X281.65Y-206.55
X282.4Y-181.05
X283.0Y-129.7
X283.4Y-74.05
X283.4Y-75.05
X283.9Y-182.3
X284.062Y-75.8
X284.9Y-216.8
X285.65Y-179.55
X286.65Y-196.8
X287.3Y-215.6
X287.425Y-115.55
X287.481Y-178.469
X288.4Y-208.55
X289.1Y-73.2
X289.15Y-183.3
X289.65Y-113.3
X290.4Y-189.8
X290.65Y-201.05
X290.9Y-179.3
X291.65Y-185.8
X291.7Y-69.4
X292.9Y-217.55
X293.4Y-87.05
X293.65Y-67.05
X293.9Y-217.55
X294.625Y-215.6
X294.9Y-195.05
X295.613Y-150.487
X296.9Y-66.3
X296.9Y-191.8
X297.4Y-181.3
X297.9Y-67.2
X298.5Y-94.2
X299.8Y-152.3
X299.8Y-157.8
X299.9Y-69.4
X299.9Y-72.2
X301.1Y-91.6
X301.9Y-173.05
X301.9Y-189.05
X303.15Y-173.8
X304.15Y-169.8
X304.4Y-116.3
X304.65Y-128.025
X304.9Y-170.55
X305.65Y-171.3
X305.9Y-81.05
X306.15Y-172.55
X306.3Y-69.4
X306.9Y-81.8
X308.1Y-169.4
X308.4Y-125.8
X310.15Y-123.3
X310.7Y-168.4
X315.4Y-91.55
X315.9Y-109.55
X316.15Y-74.3
X317.15Y-73.8
X318.15Y-78.05
X318.8Y-134.8
X319.95Y-140.5
X320.3Y-202.4
X320.5Y-64.8
X320.5Y-68.8
X320.9Y-121.55
X321.15Y-110.325
X321.65Y-116.65
X321.9Y-123.6
X322.15Y-110.8
X323.1Y-89.0
X323.3Y-111.825
X323.3Y-106.4
X323.5Y-92.4
X323.7Y-101.525
X324.3Y-98.475
X325.1Y-202.8
X325.4Y-158.8
X325.65Y-107.05
X326.15Y-74.3
X326.65Y-106.125
X328.195Y-119.177
X328.25Y-144.7
X328.3Y-94.575
X329.15Y-70.3
X329.15Y-143.625
X329.7Y-165.15
X329.9Y-78.55
X330.011Y-101.525
X330.5Y-121.4
X330.8Y-162.1
X331.7Y-182.9
X332.175Y-135.8
X333.15Y-95.3
X335.15Y-74.125
X335.4Y-101.3
X335.424Y-144.026
X335.5Y-89.4
X335.65Y-139.55
X336.15Y-98.475
X336.4Y-106.55
X336.65Y-79.05
X336.65Y-101.3
X337.15Y-80.8
X337.65Y-101.3
X338.4Y-78.8
X338.637Y-150.563
X338.65Y-101.3
X338.9Y-120.8
X339.3Y-88.0
X339.546Y-73.8
X339.65Y-101.55
X339.65Y-151.8
X339.9Y-94.3
X340.038Y-82.662
X340.4Y-93.3
X340.9Y-78.8
X341.15Y-109.05
X341.75Y-70.1
X341.75Y-71.15
X341.75Y-72.45
X341.8Y-73.65
X341.8Y-74.85
X341.9Y-93.3
X341.9Y-97.55
X342.35Y-139.4
X342.4Y-103.225
X343.2Y-183.75
X343.4Y-93.3
X343.4Y-97.55
X343.45Y-162.85
X344.01Y-90.2
X344.534Y-101.916
X344.65Y-97.55
X344.788Y-91.912
X345.4Y-142.3
X345.5Y-78.4
X345.65Y-93.8
X345.9Y-97.55
X346.4Y-90.05
X346.65Y-92.55
X349.605Y-130.009
X349.694Y-106.925
X350.771Y-108.18
X352.9Y-107.55
X353.65Y-108.8
X359.5Y-166.5
X362.875Y-108.55
X208.92Y-63.975
X208.925Y-65.3
X209.77Y-63.975
X209.775Y-65.3
X210.62Y-63.975
X210.625Y-65.3
X211.47Y-63.975
X211.475Y-65.3
X212.32Y-63.975
X212.325Y-65.3
X213.17Y-63.975
X213.175Y-65.3
X214.02Y-63.975
X214.025Y-65.3
X214.875Y-63.975
X214.875Y-65.3
T2
X220.9Y-63.3
X222.4Y-63.3
T3
X164.9Y-71.18
X164.9Y-78.8
X112.4Y-71.18
X112.4Y-78.8
X207.4Y-69.18
X207.4Y-76.8
X197.4Y-73.18
X197.4Y-80.8
X99.9Y-73.18
X99.9Y-80.8
X92.4Y-73.18
X92.4Y-80.8
X87.4Y-69.18
X87.4Y-76.8
X104.9Y-71.18
X104.9Y-78.8
X139.9Y-69.18
X139.9Y-76.8
X172.4Y-71.18
X172.4Y-78.8
X167.4Y-73.18
X167.4Y-80.8
X239.58Y-61.3
X247.2Y-61.3
X244.9Y-69.18
X244.9Y-76.8
X277.78Y-89.3
X285.4Y-89.3
X162.4Y-69.18
X162.4Y-76.8
X217.4Y-71.18
X217.4Y-78.8
X204.9Y-73.18
X204.9Y-80.8
X222.4Y-69.18
X222.4Y-76.8
X227.4Y-73.18
X227.4Y-80.8
X262.4Y-71.18
X262.4Y-78.8
X102.4Y-69.18
X102.4Y-76.8
X117.4Y-69.18
X117.4Y-76.8
X154.9Y-69.18
X154.9Y-76.8
X277.78Y-64.8
X285.4Y-64.8
X159.9Y-73.18
X159.9Y-80.8
X67.4Y-71.18
X67.4Y-78.8
X239.58Y-64.8
X247.2Y-64.8
X257.4Y-73.18
X257.4Y-80.8
X147.4Y-69.18
X147.4Y-76.8
X232.4Y-71.18
X232.4Y-78.8
X234.9Y-73.18
X234.9Y-80.8
X249.9Y-73.18
X249.9Y-80.8
X272.4Y-73.18
X272.4Y-80.8
X69.9Y-73.18
X69.9Y-80.8
X84.9Y-73.18
X84.9Y-80.8
X82.4Y-71.18
X82.4Y-78.8
X127.4Y-71.18
X127.4Y-78.8
X194.9Y-71.18
X194.9Y-78.8
X184.9Y-69.18
X184.9Y-76.8
X224.9Y-71.18
X224.9Y-78.8
X277.78Y-78.8
X285.4Y-78.8
X264.9Y-73.18
X264.9Y-80.8
X277.78Y-68.05
X285.4Y-68.05
X144.9Y-73.18
X144.9Y-80.8
X97.4Y-71.18
X97.4Y-78.8
X202.4Y-71.18
X202.4Y-78.8
X192.4Y-69.18
X192.4Y-76.8
X157.4Y-71.18
X157.4Y-78.8
X252.4Y-69.18
X252.4Y-76.8
X182.4Y-73.18
X182.4Y-80.8
X239.9Y-71.18
X239.9Y-78.8
X89.9Y-71.18
X89.9Y-78.8
X94.9Y-69.18
X94.9Y-76.8
X277.78Y-85.8
X285.4Y-85.8
X174.9Y-73.18
X174.9Y-80.8
X277.78Y-82.3
X285.4Y-82.3
X214.9Y-69.18
X214.9Y-76.8
X124.9Y-69.18
X124.9Y-76.8
X137.4Y-73.18
X137.4Y-80.8
X177.4Y-69.18
X177.4Y-76.8
X237.4Y-69.18
X237.4Y-76.8
X77.4Y-73.18
X77.4Y-80.8
X169.9Y-69.18
X169.9Y-76.8
X107.4Y-73.18
X107.4Y-80.8
X79.9Y-69.18
X79.9Y-76.8
X179.9Y-71.18
X179.9Y-78.8
X229.9Y-69.18
X229.9Y-76.8
X134.9Y-71.18
X134.9Y-78.8
X74.9Y-71.18
X74.9Y-78.8
X149.9Y-71.18
X149.9Y-78.8
X247.4Y-71.18
X247.4Y-78.8
X129.9Y-73.18
X129.9Y-80.8
X152.4Y-73.18
X152.4Y-80.8
X132.4Y-69.18
X132.4Y-76.8
X242.4Y-73.18
X242.4Y-80.8
X114.9Y-73.18
X114.9Y-80.8
X254.9Y-71.18
X254.9Y-78.8
X109.9Y-69.18
X109.9Y-76.8
X292.4Y-82.23
X292.4Y-89.85
X72.4Y-69.18
X72.4Y-76.8
X187.4Y-71.18
X187.4Y-78.8
X219.9Y-73.18
X219.9Y-80.8
X189.9Y-73.18
X189.9Y-80.8
X269.9Y-71.18
X269.9Y-78.8
X142.4Y-71.18
X142.4Y-78.8
X119.9Y-71.18
X119.9Y-78.8
X259.9Y-69.18
X259.9Y-76.8
X212.4Y-73.18
X212.4Y-80.8
X209.9Y-71.18
X209.9Y-78.8
X64.9Y-69.18
X64.9Y-76.8
X288.9Y-82.18
X288.9Y-89.8
X199.9Y-69.18
X199.9Y-76.8
X122.4Y-73.18
X122.4Y-80.8
X267.4Y-69.18
X267.4Y-76.8
T4
X325.4Y-84.05
X330.28Y-84.05
X289.25Y-70.8
X289.25Y-75.8
X179.9Y-83.8
X179.9Y-91.42
X74.9Y-91.8
X74.9Y-99.42
X89.9Y-85.8
X89.9Y-93.42
X72.4Y-89.8
X72.4Y-97.42
X117.4Y-85.8
X117.4Y-93.42
X257.4Y-85.8
X257.4Y-93.42
X252.4Y-93.8
X252.4Y-101.42
X214.9Y-87.8
X214.9Y-95.42
X249.9Y-91.8
X249.9Y-99.42
X184.9Y-87.8
X184.9Y-95.42
X237.4Y-93.8
X237.4Y-101.42
X234.9Y-91.8
X234.9Y-99.42
X124.9Y-91.8
X124.9Y-99.42
X152.4Y-93.8
X152.4Y-101.42
X319.9Y-82.55
X319.9Y-85.05
X142.4Y-85.8
X142.4Y-93.42
X226.25Y-61.3
X233.87Y-61.3
X227.4Y-85.8
X227.4Y-93.42
X129.9Y-85.8
X129.9Y-93.42
X199.9Y-87.8
X199.9Y-95.42
X157.4Y-85.8
X157.4Y-93.42
X109.9Y-89.8
X109.9Y-97.42
X137.4Y-91.8
X137.4Y-99.42
X242.4Y-85.8
X242.4Y-93.42
X196.5Y-61.15
X196.5Y-66.15
X92.4Y-87.8
X92.4Y-95.42
X99.9Y-93.8
X99.9Y-101.42
X222.4Y-93.8
X222.4Y-101.42
X289.25Y-63.05
X289.25Y-68.05
X127.4Y-83.8
X127.4Y-91.42
X262.4Y-85.8
X262.4Y-93.42
X169.9Y-85.8
X169.9Y-93.42
X264.9Y-87.8
X264.9Y-95.42
X182.4Y-85.8
X182.4Y-93.42
X162.4Y-89.8
X162.4Y-97.42
X149.9Y-91.8
X149.9Y-99.42
X174.9Y-89.8
X174.9Y-97.42
X84.9Y-87.8
X84.9Y-95.42
X244.9Y-87.8
X244.9Y-95.42
X219.9Y-91.8
X219.9Y-99.42
X154.9Y-83.8
X154.9Y-91.42
X259.9Y-83.8
X259.9Y-91.42
X226.25Y-64.9
X233.87Y-64.9
X69.9Y-87.8
X69.9Y-95.42
X67.4Y-85.8
X67.4Y-93.42
X232.4Y-89.8
X232.4Y-97.42
X114.9Y-83.8
X114.9Y-91.42
X147.4Y-89.8
X147.4Y-97.42
X164.9Y-91.8
X164.9Y-99.42
X112.4Y-91.8
X112.4Y-99.42
X122.4Y-89.8
X122.4Y-97.42
X269.9Y-91.8
X269.9Y-99.42
X293.9Y-61.81
X293.9Y-77.05
X296.44Y-61.81
X296.44Y-77.05
X298.98Y-61.81
X298.98Y-77.05
X301.52Y-61.81
X301.52Y-77.05
X304.06Y-61.81
X304.06Y-77.05
X306.6Y-61.81
X306.6Y-77.05
X309.14Y-61.81
X309.14Y-77.05
X311.68Y-61.81
X311.68Y-77.05
X314.22Y-61.81
X314.22Y-77.05
X316.76Y-61.81
X316.76Y-77.05
X319.3Y-61.81
X319.3Y-77.05
X321.84Y-61.81
X321.84Y-77.05
X324.38Y-61.81
X324.38Y-77.05
X326.92Y-61.81
X326.92Y-77.05
X329.46Y-61.81
X329.46Y-77.05
X332.0Y-61.81
X332.0Y-77.05
X334.54Y-61.81
X334.54Y-77.05
X337.08Y-61.81
X337.08Y-77.05
X339.62Y-61.81
X339.62Y-77.05
X342.16Y-61.81
X342.16Y-77.05
X97.4Y-91.8
X97.4Y-99.42
X194.9Y-83.8
X194.9Y-91.42
X139.9Y-83.8
X139.9Y-91.42
X277.78Y-61.3
X285.4Y-61.3
X167.4Y-83.8
X167.4Y-91.42
X132.4Y-87.8
X132.4Y-95.42
X102.4Y-83.8
X102.4Y-91.42
X202.4Y-89.8
X202.4Y-97.42
X64.9Y-83.8
X64.9Y-91.42
X94.9Y-89.8
X94.9Y-97.42
X172.4Y-87.8
X172.4Y-95.42
X267.4Y-89.8
X267.4Y-97.42
X189.9Y-91.8
X189.9Y-99.42
X77.4Y-93.8
X77.4Y-101.42
X209.9Y-83.8
X209.9Y-91.42
X224.9Y-83.8
X224.9Y-91.42
X254.9Y-83.8
X254.9Y-91.42
X144.9Y-87.8
X144.9Y-95.42
X239.9Y-83.8
X239.9Y-91.42
X217.4Y-89.8
X217.4Y-97.42
X79.9Y-83.8
X79.9Y-91.42
X159.9Y-87.8
X159.9Y-95.42
X134.9Y-89.8
X134.9Y-97.42
X177.4Y-91.8
X177.4Y-99.42
X82.4Y-85.8
X82.4Y-93.42
X107.4Y-87.8
X107.4Y-95.42
X207.4Y-93.8
X207.4Y-101.42
X192.4Y-93.8
X192.4Y-101.42
X197.4Y-85.8
X197.4Y-93.42
X335.9Y-82.55
X335.9Y-85.05
X187.4Y-89.8
X187.4Y-97.42
X87.4Y-83.8
X87.4Y-91.42
X247.4Y-89.8
X247.4Y-97.42
X104.9Y-85.8
X104.9Y-93.42
X229.9Y-87.8
X229.9Y-95.42
X212.4Y-85.8
X212.4Y-93.42
X204.9Y-91.8
X204.9Y-99.42
X119.9Y-87.8
X119.9Y-95.42
X272.4Y-93.8
X272.4Y-101.42
T5
X348.4Y-66.8
X350.94Y-66.8
X201.15Y-63.3
X203.69Y-63.3
T6
X83.9Y-61.8
X88.4Y-61.8
T7
X280.9Y-93.3
X280.9Y-95.84
X280.9Y-98.38
X283.44Y-93.3
X283.44Y-95.84
X283.44Y-98.38
X351.02Y-73.325
X351.02Y-75.865
X351.02Y-78.405
X351.02Y-80.945
X351.02Y-83.485
X351.02Y-86.025
X351.02Y-88.565
X351.02Y-91.105
X353.56Y-73.325
X353.56Y-75.865
X353.56Y-78.405
X353.56Y-80.945
X353.56Y-83.485
X353.56Y-86.025
X353.56Y-88.565
X353.56Y-91.105
T8
X124.88Y-119.73
X127.42Y-119.73
X315.33Y-119.73
X317.87Y-119.73
X334.38Y-195.93
X336.92Y-195.93
X134.38Y-157.83
X136.92Y-157.83
X224.88Y-195.93
X227.42Y-195.93
X196.33Y-176.88
X198.87Y-176.88
X79.63Y-195.93
X82.17Y-195.93
X220.13Y-138.78
X222.67Y-138.78
X115.33Y-157.83
X117.87Y-157.83
X101.08Y-176.88
X103.62Y-176.88
X334.38Y-214.98
X336.92Y-214.98
X353.43Y-119.73
X355.97Y-119.73
X162.98Y-138.78
X165.52Y-138.78
X162.98Y-119.73
X165.52Y-119.73
X143.93Y-119.73
X146.47Y-119.73
X129.63Y-195.93
X132.17Y-195.93
X305.78Y-157.83
X308.32Y-157.83
X308.18Y-195.93
X310.72Y-195.93
X324.88Y-138.78
X327.42Y-138.78
X243.93Y-195.93
X246.47Y-195.93
X239.18Y-138.78
X241.72Y-138.78
X191.53Y-157.83
X194.07Y-157.83
X177.28Y-176.88
X179.82Y-176.88
X248.68Y-157.83
X251.22Y-157.83
X353.43Y-214.98
X355.97Y-214.98
X124.88Y-138.78
X127.42Y-138.78
X86.78Y-119.73
X89.32Y-119.73
X186.78Y-195.93
X189.32Y-195.93
X74.88Y-176.88
X77.42Y-176.88
X70.08Y-214.98
X72.62Y-214.98
X234.43Y-176.88
X236.97Y-176.88
X282.03Y-195.93
X284.57Y-195.93
X296.33Y-138.78
X298.87Y-138.78
X272.53Y-176.88
X275.07Y-176.88
X158.23Y-176.88
X160.77Y-176.88
X117.68Y-214.98
X120.22Y-214.98
X220.13Y-119.73
X222.67Y-119.73
X143.93Y-138.78
X146.47Y-138.78
X182.03Y-119.73
X184.57Y-119.73
X205.83Y-195.93
X208.37Y-195.93
X329.63Y-157.83
X332.17Y-157.83
X262.98Y-195.93
X265.52Y-195.93
X253.48Y-176.88
X256.02Y-176.88
X353.43Y-138.78
X355.97Y-138.78
X120.13Y-176.88
X122.67Y-176.88
X229.63Y-157.83
X232.17Y-157.83
X315.28Y-214.98
X317.82Y-214.98
X277.28Y-119.73
X279.82Y-119.73
X296.33Y-119.73
X298.87Y-119.73
X139.18Y-176.88
X141.72Y-176.88
X167.73Y-195.93
X170.27Y-195.93
X153.43Y-157.83
X155.97Y-157.83
X93.88Y-214.98
X96.42Y-214.98
X182.03Y-138.78
X184.57Y-138.78
X72.48Y-157.83
X75.02Y-157.83
X96.28Y-157.83
X98.82Y-157.83
X215.38Y-176.88
X217.92Y-176.88
X189.08Y-214.98
X191.62Y-214.98
X277.18Y-214.98
X279.72Y-214.98
X67.73Y-119.73
X70.27Y-119.73
X334.38Y-119.73
X336.92Y-119.73
X291.58Y-176.88
X294.12Y-176.88
X148.68Y-195.93
X151.22Y-195.93
X277.28Y-138.78
X279.82Y-138.78
X322.53Y-176.88
X325.07Y-176.88
X201.08Y-138.78
X203.62Y-138.78
X210.58Y-157.83
X213.12Y-157.83
X172.48Y-157.83
X175.02Y-157.83
X258.13Y-214.98
X260.67Y-214.98
X239.18Y-119.73
X241.72Y-119.73
X258.23Y-119.73
X260.77Y-119.73
X105.83Y-119.73
X108.37Y-119.73
X67.73Y-138.78
X70.27Y-138.78
X110.53Y-195.93
X113.07Y-195.93
X353.43Y-157.83
X355.97Y-157.83
X353.43Y-195.93
X355.97Y-195.93
X267.68Y-157.83
X270.22Y-157.83
X353.43Y-176.88
X355.97Y-176.88
X258.23Y-138.78
X260.77Y-138.78
X86.78Y-138.78
X89.32Y-138.78
X286.73Y-157.83
X289.27Y-157.83
X201.08Y-119.73
X203.62Y-119.73
X296.28Y-214.98
X298.82Y-214.98
X105.83Y-138.78
X108.37Y-138.78
T9
X297.5Y-83.4
X297.5Y-85.94
X297.5Y-88.48
X288.9Y-95.05
X288.9Y-99.55
X295.4Y-95.05
X295.4Y-99.55
X300.7Y-95.05
X300.7Y-99.55
X307.2Y-95.05
X307.2Y-99.55
T10
X82.65Y-64.29
X89.66Y-64.29
T11
X141.39Y-131.16
X147.74Y-128.62
X179.49Y-112.11
X185.84Y-109.57
X203.29Y-188.31
X209.64Y-185.77
X327.09Y-150.21
X333.44Y-147.67
X260.44Y-188.31
X266.79Y-185.77
X250.94Y-169.26
X257.29Y-166.72
X350.89Y-131.16
X357.24Y-128.62
X117.59Y-169.26
X123.94Y-166.72
X227.09Y-150.21
X233.44Y-147.67
X312.74Y-207.36
X319.09Y-204.82
X274.74Y-112.11
X281.09Y-109.57
X293.79Y-112.11
X300.14Y-109.57
X136.64Y-169.26
X142.99Y-166.72
X165.19Y-188.31
X171.54Y-185.77
X150.89Y-150.21
X157.24Y-147.67
X91.34Y-207.36
X97.69Y-204.82
X179.49Y-131.16
X185.84Y-128.62
X69.94Y-150.21
X76.29Y-147.67
X93.74Y-150.21
X100.09Y-147.67
X212.84Y-169.26
X219.19Y-166.72
X186.54Y-207.36
X192.89Y-204.82
X274.64Y-207.36
X280.99Y-204.82
X65.19Y-112.11
X71.54Y-109.57
X331.84Y-112.11
X338.19Y-109.57
X289.04Y-169.26
X295.39Y-166.72
X146.14Y-188.31
X152.49Y-185.77
X274.74Y-131.16
X281.09Y-128.62
X319.99Y-169.26
X326.34Y-166.72
X198.54Y-131.16
X204.89Y-128.62
X208.04Y-150.21
X214.39Y-147.67
X169.94Y-150.21
X176.29Y-147.67
X255.59Y-207.36
X261.94Y-204.82
X236.64Y-112.11
X242.99Y-109.57
X255.69Y-112.11
X262.04Y-109.57
X103.29Y-112.11
X109.64Y-109.57
X65.19Y-131.16
X71.54Y-128.62
X107.99Y-188.31
X114.34Y-185.77
X350.89Y-150.21
X357.24Y-147.67
X350.89Y-188.31
X357.24Y-185.77
X265.14Y-150.21
X271.49Y-147.67
X350.89Y-169.26
X357.24Y-166.72
X255.69Y-131.16
X262.04Y-128.62
X84.24Y-131.16
X90.59Y-128.62
X284.19Y-150.21
X290.54Y-147.67
X198.54Y-112.11
X204.89Y-109.57
X293.74Y-207.36
X300.09Y-204.82
X103.29Y-131.16
X109.64Y-128.62
X122.34Y-112.11
X128.69Y-109.57
X312.79Y-112.11
X319.14Y-109.57
X331.84Y-188.31
X338.19Y-185.77
X131.84Y-150.21
X138.19Y-147.67
X222.34Y-188.31
X228.69Y-185.77
X193.79Y-169.26
X200.14Y-166.72
X77.09Y-188.31
X83.44Y-185.77
X217.59Y-131.16
X223.94Y-128.62
X112.79Y-150.21
X119.14Y-147.67
X98.54Y-169.26
X104.89Y-166.72
X331.84Y-207.36
X338.19Y-204.82
X350.89Y-112.11
X357.24Y-109.57
X160.44Y-131.16
X166.79Y-128.62
X160.44Y-112.11
X166.79Y-109.57
X141.39Y-112.11
X147.74Y-109.57
X127.09Y-188.31
X133.44Y-185.77
X303.24Y-150.21
X309.59Y-147.67
X305.64Y-188.31
X311.99Y-185.77
X322.34Y-131.16
X328.69Y-128.62
X241.39Y-188.31
X247.74Y-185.77
X236.64Y-131.16
X242.99Y-128.62
X188.99Y-150.21
X195.34Y-147.67
X174.74Y-169.26
X181.09Y-166.72
X246.14Y-150.21
X252.49Y-147.67
X350.89Y-207.36
X357.24Y-204.82
X122.34Y-131.16
X128.69Y-128.62
X84.24Y-112.11
X90.59Y-109.57
X184.24Y-188.31
X190.59Y-185.77
X72.34Y-169.26
X78.69Y-166.72
X67.54Y-207.36
X73.89Y-204.82
X231.89Y-169.26
X238.24Y-166.72
X279.49Y-188.31
X285.84Y-185.77
X293.79Y-131.16
X300.14Y-128.62
X269.99Y-169.26
X276.34Y-166.72
X155.69Y-169.26
X162.04Y-166.72
X115.14Y-207.36
X121.49Y-204.82
X217.59Y-112.11
X223.94Y-109.57
T12
X264.3Y-101.2
X264.3Y-63.2
X160.5Y-63.2
X360.3Y-101.2
X78.5Y-124.1
X211.8Y-124.192
X83.2Y-209.892
X63.5Y-101.2
X216.6Y-209.992
X63.5Y-63.2
X345.2Y-124.192
X345.2Y-200.292
X360.3Y-63.2
X160.5Y-101.2
T13
X330.57Y-190.85
X340.73Y-190.85
X130.57Y-152.75
X140.73Y-152.75
X221.07Y-190.85
X231.23Y-190.85
X192.52Y-171.8
X202.68Y-171.8
X75.82Y-190.85
X85.98Y-190.85
X216.32Y-133.7
X226.48Y-133.7
X111.52Y-152.75
X121.68Y-152.75
X97.27Y-171.8
X107.43Y-171.8
X330.57Y-209.9
X340.73Y-209.9
X349.62Y-114.65
X359.78Y-114.65
X159.17Y-133.7
X169.33Y-133.7
X159.17Y-114.65
X169.33Y-114.65
X140.12Y-114.65
X150.28Y-114.65
X125.82Y-190.85
X135.98Y-190.85
X301.97Y-152.75
X312.13Y-152.75
X304.37Y-190.85
X314.53Y-190.85
X321.07Y-133.7
X331.23Y-133.7
X240.12Y-190.85
X250.28Y-190.85
X235.37Y-133.7
X245.53Y-133.7
X187.72Y-152.75
X197.88Y-152.75
X173.47Y-171.8
X183.63Y-171.8
X244.87Y-152.75
X255.03Y-152.75
X349.62Y-209.9
X359.78Y-209.9
X121.07Y-133.7
X131.23Y-133.7
X82.97Y-114.65
X93.13Y-114.65
X182.97Y-190.85
X193.13Y-190.85
X71.07Y-171.8
X81.23Y-171.8
X66.27Y-209.9
X76.43Y-209.9
X230.62Y-171.8
X240.78Y-171.8
X278.22Y-190.85
X288.38Y-190.85
X292.52Y-133.7
X302.68Y-133.7
X268.72Y-171.8
X278.88Y-171.8
X154.42Y-171.8
X164.58Y-171.8
X113.87Y-209.9
X124.03Y-209.9
X216.32Y-114.65
X226.48Y-114.65
X140.12Y-133.7
X150.28Y-133.7
X178.22Y-114.65
X188.38Y-114.65
X202.02Y-190.85
X212.18Y-190.85
X325.82Y-152.75
X335.98Y-152.75
X259.17Y-190.85
X269.33Y-190.85
X249.67Y-171.8
X259.83Y-171.8
X349.62Y-133.7
X359.78Y-133.7
X116.32Y-171.8
X126.48Y-171.8
X225.82Y-152.75
X235.98Y-152.75
X311.47Y-209.9
X321.63Y-209.9
X273.47Y-114.65
X283.63Y-114.65
X292.52Y-114.65
X302.68Y-114.65
X135.37Y-171.8
X145.53Y-171.8
X163.92Y-190.85
X174.08Y-190.85
X149.62Y-152.75
X159.78Y-152.75
X90.07Y-209.9
X100.23Y-209.9
X178.22Y-133.7
X188.38Y-133.7
X68.67Y-152.75
X78.83Y-152.75
X92.47Y-152.75
X102.63Y-152.75
X211.57Y-171.8
X221.73Y-171.8
X185.27Y-209.9
X195.43Y-209.9
X273.37Y-209.9
X283.53Y-209.9
X63.92Y-114.65
X74.08Y-114.65
X330.57Y-114.65
X340.73Y-114.65
X287.77Y-171.8
X297.93Y-171.8
X144.87Y-190.85
X155.03Y-190.85
X273.47Y-133.7
X283.63Y-133.7
X318.72Y-171.8
X328.88Y-171.8
X197.27Y-133.7
X207.43Y-133.7
X206.77Y-152.75
X216.93Y-152.75
X168.67Y-152.75
X178.83Y-152.75
X254.32Y-209.9
X264.48Y-209.9
X235.37Y-114.65
X245.53Y-114.65
X254.42Y-114.65
X264.58Y-114.65
X102.02Y-114.65
X112.18Y-114.65
X63.92Y-133.7
X74.08Y-133.7
X106.72Y-190.85
X116.88Y-190.85
X349.62Y-152.75
X359.78Y-152.75
X349.62Y-190.85
X359.78Y-190.85
X263.87Y-152.75
X274.03Y-152.75
X349.62Y-171.8
X359.78Y-171.8
X254.42Y-133.7
X264.58Y-133.7
X82.97Y-133.7
X93.13Y-133.7
X282.92Y-152.75
X293.08Y-152.75
X197.27Y-114.65
X207.43Y-114.65
X292.47Y-209.9
X302.63Y-209.9
X102.02Y-133.7
X112.18Y-133.7
X121.07Y-114.65
X131.23Y-114.65
X311.52Y-114.65
X321.68Y-114.65
T14
X140.35Y-216.885
X240.35Y-216.885
X311.862Y-164.815
X335.738Y-164.815
X68.962Y-183.865
X92.838Y-183.865
X314.212Y-126.715
X338.088Y-126.715
T15
X188.05Y-190.85
X76.15Y-171.8
X71.35Y-209.9
X235.7Y-171.8
X283.3Y-190.85
X297.6Y-133.7
X273.8Y-171.8
X159.5Y-171.8
X118.95Y-209.9
X221.4Y-114.65
X145.2Y-133.7
X183.3Y-114.65
X207.1Y-190.85
X330.9Y-152.75
X264.25Y-190.85
X254.75Y-171.8
X354.7Y-133.7
X121.4Y-171.8
X230.9Y-152.75
X316.55Y-209.9
X278.55Y-114.65
X297.6Y-114.65
X140.45Y-171.8
X169.0Y-190.85
X154.7Y-152.75
X95.15Y-209.9
X183.3Y-133.7
X73.75Y-152.75
X97.55Y-152.75
X216.65Y-171.8
X140.35Y-201.645
X190.35Y-209.9
X240.35Y-201.645
X278.45Y-209.9
X69.0Y-114.65
X335.65Y-114.65
X292.85Y-171.8
X149.95Y-190.85
X278.55Y-133.7
X311.862Y-180.055
X323.8Y-171.8
X335.738Y-180.055
X202.35Y-133.7
X211.85Y-152.75
X173.75Y-152.75
X259.4Y-209.9
X240.45Y-114.65
X259.5Y-114.65
X107.1Y-114.65
X69.0Y-133.7
X111.8Y-190.85
X354.7Y-152.75
X354.7Y-190.85
X268.95Y-152.75
X354.7Y-171.8
X259.5Y-133.7
X88.05Y-133.7
X288.0Y-152.75
X202.35Y-114.65
X297.55Y-209.9
X107.1Y-133.7
X126.15Y-114.65
X316.6Y-114.65
X335.65Y-190.85
X135.65Y-152.75
X226.15Y-190.85
X197.6Y-171.8
X68.962Y-199.105
X80.9Y-190.85
X92.838Y-199.105
X221.4Y-133.7
X116.6Y-152.75
X102.35Y-171.8
X335.65Y-209.9
X354.7Y-114.65
X164.25Y-133.7
X164.25Y-114.65
X145.2Y-114.65
X130.9Y-190.85
X307.05Y-152.75
X309.45Y-190.85
X314.212Y-141.955
X326.15Y-133.7
X338.088Y-141.955
X245.2Y-190.85
X240.45Y-133.7
X192.8Y-152.75
X178.55Y-171.8
X249.95Y-152.75
X354.7Y-209.9
X126.15Y-133.7
X88.05Y-114.65
T2
X207.575Y-61.34G85X207.575Y-60.54
G05
X207.575Y-65.07G85X207.575Y-63.57
G05
X216.225Y-61.34G85X216.225Y-60.54
G05
X216.225Y-65.07G85X216.225Y-63.57
G05
T0
M30
